M48
; DRILL file {KiCad (6.0.6)} date Tue Jul  5 22:31:04 2022
; FORMAT={-:-/ absolute / metric / decimal}
; #@! TF.CreationDate,2022-07-05T22:31:04+09:00
; #@! TF.GenerationSoftware,Kicad,Pcbnew,(6.0.6)
; #@! TF.FileFunction,MixedPlating,1,2
FMAT,2
METRIC
; #@! TA.AperFunction,Plated,PTH,ViaDrill
T1C0.300
; #@! TA.AperFunction,Plated,PTH,ViaDrill
T2C0.400
; #@! TA.AperFunction,Plated,PTH,ComponentDrill
T3C0.762
; #@! TA.AperFunction,Plated,PTH,ComponentDrill
T4C0.950
; #@! TA.AperFunction,Plated,PTH,ComponentDrill
T5C1.000
; #@! TA.AperFunction,Plated,PTH,ComponentDrill
T6C1.320
; #@! TA.AperFunction,Plated,PTH,ComponentDrill
T7C1.600
; #@! TA.AperFunction,Plated,PTH,ComponentDrill
T8C3.200
%
G90
G05
T1
X138.6Y-95.03
T2
X92.7Y-110.55
X100.6Y-62.6
X105.2Y-64.8
X122.45Y-122.32
X126.19Y-94.74
X132.03Y-90.22
X144.28Y-94.52
X147.7Y-110.05
X150.46Y-86.03
X153.4Y-108.8
X155.2Y-103.8
X155.375Y-104.975
T3
X167.62Y-104.975
X170.16Y-104.975
X172.7Y-104.975
X175.2Y-110.65
X175.2Y-112.8
X175.2Y-114.8
X175.2Y-116.8
X175.2Y-118.95
T4
X91.52Y-58.412
X94.02Y-58.412
X96.52Y-58.412
X99.02Y-58.412
X101.52Y-58.412
X129.54Y-68.58
X129.54Y-71.08
X129.54Y-73.58
X129.54Y-76.08
X129.54Y-78.58
X152.48Y-58.412
X154.98Y-58.412
X157.48Y-58.412
X159.98Y-58.412
X162.48Y-58.412
T5
X111.76Y-66.04
X111.76Y-68.58
X111.76Y-71.12
X111.76Y-73.66
X111.76Y-76.2
X111.76Y-78.74
X111.76Y-81.28
X111.76Y-83.82
X111.76Y-86.36
X111.76Y-88.9
X111.76Y-91.44
X111.76Y-93.98
X111.76Y-96.52
X111.76Y-99.06
X111.76Y-101.6
X111.76Y-104.14
X111.76Y-106.68
X111.76Y-109.22
X111.76Y-111.76
X111.76Y-114.3
X114.3Y-66.04
X114.3Y-68.58
X114.3Y-71.12
X114.3Y-73.66
X114.3Y-76.2
X114.3Y-78.74
X114.3Y-81.28
X114.3Y-83.82
X114.3Y-86.36
X114.3Y-88.9
X114.3Y-91.44
X114.3Y-93.98
X114.3Y-96.52
X114.3Y-99.06
X114.3Y-101.6
X114.3Y-104.14
X114.3Y-106.68
X114.3Y-109.22
X114.3Y-111.76
X114.3Y-114.3
X150.95Y-117.267
X153.45Y-117.267
X161.2Y-121.92
X163.7Y-121.92
X170.18Y-91.44
X170.18Y-93.94
X170.63Y-81.28
X170.63Y-83.78
T6
X138.635Y-118.09
X143.635Y-118.09
T7
X130.4Y-100.85
X130.4Y-113.55
T8
X78.74Y-53.34
X78.74Y-121.92
X175.26Y-53.34
X175.26Y-121.92
T0
M30
