%FSLAX45Y45*%
G04 Gerber Fmt 4.5, Leading zero omitted, Abs format (unit mm)*
G04 Created by KiCad (PCBNEW (6.0.6)) date 2022-07-05 22:31:07*
%MOMM*%
%LPD*%
G01*
G04 APERTURE LIST*
%TA.AperFunction,Profile*%
%ADD10C,0.100000*%
%TD*%
%ADD11C,0.200000*%
%ADD12C,0.030000*%
%ADD13C,0.040000*%
%ADD14C,0.076200*%
%ADD15C,0.095000*%
%ADD16C,0.100000*%
%ADD17C,0.132000*%
%ADD18C,0.160000*%
%ADD19C,0.320000*%
G04 APERTURE END LIST*
D10*
X7620000Y-5080000D02*
X17780000Y-5080000D01*
X17780000Y-5080000D02*
X17780000Y-12446000D01*
X17780000Y-12446000D02*
X7620000Y-12446000D01*
X7620000Y-12446000D02*
X7620000Y-5080000D01*
D11*
D12*
X13845000Y-9488050D02*
X13875000Y-9518050D01*
X13875000Y-9488050D02*
X13845000Y-9518050D01*
D13*
X9290000Y-11055000D02*
G75*
G03*
X9290000Y-11055000I-20000J0D01*
G01*
X10080000Y-6260000D02*
G75*
G03*
X10080000Y-6260000I-20000J0D01*
G01*
X10540000Y-6480000D02*
G75*
G03*
X10540000Y-6480000I-20000J0D01*
G01*
X12265000Y-12232000D02*
G75*
G03*
X12265000Y-12232000I-20000J0D01*
G01*
X12639000Y-9474000D02*
G75*
G03*
X12639000Y-9474000I-20000J0D01*
G01*
X13223000Y-9022000D02*
G75*
G03*
X13223000Y-9022000I-20000J0D01*
G01*
X14448000Y-9452000D02*
G75*
G03*
X14448000Y-9452000I-20000J0D01*
G01*
X14790000Y-11005000D02*
G75*
G03*
X14790000Y-11005000I-20000J0D01*
G01*
X15066000Y-8603000D02*
G75*
G03*
X15066000Y-8603000I-20000J0D01*
G01*
X15360000Y-10880000D02*
G75*
G03*
X15360000Y-10880000I-20000J0D01*
G01*
X15540000Y-10380000D02*
G75*
G03*
X15540000Y-10380000I-20000J0D01*
G01*
X15557500Y-10497500D02*
G75*
G03*
X15557500Y-10497500I-20000J0D01*
G01*
D14*
X16762000Y-10459400D02*
X16762000Y-10535600D01*
X16723900Y-10497500D02*
X16800100Y-10497500D01*
X17016000Y-10459400D02*
X17016000Y-10535600D01*
X16977900Y-10497500D02*
X17054100Y-10497500D01*
X17270000Y-10459400D02*
X17270000Y-10535600D01*
X17231900Y-10497500D02*
X17308100Y-10497500D01*
X17520000Y-11026900D02*
X17520000Y-11103100D01*
X17481900Y-11065000D02*
X17558100Y-11065000D01*
X17520000Y-11241900D02*
X17520000Y-11318100D01*
X17481900Y-11280000D02*
X17558100Y-11280000D01*
X17520000Y-11441900D02*
X17520000Y-11518100D01*
X17481900Y-11480000D02*
X17558100Y-11480000D01*
X17520000Y-11641900D02*
X17520000Y-11718100D01*
X17481900Y-11680000D02*
X17558100Y-11680000D01*
X17520000Y-11856900D02*
X17520000Y-11933100D01*
X17481900Y-11895000D02*
X17558100Y-11895000D01*
D15*
X9185588Y-5874838D02*
X9185588Y-5807662D01*
X9118412Y-5807662D01*
X9118412Y-5874838D01*
X9185588Y-5874838D01*
X9435588Y-5874838D02*
X9435588Y-5807662D01*
X9368412Y-5807662D01*
X9368412Y-5874838D01*
X9435588Y-5874838D01*
X9685588Y-5874838D02*
X9685588Y-5807662D01*
X9618412Y-5807662D01*
X9618412Y-5874838D01*
X9685588Y-5874838D01*
X9935588Y-5874838D02*
X9935588Y-5807662D01*
X9868412Y-5807662D01*
X9868412Y-5874838D01*
X9935588Y-5874838D01*
X10185588Y-5874838D02*
X10185588Y-5807662D01*
X10118412Y-5807662D01*
X10118412Y-5874838D01*
X10185588Y-5874838D01*
X12987588Y-6891588D02*
X12987588Y-6824412D01*
X12920412Y-6824412D01*
X12920412Y-6891588D01*
X12987588Y-6891588D01*
X12987588Y-7141588D02*
X12987588Y-7074412D01*
X12920412Y-7074412D01*
X12920412Y-7141588D01*
X12987588Y-7141588D01*
X12987588Y-7391588D02*
X12987588Y-7324412D01*
X12920412Y-7324412D01*
X12920412Y-7391588D01*
X12987588Y-7391588D01*
X12987588Y-7641588D02*
X12987588Y-7574412D01*
X12920412Y-7574412D01*
X12920412Y-7641588D01*
X12987588Y-7641588D01*
X12987588Y-7891588D02*
X12987588Y-7824412D01*
X12920412Y-7824412D01*
X12920412Y-7891588D01*
X12987588Y-7891588D01*
X15281588Y-5874838D02*
X15281588Y-5807662D01*
X15214412Y-5807662D01*
X15214412Y-5874838D01*
X15281588Y-5874838D01*
X15531588Y-5874838D02*
X15531588Y-5807662D01*
X15464412Y-5807662D01*
X15464412Y-5874838D01*
X15531588Y-5874838D01*
X15781588Y-5874838D02*
X15781588Y-5807662D01*
X15714412Y-5807662D01*
X15714412Y-5874838D01*
X15781588Y-5874838D01*
X16031588Y-5874838D02*
X16031588Y-5807662D01*
X15964412Y-5807662D01*
X15964412Y-5874838D01*
X16031588Y-5874838D01*
X16281588Y-5874838D02*
X16281588Y-5807662D01*
X16214412Y-5807662D01*
X16214412Y-5874838D01*
X16281588Y-5874838D01*
D16*
X11176000Y-6654000D02*
X11226000Y-6604000D01*
X11176000Y-6554000D01*
X11126000Y-6604000D01*
X11176000Y-6654000D01*
X11176000Y-6908000D02*
X11226000Y-6858000D01*
X11176000Y-6808000D01*
X11126000Y-6858000D01*
X11176000Y-6908000D01*
X11176000Y-7162000D02*
X11226000Y-7112000D01*
X11176000Y-7062000D01*
X11126000Y-7112000D01*
X11176000Y-7162000D01*
X11176000Y-7416000D02*
X11226000Y-7366000D01*
X11176000Y-7316000D01*
X11126000Y-7366000D01*
X11176000Y-7416000D01*
X11176000Y-7670000D02*
X11226000Y-7620000D01*
X11176000Y-7570000D01*
X11126000Y-7620000D01*
X11176000Y-7670000D01*
X11176000Y-7924000D02*
X11226000Y-7874000D01*
X11176000Y-7824000D01*
X11126000Y-7874000D01*
X11176000Y-7924000D01*
X11176000Y-8178000D02*
X11226000Y-8128000D01*
X11176000Y-8078000D01*
X11126000Y-8128000D01*
X11176000Y-8178000D01*
X11176000Y-8432000D02*
X11226000Y-8382000D01*
X11176000Y-8332000D01*
X11126000Y-8382000D01*
X11176000Y-8432000D01*
X11176000Y-8686000D02*
X11226000Y-8636000D01*
X11176000Y-8586000D01*
X11126000Y-8636000D01*
X11176000Y-8686000D01*
X11176000Y-8940000D02*
X11226000Y-8890000D01*
X11176000Y-8840000D01*
X11126000Y-8890000D01*
X11176000Y-8940000D01*
X11176000Y-9194000D02*
X11226000Y-9144000D01*
X11176000Y-9094000D01*
X11126000Y-9144000D01*
X11176000Y-9194000D01*
X11176000Y-9448000D02*
X11226000Y-9398000D01*
X11176000Y-9348000D01*
X11126000Y-9398000D01*
X11176000Y-9448000D01*
X11176000Y-9702000D02*
X11226000Y-9652000D01*
X11176000Y-9602000D01*
X11126000Y-9652000D01*
X11176000Y-9702000D01*
X11176000Y-9956000D02*
X11226000Y-9906000D01*
X11176000Y-9856000D01*
X11126000Y-9906000D01*
X11176000Y-9956000D01*
X11176000Y-10210000D02*
X11226000Y-10160000D01*
X11176000Y-10110000D01*
X11126000Y-10160000D01*
X11176000Y-10210000D01*
X11176000Y-10464000D02*
X11226000Y-10414000D01*
X11176000Y-10364000D01*
X11126000Y-10414000D01*
X11176000Y-10464000D01*
X11176000Y-10718000D02*
X11226000Y-10668000D01*
X11176000Y-10618000D01*
X11126000Y-10668000D01*
X11176000Y-10718000D01*
X11176000Y-10972000D02*
X11226000Y-10922000D01*
X11176000Y-10872000D01*
X11126000Y-10922000D01*
X11176000Y-10972000D01*
X11176000Y-11226000D02*
X11226000Y-11176000D01*
X11176000Y-11126000D01*
X11126000Y-11176000D01*
X11176000Y-11226000D01*
X11176000Y-11480000D02*
X11226000Y-11430000D01*
X11176000Y-11380000D01*
X11126000Y-11430000D01*
X11176000Y-11480000D01*
X11430000Y-6654000D02*
X11480000Y-6604000D01*
X11430000Y-6554000D01*
X11380000Y-6604000D01*
X11430000Y-6654000D01*
X11430000Y-6908000D02*
X11480000Y-6858000D01*
X11430000Y-6808000D01*
X11380000Y-6858000D01*
X11430000Y-6908000D01*
X11430000Y-7162000D02*
X11480000Y-7112000D01*
X11430000Y-7062000D01*
X11380000Y-7112000D01*
X11430000Y-7162000D01*
X11430000Y-7416000D02*
X11480000Y-7366000D01*
X11430000Y-7316000D01*
X11380000Y-7366000D01*
X11430000Y-7416000D01*
X11430000Y-7670000D02*
X11480000Y-7620000D01*
X11430000Y-7570000D01*
X11380000Y-7620000D01*
X11430000Y-7670000D01*
X11430000Y-7924000D02*
X11480000Y-7874000D01*
X11430000Y-7824000D01*
X11380000Y-7874000D01*
X11430000Y-7924000D01*
X11430000Y-8178000D02*
X11480000Y-8128000D01*
X11430000Y-8078000D01*
X11380000Y-8128000D01*
X11430000Y-8178000D01*
X11430000Y-8432000D02*
X11480000Y-8382000D01*
X11430000Y-8332000D01*
X11380000Y-8382000D01*
X11430000Y-8432000D01*
X11430000Y-8686000D02*
X11480000Y-8636000D01*
X11430000Y-8586000D01*
X11380000Y-8636000D01*
X11430000Y-8686000D01*
X11430000Y-8940000D02*
X11480000Y-8890000D01*
X11430000Y-8840000D01*
X11380000Y-8890000D01*
X11430000Y-8940000D01*
X11430000Y-9194000D02*
X11480000Y-9144000D01*
X11430000Y-9094000D01*
X11380000Y-9144000D01*
X11430000Y-9194000D01*
X11430000Y-9448000D02*
X11480000Y-9398000D01*
X11430000Y-9348000D01*
X11380000Y-9398000D01*
X11430000Y-9448000D01*
X11430000Y-9702000D02*
X11480000Y-9652000D01*
X11430000Y-9602000D01*
X11380000Y-9652000D01*
X11430000Y-9702000D01*
X11430000Y-9956000D02*
X11480000Y-9906000D01*
X11430000Y-9856000D01*
X11380000Y-9906000D01*
X11430000Y-9956000D01*
X11430000Y-10210000D02*
X11480000Y-10160000D01*
X11430000Y-10110000D01*
X11380000Y-10160000D01*
X11430000Y-10210000D01*
X11430000Y-10464000D02*
X11480000Y-10414000D01*
X11430000Y-10364000D01*
X11380000Y-10414000D01*
X11430000Y-10464000D01*
X11430000Y-10718000D02*
X11480000Y-10668000D01*
X11430000Y-10618000D01*
X11380000Y-10668000D01*
X11430000Y-10718000D01*
X11430000Y-10972000D02*
X11480000Y-10922000D01*
X11430000Y-10872000D01*
X11380000Y-10922000D01*
X11430000Y-10972000D01*
X11430000Y-11226000D02*
X11480000Y-11176000D01*
X11430000Y-11126000D01*
X11380000Y-11176000D01*
X11430000Y-11226000D01*
X11430000Y-11480000D02*
X11480000Y-11430000D01*
X11430000Y-11380000D01*
X11380000Y-11430000D01*
X11430000Y-11480000D01*
X15095000Y-11776750D02*
X15145000Y-11726750D01*
X15095000Y-11676750D01*
X15045000Y-11726750D01*
X15095000Y-11776750D01*
X15345000Y-11776750D02*
X15395000Y-11726750D01*
X15345000Y-11676750D01*
X15295000Y-11726750D01*
X15345000Y-11776750D01*
X16120000Y-12242000D02*
X16170000Y-12192000D01*
X16120000Y-12142000D01*
X16070000Y-12192000D01*
X16120000Y-12242000D01*
X16370000Y-12242000D02*
X16420000Y-12192000D01*
X16370000Y-12142000D01*
X16320000Y-12192000D01*
X16370000Y-12242000D01*
X17018000Y-9194000D02*
X17068000Y-9144000D01*
X17018000Y-9094000D01*
X16968000Y-9144000D01*
X17018000Y-9194000D01*
X17018000Y-9444000D02*
X17068000Y-9394000D01*
X17018000Y-9344000D01*
X16968000Y-9394000D01*
X17018000Y-9444000D01*
X17063000Y-8178000D02*
X17113000Y-8128000D01*
X17063000Y-8078000D01*
X17013000Y-8128000D01*
X17063000Y-8178000D01*
X17063000Y-8428000D02*
X17113000Y-8378000D01*
X17063000Y-8328000D01*
X17013000Y-8378000D01*
X17063000Y-8428000D01*
D17*
X13797500Y-11743000D02*
X13929500Y-11875000D01*
X13929500Y-11743000D02*
X13797500Y-11875000D01*
X13929500Y-11809000D02*
G75*
G03*
X13929500Y-11809000I-66000J0D01*
G01*
X14297500Y-11743000D02*
X14429500Y-11875000D01*
X14429500Y-11743000D02*
X14297500Y-11875000D01*
X14429500Y-11809000D02*
G75*
G03*
X14429500Y-11809000I-66000J0D01*
G01*
D18*
X12960000Y-10005000D02*
X13120000Y-10165000D01*
X13120000Y-10005000D02*
X12960000Y-10165000D01*
X13040000Y-10005000D02*
X13040000Y-10165000D01*
X12960000Y-10085000D02*
X13120000Y-10085000D01*
X12960000Y-11275000D02*
X13120000Y-11435000D01*
X13120000Y-11275000D02*
X12960000Y-11435000D01*
X13040000Y-11275000D02*
X13040000Y-11435000D01*
X12960000Y-11355000D02*
X13120000Y-11355000D01*
D19*
X7714000Y-5174000D02*
X8034000Y-5494000D01*
X8034000Y-5174000D02*
X7714000Y-5494000D01*
X7987138Y-5447138D02*
X7987138Y-5220862D01*
X7760862Y-5220862D01*
X7760862Y-5447138D01*
X7987138Y-5447138D01*
X7714000Y-12032000D02*
X8034000Y-12352000D01*
X8034000Y-12032000D02*
X7714000Y-12352000D01*
X7987138Y-12305138D02*
X7987138Y-12078862D01*
X7760862Y-12078862D01*
X7760862Y-12305138D01*
X7987138Y-12305138D01*
X17366000Y-5174000D02*
X17686000Y-5494000D01*
X17686000Y-5174000D02*
X17366000Y-5494000D01*
X17639138Y-5447138D02*
X17639138Y-5220862D01*
X17412862Y-5220862D01*
X17412862Y-5447138D01*
X17639138Y-5447138D01*
X17366000Y-12032000D02*
X17686000Y-12352000D01*
X17686000Y-12032000D02*
X17366000Y-12352000D01*
X17639138Y-12305138D02*
X17639138Y-12078862D01*
X17412862Y-12078862D01*
X17412862Y-12305138D01*
X17639138Y-12305138D01*
D11*
X7872619Y-12761476D02*
X7872619Y-12561476D01*
X7920238Y-12561476D01*
X7948809Y-12571000D01*
X7967857Y-12590048D01*
X7977381Y-12609095D01*
X7986905Y-12647190D01*
X7986905Y-12675762D01*
X7977381Y-12713857D01*
X7967857Y-12732905D01*
X7948809Y-12751952D01*
X7920238Y-12761476D01*
X7872619Y-12761476D01*
X8072619Y-12761476D02*
X8072619Y-12628143D01*
X8072619Y-12666238D02*
X8082143Y-12647190D01*
X8091667Y-12637667D01*
X8110714Y-12628143D01*
X8129762Y-12628143D01*
X8196428Y-12761476D02*
X8196428Y-12628143D01*
X8196428Y-12561476D02*
X8186905Y-12571000D01*
X8196428Y-12580524D01*
X8205952Y-12571000D01*
X8196428Y-12561476D01*
X8196428Y-12580524D01*
X8320238Y-12761476D02*
X8301190Y-12751952D01*
X8291667Y-12732905D01*
X8291667Y-12561476D01*
X8425000Y-12761476D02*
X8405952Y-12751952D01*
X8396429Y-12732905D01*
X8396429Y-12561476D01*
X8653571Y-12761476D02*
X8653571Y-12561476D01*
X8720238Y-12704333D01*
X8786905Y-12561476D01*
X8786905Y-12761476D01*
X8967857Y-12761476D02*
X8967857Y-12656714D01*
X8958333Y-12637667D01*
X8939286Y-12628143D01*
X8901190Y-12628143D01*
X8882143Y-12637667D01*
X8967857Y-12751952D02*
X8948810Y-12761476D01*
X8901190Y-12761476D01*
X8882143Y-12751952D01*
X8872619Y-12732905D01*
X8872619Y-12713857D01*
X8882143Y-12694809D01*
X8901190Y-12685286D01*
X8948810Y-12685286D01*
X8967857Y-12675762D01*
X9063095Y-12628143D02*
X9063095Y-12828143D01*
X9063095Y-12637667D02*
X9082143Y-12628143D01*
X9120238Y-12628143D01*
X9139286Y-12637667D01*
X9148810Y-12647190D01*
X9158333Y-12666238D01*
X9158333Y-12723381D01*
X9148810Y-12742428D01*
X9139286Y-12751952D01*
X9120238Y-12761476D01*
X9082143Y-12761476D01*
X9063095Y-12751952D01*
X9244048Y-12742428D02*
X9253571Y-12751952D01*
X9244048Y-12761476D01*
X9234524Y-12751952D01*
X9244048Y-12742428D01*
X9244048Y-12761476D01*
X9244048Y-12637667D02*
X9253571Y-12647190D01*
X9244048Y-12656714D01*
X9234524Y-12647190D01*
X9244048Y-12637667D01*
X9244048Y-12656714D01*
D12*
X7585000Y-13076000D02*
X7615000Y-13106000D01*
X7615000Y-13076000D02*
X7585000Y-13106000D01*
D11*
X7910714Y-12981476D02*
X7929762Y-12981476D01*
X7948809Y-12991000D01*
X7958333Y-13000524D01*
X7967857Y-13019571D01*
X7977381Y-13057667D01*
X7977381Y-13105286D01*
X7967857Y-13143381D01*
X7958333Y-13162428D01*
X7948809Y-13171952D01*
X7929762Y-13181476D01*
X7910714Y-13181476D01*
X7891667Y-13171952D01*
X7882143Y-13162428D01*
X7872619Y-13143381D01*
X7863095Y-13105286D01*
X7863095Y-13057667D01*
X7872619Y-13019571D01*
X7882143Y-13000524D01*
X7891667Y-12991000D01*
X7910714Y-12981476D01*
X8063095Y-13162428D02*
X8072619Y-13171952D01*
X8063095Y-13181476D01*
X8053571Y-13171952D01*
X8063095Y-13162428D01*
X8063095Y-13181476D01*
X8139286Y-12981476D02*
X8263095Y-12981476D01*
X8196428Y-13057667D01*
X8225000Y-13057667D01*
X8244048Y-13067190D01*
X8253571Y-13076714D01*
X8263095Y-13095762D01*
X8263095Y-13143381D01*
X8253571Y-13162428D01*
X8244048Y-13171952D01*
X8225000Y-13181476D01*
X8167857Y-13181476D01*
X8148809Y-13171952D01*
X8139286Y-13162428D01*
X8386905Y-12981476D02*
X8405952Y-12981476D01*
X8425000Y-12991000D01*
X8434524Y-13000524D01*
X8444048Y-13019571D01*
X8453571Y-13057667D01*
X8453571Y-13105286D01*
X8444048Y-13143381D01*
X8434524Y-13162428D01*
X8425000Y-13171952D01*
X8405952Y-13181476D01*
X8386905Y-13181476D01*
X8367857Y-13171952D01*
X8358333Y-13162428D01*
X8348809Y-13143381D01*
X8339286Y-13105286D01*
X8339286Y-13057667D01*
X8348809Y-13019571D01*
X8358333Y-13000524D01*
X8367857Y-12991000D01*
X8386905Y-12981476D01*
X8577381Y-12981476D02*
X8596429Y-12981476D01*
X8615476Y-12991000D01*
X8625000Y-13000524D01*
X8634524Y-13019571D01*
X8644048Y-13057667D01*
X8644048Y-13105286D01*
X8634524Y-13143381D01*
X8625000Y-13162428D01*
X8615476Y-13171952D01*
X8596429Y-13181476D01*
X8577381Y-13181476D01*
X8558333Y-13171952D01*
X8548810Y-13162428D01*
X8539286Y-13143381D01*
X8529762Y-13105286D01*
X8529762Y-13057667D01*
X8539286Y-13019571D01*
X8548810Y-13000524D01*
X8558333Y-12991000D01*
X8577381Y-12981476D01*
X8729762Y-13181476D02*
X8729762Y-13048143D01*
X8729762Y-13067190D02*
X8739286Y-13057667D01*
X8758333Y-13048143D01*
X8786905Y-13048143D01*
X8805952Y-13057667D01*
X8815476Y-13076714D01*
X8815476Y-13181476D01*
X8815476Y-13076714D02*
X8825000Y-13057667D01*
X8844048Y-13048143D01*
X8872619Y-13048143D01*
X8891667Y-13057667D01*
X8901190Y-13076714D01*
X8901190Y-13181476D01*
X8996429Y-13181476D02*
X8996429Y-13048143D01*
X8996429Y-13067190D02*
X9005952Y-13057667D01*
X9025000Y-13048143D01*
X9053571Y-13048143D01*
X9072619Y-13057667D01*
X9082143Y-13076714D01*
X9082143Y-13181476D01*
X9082143Y-13076714D02*
X9091667Y-13057667D01*
X9110714Y-13048143D01*
X9139286Y-13048143D01*
X9158333Y-13057667D01*
X9167857Y-13076714D01*
X9167857Y-13181476D01*
X9558333Y-12971952D02*
X9386905Y-13229095D01*
X9815476Y-12981476D02*
X9834524Y-12981476D01*
X9853571Y-12991000D01*
X9863095Y-13000524D01*
X9872619Y-13019571D01*
X9882143Y-13057667D01*
X9882143Y-13105286D01*
X9872619Y-13143381D01*
X9863095Y-13162428D01*
X9853571Y-13171952D01*
X9834524Y-13181476D01*
X9815476Y-13181476D01*
X9796429Y-13171952D01*
X9786905Y-13162428D01*
X9777381Y-13143381D01*
X9767857Y-13105286D01*
X9767857Y-13057667D01*
X9777381Y-13019571D01*
X9786905Y-13000524D01*
X9796429Y-12991000D01*
X9815476Y-12981476D01*
X9967857Y-13162428D02*
X9977381Y-13171952D01*
X9967857Y-13181476D01*
X9958333Y-13171952D01*
X9967857Y-13162428D01*
X9967857Y-13181476D01*
X10101190Y-12981476D02*
X10120238Y-12981476D01*
X10139286Y-12991000D01*
X10148810Y-13000524D01*
X10158333Y-13019571D01*
X10167857Y-13057667D01*
X10167857Y-13105286D01*
X10158333Y-13143381D01*
X10148810Y-13162428D01*
X10139286Y-13171952D01*
X10120238Y-13181476D01*
X10101190Y-13181476D01*
X10082143Y-13171952D01*
X10072619Y-13162428D01*
X10063095Y-13143381D01*
X10053571Y-13105286D01*
X10053571Y-13057667D01*
X10063095Y-13019571D01*
X10072619Y-13000524D01*
X10082143Y-12991000D01*
X10101190Y-12981476D01*
X10358333Y-13181476D02*
X10244048Y-13181476D01*
X10301190Y-13181476D02*
X10301190Y-12981476D01*
X10282143Y-13010048D01*
X10263095Y-13029095D01*
X10244048Y-13038619D01*
X10548810Y-13181476D02*
X10434524Y-13181476D01*
X10491667Y-13181476D02*
X10491667Y-12981476D01*
X10472619Y-13010048D01*
X10453571Y-13029095D01*
X10434524Y-13038619D01*
X10663095Y-13067190D02*
X10644048Y-13057667D01*
X10634524Y-13048143D01*
X10625000Y-13029095D01*
X10625000Y-13019571D01*
X10634524Y-13000524D01*
X10644048Y-12991000D01*
X10663095Y-12981476D01*
X10701190Y-12981476D01*
X10720238Y-12991000D01*
X10729762Y-13000524D01*
X10739286Y-13019571D01*
X10739286Y-13029095D01*
X10729762Y-13048143D01*
X10720238Y-13057667D01*
X10701190Y-13067190D01*
X10663095Y-13067190D01*
X10644048Y-13076714D01*
X10634524Y-13086238D01*
X10625000Y-13105286D01*
X10625000Y-13143381D01*
X10634524Y-13162428D01*
X10644048Y-13171952D01*
X10663095Y-13181476D01*
X10701190Y-13181476D01*
X10720238Y-13171952D01*
X10729762Y-13162428D01*
X10739286Y-13143381D01*
X10739286Y-13105286D01*
X10729762Y-13086238D01*
X10720238Y-13076714D01*
X10701190Y-13067190D01*
X10815476Y-12981476D02*
X10815476Y-13019571D01*
X10891667Y-12981476D02*
X10891667Y-13019571D01*
X11186905Y-13257667D02*
X11177381Y-13248143D01*
X11158333Y-13219571D01*
X11148810Y-13200524D01*
X11139286Y-13171952D01*
X11129762Y-13124333D01*
X11129762Y-13086238D01*
X11139286Y-13038619D01*
X11148810Y-13010048D01*
X11158333Y-12991000D01*
X11177381Y-12962428D01*
X11186905Y-12952905D01*
X11367857Y-13181476D02*
X11253571Y-13181476D01*
X11310714Y-13181476D02*
X11310714Y-12981476D01*
X11291667Y-13010048D01*
X11272619Y-13029095D01*
X11253571Y-13038619D01*
X11605952Y-13181476D02*
X11605952Y-12981476D01*
X11691667Y-13181476D02*
X11691667Y-13076714D01*
X11682143Y-13057667D01*
X11663095Y-13048143D01*
X11634524Y-13048143D01*
X11615476Y-13057667D01*
X11605952Y-13067190D01*
X11815476Y-13181476D02*
X11796428Y-13171952D01*
X11786905Y-13162428D01*
X11777381Y-13143381D01*
X11777381Y-13086238D01*
X11786905Y-13067190D01*
X11796428Y-13057667D01*
X11815476Y-13048143D01*
X11844048Y-13048143D01*
X11863095Y-13057667D01*
X11872619Y-13067190D01*
X11882143Y-13086238D01*
X11882143Y-13143381D01*
X11872619Y-13162428D01*
X11863095Y-13171952D01*
X11844048Y-13181476D01*
X11815476Y-13181476D01*
X11996428Y-13181476D02*
X11977381Y-13171952D01*
X11967857Y-13152905D01*
X11967857Y-12981476D01*
X12148809Y-13171952D02*
X12129762Y-13181476D01*
X12091667Y-13181476D01*
X12072619Y-13171952D01*
X12063095Y-13152905D01*
X12063095Y-13076714D01*
X12072619Y-13057667D01*
X12091667Y-13048143D01*
X12129762Y-13048143D01*
X12148809Y-13057667D01*
X12158333Y-13076714D01*
X12158333Y-13095762D01*
X12063095Y-13114809D01*
X12225000Y-13257667D02*
X12234524Y-13248143D01*
X12253571Y-13219571D01*
X12263095Y-13200524D01*
X12272619Y-13171952D01*
X12282143Y-13124333D01*
X12282143Y-13086238D01*
X12272619Y-13038619D01*
X12263095Y-13010048D01*
X12253571Y-12991000D01*
X12234524Y-12962428D01*
X12225000Y-12952905D01*
D13*
X7615000Y-13355000D02*
G75*
G03*
X7615000Y-13355000I-20000J0D01*
G01*
D11*
X7910714Y-13245476D02*
X7929762Y-13245476D01*
X7948809Y-13255000D01*
X7958333Y-13264524D01*
X7967857Y-13283571D01*
X7977381Y-13321667D01*
X7977381Y-13369286D01*
X7967857Y-13407381D01*
X7958333Y-13426428D01*
X7948809Y-13435952D01*
X7929762Y-13445476D01*
X7910714Y-13445476D01*
X7891667Y-13435952D01*
X7882143Y-13426428D01*
X7872619Y-13407381D01*
X7863095Y-13369286D01*
X7863095Y-13321667D01*
X7872619Y-13283571D01*
X7882143Y-13264524D01*
X7891667Y-13255000D01*
X7910714Y-13245476D01*
X8063095Y-13426428D02*
X8072619Y-13435952D01*
X8063095Y-13445476D01*
X8053571Y-13435952D01*
X8063095Y-13426428D01*
X8063095Y-13445476D01*
X8244048Y-13312143D02*
X8244048Y-13445476D01*
X8196428Y-13235952D02*
X8148809Y-13378809D01*
X8272619Y-13378809D01*
X8386905Y-13245476D02*
X8405952Y-13245476D01*
X8425000Y-13255000D01*
X8434524Y-13264524D01*
X8444048Y-13283571D01*
X8453571Y-13321667D01*
X8453571Y-13369286D01*
X8444048Y-13407381D01*
X8434524Y-13426428D01*
X8425000Y-13435952D01*
X8405952Y-13445476D01*
X8386905Y-13445476D01*
X8367857Y-13435952D01*
X8358333Y-13426428D01*
X8348809Y-13407381D01*
X8339286Y-13369286D01*
X8339286Y-13321667D01*
X8348809Y-13283571D01*
X8358333Y-13264524D01*
X8367857Y-13255000D01*
X8386905Y-13245476D01*
X8577381Y-13245476D02*
X8596429Y-13245476D01*
X8615476Y-13255000D01*
X8625000Y-13264524D01*
X8634524Y-13283571D01*
X8644048Y-13321667D01*
X8644048Y-13369286D01*
X8634524Y-13407381D01*
X8625000Y-13426428D01*
X8615476Y-13435952D01*
X8596429Y-13445476D01*
X8577381Y-13445476D01*
X8558333Y-13435952D01*
X8548810Y-13426428D01*
X8539286Y-13407381D01*
X8529762Y-13369286D01*
X8529762Y-13321667D01*
X8539286Y-13283571D01*
X8548810Y-13264524D01*
X8558333Y-13255000D01*
X8577381Y-13245476D01*
X8729762Y-13445476D02*
X8729762Y-13312143D01*
X8729762Y-13331190D02*
X8739286Y-13321667D01*
X8758333Y-13312143D01*
X8786905Y-13312143D01*
X8805952Y-13321667D01*
X8815476Y-13340714D01*
X8815476Y-13445476D01*
X8815476Y-13340714D02*
X8825000Y-13321667D01*
X8844048Y-13312143D01*
X8872619Y-13312143D01*
X8891667Y-13321667D01*
X8901190Y-13340714D01*
X8901190Y-13445476D01*
X8996429Y-13445476D02*
X8996429Y-13312143D01*
X8996429Y-13331190D02*
X9005952Y-13321667D01*
X9025000Y-13312143D01*
X9053571Y-13312143D01*
X9072619Y-13321667D01*
X9082143Y-13340714D01*
X9082143Y-13445476D01*
X9082143Y-13340714D02*
X9091667Y-13321667D01*
X9110714Y-13312143D01*
X9139286Y-13312143D01*
X9158333Y-13321667D01*
X9167857Y-13340714D01*
X9167857Y-13445476D01*
X9558333Y-13235952D02*
X9386905Y-13493095D01*
X9815476Y-13245476D02*
X9834524Y-13245476D01*
X9853571Y-13255000D01*
X9863095Y-13264524D01*
X9872619Y-13283571D01*
X9882143Y-13321667D01*
X9882143Y-13369286D01*
X9872619Y-13407381D01*
X9863095Y-13426428D01*
X9853571Y-13435952D01*
X9834524Y-13445476D01*
X9815476Y-13445476D01*
X9796429Y-13435952D01*
X9786905Y-13426428D01*
X9777381Y-13407381D01*
X9767857Y-13369286D01*
X9767857Y-13321667D01*
X9777381Y-13283571D01*
X9786905Y-13264524D01*
X9796429Y-13255000D01*
X9815476Y-13245476D01*
X9967857Y-13426428D02*
X9977381Y-13435952D01*
X9967857Y-13445476D01*
X9958333Y-13435952D01*
X9967857Y-13426428D01*
X9967857Y-13445476D01*
X10101190Y-13245476D02*
X10120238Y-13245476D01*
X10139286Y-13255000D01*
X10148810Y-13264524D01*
X10158333Y-13283571D01*
X10167857Y-13321667D01*
X10167857Y-13369286D01*
X10158333Y-13407381D01*
X10148810Y-13426428D01*
X10139286Y-13435952D01*
X10120238Y-13445476D01*
X10101190Y-13445476D01*
X10082143Y-13435952D01*
X10072619Y-13426428D01*
X10063095Y-13407381D01*
X10053571Y-13369286D01*
X10053571Y-13321667D01*
X10063095Y-13283571D01*
X10072619Y-13264524D01*
X10082143Y-13255000D01*
X10101190Y-13245476D01*
X10358333Y-13445476D02*
X10244048Y-13445476D01*
X10301190Y-13445476D02*
X10301190Y-13245476D01*
X10282143Y-13274048D01*
X10263095Y-13293095D01*
X10244048Y-13302619D01*
X10539286Y-13245476D02*
X10444048Y-13245476D01*
X10434524Y-13340714D01*
X10444048Y-13331190D01*
X10463095Y-13321667D01*
X10510714Y-13321667D01*
X10529762Y-13331190D01*
X10539286Y-13340714D01*
X10548810Y-13359762D01*
X10548810Y-13407381D01*
X10539286Y-13426428D01*
X10529762Y-13435952D01*
X10510714Y-13445476D01*
X10463095Y-13445476D01*
X10444048Y-13435952D01*
X10434524Y-13426428D01*
X10615476Y-13245476D02*
X10748810Y-13245476D01*
X10663095Y-13445476D01*
X10815476Y-13245476D02*
X10815476Y-13283571D01*
X10891667Y-13245476D02*
X10891667Y-13283571D01*
X11186905Y-13521667D02*
X11177381Y-13512143D01*
X11158333Y-13483571D01*
X11148810Y-13464524D01*
X11139286Y-13435952D01*
X11129762Y-13388333D01*
X11129762Y-13350238D01*
X11139286Y-13302619D01*
X11148810Y-13274048D01*
X11158333Y-13255000D01*
X11177381Y-13226428D01*
X11186905Y-13216905D01*
X11367857Y-13445476D02*
X11253571Y-13445476D01*
X11310714Y-13445476D02*
X11310714Y-13245476D01*
X11291667Y-13274048D01*
X11272619Y-13293095D01*
X11253571Y-13302619D01*
X11444048Y-13264524D02*
X11453571Y-13255000D01*
X11472619Y-13245476D01*
X11520238Y-13245476D01*
X11539286Y-13255000D01*
X11548809Y-13264524D01*
X11558333Y-13283571D01*
X11558333Y-13302619D01*
X11548809Y-13331190D01*
X11434524Y-13445476D01*
X11558333Y-13445476D01*
X11796428Y-13445476D02*
X11796428Y-13245476D01*
X11882143Y-13445476D02*
X11882143Y-13340714D01*
X11872619Y-13321667D01*
X11853571Y-13312143D01*
X11825000Y-13312143D01*
X11805952Y-13321667D01*
X11796428Y-13331190D01*
X12005952Y-13445476D02*
X11986905Y-13435952D01*
X11977381Y-13426428D01*
X11967857Y-13407381D01*
X11967857Y-13350238D01*
X11977381Y-13331190D01*
X11986905Y-13321667D01*
X12005952Y-13312143D01*
X12034524Y-13312143D01*
X12053571Y-13321667D01*
X12063095Y-13331190D01*
X12072619Y-13350238D01*
X12072619Y-13407381D01*
X12063095Y-13426428D01*
X12053571Y-13435952D01*
X12034524Y-13445476D01*
X12005952Y-13445476D01*
X12186905Y-13445476D02*
X12167857Y-13435952D01*
X12158333Y-13416905D01*
X12158333Y-13245476D01*
X12339286Y-13435952D02*
X12320238Y-13445476D01*
X12282143Y-13445476D01*
X12263095Y-13435952D01*
X12253571Y-13416905D01*
X12253571Y-13340714D01*
X12263095Y-13321667D01*
X12282143Y-13312143D01*
X12320238Y-13312143D01*
X12339286Y-13321667D01*
X12348809Y-13340714D01*
X12348809Y-13359762D01*
X12253571Y-13378809D01*
X12425000Y-13435952D02*
X12444048Y-13445476D01*
X12482143Y-13445476D01*
X12501190Y-13435952D01*
X12510714Y-13416905D01*
X12510714Y-13407381D01*
X12501190Y-13388333D01*
X12482143Y-13378809D01*
X12453571Y-13378809D01*
X12434524Y-13369286D01*
X12425000Y-13350238D01*
X12425000Y-13340714D01*
X12434524Y-13321667D01*
X12453571Y-13312143D01*
X12482143Y-13312143D01*
X12501190Y-13321667D01*
X12577381Y-13521667D02*
X12586905Y-13512143D01*
X12605952Y-13483571D01*
X12615476Y-13464524D01*
X12625000Y-13435952D01*
X12634524Y-13388333D01*
X12634524Y-13350238D01*
X12625000Y-13302619D01*
X12615476Y-13274048D01*
X12605952Y-13255000D01*
X12586905Y-13226428D01*
X12577381Y-13216905D01*
D14*
X7576900Y-13580900D02*
X7576900Y-13657100D01*
X7538800Y-13619000D02*
X7615000Y-13619000D01*
D11*
X7910714Y-13509476D02*
X7929762Y-13509476D01*
X7948809Y-13519000D01*
X7958333Y-13528524D01*
X7967857Y-13547571D01*
X7977381Y-13585667D01*
X7977381Y-13633286D01*
X7967857Y-13671381D01*
X7958333Y-13690428D01*
X7948809Y-13699952D01*
X7929762Y-13709476D01*
X7910714Y-13709476D01*
X7891667Y-13699952D01*
X7882143Y-13690428D01*
X7872619Y-13671381D01*
X7863095Y-13633286D01*
X7863095Y-13585667D01*
X7872619Y-13547571D01*
X7882143Y-13528524D01*
X7891667Y-13519000D01*
X7910714Y-13509476D01*
X8063095Y-13690428D02*
X8072619Y-13699952D01*
X8063095Y-13709476D01*
X8053571Y-13699952D01*
X8063095Y-13690428D01*
X8063095Y-13709476D01*
X8139286Y-13509476D02*
X8272619Y-13509476D01*
X8186905Y-13709476D01*
X8434524Y-13509476D02*
X8396429Y-13509476D01*
X8377381Y-13519000D01*
X8367857Y-13528524D01*
X8348809Y-13557095D01*
X8339286Y-13595190D01*
X8339286Y-13671381D01*
X8348809Y-13690428D01*
X8358333Y-13699952D01*
X8377381Y-13709476D01*
X8415476Y-13709476D01*
X8434524Y-13699952D01*
X8444048Y-13690428D01*
X8453571Y-13671381D01*
X8453571Y-13623762D01*
X8444048Y-13604714D01*
X8434524Y-13595190D01*
X8415476Y-13585667D01*
X8377381Y-13585667D01*
X8358333Y-13595190D01*
X8348809Y-13604714D01*
X8339286Y-13623762D01*
X8529762Y-13528524D02*
X8539286Y-13519000D01*
X8558333Y-13509476D01*
X8605952Y-13509476D01*
X8625000Y-13519000D01*
X8634524Y-13528524D01*
X8644048Y-13547571D01*
X8644048Y-13566619D01*
X8634524Y-13595190D01*
X8520238Y-13709476D01*
X8644048Y-13709476D01*
X8729762Y-13709476D02*
X8729762Y-13576143D01*
X8729762Y-13595190D02*
X8739286Y-13585667D01*
X8758333Y-13576143D01*
X8786905Y-13576143D01*
X8805952Y-13585667D01*
X8815476Y-13604714D01*
X8815476Y-13709476D01*
X8815476Y-13604714D02*
X8825000Y-13585667D01*
X8844048Y-13576143D01*
X8872619Y-13576143D01*
X8891667Y-13585667D01*
X8901190Y-13604714D01*
X8901190Y-13709476D01*
X8996429Y-13709476D02*
X8996429Y-13576143D01*
X8996429Y-13595190D02*
X9005952Y-13585667D01*
X9025000Y-13576143D01*
X9053571Y-13576143D01*
X9072619Y-13585667D01*
X9082143Y-13604714D01*
X9082143Y-13709476D01*
X9082143Y-13604714D02*
X9091667Y-13585667D01*
X9110714Y-13576143D01*
X9139286Y-13576143D01*
X9158333Y-13585667D01*
X9167857Y-13604714D01*
X9167857Y-13709476D01*
X9558333Y-13499952D02*
X9386905Y-13757095D01*
X9815476Y-13509476D02*
X9834524Y-13509476D01*
X9853571Y-13519000D01*
X9863095Y-13528524D01*
X9872619Y-13547571D01*
X9882143Y-13585667D01*
X9882143Y-13633286D01*
X9872619Y-13671381D01*
X9863095Y-13690428D01*
X9853571Y-13699952D01*
X9834524Y-13709476D01*
X9815476Y-13709476D01*
X9796429Y-13699952D01*
X9786905Y-13690428D01*
X9777381Y-13671381D01*
X9767857Y-13633286D01*
X9767857Y-13585667D01*
X9777381Y-13547571D01*
X9786905Y-13528524D01*
X9796429Y-13519000D01*
X9815476Y-13509476D01*
X9967857Y-13690428D02*
X9977381Y-13699952D01*
X9967857Y-13709476D01*
X9958333Y-13699952D01*
X9967857Y-13690428D01*
X9967857Y-13709476D01*
X10101190Y-13509476D02*
X10120238Y-13509476D01*
X10139286Y-13519000D01*
X10148810Y-13528524D01*
X10158333Y-13547571D01*
X10167857Y-13585667D01*
X10167857Y-13633286D01*
X10158333Y-13671381D01*
X10148810Y-13690428D01*
X10139286Y-13699952D01*
X10120238Y-13709476D01*
X10101190Y-13709476D01*
X10082143Y-13699952D01*
X10072619Y-13690428D01*
X10063095Y-13671381D01*
X10053571Y-13633286D01*
X10053571Y-13585667D01*
X10063095Y-13547571D01*
X10072619Y-13528524D01*
X10082143Y-13519000D01*
X10101190Y-13509476D01*
X10234524Y-13509476D02*
X10358333Y-13509476D01*
X10291667Y-13585667D01*
X10320238Y-13585667D01*
X10339286Y-13595190D01*
X10348810Y-13604714D01*
X10358333Y-13623762D01*
X10358333Y-13671381D01*
X10348810Y-13690428D01*
X10339286Y-13699952D01*
X10320238Y-13709476D01*
X10263095Y-13709476D01*
X10244048Y-13699952D01*
X10234524Y-13690428D01*
X10482143Y-13509476D02*
X10501190Y-13509476D01*
X10520238Y-13519000D01*
X10529762Y-13528524D01*
X10539286Y-13547571D01*
X10548810Y-13585667D01*
X10548810Y-13633286D01*
X10539286Y-13671381D01*
X10529762Y-13690428D01*
X10520238Y-13699952D01*
X10501190Y-13709476D01*
X10482143Y-13709476D01*
X10463095Y-13699952D01*
X10453571Y-13690428D01*
X10444048Y-13671381D01*
X10434524Y-13633286D01*
X10434524Y-13585667D01*
X10444048Y-13547571D01*
X10453571Y-13528524D01*
X10463095Y-13519000D01*
X10482143Y-13509476D01*
X10672619Y-13509476D02*
X10691667Y-13509476D01*
X10710714Y-13519000D01*
X10720238Y-13528524D01*
X10729762Y-13547571D01*
X10739286Y-13585667D01*
X10739286Y-13633286D01*
X10729762Y-13671381D01*
X10720238Y-13690428D01*
X10710714Y-13699952D01*
X10691667Y-13709476D01*
X10672619Y-13709476D01*
X10653571Y-13699952D01*
X10644048Y-13690428D01*
X10634524Y-13671381D01*
X10625000Y-13633286D01*
X10625000Y-13585667D01*
X10634524Y-13547571D01*
X10644048Y-13528524D01*
X10653571Y-13519000D01*
X10672619Y-13509476D01*
X10815476Y-13509476D02*
X10815476Y-13547571D01*
X10891667Y-13509476D02*
X10891667Y-13547571D01*
X11186905Y-13785667D02*
X11177381Y-13776143D01*
X11158333Y-13747571D01*
X11148810Y-13728524D01*
X11139286Y-13699952D01*
X11129762Y-13652333D01*
X11129762Y-13614238D01*
X11139286Y-13566619D01*
X11148810Y-13538048D01*
X11158333Y-13519000D01*
X11177381Y-13490428D01*
X11186905Y-13480905D01*
X11291667Y-13595190D02*
X11272619Y-13585667D01*
X11263095Y-13576143D01*
X11253571Y-13557095D01*
X11253571Y-13547571D01*
X11263095Y-13528524D01*
X11272619Y-13519000D01*
X11291667Y-13509476D01*
X11329762Y-13509476D01*
X11348809Y-13519000D01*
X11358333Y-13528524D01*
X11367857Y-13547571D01*
X11367857Y-13557095D01*
X11358333Y-13576143D01*
X11348809Y-13585667D01*
X11329762Y-13595190D01*
X11291667Y-13595190D01*
X11272619Y-13604714D01*
X11263095Y-13614238D01*
X11253571Y-13633286D01*
X11253571Y-13671381D01*
X11263095Y-13690428D01*
X11272619Y-13699952D01*
X11291667Y-13709476D01*
X11329762Y-13709476D01*
X11348809Y-13699952D01*
X11358333Y-13690428D01*
X11367857Y-13671381D01*
X11367857Y-13633286D01*
X11358333Y-13614238D01*
X11348809Y-13604714D01*
X11329762Y-13595190D01*
X11605952Y-13709476D02*
X11605952Y-13509476D01*
X11691667Y-13709476D02*
X11691667Y-13604714D01*
X11682143Y-13585667D01*
X11663095Y-13576143D01*
X11634524Y-13576143D01*
X11615476Y-13585667D01*
X11605952Y-13595190D01*
X11815476Y-13709476D02*
X11796428Y-13699952D01*
X11786905Y-13690428D01*
X11777381Y-13671381D01*
X11777381Y-13614238D01*
X11786905Y-13595190D01*
X11796428Y-13585667D01*
X11815476Y-13576143D01*
X11844048Y-13576143D01*
X11863095Y-13585667D01*
X11872619Y-13595190D01*
X11882143Y-13614238D01*
X11882143Y-13671381D01*
X11872619Y-13690428D01*
X11863095Y-13699952D01*
X11844048Y-13709476D01*
X11815476Y-13709476D01*
X11996428Y-13709476D02*
X11977381Y-13699952D01*
X11967857Y-13680905D01*
X11967857Y-13509476D01*
X12148809Y-13699952D02*
X12129762Y-13709476D01*
X12091667Y-13709476D01*
X12072619Y-13699952D01*
X12063095Y-13680905D01*
X12063095Y-13604714D01*
X12072619Y-13585667D01*
X12091667Y-13576143D01*
X12129762Y-13576143D01*
X12148809Y-13585667D01*
X12158333Y-13604714D01*
X12158333Y-13623762D01*
X12063095Y-13642809D01*
X12234524Y-13699952D02*
X12253571Y-13709476D01*
X12291667Y-13709476D01*
X12310714Y-13699952D01*
X12320238Y-13680905D01*
X12320238Y-13671381D01*
X12310714Y-13652333D01*
X12291667Y-13642809D01*
X12263095Y-13642809D01*
X12244048Y-13633286D01*
X12234524Y-13614238D01*
X12234524Y-13604714D01*
X12244048Y-13585667D01*
X12263095Y-13576143D01*
X12291667Y-13576143D01*
X12310714Y-13585667D01*
X12386905Y-13785667D02*
X12396428Y-13776143D01*
X12415476Y-13747571D01*
X12425000Y-13728524D01*
X12434524Y-13699952D01*
X12444048Y-13652333D01*
X12444048Y-13614238D01*
X12434524Y-13566619D01*
X12425000Y-13538048D01*
X12415476Y-13519000D01*
X12396428Y-13490428D01*
X12386905Y-13480905D01*
D15*
X7601088Y-13916588D02*
X7601088Y-13849412D01*
X7533912Y-13849412D01*
X7533912Y-13916588D01*
X7601088Y-13916588D01*
D11*
X7910714Y-13773476D02*
X7929762Y-13773476D01*
X7948809Y-13783000D01*
X7958333Y-13792524D01*
X7967857Y-13811571D01*
X7977381Y-13849667D01*
X7977381Y-13897286D01*
X7967857Y-13935381D01*
X7958333Y-13954428D01*
X7948809Y-13963952D01*
X7929762Y-13973476D01*
X7910714Y-13973476D01*
X7891667Y-13963952D01*
X7882143Y-13954428D01*
X7872619Y-13935381D01*
X7863095Y-13897286D01*
X7863095Y-13849667D01*
X7872619Y-13811571D01*
X7882143Y-13792524D01*
X7891667Y-13783000D01*
X7910714Y-13773476D01*
X8063095Y-13954428D02*
X8072619Y-13963952D01*
X8063095Y-13973476D01*
X8053571Y-13963952D01*
X8063095Y-13954428D01*
X8063095Y-13973476D01*
X8167857Y-13973476D02*
X8205952Y-13973476D01*
X8225000Y-13963952D01*
X8234524Y-13954428D01*
X8253571Y-13925857D01*
X8263095Y-13887762D01*
X8263095Y-13811571D01*
X8253571Y-13792524D01*
X8244048Y-13783000D01*
X8225000Y-13773476D01*
X8186905Y-13773476D01*
X8167857Y-13783000D01*
X8158333Y-13792524D01*
X8148809Y-13811571D01*
X8148809Y-13859190D01*
X8158333Y-13878238D01*
X8167857Y-13887762D01*
X8186905Y-13897286D01*
X8225000Y-13897286D01*
X8244048Y-13887762D01*
X8253571Y-13878238D01*
X8263095Y-13859190D01*
X8444048Y-13773476D02*
X8348809Y-13773476D01*
X8339286Y-13868714D01*
X8348809Y-13859190D01*
X8367857Y-13849667D01*
X8415476Y-13849667D01*
X8434524Y-13859190D01*
X8444048Y-13868714D01*
X8453571Y-13887762D01*
X8453571Y-13935381D01*
X8444048Y-13954428D01*
X8434524Y-13963952D01*
X8415476Y-13973476D01*
X8367857Y-13973476D01*
X8348809Y-13963952D01*
X8339286Y-13954428D01*
X8577381Y-13773476D02*
X8596429Y-13773476D01*
X8615476Y-13783000D01*
X8625000Y-13792524D01*
X8634524Y-13811571D01*
X8644048Y-13849667D01*
X8644048Y-13897286D01*
X8634524Y-13935381D01*
X8625000Y-13954428D01*
X8615476Y-13963952D01*
X8596429Y-13973476D01*
X8577381Y-13973476D01*
X8558333Y-13963952D01*
X8548810Y-13954428D01*
X8539286Y-13935381D01*
X8529762Y-13897286D01*
X8529762Y-13849667D01*
X8539286Y-13811571D01*
X8548810Y-13792524D01*
X8558333Y-13783000D01*
X8577381Y-13773476D01*
X8729762Y-13973476D02*
X8729762Y-13840143D01*
X8729762Y-13859190D02*
X8739286Y-13849667D01*
X8758333Y-13840143D01*
X8786905Y-13840143D01*
X8805952Y-13849667D01*
X8815476Y-13868714D01*
X8815476Y-13973476D01*
X8815476Y-13868714D02*
X8825000Y-13849667D01*
X8844048Y-13840143D01*
X8872619Y-13840143D01*
X8891667Y-13849667D01*
X8901190Y-13868714D01*
X8901190Y-13973476D01*
X8996429Y-13973476D02*
X8996429Y-13840143D01*
X8996429Y-13859190D02*
X9005952Y-13849667D01*
X9025000Y-13840143D01*
X9053571Y-13840143D01*
X9072619Y-13849667D01*
X9082143Y-13868714D01*
X9082143Y-13973476D01*
X9082143Y-13868714D02*
X9091667Y-13849667D01*
X9110714Y-13840143D01*
X9139286Y-13840143D01*
X9158333Y-13849667D01*
X9167857Y-13868714D01*
X9167857Y-13973476D01*
X9558333Y-13763952D02*
X9386905Y-14021095D01*
X9815476Y-13773476D02*
X9834524Y-13773476D01*
X9853571Y-13783000D01*
X9863095Y-13792524D01*
X9872619Y-13811571D01*
X9882143Y-13849667D01*
X9882143Y-13897286D01*
X9872619Y-13935381D01*
X9863095Y-13954428D01*
X9853571Y-13963952D01*
X9834524Y-13973476D01*
X9815476Y-13973476D01*
X9796429Y-13963952D01*
X9786905Y-13954428D01*
X9777381Y-13935381D01*
X9767857Y-13897286D01*
X9767857Y-13849667D01*
X9777381Y-13811571D01*
X9786905Y-13792524D01*
X9796429Y-13783000D01*
X9815476Y-13773476D01*
X9967857Y-13954428D02*
X9977381Y-13963952D01*
X9967857Y-13973476D01*
X9958333Y-13963952D01*
X9967857Y-13954428D01*
X9967857Y-13973476D01*
X10101190Y-13773476D02*
X10120238Y-13773476D01*
X10139286Y-13783000D01*
X10148810Y-13792524D01*
X10158333Y-13811571D01*
X10167857Y-13849667D01*
X10167857Y-13897286D01*
X10158333Y-13935381D01*
X10148810Y-13954428D01*
X10139286Y-13963952D01*
X10120238Y-13973476D01*
X10101190Y-13973476D01*
X10082143Y-13963952D01*
X10072619Y-13954428D01*
X10063095Y-13935381D01*
X10053571Y-13897286D01*
X10053571Y-13849667D01*
X10063095Y-13811571D01*
X10072619Y-13792524D01*
X10082143Y-13783000D01*
X10101190Y-13773476D01*
X10234524Y-13773476D02*
X10358333Y-13773476D01*
X10291667Y-13849667D01*
X10320238Y-13849667D01*
X10339286Y-13859190D01*
X10348810Y-13868714D01*
X10358333Y-13887762D01*
X10358333Y-13935381D01*
X10348810Y-13954428D01*
X10339286Y-13963952D01*
X10320238Y-13973476D01*
X10263095Y-13973476D01*
X10244048Y-13963952D01*
X10234524Y-13954428D01*
X10425000Y-13773476D02*
X10558333Y-13773476D01*
X10472619Y-13973476D01*
X10720238Y-13840143D02*
X10720238Y-13973476D01*
X10672619Y-13763952D02*
X10625000Y-13906809D01*
X10748810Y-13906809D01*
X10815476Y-13773476D02*
X10815476Y-13811571D01*
X10891667Y-13773476D02*
X10891667Y-13811571D01*
X11186905Y-14049667D02*
X11177381Y-14040143D01*
X11158333Y-14011571D01*
X11148810Y-13992524D01*
X11139286Y-13963952D01*
X11129762Y-13916333D01*
X11129762Y-13878238D01*
X11139286Y-13830619D01*
X11148810Y-13802048D01*
X11158333Y-13783000D01*
X11177381Y-13754428D01*
X11186905Y-13744905D01*
X11367857Y-13973476D02*
X11253571Y-13973476D01*
X11310714Y-13973476D02*
X11310714Y-13773476D01*
X11291667Y-13802048D01*
X11272619Y-13821095D01*
X11253571Y-13830619D01*
X11548809Y-13773476D02*
X11453571Y-13773476D01*
X11444048Y-13868714D01*
X11453571Y-13859190D01*
X11472619Y-13849667D01*
X11520238Y-13849667D01*
X11539286Y-13859190D01*
X11548809Y-13868714D01*
X11558333Y-13887762D01*
X11558333Y-13935381D01*
X11548809Y-13954428D01*
X11539286Y-13963952D01*
X11520238Y-13973476D01*
X11472619Y-13973476D01*
X11453571Y-13963952D01*
X11444048Y-13954428D01*
X11796428Y-13973476D02*
X11796428Y-13773476D01*
X11882143Y-13973476D02*
X11882143Y-13868714D01*
X11872619Y-13849667D01*
X11853571Y-13840143D01*
X11825000Y-13840143D01*
X11805952Y-13849667D01*
X11796428Y-13859190D01*
X12005952Y-13973476D02*
X11986905Y-13963952D01*
X11977381Y-13954428D01*
X11967857Y-13935381D01*
X11967857Y-13878238D01*
X11977381Y-13859190D01*
X11986905Y-13849667D01*
X12005952Y-13840143D01*
X12034524Y-13840143D01*
X12053571Y-13849667D01*
X12063095Y-13859190D01*
X12072619Y-13878238D01*
X12072619Y-13935381D01*
X12063095Y-13954428D01*
X12053571Y-13963952D01*
X12034524Y-13973476D01*
X12005952Y-13973476D01*
X12186905Y-13973476D02*
X12167857Y-13963952D01*
X12158333Y-13944905D01*
X12158333Y-13773476D01*
X12339286Y-13963952D02*
X12320238Y-13973476D01*
X12282143Y-13973476D01*
X12263095Y-13963952D01*
X12253571Y-13944905D01*
X12253571Y-13868714D01*
X12263095Y-13849667D01*
X12282143Y-13840143D01*
X12320238Y-13840143D01*
X12339286Y-13849667D01*
X12348809Y-13868714D01*
X12348809Y-13887762D01*
X12253571Y-13906809D01*
X12425000Y-13963952D02*
X12444048Y-13973476D01*
X12482143Y-13973476D01*
X12501190Y-13963952D01*
X12510714Y-13944905D01*
X12510714Y-13935381D01*
X12501190Y-13916333D01*
X12482143Y-13906809D01*
X12453571Y-13906809D01*
X12434524Y-13897286D01*
X12425000Y-13878238D01*
X12425000Y-13868714D01*
X12434524Y-13849667D01*
X12453571Y-13840143D01*
X12482143Y-13840143D01*
X12501190Y-13849667D01*
X12577381Y-14049667D02*
X12586905Y-14040143D01*
X12605952Y-14011571D01*
X12615476Y-13992524D01*
X12625000Y-13963952D01*
X12634524Y-13916333D01*
X12634524Y-13878238D01*
X12625000Y-13830619D01*
X12615476Y-13802048D01*
X12605952Y-13783000D01*
X12586905Y-13754428D01*
X12577381Y-13744905D01*
D16*
X7565000Y-14197000D02*
X7615000Y-14147000D01*
X7565000Y-14097000D01*
X7515000Y-14147000D01*
X7565000Y-14197000D01*
D11*
X7977381Y-14237476D02*
X7863095Y-14237476D01*
X7920238Y-14237476D02*
X7920238Y-14037476D01*
X7901190Y-14066048D01*
X7882143Y-14085095D01*
X7863095Y-14094619D01*
X8063095Y-14218428D02*
X8072619Y-14227952D01*
X8063095Y-14237476D01*
X8053571Y-14227952D01*
X8063095Y-14218428D01*
X8063095Y-14237476D01*
X8196428Y-14037476D02*
X8215476Y-14037476D01*
X8234524Y-14047000D01*
X8244048Y-14056524D01*
X8253571Y-14075571D01*
X8263095Y-14113667D01*
X8263095Y-14161286D01*
X8253571Y-14199381D01*
X8244048Y-14218428D01*
X8234524Y-14227952D01*
X8215476Y-14237476D01*
X8196428Y-14237476D01*
X8177381Y-14227952D01*
X8167857Y-14218428D01*
X8158333Y-14199381D01*
X8148809Y-14161286D01*
X8148809Y-14113667D01*
X8158333Y-14075571D01*
X8167857Y-14056524D01*
X8177381Y-14047000D01*
X8196428Y-14037476D01*
X8386905Y-14037476D02*
X8405952Y-14037476D01*
X8425000Y-14047000D01*
X8434524Y-14056524D01*
X8444048Y-14075571D01*
X8453571Y-14113667D01*
X8453571Y-14161286D01*
X8444048Y-14199381D01*
X8434524Y-14218428D01*
X8425000Y-14227952D01*
X8405952Y-14237476D01*
X8386905Y-14237476D01*
X8367857Y-14227952D01*
X8358333Y-14218428D01*
X8348809Y-14199381D01*
X8339286Y-14161286D01*
X8339286Y-14113667D01*
X8348809Y-14075571D01*
X8358333Y-14056524D01*
X8367857Y-14047000D01*
X8386905Y-14037476D01*
X8577381Y-14037476D02*
X8596429Y-14037476D01*
X8615476Y-14047000D01*
X8625000Y-14056524D01*
X8634524Y-14075571D01*
X8644048Y-14113667D01*
X8644048Y-14161286D01*
X8634524Y-14199381D01*
X8625000Y-14218428D01*
X8615476Y-14227952D01*
X8596429Y-14237476D01*
X8577381Y-14237476D01*
X8558333Y-14227952D01*
X8548810Y-14218428D01*
X8539286Y-14199381D01*
X8529762Y-14161286D01*
X8529762Y-14113667D01*
X8539286Y-14075571D01*
X8548810Y-14056524D01*
X8558333Y-14047000D01*
X8577381Y-14037476D01*
X8729762Y-14237476D02*
X8729762Y-14104143D01*
X8729762Y-14123190D02*
X8739286Y-14113667D01*
X8758333Y-14104143D01*
X8786905Y-14104143D01*
X8805952Y-14113667D01*
X8815476Y-14132714D01*
X8815476Y-14237476D01*
X8815476Y-14132714D02*
X8825000Y-14113667D01*
X8844048Y-14104143D01*
X8872619Y-14104143D01*
X8891667Y-14113667D01*
X8901190Y-14132714D01*
X8901190Y-14237476D01*
X8996429Y-14237476D02*
X8996429Y-14104143D01*
X8996429Y-14123190D02*
X9005952Y-14113667D01*
X9025000Y-14104143D01*
X9053571Y-14104143D01*
X9072619Y-14113667D01*
X9082143Y-14132714D01*
X9082143Y-14237476D01*
X9082143Y-14132714D02*
X9091667Y-14113667D01*
X9110714Y-14104143D01*
X9139286Y-14104143D01*
X9158333Y-14113667D01*
X9167857Y-14132714D01*
X9167857Y-14237476D01*
X9558333Y-14027952D02*
X9386905Y-14285095D01*
X9815476Y-14037476D02*
X9834524Y-14037476D01*
X9853571Y-14047000D01*
X9863095Y-14056524D01*
X9872619Y-14075571D01*
X9882143Y-14113667D01*
X9882143Y-14161286D01*
X9872619Y-14199381D01*
X9863095Y-14218428D01*
X9853571Y-14227952D01*
X9834524Y-14237476D01*
X9815476Y-14237476D01*
X9796429Y-14227952D01*
X9786905Y-14218428D01*
X9777381Y-14199381D01*
X9767857Y-14161286D01*
X9767857Y-14113667D01*
X9777381Y-14075571D01*
X9786905Y-14056524D01*
X9796429Y-14047000D01*
X9815476Y-14037476D01*
X9967857Y-14218428D02*
X9977381Y-14227952D01*
X9967857Y-14237476D01*
X9958333Y-14227952D01*
X9967857Y-14218428D01*
X9967857Y-14237476D01*
X10101190Y-14037476D02*
X10120238Y-14037476D01*
X10139286Y-14047000D01*
X10148810Y-14056524D01*
X10158333Y-14075571D01*
X10167857Y-14113667D01*
X10167857Y-14161286D01*
X10158333Y-14199381D01*
X10148810Y-14218428D01*
X10139286Y-14227952D01*
X10120238Y-14237476D01*
X10101190Y-14237476D01*
X10082143Y-14227952D01*
X10072619Y-14218428D01*
X10063095Y-14199381D01*
X10053571Y-14161286D01*
X10053571Y-14113667D01*
X10063095Y-14075571D01*
X10072619Y-14056524D01*
X10082143Y-14047000D01*
X10101190Y-14037476D01*
X10234524Y-14037476D02*
X10358333Y-14037476D01*
X10291667Y-14113667D01*
X10320238Y-14113667D01*
X10339286Y-14123190D01*
X10348810Y-14132714D01*
X10358333Y-14151762D01*
X10358333Y-14199381D01*
X10348810Y-14218428D01*
X10339286Y-14227952D01*
X10320238Y-14237476D01*
X10263095Y-14237476D01*
X10244048Y-14227952D01*
X10234524Y-14218428D01*
X10453571Y-14237476D02*
X10491667Y-14237476D01*
X10510714Y-14227952D01*
X10520238Y-14218428D01*
X10539286Y-14189857D01*
X10548810Y-14151762D01*
X10548810Y-14075571D01*
X10539286Y-14056524D01*
X10529762Y-14047000D01*
X10510714Y-14037476D01*
X10472619Y-14037476D01*
X10453571Y-14047000D01*
X10444048Y-14056524D01*
X10434524Y-14075571D01*
X10434524Y-14123190D01*
X10444048Y-14142238D01*
X10453571Y-14151762D01*
X10472619Y-14161286D01*
X10510714Y-14161286D01*
X10529762Y-14151762D01*
X10539286Y-14142238D01*
X10548810Y-14123190D01*
X10720238Y-14104143D02*
X10720238Y-14237476D01*
X10672619Y-14027952D02*
X10625000Y-14170809D01*
X10748810Y-14170809D01*
X10815476Y-14037476D02*
X10815476Y-14075571D01*
X10891667Y-14037476D02*
X10891667Y-14075571D01*
X11186905Y-14313667D02*
X11177381Y-14304143D01*
X11158333Y-14275571D01*
X11148810Y-14256524D01*
X11139286Y-14227952D01*
X11129762Y-14180333D01*
X11129762Y-14142238D01*
X11139286Y-14094619D01*
X11148810Y-14066048D01*
X11158333Y-14047000D01*
X11177381Y-14018428D01*
X11186905Y-14008905D01*
X11348809Y-14104143D02*
X11348809Y-14237476D01*
X11301190Y-14027952D02*
X11253571Y-14170809D01*
X11377381Y-14170809D01*
X11482143Y-14123190D02*
X11463095Y-14113667D01*
X11453571Y-14104143D01*
X11444048Y-14085095D01*
X11444048Y-14075571D01*
X11453571Y-14056524D01*
X11463095Y-14047000D01*
X11482143Y-14037476D01*
X11520238Y-14037476D01*
X11539286Y-14047000D01*
X11548809Y-14056524D01*
X11558333Y-14075571D01*
X11558333Y-14085095D01*
X11548809Y-14104143D01*
X11539286Y-14113667D01*
X11520238Y-14123190D01*
X11482143Y-14123190D01*
X11463095Y-14132714D01*
X11453571Y-14142238D01*
X11444048Y-14161286D01*
X11444048Y-14199381D01*
X11453571Y-14218428D01*
X11463095Y-14227952D01*
X11482143Y-14237476D01*
X11520238Y-14237476D01*
X11539286Y-14227952D01*
X11548809Y-14218428D01*
X11558333Y-14199381D01*
X11558333Y-14161286D01*
X11548809Y-14142238D01*
X11539286Y-14132714D01*
X11520238Y-14123190D01*
X11796428Y-14237476D02*
X11796428Y-14037476D01*
X11882143Y-14237476D02*
X11882143Y-14132714D01*
X11872619Y-14113667D01*
X11853571Y-14104143D01*
X11825000Y-14104143D01*
X11805952Y-14113667D01*
X11796428Y-14123190D01*
X12005952Y-14237476D02*
X11986905Y-14227952D01*
X11977381Y-14218428D01*
X11967857Y-14199381D01*
X11967857Y-14142238D01*
X11977381Y-14123190D01*
X11986905Y-14113667D01*
X12005952Y-14104143D01*
X12034524Y-14104143D01*
X12053571Y-14113667D01*
X12063095Y-14123190D01*
X12072619Y-14142238D01*
X12072619Y-14199381D01*
X12063095Y-14218428D01*
X12053571Y-14227952D01*
X12034524Y-14237476D01*
X12005952Y-14237476D01*
X12186905Y-14237476D02*
X12167857Y-14227952D01*
X12158333Y-14208905D01*
X12158333Y-14037476D01*
X12339286Y-14227952D02*
X12320238Y-14237476D01*
X12282143Y-14237476D01*
X12263095Y-14227952D01*
X12253571Y-14208905D01*
X12253571Y-14132714D01*
X12263095Y-14113667D01*
X12282143Y-14104143D01*
X12320238Y-14104143D01*
X12339286Y-14113667D01*
X12348809Y-14132714D01*
X12348809Y-14151762D01*
X12253571Y-14170809D01*
X12425000Y-14227952D02*
X12444048Y-14237476D01*
X12482143Y-14237476D01*
X12501190Y-14227952D01*
X12510714Y-14208905D01*
X12510714Y-14199381D01*
X12501190Y-14180333D01*
X12482143Y-14170809D01*
X12453571Y-14170809D01*
X12434524Y-14161286D01*
X12425000Y-14142238D01*
X12425000Y-14132714D01*
X12434524Y-14113667D01*
X12453571Y-14104143D01*
X12482143Y-14104143D01*
X12501190Y-14113667D01*
X12577381Y-14313667D02*
X12586905Y-14304143D01*
X12605952Y-14275571D01*
X12615476Y-14256524D01*
X12625000Y-14227952D01*
X12634524Y-14180333D01*
X12634524Y-14142238D01*
X12625000Y-14094619D01*
X12615476Y-14066048D01*
X12605952Y-14047000D01*
X12586905Y-14018428D01*
X12577381Y-14008905D01*
D17*
X7483000Y-14345000D02*
X7615000Y-14477000D01*
X7615000Y-14345000D02*
X7483000Y-14477000D01*
X7615000Y-14411000D02*
G75*
G03*
X7615000Y-14411000I-66000J0D01*
G01*
D11*
X7977381Y-14501476D02*
X7863095Y-14501476D01*
X7920238Y-14501476D02*
X7920238Y-14301476D01*
X7901190Y-14330048D01*
X7882143Y-14349095D01*
X7863095Y-14358619D01*
X8063095Y-14482428D02*
X8072619Y-14491952D01*
X8063095Y-14501476D01*
X8053571Y-14491952D01*
X8063095Y-14482428D01*
X8063095Y-14501476D01*
X8139286Y-14301476D02*
X8263095Y-14301476D01*
X8196428Y-14377667D01*
X8225000Y-14377667D01*
X8244048Y-14387190D01*
X8253571Y-14396714D01*
X8263095Y-14415762D01*
X8263095Y-14463381D01*
X8253571Y-14482428D01*
X8244048Y-14491952D01*
X8225000Y-14501476D01*
X8167857Y-14501476D01*
X8148809Y-14491952D01*
X8139286Y-14482428D01*
X8339286Y-14320524D02*
X8348809Y-14311000D01*
X8367857Y-14301476D01*
X8415476Y-14301476D01*
X8434524Y-14311000D01*
X8444048Y-14320524D01*
X8453571Y-14339571D01*
X8453571Y-14358619D01*
X8444048Y-14387190D01*
X8329762Y-14501476D01*
X8453571Y-14501476D01*
X8577381Y-14301476D02*
X8596429Y-14301476D01*
X8615476Y-14311000D01*
X8625000Y-14320524D01*
X8634524Y-14339571D01*
X8644048Y-14377667D01*
X8644048Y-14425286D01*
X8634524Y-14463381D01*
X8625000Y-14482428D01*
X8615476Y-14491952D01*
X8596429Y-14501476D01*
X8577381Y-14501476D01*
X8558333Y-14491952D01*
X8548810Y-14482428D01*
X8539286Y-14463381D01*
X8529762Y-14425286D01*
X8529762Y-14377667D01*
X8539286Y-14339571D01*
X8548810Y-14320524D01*
X8558333Y-14311000D01*
X8577381Y-14301476D01*
X8729762Y-14501476D02*
X8729762Y-14368143D01*
X8729762Y-14387190D02*
X8739286Y-14377667D01*
X8758333Y-14368143D01*
X8786905Y-14368143D01*
X8805952Y-14377667D01*
X8815476Y-14396714D01*
X8815476Y-14501476D01*
X8815476Y-14396714D02*
X8825000Y-14377667D01*
X8844048Y-14368143D01*
X8872619Y-14368143D01*
X8891667Y-14377667D01*
X8901190Y-14396714D01*
X8901190Y-14501476D01*
X8996429Y-14501476D02*
X8996429Y-14368143D01*
X8996429Y-14387190D02*
X9005952Y-14377667D01*
X9025000Y-14368143D01*
X9053571Y-14368143D01*
X9072619Y-14377667D01*
X9082143Y-14396714D01*
X9082143Y-14501476D01*
X9082143Y-14396714D02*
X9091667Y-14377667D01*
X9110714Y-14368143D01*
X9139286Y-14368143D01*
X9158333Y-14377667D01*
X9167857Y-14396714D01*
X9167857Y-14501476D01*
X9558333Y-14291952D02*
X9386905Y-14549095D01*
X9815476Y-14301476D02*
X9834524Y-14301476D01*
X9853571Y-14311000D01*
X9863095Y-14320524D01*
X9872619Y-14339571D01*
X9882143Y-14377667D01*
X9882143Y-14425286D01*
X9872619Y-14463381D01*
X9863095Y-14482428D01*
X9853571Y-14491952D01*
X9834524Y-14501476D01*
X9815476Y-14501476D01*
X9796429Y-14491952D01*
X9786905Y-14482428D01*
X9777381Y-14463381D01*
X9767857Y-14425286D01*
X9767857Y-14377667D01*
X9777381Y-14339571D01*
X9786905Y-14320524D01*
X9796429Y-14311000D01*
X9815476Y-14301476D01*
X9967857Y-14482428D02*
X9977381Y-14491952D01*
X9967857Y-14501476D01*
X9958333Y-14491952D01*
X9967857Y-14482428D01*
X9967857Y-14501476D01*
X10101190Y-14301476D02*
X10120238Y-14301476D01*
X10139286Y-14311000D01*
X10148810Y-14320524D01*
X10158333Y-14339571D01*
X10167857Y-14377667D01*
X10167857Y-14425286D01*
X10158333Y-14463381D01*
X10148810Y-14482428D01*
X10139286Y-14491952D01*
X10120238Y-14501476D01*
X10101190Y-14501476D01*
X10082143Y-14491952D01*
X10072619Y-14482428D01*
X10063095Y-14463381D01*
X10053571Y-14425286D01*
X10053571Y-14377667D01*
X10063095Y-14339571D01*
X10072619Y-14320524D01*
X10082143Y-14311000D01*
X10101190Y-14301476D01*
X10348810Y-14301476D02*
X10253571Y-14301476D01*
X10244048Y-14396714D01*
X10253571Y-14387190D01*
X10272619Y-14377667D01*
X10320238Y-14377667D01*
X10339286Y-14387190D01*
X10348810Y-14396714D01*
X10358333Y-14415762D01*
X10358333Y-14463381D01*
X10348810Y-14482428D01*
X10339286Y-14491952D01*
X10320238Y-14501476D01*
X10272619Y-14501476D01*
X10253571Y-14491952D01*
X10244048Y-14482428D01*
X10434524Y-14320524D02*
X10444048Y-14311000D01*
X10463095Y-14301476D01*
X10510714Y-14301476D01*
X10529762Y-14311000D01*
X10539286Y-14320524D01*
X10548810Y-14339571D01*
X10548810Y-14358619D01*
X10539286Y-14387190D01*
X10425000Y-14501476D01*
X10548810Y-14501476D01*
X10672619Y-14301476D02*
X10691667Y-14301476D01*
X10710714Y-14311000D01*
X10720238Y-14320524D01*
X10729762Y-14339571D01*
X10739286Y-14377667D01*
X10739286Y-14425286D01*
X10729762Y-14463381D01*
X10720238Y-14482428D01*
X10710714Y-14491952D01*
X10691667Y-14501476D01*
X10672619Y-14501476D01*
X10653571Y-14491952D01*
X10644048Y-14482428D01*
X10634524Y-14463381D01*
X10625000Y-14425286D01*
X10625000Y-14377667D01*
X10634524Y-14339571D01*
X10644048Y-14320524D01*
X10653571Y-14311000D01*
X10672619Y-14301476D01*
X10815476Y-14301476D02*
X10815476Y-14339571D01*
X10891667Y-14301476D02*
X10891667Y-14339571D01*
X11186905Y-14577667D02*
X11177381Y-14568143D01*
X11158333Y-14539571D01*
X11148810Y-14520524D01*
X11139286Y-14491952D01*
X11129762Y-14444333D01*
X11129762Y-14406238D01*
X11139286Y-14358619D01*
X11148810Y-14330048D01*
X11158333Y-14311000D01*
X11177381Y-14282428D01*
X11186905Y-14272905D01*
X11253571Y-14320524D02*
X11263095Y-14311000D01*
X11282143Y-14301476D01*
X11329762Y-14301476D01*
X11348809Y-14311000D01*
X11358333Y-14320524D01*
X11367857Y-14339571D01*
X11367857Y-14358619D01*
X11358333Y-14387190D01*
X11244048Y-14501476D01*
X11367857Y-14501476D01*
X11605952Y-14501476D02*
X11605952Y-14301476D01*
X11691667Y-14501476D02*
X11691667Y-14396714D01*
X11682143Y-14377667D01*
X11663095Y-14368143D01*
X11634524Y-14368143D01*
X11615476Y-14377667D01*
X11605952Y-14387190D01*
X11815476Y-14501476D02*
X11796428Y-14491952D01*
X11786905Y-14482428D01*
X11777381Y-14463381D01*
X11777381Y-14406238D01*
X11786905Y-14387190D01*
X11796428Y-14377667D01*
X11815476Y-14368143D01*
X11844048Y-14368143D01*
X11863095Y-14377667D01*
X11872619Y-14387190D01*
X11882143Y-14406238D01*
X11882143Y-14463381D01*
X11872619Y-14482428D01*
X11863095Y-14491952D01*
X11844048Y-14501476D01*
X11815476Y-14501476D01*
X11996428Y-14501476D02*
X11977381Y-14491952D01*
X11967857Y-14472905D01*
X11967857Y-14301476D01*
X12148809Y-14491952D02*
X12129762Y-14501476D01*
X12091667Y-14501476D01*
X12072619Y-14491952D01*
X12063095Y-14472905D01*
X12063095Y-14396714D01*
X12072619Y-14377667D01*
X12091667Y-14368143D01*
X12129762Y-14368143D01*
X12148809Y-14377667D01*
X12158333Y-14396714D01*
X12158333Y-14415762D01*
X12063095Y-14434809D01*
X12234524Y-14491952D02*
X12253571Y-14501476D01*
X12291667Y-14501476D01*
X12310714Y-14491952D01*
X12320238Y-14472905D01*
X12320238Y-14463381D01*
X12310714Y-14444333D01*
X12291667Y-14434809D01*
X12263095Y-14434809D01*
X12244048Y-14425286D01*
X12234524Y-14406238D01*
X12234524Y-14396714D01*
X12244048Y-14377667D01*
X12263095Y-14368143D01*
X12291667Y-14368143D01*
X12310714Y-14377667D01*
X12386905Y-14577667D02*
X12396428Y-14568143D01*
X12415476Y-14539571D01*
X12425000Y-14520524D01*
X12434524Y-14491952D01*
X12444048Y-14444333D01*
X12444048Y-14406238D01*
X12434524Y-14358619D01*
X12425000Y-14330048D01*
X12415476Y-14311000D01*
X12396428Y-14282428D01*
X12386905Y-14272905D01*
D18*
X7455000Y-14595000D02*
X7615000Y-14755000D01*
X7615000Y-14595000D02*
X7455000Y-14755000D01*
X7535000Y-14595000D02*
X7535000Y-14755000D01*
X7455000Y-14675000D02*
X7615000Y-14675000D01*
D11*
X7977381Y-14765476D02*
X7863095Y-14765476D01*
X7920238Y-14765476D02*
X7920238Y-14565476D01*
X7901190Y-14594048D01*
X7882143Y-14613095D01*
X7863095Y-14622619D01*
X8063095Y-14746428D02*
X8072619Y-14755952D01*
X8063095Y-14765476D01*
X8053571Y-14755952D01*
X8063095Y-14746428D01*
X8063095Y-14765476D01*
X8244048Y-14565476D02*
X8205952Y-14565476D01*
X8186905Y-14575000D01*
X8177381Y-14584524D01*
X8158333Y-14613095D01*
X8148809Y-14651190D01*
X8148809Y-14727381D01*
X8158333Y-14746428D01*
X8167857Y-14755952D01*
X8186905Y-14765476D01*
X8225000Y-14765476D01*
X8244048Y-14755952D01*
X8253571Y-14746428D01*
X8263095Y-14727381D01*
X8263095Y-14679762D01*
X8253571Y-14660714D01*
X8244048Y-14651190D01*
X8225000Y-14641667D01*
X8186905Y-14641667D01*
X8167857Y-14651190D01*
X8158333Y-14660714D01*
X8148809Y-14679762D01*
X8386905Y-14565476D02*
X8405952Y-14565476D01*
X8425000Y-14575000D01*
X8434524Y-14584524D01*
X8444048Y-14603571D01*
X8453571Y-14641667D01*
X8453571Y-14689286D01*
X8444048Y-14727381D01*
X8434524Y-14746428D01*
X8425000Y-14755952D01*
X8405952Y-14765476D01*
X8386905Y-14765476D01*
X8367857Y-14755952D01*
X8358333Y-14746428D01*
X8348809Y-14727381D01*
X8339286Y-14689286D01*
X8339286Y-14641667D01*
X8348809Y-14603571D01*
X8358333Y-14584524D01*
X8367857Y-14575000D01*
X8386905Y-14565476D01*
X8577381Y-14565476D02*
X8596429Y-14565476D01*
X8615476Y-14575000D01*
X8625000Y-14584524D01*
X8634524Y-14603571D01*
X8644048Y-14641667D01*
X8644048Y-14689286D01*
X8634524Y-14727381D01*
X8625000Y-14746428D01*
X8615476Y-14755952D01*
X8596429Y-14765476D01*
X8577381Y-14765476D01*
X8558333Y-14755952D01*
X8548810Y-14746428D01*
X8539286Y-14727381D01*
X8529762Y-14689286D01*
X8529762Y-14641667D01*
X8539286Y-14603571D01*
X8548810Y-14584524D01*
X8558333Y-14575000D01*
X8577381Y-14565476D01*
X8729762Y-14765476D02*
X8729762Y-14632143D01*
X8729762Y-14651190D02*
X8739286Y-14641667D01*
X8758333Y-14632143D01*
X8786905Y-14632143D01*
X8805952Y-14641667D01*
X8815476Y-14660714D01*
X8815476Y-14765476D01*
X8815476Y-14660714D02*
X8825000Y-14641667D01*
X8844048Y-14632143D01*
X8872619Y-14632143D01*
X8891667Y-14641667D01*
X8901190Y-14660714D01*
X8901190Y-14765476D01*
X8996429Y-14765476D02*
X8996429Y-14632143D01*
X8996429Y-14651190D02*
X9005952Y-14641667D01*
X9025000Y-14632143D01*
X9053571Y-14632143D01*
X9072619Y-14641667D01*
X9082143Y-14660714D01*
X9082143Y-14765476D01*
X9082143Y-14660714D02*
X9091667Y-14641667D01*
X9110714Y-14632143D01*
X9139286Y-14632143D01*
X9158333Y-14641667D01*
X9167857Y-14660714D01*
X9167857Y-14765476D01*
X9558333Y-14555952D02*
X9386905Y-14813095D01*
X9815476Y-14565476D02*
X9834524Y-14565476D01*
X9853571Y-14575000D01*
X9863095Y-14584524D01*
X9872619Y-14603571D01*
X9882143Y-14641667D01*
X9882143Y-14689286D01*
X9872619Y-14727381D01*
X9863095Y-14746428D01*
X9853571Y-14755952D01*
X9834524Y-14765476D01*
X9815476Y-14765476D01*
X9796429Y-14755952D01*
X9786905Y-14746428D01*
X9777381Y-14727381D01*
X9767857Y-14689286D01*
X9767857Y-14641667D01*
X9777381Y-14603571D01*
X9786905Y-14584524D01*
X9796429Y-14575000D01*
X9815476Y-14565476D01*
X9967857Y-14746428D02*
X9977381Y-14755952D01*
X9967857Y-14765476D01*
X9958333Y-14755952D01*
X9967857Y-14746428D01*
X9967857Y-14765476D01*
X10101190Y-14565476D02*
X10120238Y-14565476D01*
X10139286Y-14575000D01*
X10148810Y-14584524D01*
X10158333Y-14603571D01*
X10167857Y-14641667D01*
X10167857Y-14689286D01*
X10158333Y-14727381D01*
X10148810Y-14746428D01*
X10139286Y-14755952D01*
X10120238Y-14765476D01*
X10101190Y-14765476D01*
X10082143Y-14755952D01*
X10072619Y-14746428D01*
X10063095Y-14727381D01*
X10053571Y-14689286D01*
X10053571Y-14641667D01*
X10063095Y-14603571D01*
X10072619Y-14584524D01*
X10082143Y-14575000D01*
X10101190Y-14565476D01*
X10339286Y-14565476D02*
X10301190Y-14565476D01*
X10282143Y-14575000D01*
X10272619Y-14584524D01*
X10253571Y-14613095D01*
X10244048Y-14651190D01*
X10244048Y-14727381D01*
X10253571Y-14746428D01*
X10263095Y-14755952D01*
X10282143Y-14765476D01*
X10320238Y-14765476D01*
X10339286Y-14755952D01*
X10348810Y-14746428D01*
X10358333Y-14727381D01*
X10358333Y-14679762D01*
X10348810Y-14660714D01*
X10339286Y-14651190D01*
X10320238Y-14641667D01*
X10282143Y-14641667D01*
X10263095Y-14651190D01*
X10253571Y-14660714D01*
X10244048Y-14679762D01*
X10425000Y-14565476D02*
X10548810Y-14565476D01*
X10482143Y-14641667D01*
X10510714Y-14641667D01*
X10529762Y-14651190D01*
X10539286Y-14660714D01*
X10548810Y-14679762D01*
X10548810Y-14727381D01*
X10539286Y-14746428D01*
X10529762Y-14755952D01*
X10510714Y-14765476D01*
X10453571Y-14765476D01*
X10434524Y-14755952D01*
X10425000Y-14746428D01*
X10672619Y-14565476D02*
X10691667Y-14565476D01*
X10710714Y-14575000D01*
X10720238Y-14584524D01*
X10729762Y-14603571D01*
X10739286Y-14641667D01*
X10739286Y-14689286D01*
X10729762Y-14727381D01*
X10720238Y-14746428D01*
X10710714Y-14755952D01*
X10691667Y-14765476D01*
X10672619Y-14765476D01*
X10653571Y-14755952D01*
X10644048Y-14746428D01*
X10634524Y-14727381D01*
X10625000Y-14689286D01*
X10625000Y-14641667D01*
X10634524Y-14603571D01*
X10644048Y-14584524D01*
X10653571Y-14575000D01*
X10672619Y-14565476D01*
X10815476Y-14565476D02*
X10815476Y-14603571D01*
X10891667Y-14565476D02*
X10891667Y-14603571D01*
X11186905Y-14841667D02*
X11177381Y-14832143D01*
X11158333Y-14803571D01*
X11148810Y-14784524D01*
X11139286Y-14755952D01*
X11129762Y-14708333D01*
X11129762Y-14670238D01*
X11139286Y-14622619D01*
X11148810Y-14594048D01*
X11158333Y-14575000D01*
X11177381Y-14546428D01*
X11186905Y-14536905D01*
X11253571Y-14584524D02*
X11263095Y-14575000D01*
X11282143Y-14565476D01*
X11329762Y-14565476D01*
X11348809Y-14575000D01*
X11358333Y-14584524D01*
X11367857Y-14603571D01*
X11367857Y-14622619D01*
X11358333Y-14651190D01*
X11244048Y-14765476D01*
X11367857Y-14765476D01*
X11605952Y-14765476D02*
X11605952Y-14565476D01*
X11691667Y-14765476D02*
X11691667Y-14660714D01*
X11682143Y-14641667D01*
X11663095Y-14632143D01*
X11634524Y-14632143D01*
X11615476Y-14641667D01*
X11605952Y-14651190D01*
X11815476Y-14765476D02*
X11796428Y-14755952D01*
X11786905Y-14746428D01*
X11777381Y-14727381D01*
X11777381Y-14670238D01*
X11786905Y-14651190D01*
X11796428Y-14641667D01*
X11815476Y-14632143D01*
X11844048Y-14632143D01*
X11863095Y-14641667D01*
X11872619Y-14651190D01*
X11882143Y-14670238D01*
X11882143Y-14727381D01*
X11872619Y-14746428D01*
X11863095Y-14755952D01*
X11844048Y-14765476D01*
X11815476Y-14765476D01*
X11996428Y-14765476D02*
X11977381Y-14755952D01*
X11967857Y-14736905D01*
X11967857Y-14565476D01*
X12148809Y-14755952D02*
X12129762Y-14765476D01*
X12091667Y-14765476D01*
X12072619Y-14755952D01*
X12063095Y-14736905D01*
X12063095Y-14660714D01*
X12072619Y-14641667D01*
X12091667Y-14632143D01*
X12129762Y-14632143D01*
X12148809Y-14641667D01*
X12158333Y-14660714D01*
X12158333Y-14679762D01*
X12063095Y-14698809D01*
X12234524Y-14755952D02*
X12253571Y-14765476D01*
X12291667Y-14765476D01*
X12310714Y-14755952D01*
X12320238Y-14736905D01*
X12320238Y-14727381D01*
X12310714Y-14708333D01*
X12291667Y-14698809D01*
X12263095Y-14698809D01*
X12244048Y-14689286D01*
X12234524Y-14670238D01*
X12234524Y-14660714D01*
X12244048Y-14641667D01*
X12263095Y-14632143D01*
X12291667Y-14632143D01*
X12310714Y-14641667D01*
X12386905Y-14841667D02*
X12396428Y-14832143D01*
X12415476Y-14803571D01*
X12425000Y-14784524D01*
X12434524Y-14755952D01*
X12444048Y-14708333D01*
X12444048Y-14670238D01*
X12434524Y-14622619D01*
X12425000Y-14594048D01*
X12415476Y-14575000D01*
X12396428Y-14546428D01*
X12386905Y-14536905D01*
X7415000Y-14855000D02*
X7615000Y-15055000D01*
X7615000Y-14855000D02*
X7415000Y-15055000D01*
X7585711Y-15025711D02*
X7585711Y-14884289D01*
X7444289Y-14884289D01*
X7444289Y-15025711D01*
X7585711Y-15025711D01*
X7853571Y-14845476D02*
X7977381Y-14845476D01*
X7910714Y-14921667D01*
X7939286Y-14921667D01*
X7958333Y-14931190D01*
X7967857Y-14940714D01*
X7977381Y-14959762D01*
X7977381Y-15007381D01*
X7967857Y-15026428D01*
X7958333Y-15035952D01*
X7939286Y-15045476D01*
X7882143Y-15045476D01*
X7863095Y-15035952D01*
X7853571Y-15026428D01*
X8063095Y-15026428D02*
X8072619Y-15035952D01*
X8063095Y-15045476D01*
X8053571Y-15035952D01*
X8063095Y-15026428D01*
X8063095Y-15045476D01*
X8148809Y-14864524D02*
X8158333Y-14855000D01*
X8177381Y-14845476D01*
X8225000Y-14845476D01*
X8244048Y-14855000D01*
X8253571Y-14864524D01*
X8263095Y-14883571D01*
X8263095Y-14902619D01*
X8253571Y-14931190D01*
X8139286Y-15045476D01*
X8263095Y-15045476D01*
X8386905Y-14845476D02*
X8405952Y-14845476D01*
X8425000Y-14855000D01*
X8434524Y-14864524D01*
X8444048Y-14883571D01*
X8453571Y-14921667D01*
X8453571Y-14969286D01*
X8444048Y-15007381D01*
X8434524Y-15026428D01*
X8425000Y-15035952D01*
X8405952Y-15045476D01*
X8386905Y-15045476D01*
X8367857Y-15035952D01*
X8358333Y-15026428D01*
X8348809Y-15007381D01*
X8339286Y-14969286D01*
X8339286Y-14921667D01*
X8348809Y-14883571D01*
X8358333Y-14864524D01*
X8367857Y-14855000D01*
X8386905Y-14845476D01*
X8577381Y-14845476D02*
X8596429Y-14845476D01*
X8615476Y-14855000D01*
X8625000Y-14864524D01*
X8634524Y-14883571D01*
X8644048Y-14921667D01*
X8644048Y-14969286D01*
X8634524Y-15007381D01*
X8625000Y-15026428D01*
X8615476Y-15035952D01*
X8596429Y-15045476D01*
X8577381Y-15045476D01*
X8558333Y-15035952D01*
X8548810Y-15026428D01*
X8539286Y-15007381D01*
X8529762Y-14969286D01*
X8529762Y-14921667D01*
X8539286Y-14883571D01*
X8548810Y-14864524D01*
X8558333Y-14855000D01*
X8577381Y-14845476D01*
X8729762Y-15045476D02*
X8729762Y-14912143D01*
X8729762Y-14931190D02*
X8739286Y-14921667D01*
X8758333Y-14912143D01*
X8786905Y-14912143D01*
X8805952Y-14921667D01*
X8815476Y-14940714D01*
X8815476Y-15045476D01*
X8815476Y-14940714D02*
X8825000Y-14921667D01*
X8844048Y-14912143D01*
X8872619Y-14912143D01*
X8891667Y-14921667D01*
X8901190Y-14940714D01*
X8901190Y-15045476D01*
X8996429Y-15045476D02*
X8996429Y-14912143D01*
X8996429Y-14931190D02*
X9005952Y-14921667D01*
X9025000Y-14912143D01*
X9053571Y-14912143D01*
X9072619Y-14921667D01*
X9082143Y-14940714D01*
X9082143Y-15045476D01*
X9082143Y-14940714D02*
X9091667Y-14921667D01*
X9110714Y-14912143D01*
X9139286Y-14912143D01*
X9158333Y-14921667D01*
X9167857Y-14940714D01*
X9167857Y-15045476D01*
X9558333Y-14835952D02*
X9386905Y-15093095D01*
X9815476Y-14845476D02*
X9834524Y-14845476D01*
X9853571Y-14855000D01*
X9863095Y-14864524D01*
X9872619Y-14883571D01*
X9882143Y-14921667D01*
X9882143Y-14969286D01*
X9872619Y-15007381D01*
X9863095Y-15026428D01*
X9853571Y-15035952D01*
X9834524Y-15045476D01*
X9815476Y-15045476D01*
X9796429Y-15035952D01*
X9786905Y-15026428D01*
X9777381Y-15007381D01*
X9767857Y-14969286D01*
X9767857Y-14921667D01*
X9777381Y-14883571D01*
X9786905Y-14864524D01*
X9796429Y-14855000D01*
X9815476Y-14845476D01*
X9967857Y-15026428D02*
X9977381Y-15035952D01*
X9967857Y-15045476D01*
X9958333Y-15035952D01*
X9967857Y-15026428D01*
X9967857Y-15045476D01*
X10167857Y-15045476D02*
X10053571Y-15045476D01*
X10110714Y-15045476D02*
X10110714Y-14845476D01*
X10091667Y-14874048D01*
X10072619Y-14893095D01*
X10053571Y-14902619D01*
X10244048Y-14864524D02*
X10253571Y-14855000D01*
X10272619Y-14845476D01*
X10320238Y-14845476D01*
X10339286Y-14855000D01*
X10348810Y-14864524D01*
X10358333Y-14883571D01*
X10358333Y-14902619D01*
X10348810Y-14931190D01*
X10234524Y-15045476D01*
X10358333Y-15045476D01*
X10529762Y-14845476D02*
X10491667Y-14845476D01*
X10472619Y-14855000D01*
X10463095Y-14864524D01*
X10444048Y-14893095D01*
X10434524Y-14931190D01*
X10434524Y-15007381D01*
X10444048Y-15026428D01*
X10453571Y-15035952D01*
X10472619Y-15045476D01*
X10510714Y-15045476D01*
X10529762Y-15035952D01*
X10539286Y-15026428D01*
X10548810Y-15007381D01*
X10548810Y-14959762D01*
X10539286Y-14940714D01*
X10529762Y-14931190D01*
X10510714Y-14921667D01*
X10472619Y-14921667D01*
X10453571Y-14931190D01*
X10444048Y-14940714D01*
X10434524Y-14959762D01*
X10672619Y-14845476D02*
X10691667Y-14845476D01*
X10710714Y-14855000D01*
X10720238Y-14864524D01*
X10729762Y-14883571D01*
X10739286Y-14921667D01*
X10739286Y-14969286D01*
X10729762Y-15007381D01*
X10720238Y-15026428D01*
X10710714Y-15035952D01*
X10691667Y-15045476D01*
X10672619Y-15045476D01*
X10653571Y-15035952D01*
X10644048Y-15026428D01*
X10634524Y-15007381D01*
X10625000Y-14969286D01*
X10625000Y-14921667D01*
X10634524Y-14883571D01*
X10644048Y-14864524D01*
X10653571Y-14855000D01*
X10672619Y-14845476D01*
X10815476Y-14845476D02*
X10815476Y-14883571D01*
X10891667Y-14845476D02*
X10891667Y-14883571D01*
X11186905Y-15121667D02*
X11177381Y-15112143D01*
X11158333Y-15083571D01*
X11148810Y-15064524D01*
X11139286Y-15035952D01*
X11129762Y-14988333D01*
X11129762Y-14950238D01*
X11139286Y-14902619D01*
X11148810Y-14874048D01*
X11158333Y-14855000D01*
X11177381Y-14826428D01*
X11186905Y-14816905D01*
X11348809Y-14912143D02*
X11348809Y-15045476D01*
X11301190Y-14835952D02*
X11253571Y-14978809D01*
X11377381Y-14978809D01*
X11605952Y-15045476D02*
X11605952Y-14845476D01*
X11691667Y-15045476D02*
X11691667Y-14940714D01*
X11682143Y-14921667D01*
X11663095Y-14912143D01*
X11634524Y-14912143D01*
X11615476Y-14921667D01*
X11605952Y-14931190D01*
X11815476Y-15045476D02*
X11796428Y-15035952D01*
X11786905Y-15026428D01*
X11777381Y-15007381D01*
X11777381Y-14950238D01*
X11786905Y-14931190D01*
X11796428Y-14921667D01*
X11815476Y-14912143D01*
X11844048Y-14912143D01*
X11863095Y-14921667D01*
X11872619Y-14931190D01*
X11882143Y-14950238D01*
X11882143Y-15007381D01*
X11872619Y-15026428D01*
X11863095Y-15035952D01*
X11844048Y-15045476D01*
X11815476Y-15045476D01*
X11996428Y-15045476D02*
X11977381Y-15035952D01*
X11967857Y-15016905D01*
X11967857Y-14845476D01*
X12148809Y-15035952D02*
X12129762Y-15045476D01*
X12091667Y-15045476D01*
X12072619Y-15035952D01*
X12063095Y-15016905D01*
X12063095Y-14940714D01*
X12072619Y-14921667D01*
X12091667Y-14912143D01*
X12129762Y-14912143D01*
X12148809Y-14921667D01*
X12158333Y-14940714D01*
X12158333Y-14959762D01*
X12063095Y-14978809D01*
X12234524Y-15035952D02*
X12253571Y-15045476D01*
X12291667Y-15045476D01*
X12310714Y-15035952D01*
X12320238Y-15016905D01*
X12320238Y-15007381D01*
X12310714Y-14988333D01*
X12291667Y-14978809D01*
X12263095Y-14978809D01*
X12244048Y-14969286D01*
X12234524Y-14950238D01*
X12234524Y-14940714D01*
X12244048Y-14921667D01*
X12263095Y-14912143D01*
X12291667Y-14912143D01*
X12310714Y-14921667D01*
X12386905Y-15121667D02*
X12396428Y-15112143D01*
X12415476Y-15083571D01*
X12425000Y-15064524D01*
X12434524Y-15035952D01*
X12444048Y-14988333D01*
X12444048Y-14950238D01*
X12434524Y-14902619D01*
X12425000Y-14874048D01*
X12415476Y-14855000D01*
X12396428Y-14826428D01*
X12386905Y-14816905D01*
M02*
