%TF.GenerationSoftware,KiCad,Pcbnew,(6.0.6)*%
%TF.CreationDate,2022-07-05T22:30:02+09:00*%
%TF.ProjectId,arliss,61726c69-7373-42e6-9b69-6361645f7063,rev?*%
%TF.SameCoordinates,Original*%
%TF.FileFunction,Copper,L1,Top*%
%TF.FilePolarity,Positive*%
%FSLAX46Y46*%
G04 Gerber Fmt 4.6, Leading zero omitted, Abs format (unit mm)*
G04 Created by KiCad (PCBNEW (6.0.6)) date 2022-07-05 22:30:02*
%MOMM*%
%LPD*%
G01*
G04 APERTURE LIST*
G04 Aperture macros list*
%AMRoundRect*
0 Rectangle with rounded corners*
0 $1 Rounding radius*
0 $2 $3 $4 $5 $6 $7 $8 $9 X,Y pos of 4 corners*
0 Add a 4 corners polygon primitive as box body*
4,1,4,$2,$3,$4,$5,$6,$7,$8,$9,$2,$3,0*
0 Add four circle primitives for the rounded corners*
1,1,$1+$1,$2,$3*
1,1,$1+$1,$4,$5*
1,1,$1+$1,$6,$7*
1,1,$1+$1,$8,$9*
0 Add four rect primitives between the rounded corners*
20,1,$1+$1,$2,$3,$4,$5,0*
20,1,$1+$1,$4,$5,$6,$7,0*
20,1,$1+$1,$6,$7,$8,$9,0*
20,1,$1+$1,$8,$9,$2,$3,0*%
G04 Aperture macros list end*
%TA.AperFunction,EtchedComponent*%
%ADD10C,0.200000*%
%TD*%
%TA.AperFunction,ComponentPad*%
%ADD11C,4.000000*%
%TD*%
%TA.AperFunction,ComponentPad*%
%ADD12RoundRect,0.250000X-0.600000X-0.725000X0.600000X-0.725000X0.600000X0.725000X-0.600000X0.725000X0*%
%TD*%
%TA.AperFunction,ComponentPad*%
%ADD13O,1.700000X1.950000*%
%TD*%
%TA.AperFunction,ComponentPad*%
%ADD14R,1.700000X1.700000*%
%TD*%
%TA.AperFunction,ComponentPad*%
%ADD15O,1.700000X1.700000*%
%TD*%
%TA.AperFunction,SMDPad,CuDef*%
%ADD16RoundRect,0.243750X-0.243750X-0.456250X0.243750X-0.456250X0.243750X0.456250X-0.243750X0.456250X0*%
%TD*%
%TA.AperFunction,ComponentPad*%
%ADD17C,1.524000*%
%TD*%
%TA.AperFunction,SMDPad,CuDef*%
%ADD18R,1.000000X1.500000*%
%TD*%
%TA.AperFunction,SMDPad,CuDef*%
%ADD19R,5.400000X1.700000*%
%TD*%
%TA.AperFunction,ComponentPad*%
%ADD20R,3.200000X3.200000*%
%TD*%
%TA.AperFunction,ComponentPad*%
%ADD21O,3.200000X3.200000*%
%TD*%
%TA.AperFunction,ComponentPad*%
%ADD22RoundRect,0.250000X-0.750000X0.600000X-0.750000X-0.600000X0.750000X-0.600000X0.750000X0.600000X0*%
%TD*%
%TA.AperFunction,ComponentPad*%
%ADD23O,2.000000X1.700000*%
%TD*%
%TA.AperFunction,ComponentPad*%
%ADD24RoundRect,0.250000X-0.725000X0.600000X-0.725000X-0.600000X0.725000X-0.600000X0.725000X0.600000X0*%
%TD*%
%TA.AperFunction,ComponentPad*%
%ADD25O,1.950000X1.700000*%
%TD*%
%TA.AperFunction,ComponentPad*%
%ADD26RoundRect,0.250000X-0.600000X-0.750000X0.600000X-0.750000X0.600000X0.750000X-0.600000X0.750000X0*%
%TD*%
%TA.AperFunction,ComponentPad*%
%ADD27O,1.700000X2.000000*%
%TD*%
%TA.AperFunction,ComponentPad*%
%ADD28RoundRect,0.250000X0.600000X0.750000X-0.600000X0.750000X-0.600000X-0.750000X0.600000X-0.750000X0*%
%TD*%
%TA.AperFunction,SMDPad,CuDef*%
%ADD29RoundRect,0.250000X1.425000X-0.362500X1.425000X0.362500X-1.425000X0.362500X-1.425000X-0.362500X0*%
%TD*%
%TA.AperFunction,ComponentPad*%
%ADD30R,1.980000X3.960000*%
%TD*%
%TA.AperFunction,ComponentPad*%
%ADD31O,1.980000X3.960000*%
%TD*%
%TA.AperFunction,SMDPad,CuDef*%
%ADD32RoundRect,0.225000X-0.250000X0.225000X-0.250000X-0.225000X0.250000X-0.225000X0.250000X0.225000X0*%
%TD*%
%TA.AperFunction,SMDPad,CuDef*%
%ADD33R,1.750000X0.450000*%
%TD*%
%TA.AperFunction,ViaPad*%
%ADD34C,0.800000*%
%TD*%
%TA.AperFunction,ViaPad*%
%ADD35C,0.500000*%
%TD*%
%TA.AperFunction,Conductor*%
%ADD36C,0.450000*%
%TD*%
%TA.AperFunction,Conductor*%
%ADD37C,0.250000*%
%TD*%
%TA.AperFunction,Conductor*%
%ADD38C,1.100000*%
%TD*%
%TA.AperFunction,Conductor*%
%ADD39C,0.300000*%
%TD*%
G04 APERTURE END LIST*
D10*
%TO.C,MOSFET1*%
X125420000Y-118270000D02*
X118920000Y-118270000D01*
X118920000Y-118270000D02*
X118920000Y-112770000D01*
X118920000Y-112770000D02*
X125420000Y-112770000D01*
X125420000Y-112770000D02*
X125420000Y-118270000D01*
%TD*%
D11*
%TO.P,REF\u002A\u002A,1*%
%TO.N,N/C*%
X78740000Y-53340000D03*
%TD*%
D12*
%TO.P,GPS_MAXB1,1,Pin_1*%
%TO.N,Net-(GPS_MAXB1-Pad1)*%
X91520000Y-58412500D03*
D13*
%TO.P,GPS_MAXB1,2,Pin_2*%
%TO.N,Net-(GPS_MAXB1-Pad2)*%
X94020000Y-58412500D03*
%TO.P,GPS_MAXB1,3,Pin_3*%
%TO.N,Net-(GPS_MAXB1-Pad3)*%
X96520000Y-58412500D03*
%TO.P,GPS_MAXB1,4,Pin_4*%
%TO.N,Raspi_GND*%
X99020000Y-58412500D03*
%TO.P,GPS_MAXB1,5,Pin_5*%
%TO.N,/ToMotor*%
X101520000Y-58412500D03*
%TD*%
D14*
%TO.P,J1,1,3V3*%
%TO.N,unconnected-(J1-Pad1)*%
X114300000Y-66040000D03*
D15*
%TO.P,J1,2,5V*%
%TO.N,Net-(9axis1-Pad1)*%
X111760000Y-66040000D03*
%TO.P,J1,3,SDA/GPIO2*%
%TO.N,Net-(9axis1-Pad3)*%
X114300000Y-68580000D03*
%TO.P,J1,4,5V*%
%TO.N,RasPi_Vcc*%
X111760000Y-68580000D03*
%TO.P,J1,5,SCL/GPIO3*%
%TO.N,Net-(9axis1-Pad4)*%
X114300000Y-71120000D03*
%TO.P,J1,6,GND*%
%TO.N,Raspi_GND*%
X111760000Y-71120000D03*
%TO.P,J1,7,GCLK0/GPIO4*%
%TO.N,unconnected-(J1-Pad7)*%
X114300000Y-73660000D03*
%TO.P,J1,8,GPIO14/TXD*%
%TO.N,Net-(GPS_MAXB1-Pad3)*%
X111760000Y-73660000D03*
%TO.P,J1,9,GND*%
%TO.N,/GND_9*%
X114300000Y-76200000D03*
%TO.P,J1,10,GPIO15/RXD*%
%TO.N,Net-(GPS_MAXB1-Pad2)*%
X111760000Y-76200000D03*
%TO.P,J1,11,GPIO17*%
%TO.N,unconnected-(J1-Pad11)*%
X114300000Y-78740000D03*
%TO.P,J1,12,GPIO18/PWM0*%
%TO.N,Net-(GPS_MAXB1-Pad1)*%
X111760000Y-78740000D03*
%TO.P,J1,13,GPIO27*%
%TO.N,Net-(J1-Pad13)*%
X114300000Y-81280000D03*
%TO.P,J1,14,GND*%
%TO.N,unconnected-(J1-Pad14)*%
X111760000Y-81280000D03*
%TO.P,J1,15,GPIO22*%
%TO.N,Net-(J1-Pad15)*%
X114300000Y-83820000D03*
%TO.P,J1,16,GPIO23*%
%TO.N,Net-(J1-Pad18)*%
X111760000Y-83820000D03*
%TO.P,J1,17,3V3*%
%TO.N,/33Vcc*%
X114300000Y-86360000D03*
%TO.P,J1,18,GPIO24*%
%TO.N,Net-(J1-Pad16)*%
X111760000Y-86360000D03*
%TO.P,J1,19,MOSI0/GPIO10*%
%TO.N,unconnected-(J1-Pad19)*%
X114300000Y-88900000D03*
%TO.P,J1,20,GND*%
%TO.N,/GND_20*%
X111760000Y-88900000D03*
%TO.P,J1,21,MISO0/GPIO9*%
%TO.N,unconnected-(J1-Pad21)*%
X114300000Y-91440000D03*
%TO.P,J1,22,GPIO25*%
%TO.N,Net-(J1-Pad24)*%
X111760000Y-91440000D03*
%TO.P,J1,23,SCLK0/GPIO11*%
%TO.N,unconnected-(J1-Pad23)*%
X114300000Y-93980000D03*
%TO.P,J1,24,~{CE0}/GPIO8*%
%TO.N,Net-(J1-Pad22)*%
X111760000Y-93980000D03*
%TO.P,J1,25,GND*%
%TO.N,unconnected-(J1-Pad25)*%
X114300000Y-96520000D03*
%TO.P,J1,26,~{CE1}/GPIO7*%
%TO.N,unconnected-(J1-Pad26)*%
X111760000Y-96520000D03*
%TO.P,J1,27,ID_SD/GPIO0*%
%TO.N,unconnected-(J1-Pad27)*%
X114300000Y-99060000D03*
%TO.P,J1,28,ID_SC/GPIO1*%
%TO.N,unconnected-(J1-Pad28)*%
X111760000Y-99060000D03*
%TO.P,J1,29,GCLK1/GPIO5*%
%TO.N,Net-(J1-Pad29)*%
X114300000Y-101600000D03*
%TO.P,J1,30,GND*%
%TO.N,Raspi_GND*%
X111760000Y-101600000D03*
%TO.P,J1,31,GCLK2/GPIO6*%
%TO.N,unconnected-(J1-Pad31)*%
X114300000Y-104140000D03*
%TO.P,J1,32,PWM0/GPIO12*%
%TO.N,Net-(J1-Pad32)*%
X111760000Y-104140000D03*
%TO.P,J1,33,PWM1/GPIO13*%
%TO.N,Net-(J1-Pad33)*%
X114300000Y-106680000D03*
%TO.P,J1,34,GND*%
%TO.N,unconnected-(J1-Pad34)*%
X111760000Y-106680000D03*
%TO.P,J1,35,GPIO19/MISO1*%
%TO.N,unconnected-(J1-Pad35)*%
X114300000Y-109220000D03*
%TO.P,J1,36,GPIO16*%
%TO.N,unconnected-(J1-Pad36)*%
X111760000Y-109220000D03*
%TO.P,J1,37,GPIO26*%
%TO.N,unconnected-(J1-Pad37)*%
X114300000Y-111760000D03*
%TO.P,J1,38,GPIO20/MOSI1*%
%TO.N,unconnected-(J1-Pad38)*%
X111760000Y-111760000D03*
%TO.P,J1,39,GND*%
%TO.N,/GND_39*%
X114300000Y-114300000D03*
%TO.P,J1,40,GPIO21/SCLK1*%
%TO.N,unconnected-(J1-Pad40)*%
X111760000Y-114300000D03*
%TD*%
D16*
%TO.P,LED2,1*%
%TO.N,Net-(LED1-Pad1)*%
X95582500Y-116840000D03*
%TO.P,LED2,2*%
%TO.N,Net-(J1-Pad32)*%
X97457500Y-116840000D03*
%TD*%
D17*
%TO.P,3V3Regu1,1,+VIN*%
%TO.N,Net-(3V3Regu1-Pad1)*%
X172700000Y-104975000D03*
%TO.P,3V3Regu1,2,GND*%
%TO.N,Raspi_GND*%
X170160000Y-104975000D03*
%TO.P,3V3Regu1,3,+VOUT*%
%TO.N,RasPi_Vcc*%
X167620000Y-104975000D03*
%TD*%
D18*
%TO.P,MOSFET1,1*%
%TO.N,Net-(J1-Pad29)*%
X119870000Y-119570000D03*
D19*
%TO.P,MOSFET1,2*%
%TO.N,Net-(MOSFET1-Pad2)*%
X122170000Y-112020000D03*
D18*
%TO.P,MOSFET1,3*%
%TO.N,Raspi_GND*%
X124470000Y-119570000D03*
%TD*%
D20*
%TO.P,stranger1,1,K*%
%TO.N,/ToMotor*%
X130400000Y-100850000D03*
D21*
%TO.P,stranger1,2,A*%
%TO.N,Net-(MOSFET1-Pad2)*%
X130400000Y-113550000D03*
%TD*%
D16*
%TO.P,LED1,1*%
%TO.N,Net-(LED1-Pad1)*%
X95582500Y-121920000D03*
%TO.P,LED1,2*%
%TO.N,Net-(J1-Pad33)*%
X97457500Y-121920000D03*
%TD*%
D22*
%TO.P,Motor_2,1,Pin_1*%
%TO.N,Net-(Motor_2-Pad1)*%
X170180000Y-91440000D03*
D23*
%TO.P,Motor_2,2,Pin_2*%
%TO.N,Net-(Motor_2-Pad2)*%
X170180000Y-93940000D03*
%TD*%
D17*
%TO.P,S1,18*%
%TO.N,Net-(3V3Regu1-Pad1)*%
X175200000Y-114800000D03*
%TO.P,S1,20*%
%TO.N,N/C*%
X175200000Y-116800000D03*
%TO.P,S1,21*%
X175200000Y-118950000D03*
%TO.P,S1,22*%
%TO.N,/ToMotor*%
X175200000Y-112800000D03*
%TO.P,S1,23*%
%TO.N,N/C*%
X175200000Y-110650000D03*
%TD*%
D22*
%TO.P,Motor_1,1,Pin_1*%
%TO.N,Net-(Motor_1-Pad1)*%
X170630000Y-81280000D03*
D23*
%TO.P,Motor_1,2,Pin_2*%
%TO.N,Net-(Motor_1-Pad2)*%
X170630000Y-83780000D03*
%TD*%
D24*
%TO.P,Balom1,1,Pin_1*%
%TO.N,Net-(9axis1-Pad5)*%
X129540000Y-68580000D03*
D25*
%TO.P,Balom1,2,Pin_2*%
%TO.N,/GND_9*%
X129540000Y-71080000D03*
%TO.P,Balom1,3,Pin_3*%
%TO.N,Net-(9axis1-Pad3)*%
X129540000Y-73580000D03*
%TO.P,Balom1,4,Pin_4*%
%TO.N,Net-(9axis1-Pad4)*%
X129540000Y-76080000D03*
%TO.P,Balom1,5,Pin_5*%
%TO.N,unconnected-(Balom1-Pad5)*%
X129540000Y-78580000D03*
%TD*%
D26*
%TO.P,release_detect1,1,Pin_1*%
%TO.N,/ToMotor*%
X161200000Y-121920000D03*
D27*
%TO.P,release_detect1,2,Pin_2*%
%TO.N,Net-(3V3Regu1-Pad1)*%
X163700000Y-121920000D03*
%TD*%
D28*
%TO.P,NiCr_Wire1,1,Pin_1*%
%TO.N,Net-(MOSFET1-Pad2)*%
X153450000Y-117267500D03*
D27*
%TO.P,NiCr_Wire1,2,Pin_2*%
%TO.N,/ToMotor*%
X150950000Y-117267500D03*
%TD*%
D12*
%TO.P,9axis1,1,Pin_1*%
%TO.N,Net-(9axis1-Pad1)*%
X152480000Y-58412500D03*
D13*
%TO.P,9axis1,2,Pin_2*%
%TO.N,/GND_9*%
X154980000Y-58412500D03*
%TO.P,9axis1,3,Pin_3*%
%TO.N,Net-(9axis1-Pad3)*%
X157480000Y-58412500D03*
%TO.P,9axis1,4,Pin_4*%
%TO.N,Net-(9axis1-Pad4)*%
X159980000Y-58412500D03*
%TO.P,9axis1,5,Pin_5*%
%TO.N,Net-(9axis1-Pad5)*%
X162480000Y-58412500D03*
%TD*%
D29*
%TO.P,R1,1*%
%TO.N,/GND_39*%
X88900000Y-122765000D03*
%TO.P,R1,2*%
%TO.N,Net-(LED1-Pad1)*%
X88900000Y-116840000D03*
%TD*%
D11*
%TO.P,REF\u002A\u002A,1*%
%TO.N,N/C*%
X78740000Y-121920000D03*
%TD*%
%TO.P,REF\u002A\u002A,1*%
%TO.N,N/C*%
X175260000Y-53340000D03*
%TD*%
D30*
%TO.P,J2,1,Pin_1*%
%TO.N,/ToMotor*%
X143635000Y-118090000D03*
D31*
%TO.P,J2,2,Pin_2*%
%TO.N,Raspi_GND*%
X138635000Y-118090000D03*
%TD*%
D32*
%TO.P,3.3\u03BCF1,1*%
%TO.N,Raspi_GND*%
X160200000Y-103775000D03*
%TO.P,3.3\u03BCF1,2*%
%TO.N,RasPi_Vcc*%
X160200000Y-105325000D03*
%TD*%
D11*
%TO.P,REF\u002A\u002A,1*%
%TO.N,N/C*%
X175260000Y-121920000D03*
%TD*%
D33*
%TO.P,U1,1,AO1*%
%TO.N,Net-(Motor_2-Pad2)*%
X148380000Y-97555000D03*
%TO.P,U1,2,AO1*%
X148380000Y-96905000D03*
%TO.P,U1,3,PGND1*%
%TO.N,Raspi_GND*%
X148380000Y-96255000D03*
%TO.P,U1,4,PGND1*%
X148380000Y-95605000D03*
%TO.P,U1,5,AO2*%
%TO.N,Net-(Motor_2-Pad1)*%
X148380000Y-94955000D03*
%TO.P,U1,6,AO2*%
X148380000Y-94305000D03*
%TO.P,U1,7,BO2*%
%TO.N,Net-(Motor_1-Pad1)*%
X148380000Y-93655000D03*
%TO.P,U1,8,BO2*%
X148380000Y-93005000D03*
%TO.P,U1,9,PGND2*%
%TO.N,Raspi_GND*%
X148380000Y-92355000D03*
%TO.P,U1,10,PGND2*%
X148380000Y-91705000D03*
%TO.P,U1,11,BO1*%
%TO.N,Net-(Motor_1-Pad2)*%
X148380000Y-91055000D03*
%TO.P,U1,12,BO1*%
X148380000Y-90405000D03*
%TO.P,U1,13,VM2*%
%TO.N,N/C*%
X141180000Y-90405000D03*
%TO.P,U1,14,VM3*%
X141180000Y-91055000D03*
%TO.P,U1,15,PWMB*%
%TO.N,Net-(J1-Pad15)*%
X141180000Y-91705000D03*
%TO.P,U1,16,BIN2*%
%TO.N,Net-(J1-Pad18)*%
X141180000Y-92355000D03*
%TO.P,U1,17,BIN1*%
%TO.N,Net-(J1-Pad16)*%
X141180000Y-93005000D03*
%TO.P,U1,18,GND*%
%TO.N,/GND_20*%
X141180000Y-93655000D03*
%TO.P,U1,19,STBY*%
%TO.N,Net-(J1-Pad13)*%
X141180000Y-94305000D03*
%TO.P,U1,20,VCC*%
%TO.N,/33Vcc*%
X141180000Y-94955000D03*
%TO.P,U1,21,AIN1*%
%TO.N,Net-(J1-Pad24)*%
X141180000Y-95605000D03*
%TO.P,U1,22,AIN2*%
%TO.N,Net-(J1-Pad22)*%
X141180000Y-96255000D03*
%TO.P,U1,23,PWMA*%
%TO.N,Net-(J1-Pad15)*%
X141180000Y-96905000D03*
%TO.P,U1,24,VM1*%
%TO.N,/ToMotor*%
X141180000Y-97555000D03*
%TD*%
D34*
%TO.N,Net-(J1-Pad13)*%
X126190000Y-94740000D03*
%TO.N,Net-(J1-Pad15)*%
X132030000Y-90220000D03*
X144280000Y-94520000D03*
D35*
%TO.N,/33Vcc*%
X138600000Y-95030500D03*
D34*
%TO.N,/ToMotor*%
X92700000Y-110550000D03*
X147700000Y-110050000D03*
%TO.N,Net-(Motor_1-Pad2)*%
X150460000Y-86030000D03*
%TO.N,Raspi_GND*%
X122450000Y-122320000D03*
X100600000Y-62600000D03*
X155200000Y-103800000D03*
X153400000Y-108800000D03*
%TO.N,RasPi_Vcc*%
X155375000Y-104975000D03*
X105200000Y-64800000D03*
%TD*%
D36*
%TO.N,Net-(3V3Regu1-Pad1)*%
X165337500Y-120282500D02*
X165337500Y-112337500D01*
D37*
X172720000Y-104995000D02*
X172700000Y-104975000D01*
D36*
X163700000Y-121920000D02*
X165337500Y-120282500D01*
X172700000Y-104975000D02*
X165337500Y-112337500D01*
D37*
%TO.N,Net-(9axis1-Pad1)*%
X117220000Y-58420000D02*
X116840000Y-58420000D01*
D36*
X152472500Y-58420000D02*
X152480000Y-58412500D01*
X111760000Y-66040000D02*
X111760000Y-63500000D01*
X117220000Y-58420000D02*
X152472500Y-58420000D01*
X111760000Y-63500000D02*
X116840000Y-58420000D01*
%TO.N,/GND_9*%
X137320000Y-81120000D02*
X147520000Y-70920000D01*
X129540000Y-71080000D02*
X147360000Y-71080000D01*
X147360000Y-71080000D02*
X147520000Y-70920000D01*
D37*
X154980000Y-63460000D02*
X147320000Y-71120000D01*
X147320000Y-71120000D02*
X144780000Y-71120000D01*
X144740000Y-71080000D02*
X129540000Y-71080000D01*
X147320000Y-71120000D02*
X137320000Y-81120000D01*
D36*
X119220000Y-81120000D02*
X137320000Y-81120000D01*
X147520000Y-70920000D02*
X154980000Y-63460000D01*
D37*
X144780000Y-71120000D02*
X144740000Y-71080000D01*
D36*
X114300000Y-76200000D02*
X119220000Y-81120000D01*
X154980000Y-63460000D02*
X154980000Y-58412500D01*
D37*
%TO.N,Net-(GPS_MAXB1-Pad1)*%
X91440000Y-60960000D02*
X109220000Y-78740000D01*
X109220000Y-78740000D02*
X111760000Y-78740000D01*
X91520000Y-58412500D02*
X91520000Y-60880000D01*
X91520000Y-60880000D02*
X91440000Y-60960000D01*
%TO.N,Net-(GPS_MAXB1-Pad2)*%
X94020000Y-61000000D02*
X109220000Y-76200000D01*
X109220000Y-76200000D02*
X111760000Y-76200000D01*
X94020000Y-58412500D02*
X94020000Y-61000000D01*
%TO.N,Net-(GPS_MAXB1-Pad3)*%
X109220000Y-73660000D02*
X111760000Y-73660000D01*
X96520000Y-60960000D02*
X109220000Y-73660000D01*
X96520000Y-58412500D02*
X96520000Y-60960000D01*
%TO.N,Net-(J1-Pad13)*%
X126625000Y-94305000D02*
X126190000Y-94740000D01*
X141180000Y-94305000D02*
X126625000Y-94305000D01*
%TO.N,Net-(J1-Pad15)*%
X144280000Y-94520000D02*
X144280000Y-95050000D01*
X144280000Y-95050000D02*
X142325000Y-97005000D01*
X133585000Y-91705000D02*
X141180000Y-91705000D01*
X132100000Y-90220000D02*
X133585000Y-91705000D01*
X132030000Y-90220000D02*
X132100000Y-90220000D01*
X142325000Y-97005000D02*
X141760000Y-97005000D01*
%TO.N,Net-(J1-Pad16)*%
X112950000Y-87550000D02*
X111760000Y-86360000D01*
X130720000Y-93020000D02*
X130735000Y-93005000D01*
X125280000Y-87550000D02*
X112950000Y-87550000D01*
X130735000Y-93005000D02*
X125280000Y-87550000D01*
X130735000Y-93005000D02*
X141180000Y-93005000D01*
%TO.N,/33Vcc*%
X138600000Y-95030500D02*
X138675500Y-94955000D01*
X138675500Y-94955000D02*
X141180000Y-94955000D01*
%TO.N,Net-(J1-Pad18)*%
X131825000Y-92355000D02*
X124655000Y-85185000D01*
X124655000Y-85185000D02*
X113125000Y-85185000D01*
X141180000Y-92355000D02*
X131825000Y-92355000D01*
X113125000Y-85185000D02*
X111760000Y-83820000D01*
%TO.N,/GND_20*%
X141180000Y-93655000D02*
X120265000Y-93655000D01*
X120265000Y-93655000D02*
X116700000Y-90090000D01*
X112890000Y-90030000D02*
X111760000Y-88900000D01*
X112890000Y-90090000D02*
X112890000Y-90030000D01*
X116700000Y-90090000D02*
X112890000Y-90090000D01*
%TO.N,Net-(J1-Pad22)*%
X141180000Y-96255000D02*
X117595000Y-96255000D01*
X113120000Y-95340000D02*
X116680000Y-95340000D01*
X111760000Y-93980000D02*
X113120000Y-95340000D01*
X117595000Y-96255000D02*
X116680000Y-95340000D01*
%TO.N,Net-(J1-Pad24)*%
X116010000Y-92690000D02*
X118925000Y-95605000D01*
X118925000Y-95605000D02*
X141180000Y-95605000D01*
X116010000Y-92690000D02*
X113010000Y-92690000D01*
X113010000Y-92690000D02*
X111760000Y-91440000D01*
%TO.N,Net-(J1-Pad29)*%
X117050000Y-104350000D02*
X114300000Y-101600000D01*
X117050000Y-117001041D02*
X117050000Y-104350000D01*
X119618959Y-119570000D02*
X117050000Y-117001041D01*
X119870000Y-119570000D02*
X119618959Y-119570000D01*
%TO.N,Net-(J1-Pad32)*%
X111760000Y-104140000D02*
X99060000Y-116840000D01*
X99060000Y-116840000D02*
X97457500Y-116840000D01*
%TO.N,Net-(J1-Pad33)*%
X110494278Y-107954278D02*
X97457500Y-120991056D01*
X113025722Y-107954278D02*
X110494278Y-107954278D01*
X114300000Y-106680000D02*
X113025722Y-107954278D01*
X97457500Y-120991056D02*
X97457500Y-121920000D01*
%TO.N,/GND_39*%
X89080000Y-122945000D02*
X100575000Y-122945000D01*
X106680000Y-116840000D02*
X111760000Y-116840000D01*
X88900000Y-122765000D02*
X89080000Y-122945000D01*
X111760000Y-116840000D02*
X114300000Y-114300000D01*
X100575000Y-122945000D02*
X106680000Y-116840000D01*
D38*
%TO.N,/ToMotor*%
X130630000Y-100620000D02*
X130400000Y-100850000D01*
X138380000Y-100620000D02*
X130630000Y-100620000D01*
D37*
X85475000Y-103325000D02*
X85450000Y-103300000D01*
D36*
X85450000Y-103300000D02*
X85450000Y-58550000D01*
X85450000Y-58550000D02*
X89950000Y-54050000D01*
D37*
X146490000Y-118090000D02*
X146500000Y-118100000D01*
D38*
X143635000Y-118090000D02*
X150127500Y-118090000D01*
D36*
X89950000Y-54050000D02*
X97157500Y-54050000D01*
X92700000Y-110550000D02*
X85475000Y-103325000D01*
D38*
X138380000Y-100620000D02*
X141120500Y-97879500D01*
D37*
X143635000Y-118090000D02*
X146490000Y-118090000D01*
D38*
X138380000Y-100620000D02*
X142020000Y-100620000D01*
X147700000Y-106300000D02*
X147700000Y-110050000D01*
X150127500Y-118090000D02*
X150950000Y-117267500D01*
D36*
X97157500Y-54050000D02*
X101520000Y-58412500D01*
X150320000Y-121920000D02*
X161200000Y-121920000D01*
X146500000Y-118100000D02*
X150320000Y-121920000D01*
D38*
X142020000Y-100620000D02*
X147700000Y-106300000D01*
D37*
%TO.N,Net-(LED1-Pad1)*%
X95582500Y-116840000D02*
X88900000Y-116840000D01*
X95582500Y-121920000D02*
X95582500Y-116840000D01*
D38*
%TO.N,Net-(MOSFET1-Pad2)*%
X124460000Y-106680000D02*
X121920000Y-109220000D01*
X121920000Y-109220000D02*
X121920000Y-111760000D01*
X130400000Y-113550000D02*
X131910000Y-113550000D01*
D37*
X121920000Y-111760000D02*
X121920000Y-111770000D01*
D38*
X130400000Y-113550000D02*
X130400000Y-110080000D01*
X124460000Y-106680000D02*
X127000000Y-106680000D01*
X130400000Y-110080000D02*
X127000000Y-106680000D01*
X132140000Y-113320000D02*
X149502500Y-113320000D01*
X149502500Y-113320000D02*
X153450000Y-117267500D01*
X131910000Y-113550000D02*
X132140000Y-113320000D01*
D37*
X121920000Y-111770000D02*
X122170000Y-112020000D01*
D38*
%TO.N,Net-(Motor_1-Pad1)*%
X148510000Y-93330000D02*
X158580000Y-93330000D01*
X158580000Y-93330000D02*
X170630000Y-81280000D01*
%TO.N,Net-(Motor_1-Pad2)*%
X150460000Y-88325000D02*
X148380000Y-90405000D01*
X150460000Y-86030000D02*
X150460000Y-88325000D01*
D37*
%TO.N,Net-(Motor_2-Pad1)*%
X153325000Y-94305000D02*
X148380000Y-94305000D01*
D38*
X166990000Y-94630000D02*
X170180000Y-91440000D01*
X148380000Y-94630000D02*
X166990000Y-94630000D01*
D37*
X153330000Y-94310000D02*
X153325000Y-94305000D01*
D38*
%TO.N,Net-(Motor_2-Pad2)*%
X166890000Y-97230000D02*
X170180000Y-93940000D01*
X148380000Y-97230000D02*
X166890000Y-97230000D01*
D37*
X148380000Y-96905000D02*
X153035000Y-96905000D01*
X148380000Y-96905000D02*
X148380000Y-97555000D01*
X153035000Y-96905000D02*
X153165000Y-96905000D01*
%TO.N,Raspi_GND*%
X99020000Y-60920000D02*
X109220000Y-71120000D01*
D36*
X148380000Y-92355000D02*
X148380000Y-92020000D01*
X155200000Y-103800000D02*
X166800000Y-103800000D01*
D37*
X148380000Y-95980000D02*
X148380000Y-96255000D01*
D38*
X124470000Y-119570000D02*
X137155000Y-119570000D01*
D36*
X147180000Y-92020000D02*
X146400000Y-92800000D01*
D37*
X169200000Y-103800000D02*
X170160000Y-104760000D01*
X166800000Y-103800000D02*
X169200000Y-103800000D01*
D36*
X99020000Y-61020000D02*
X99020000Y-58412500D01*
X146400000Y-94925000D02*
X147455000Y-95980000D01*
X153400000Y-108800000D02*
X146400000Y-101800000D01*
X148380000Y-92020000D02*
X148380000Y-91705000D01*
X124470000Y-119570000D02*
X124470000Y-120300000D01*
X100600000Y-62600000D02*
X109120000Y-71120000D01*
X155200000Y-103800000D02*
X166318710Y-103800000D01*
X148380000Y-92020000D02*
X147180000Y-92020000D01*
X124470000Y-120300000D02*
X122450000Y-122320000D01*
D37*
X99020000Y-58412500D02*
X99020000Y-60920000D01*
D36*
X147455000Y-95980000D02*
X148380000Y-95980000D01*
X109120000Y-71120000D02*
X111760000Y-71120000D01*
X146400000Y-92800000D02*
X146400000Y-94600000D01*
D37*
X109220000Y-71120000D02*
X111760000Y-71120000D01*
D36*
X146400000Y-101800000D02*
X146400000Y-94600000D01*
X148380000Y-95605000D02*
X148380000Y-96255000D01*
D39*
X148380000Y-95605000D02*
X148380000Y-95980000D01*
D36*
X146400000Y-94600000D02*
X146400000Y-94925000D01*
X100600000Y-62600000D02*
X99020000Y-61020000D01*
D38*
X137155000Y-119570000D02*
X138635000Y-118090000D01*
D37*
X170160000Y-104760000D02*
X170160000Y-104975000D01*
D36*
%TO.N,RasPi_Vcc*%
X105200000Y-64800000D02*
X108980000Y-68580000D01*
X108980000Y-68580000D02*
X111760000Y-68580000D01*
D37*
X155200000Y-104800000D02*
X155375000Y-104975000D01*
D36*
X167620000Y-104975000D02*
X155375000Y-104975000D01*
%TD*%
%TA.AperFunction,Conductor*%
%TO.N,Raspi_GND*%
G36*
X173508742Y-51328502D02*
G01*
X173555235Y-51382158D01*
X173565339Y-51452432D01*
X173535845Y-51517012D01*
X173526874Y-51526350D01*
X173427767Y-51619418D01*
X173226568Y-51862625D01*
X173057438Y-52129131D01*
X173055754Y-52132710D01*
X173055750Y-52132717D01*
X172924733Y-52411144D01*
X172923044Y-52414734D01*
X172825505Y-52714928D01*
X172766359Y-53024980D01*
X172746540Y-53340000D01*
X172766359Y-53655020D01*
X172825505Y-53965072D01*
X172923044Y-54265266D01*
X172924731Y-54268852D01*
X172924733Y-54268856D01*
X173055750Y-54547283D01*
X173055754Y-54547290D01*
X173057438Y-54550869D01*
X173226568Y-54817375D01*
X173229093Y-54820427D01*
X173419024Y-55050013D01*
X173427767Y-55060582D01*
X173657860Y-55276654D01*
X173913221Y-55462184D01*
X174189821Y-55614247D01*
X174193490Y-55615700D01*
X174193495Y-55615702D01*
X174479628Y-55728990D01*
X174483298Y-55730443D01*
X174789025Y-55808940D01*
X175102179Y-55848500D01*
X175417821Y-55848500D01*
X175730975Y-55808940D01*
X176036702Y-55730443D01*
X176040372Y-55728990D01*
X176326505Y-55615702D01*
X176326510Y-55615700D01*
X176330179Y-55614247D01*
X176606779Y-55462184D01*
X176862140Y-55276654D01*
X176865027Y-55273943D01*
X177079247Y-55072777D01*
X177142597Y-55040726D01*
X177213219Y-55048013D01*
X177268690Y-55092324D01*
X177291500Y-55164627D01*
X177291500Y-120095373D01*
X177271498Y-120163494D01*
X177217842Y-120209987D01*
X177147568Y-120220091D01*
X177079247Y-120187223D01*
X176865027Y-119986057D01*
X176865026Y-119986056D01*
X176862140Y-119983346D01*
X176606779Y-119797816D01*
X176601030Y-119794655D01*
X176391499Y-119679464D01*
X176341440Y-119629119D01*
X176326547Y-119559702D01*
X176338005Y-119515800D01*
X176396117Y-119391178D01*
X176396118Y-119391177D01*
X176398440Y-119386196D01*
X176403683Y-119366631D01*
X176428369Y-119274500D01*
X176455978Y-119171463D01*
X176475353Y-118950000D01*
X176455978Y-118728537D01*
X176398440Y-118513804D01*
X176388202Y-118491848D01*
X176306814Y-118317311D01*
X176306811Y-118317306D01*
X176304488Y-118312324D01*
X176301331Y-118307815D01*
X176180136Y-118134730D01*
X176180134Y-118134727D01*
X176176977Y-118130219D01*
X176019781Y-117973023D01*
X176016900Y-117971006D01*
X175977918Y-117912407D01*
X175976794Y-117841419D01*
X176016921Y-117778979D01*
X176019781Y-117776977D01*
X176176977Y-117619781D01*
X176183425Y-117610573D01*
X176301331Y-117442185D01*
X176301332Y-117442183D01*
X176304488Y-117437676D01*
X176306811Y-117432694D01*
X176306814Y-117432689D01*
X176396117Y-117241178D01*
X176396118Y-117241177D01*
X176398440Y-117236196D01*
X176407884Y-117200953D01*
X176434685Y-117100930D01*
X176455978Y-117021463D01*
X176475353Y-116800000D01*
X176455978Y-116578537D01*
X176412797Y-116417384D01*
X176399863Y-116369114D01*
X176399862Y-116369112D01*
X176398440Y-116363804D01*
X176395171Y-116356793D01*
X176306814Y-116167311D01*
X176306811Y-116167306D01*
X176304488Y-116162324D01*
X176283845Y-116132842D01*
X176180136Y-115984730D01*
X176180134Y-115984727D01*
X176176977Y-115980219D01*
X176085853Y-115889095D01*
X176051827Y-115826783D01*
X176056892Y-115755968D01*
X176085853Y-115710905D01*
X176176977Y-115619781D01*
X176181601Y-115613178D01*
X176301331Y-115442185D01*
X176301332Y-115442183D01*
X176304488Y-115437676D01*
X176306811Y-115432694D01*
X176306814Y-115432689D01*
X176396117Y-115241178D01*
X176396118Y-115241177D01*
X176398440Y-115236196D01*
X176455978Y-115021463D01*
X176475353Y-114800000D01*
X176455978Y-114578537D01*
X176398440Y-114363804D01*
X176367124Y-114296646D01*
X176306814Y-114167311D01*
X176306811Y-114167306D01*
X176304488Y-114162324D01*
X176261584Y-114101050D01*
X176180136Y-113984730D01*
X176180134Y-113984727D01*
X176176977Y-113980219D01*
X176085853Y-113889095D01*
X176051827Y-113826783D01*
X176056892Y-113755968D01*
X176085853Y-113710905D01*
X176176977Y-113619781D01*
X176191096Y-113599618D01*
X176301331Y-113442185D01*
X176301332Y-113442183D01*
X176304488Y-113437676D01*
X176306811Y-113432694D01*
X176306814Y-113432689D01*
X176396117Y-113241178D01*
X176396118Y-113241177D01*
X176398440Y-113236196D01*
X176455978Y-113021463D01*
X176475353Y-112800000D01*
X176455978Y-112578537D01*
X176416935Y-112432828D01*
X176399863Y-112369114D01*
X176399862Y-112369112D01*
X176398440Y-112363804D01*
X176391221Y-112348323D01*
X176306814Y-112167311D01*
X176306811Y-112167306D01*
X176304488Y-112162324D01*
X176299290Y-112154900D01*
X176180136Y-111984730D01*
X176180134Y-111984727D01*
X176176977Y-111980219D01*
X176019781Y-111823023D01*
X176016900Y-111821006D01*
X175977918Y-111762407D01*
X175976794Y-111691419D01*
X176016921Y-111628979D01*
X176019781Y-111626977D01*
X176176977Y-111469781D01*
X176212679Y-111418794D01*
X176301331Y-111292185D01*
X176301332Y-111292183D01*
X176304488Y-111287676D01*
X176306811Y-111282694D01*
X176306814Y-111282689D01*
X176396117Y-111091178D01*
X176396118Y-111091177D01*
X176398440Y-111086196D01*
X176407527Y-111052285D01*
X176439030Y-110934714D01*
X176455978Y-110871463D01*
X176475353Y-110650000D01*
X176455978Y-110428537D01*
X176398440Y-110213804D01*
X176389176Y-110193938D01*
X176306814Y-110017311D01*
X176306811Y-110017306D01*
X176304488Y-110012324D01*
X176283835Y-109982828D01*
X176180136Y-109834730D01*
X176180134Y-109834727D01*
X176176977Y-109830219D01*
X176019781Y-109673023D01*
X176015273Y-109669866D01*
X176015270Y-109669864D01*
X175897396Y-109587328D01*
X175837677Y-109545512D01*
X175832695Y-109543189D01*
X175832690Y-109543186D01*
X175641178Y-109453883D01*
X175641177Y-109453882D01*
X175636196Y-109451560D01*
X175630888Y-109450138D01*
X175630886Y-109450137D01*
X175502567Y-109415754D01*
X175421463Y-109394022D01*
X175200000Y-109374647D01*
X174978537Y-109394022D01*
X174897433Y-109415754D01*
X174769114Y-109450137D01*
X174769112Y-109450138D01*
X174763804Y-109451560D01*
X174758823Y-109453882D01*
X174758822Y-109453883D01*
X174567311Y-109543186D01*
X174567306Y-109543189D01*
X174562324Y-109545512D01*
X174557817Y-109548668D01*
X174557815Y-109548669D01*
X174384730Y-109669864D01*
X174384727Y-109669866D01*
X174380219Y-109673023D01*
X174223023Y-109830219D01*
X174219866Y-109834727D01*
X174219864Y-109834730D01*
X174116165Y-109982828D01*
X174095512Y-110012324D01*
X174093189Y-110017306D01*
X174093186Y-110017311D01*
X174010824Y-110193938D01*
X174001560Y-110213804D01*
X173944022Y-110428537D01*
X173924647Y-110650000D01*
X173944022Y-110871463D01*
X173960970Y-110934714D01*
X173992474Y-111052285D01*
X174001560Y-111086196D01*
X174003882Y-111091177D01*
X174003883Y-111091178D01*
X174093186Y-111282689D01*
X174093189Y-111282694D01*
X174095512Y-111287676D01*
X174098668Y-111292183D01*
X174098669Y-111292185D01*
X174187322Y-111418794D01*
X174223023Y-111469781D01*
X174380219Y-111626977D01*
X174383100Y-111628994D01*
X174422082Y-111687593D01*
X174423206Y-111758581D01*
X174383079Y-111821021D01*
X174380219Y-111823023D01*
X174223023Y-111980219D01*
X174219866Y-111984727D01*
X174219864Y-111984730D01*
X174100710Y-112154900D01*
X174095512Y-112162324D01*
X174093189Y-112167306D01*
X174093186Y-112167311D01*
X174008779Y-112348323D01*
X174001560Y-112363804D01*
X174000138Y-112369112D01*
X174000137Y-112369114D01*
X173983065Y-112432828D01*
X173944022Y-112578537D01*
X173924647Y-112800000D01*
X173944022Y-113021463D01*
X174001560Y-113236196D01*
X174003882Y-113241177D01*
X174003883Y-113241178D01*
X174093186Y-113432689D01*
X174093189Y-113432694D01*
X174095512Y-113437676D01*
X174098668Y-113442183D01*
X174098669Y-113442185D01*
X174208905Y-113599618D01*
X174223023Y-113619781D01*
X174314147Y-113710905D01*
X174348173Y-113773217D01*
X174343108Y-113844032D01*
X174314147Y-113889095D01*
X174223023Y-113980219D01*
X174219866Y-113984727D01*
X174219864Y-113984730D01*
X174138416Y-114101050D01*
X174095512Y-114162324D01*
X174093189Y-114167306D01*
X174093186Y-114167311D01*
X174032876Y-114296646D01*
X174001560Y-114363804D01*
X173944022Y-114578537D01*
X173924647Y-114800000D01*
X173944022Y-115021463D01*
X174001560Y-115236196D01*
X174003882Y-115241177D01*
X174003883Y-115241178D01*
X174093186Y-115432689D01*
X174093189Y-115432694D01*
X174095512Y-115437676D01*
X174098668Y-115442183D01*
X174098669Y-115442185D01*
X174218400Y-115613178D01*
X174223023Y-115619781D01*
X174314147Y-115710905D01*
X174348173Y-115773217D01*
X174343108Y-115844032D01*
X174314147Y-115889095D01*
X174223023Y-115980219D01*
X174219866Y-115984727D01*
X174219864Y-115984730D01*
X174116155Y-116132842D01*
X174095512Y-116162324D01*
X174093189Y-116167306D01*
X174093186Y-116167311D01*
X174004829Y-116356793D01*
X174001560Y-116363804D01*
X174000138Y-116369112D01*
X174000137Y-116369114D01*
X173987203Y-116417384D01*
X173944022Y-116578537D01*
X173924647Y-116800000D01*
X173944022Y-117021463D01*
X173965315Y-117100930D01*
X173992117Y-117200953D01*
X174001560Y-117236196D01*
X174003882Y-117241177D01*
X174003883Y-117241178D01*
X174093186Y-117432689D01*
X174093189Y-117432694D01*
X174095512Y-117437676D01*
X174098668Y-117442183D01*
X174098669Y-117442185D01*
X174216576Y-117610573D01*
X174223023Y-117619781D01*
X174380219Y-117776977D01*
X174383100Y-117778994D01*
X174422082Y-117837593D01*
X174423206Y-117908581D01*
X174383079Y-117971021D01*
X174380219Y-117973023D01*
X174223023Y-118130219D01*
X174219866Y-118134727D01*
X174219864Y-118134730D01*
X174098669Y-118307815D01*
X174095512Y-118312324D01*
X174093189Y-118317306D01*
X174093186Y-118317311D01*
X174011798Y-118491848D01*
X174001560Y-118513804D01*
X173944022Y-118728537D01*
X173924647Y-118950000D01*
X173944022Y-119171463D01*
X173971631Y-119274500D01*
X173996318Y-119366631D01*
X174001560Y-119386196D01*
X174003882Y-119391177D01*
X174003883Y-119391178D01*
X174086481Y-119568309D01*
X174097142Y-119638501D01*
X174068162Y-119703313D01*
X174032987Y-119731974D01*
X173918971Y-119794655D01*
X173913221Y-119797816D01*
X173910018Y-119800143D01*
X173910012Y-119800147D01*
X173873223Y-119826876D01*
X173657860Y-119983346D01*
X173514326Y-120118134D01*
X173448109Y-120180316D01*
X173427767Y-120199418D01*
X173425243Y-120202469D01*
X173425242Y-120202470D01*
X173410665Y-120220091D01*
X173226568Y-120442625D01*
X173116709Y-120615735D01*
X173061375Y-120702928D01*
X173057438Y-120709131D01*
X173055754Y-120712710D01*
X173055750Y-120712717D01*
X172924733Y-120991144D01*
X172923044Y-120994734D01*
X172921818Y-120998506D01*
X172921818Y-120998507D01*
X172918535Y-121008611D01*
X172825505Y-121294928D01*
X172766359Y-121604980D01*
X172746540Y-121920000D01*
X172766359Y-122235020D01*
X172825505Y-122545072D01*
X172923044Y-122845266D01*
X172924731Y-122848852D01*
X172924733Y-122848856D01*
X173055750Y-123127283D01*
X173055754Y-123127290D01*
X173057438Y-123130869D01*
X173059562Y-123134215D01*
X173059562Y-123134216D01*
X173062040Y-123138120D01*
X173226568Y-123397375D01*
X173288343Y-123472048D01*
X173376871Y-123579059D01*
X173427767Y-123640582D01*
X173430657Y-123643296D01*
X173430658Y-123643297D01*
X173526874Y-123733650D01*
X173562840Y-123794863D01*
X173560001Y-123865803D01*
X173519261Y-123923947D01*
X173453553Y-123950835D01*
X173440621Y-123951500D01*
X90875268Y-123951500D01*
X90807147Y-123931498D01*
X90760654Y-123877842D01*
X90750550Y-123807568D01*
X90780044Y-123742988D01*
X90795011Y-123728662D01*
X90799348Y-123725978D01*
X90881885Y-123643297D01*
X90909652Y-123615482D01*
X90971935Y-123581403D01*
X90998825Y-123578500D01*
X100496233Y-123578500D01*
X100507416Y-123579027D01*
X100514909Y-123580702D01*
X100522835Y-123580453D01*
X100522836Y-123580453D01*
X100582986Y-123578562D01*
X100586945Y-123578500D01*
X100614856Y-123578500D01*
X100618791Y-123578003D01*
X100618856Y-123577995D01*
X100630693Y-123577062D01*
X100662951Y-123576048D01*
X100666970Y-123575922D01*
X100674889Y-123575673D01*
X100694343Y-123570021D01*
X100713700Y-123566013D01*
X100725930Y-123564468D01*
X100725931Y-123564468D01*
X100733797Y-123563474D01*
X100741168Y-123560555D01*
X100741170Y-123560555D01*
X100774912Y-123547196D01*
X100786142Y-123543351D01*
X100820983Y-123533229D01*
X100820984Y-123533229D01*
X100828593Y-123531018D01*
X100835412Y-123526985D01*
X100835417Y-123526983D01*
X100846028Y-123520707D01*
X100863776Y-123512012D01*
X100882617Y-123504552D01*
X100918387Y-123478564D01*
X100928307Y-123472048D01*
X100959535Y-123453580D01*
X100959538Y-123453578D01*
X100966362Y-123449542D01*
X100980683Y-123435221D01*
X100995717Y-123422380D01*
X101002398Y-123417526D01*
X101012107Y-123410472D01*
X101040298Y-123376395D01*
X101048288Y-123367616D01*
X106905500Y-117510405D01*
X106967812Y-117476379D01*
X106994595Y-117473500D01*
X111681233Y-117473500D01*
X111692416Y-117474027D01*
X111699909Y-117475702D01*
X111707835Y-117475453D01*
X111707836Y-117475453D01*
X111767986Y-117473562D01*
X111771945Y-117473500D01*
X111799856Y-117473500D01*
X111803791Y-117473003D01*
X111803856Y-117472995D01*
X111815693Y-117472062D01*
X111847951Y-117471048D01*
X111851970Y-117470922D01*
X111859889Y-117470673D01*
X111879343Y-117465021D01*
X111898700Y-117461013D01*
X111910930Y-117459468D01*
X111910931Y-117459468D01*
X111918797Y-117458474D01*
X111926168Y-117455555D01*
X111926170Y-117455555D01*
X111959912Y-117442196D01*
X111971142Y-117438351D01*
X112005983Y-117428229D01*
X112005984Y-117428229D01*
X112013593Y-117426018D01*
X112020412Y-117421985D01*
X112020417Y-117421983D01*
X112031028Y-117415707D01*
X112048776Y-117407012D01*
X112067617Y-117399552D01*
X112103387Y-117373564D01*
X112113307Y-117367048D01*
X112144535Y-117348580D01*
X112144538Y-117348578D01*
X112151362Y-117344542D01*
X112165683Y-117330221D01*
X112180717Y-117317380D01*
X112197107Y-117305472D01*
X112225298Y-117271395D01*
X112233288Y-117262616D01*
X113844549Y-115651355D01*
X113906861Y-115617329D01*
X113958762Y-115616979D01*
X114138597Y-115653567D01*
X114143772Y-115653757D01*
X114143774Y-115653757D01*
X114356673Y-115661564D01*
X114356677Y-115661564D01*
X114361837Y-115661753D01*
X114366957Y-115661097D01*
X114366959Y-115661097D01*
X114578288Y-115634025D01*
X114578289Y-115634025D01*
X114583416Y-115633368D01*
X114588366Y-115631883D01*
X114792429Y-115570661D01*
X114792434Y-115570659D01*
X114797384Y-115569174D01*
X114997994Y-115470896D01*
X115179860Y-115341173D01*
X115225869Y-115295325D01*
X115334435Y-115187137D01*
X115338096Y-115183489D01*
X115397594Y-115100689D01*
X115465435Y-115006277D01*
X115468453Y-115002077D01*
X115513627Y-114910675D01*
X115565136Y-114806453D01*
X115565137Y-114806451D01*
X115567430Y-114801811D01*
X115632370Y-114588069D01*
X115661529Y-114366590D01*
X115663156Y-114300000D01*
X115644852Y-114077361D01*
X115590431Y-113860702D01*
X115501354Y-113655840D01*
X115380014Y-113468277D01*
X115229670Y-113303051D01*
X115225619Y-113299852D01*
X115225615Y-113299848D01*
X115058414Y-113167800D01*
X115058410Y-113167798D01*
X115054359Y-113164598D01*
X115013053Y-113141796D01*
X114963084Y-113091364D01*
X114948312Y-113021921D01*
X114973428Y-112955516D01*
X115000780Y-112928909D01*
X115044603Y-112897650D01*
X115179860Y-112801173D01*
X115186532Y-112794525D01*
X115334435Y-112647137D01*
X115338096Y-112643489D01*
X115356995Y-112617189D01*
X115465435Y-112466277D01*
X115468453Y-112462077D01*
X115476224Y-112446355D01*
X115565136Y-112266453D01*
X115565137Y-112266451D01*
X115567430Y-112261811D01*
X115632370Y-112048069D01*
X115661529Y-111826590D01*
X115661653Y-111821518D01*
X115663074Y-111763365D01*
X115663074Y-111763361D01*
X115663156Y-111760000D01*
X115644852Y-111537361D01*
X115590431Y-111320702D01*
X115501354Y-111115840D01*
X115387599Y-110940001D01*
X115382822Y-110932617D01*
X115382820Y-110932614D01*
X115380014Y-110928277D01*
X115229670Y-110763051D01*
X115225619Y-110759852D01*
X115225615Y-110759848D01*
X115058414Y-110627800D01*
X115058410Y-110627798D01*
X115054359Y-110624598D01*
X115013053Y-110601796D01*
X114963084Y-110551364D01*
X114948312Y-110481921D01*
X114973428Y-110415516D01*
X115000780Y-110388909D01*
X115050009Y-110353794D01*
X115179860Y-110261173D01*
X115190605Y-110250466D01*
X115328464Y-110113087D01*
X115338096Y-110103489D01*
X115397594Y-110020689D01*
X115465435Y-109926277D01*
X115468453Y-109922077D01*
X115489320Y-109879857D01*
X115565136Y-109726453D01*
X115565137Y-109726451D01*
X115567430Y-109721811D01*
X115632370Y-109508069D01*
X115661529Y-109286590D01*
X115662069Y-109264488D01*
X115663074Y-109223365D01*
X115663074Y-109223361D01*
X115663156Y-109220000D01*
X115644852Y-108997361D01*
X115590431Y-108780702D01*
X115501354Y-108575840D01*
X115407454Y-108430692D01*
X115382822Y-108392617D01*
X115382820Y-108392614D01*
X115380014Y-108388277D01*
X115229670Y-108223051D01*
X115225619Y-108219852D01*
X115225615Y-108219848D01*
X115058414Y-108087800D01*
X115058410Y-108087798D01*
X115054359Y-108084598D01*
X115013053Y-108061796D01*
X114963084Y-108011364D01*
X114948312Y-107941921D01*
X114973428Y-107875516D01*
X115000780Y-107848909D01*
X115127526Y-107758502D01*
X115179860Y-107721173D01*
X115338096Y-107563489D01*
X115468453Y-107382077D01*
X115482198Y-107354267D01*
X115565136Y-107186453D01*
X115565137Y-107186451D01*
X115567430Y-107181811D01*
X115632370Y-106968069D01*
X115661529Y-106746590D01*
X115663156Y-106680000D01*
X115644852Y-106457361D01*
X115590431Y-106240702D01*
X115501354Y-106035840D01*
X115447101Y-105951977D01*
X115382822Y-105852617D01*
X115382820Y-105852614D01*
X115380014Y-105848277D01*
X115229670Y-105683051D01*
X115225619Y-105679852D01*
X115225615Y-105679848D01*
X115058414Y-105547800D01*
X115058410Y-105547798D01*
X115054359Y-105544598D01*
X115013053Y-105521796D01*
X114963084Y-105471364D01*
X114948312Y-105401921D01*
X114973428Y-105335516D01*
X115000780Y-105308909D01*
X115044603Y-105277650D01*
X115179860Y-105181173D01*
X115338096Y-105023489D01*
X115363733Y-104987812D01*
X115465435Y-104846277D01*
X115468453Y-104842077D01*
X115489320Y-104799857D01*
X115565136Y-104646453D01*
X115565137Y-104646451D01*
X115567430Y-104641811D01*
X115626325Y-104447965D01*
X115630865Y-104433023D01*
X115630865Y-104433021D01*
X115632370Y-104428069D01*
X115661529Y-104206590D01*
X115662085Y-104183832D01*
X115662676Y-104159654D01*
X115684336Y-104092042D01*
X115739111Y-104046874D01*
X115809611Y-104038490D01*
X115877733Y-104073637D01*
X116379595Y-104575499D01*
X116413621Y-104637811D01*
X116416500Y-104664594D01*
X116416500Y-116922274D01*
X116415973Y-116933457D01*
X116414298Y-116940950D01*
X116414547Y-116948876D01*
X116414547Y-116948877D01*
X116416438Y-117009027D01*
X116416500Y-117012986D01*
X116416500Y-117040897D01*
X116416997Y-117044831D01*
X116416997Y-117044832D01*
X116417005Y-117044897D01*
X116417938Y-117056734D01*
X116419327Y-117100930D01*
X116424978Y-117120380D01*
X116428987Y-117139741D01*
X116431526Y-117159838D01*
X116434445Y-117167209D01*
X116434445Y-117167211D01*
X116447804Y-117200953D01*
X116451649Y-117212183D01*
X116463982Y-117254634D01*
X116468015Y-117261453D01*
X116468017Y-117261458D01*
X116474293Y-117272069D01*
X116482988Y-117289817D01*
X116490448Y-117308658D01*
X116495110Y-117315074D01*
X116495110Y-117315075D01*
X116516436Y-117344428D01*
X116522952Y-117354348D01*
X116534317Y-117373564D01*
X116545458Y-117392403D01*
X116559779Y-117406724D01*
X116572619Y-117421757D01*
X116584528Y-117438148D01*
X116617013Y-117465022D01*
X116618605Y-117466339D01*
X116627384Y-117474329D01*
X118824595Y-119671540D01*
X118858621Y-119733852D01*
X118861500Y-119760635D01*
X118861500Y-120368134D01*
X118868255Y-120430316D01*
X118919385Y-120566705D01*
X119006739Y-120683261D01*
X119123295Y-120770615D01*
X119259684Y-120821745D01*
X119321866Y-120828500D01*
X120418134Y-120828500D01*
X120480316Y-120821745D01*
X120616705Y-120770615D01*
X120733261Y-120683261D01*
X120820615Y-120566705D01*
X120871745Y-120430316D01*
X120878500Y-120368134D01*
X120878500Y-120364669D01*
X123462001Y-120364669D01*
X123462371Y-120371490D01*
X123467895Y-120422352D01*
X123471521Y-120437604D01*
X123516676Y-120558054D01*
X123525214Y-120573649D01*
X123601715Y-120675724D01*
X123614276Y-120688285D01*
X123716351Y-120764786D01*
X123731946Y-120773324D01*
X123852394Y-120818478D01*
X123867649Y-120822105D01*
X123918514Y-120827631D01*
X123925328Y-120828000D01*
X124197885Y-120828000D01*
X124213124Y-120823525D01*
X124214329Y-120822135D01*
X124216000Y-120814452D01*
X124216000Y-120809884D01*
X124724000Y-120809884D01*
X124728475Y-120825123D01*
X124729865Y-120826328D01*
X124737548Y-120827999D01*
X125014669Y-120827999D01*
X125021490Y-120827629D01*
X125072352Y-120822105D01*
X125087604Y-120818479D01*
X125208054Y-120773324D01*
X125223649Y-120764786D01*
X125325724Y-120688285D01*
X125338285Y-120675724D01*
X125414786Y-120573649D01*
X125423324Y-120558054D01*
X125468478Y-120437606D01*
X125472105Y-120422351D01*
X125477631Y-120371486D01*
X125478000Y-120364672D01*
X125478000Y-119842115D01*
X125473525Y-119826876D01*
X125472135Y-119825671D01*
X125464452Y-119824000D01*
X124742115Y-119824000D01*
X124726876Y-119828475D01*
X124725671Y-119829865D01*
X124724000Y-119837548D01*
X124724000Y-120809884D01*
X124216000Y-120809884D01*
X124216000Y-119842115D01*
X124211525Y-119826876D01*
X124210135Y-119825671D01*
X124202452Y-119824000D01*
X123480116Y-119824000D01*
X123464877Y-119828475D01*
X123463672Y-119829865D01*
X123462001Y-119837548D01*
X123462001Y-120364669D01*
X120878500Y-120364669D01*
X120878500Y-119004500D01*
X120898502Y-118936379D01*
X120952158Y-118889886D01*
X121004500Y-118878500D01*
X123336000Y-118878500D01*
X123404121Y-118898502D01*
X123450614Y-118952158D01*
X123462000Y-119004500D01*
X123462000Y-119297885D01*
X123466475Y-119313124D01*
X123467865Y-119314329D01*
X123475548Y-119316000D01*
X125459884Y-119316000D01*
X125475123Y-119311525D01*
X125476328Y-119310135D01*
X125477999Y-119302452D01*
X125477999Y-119139857D01*
X137137000Y-119139857D01*
X137137212Y-119145030D01*
X137151626Y-119320350D01*
X137153309Y-119330512D01*
X137210800Y-119559396D01*
X137214121Y-119569151D01*
X137308218Y-119785557D01*
X137313096Y-119794655D01*
X137441273Y-119992787D01*
X137447563Y-120000956D01*
X137606387Y-120175501D01*
X137613920Y-120182526D01*
X137799120Y-120328787D01*
X137807707Y-120334492D01*
X138014297Y-120448536D01*
X138023709Y-120452766D01*
X138246156Y-120531539D01*
X138256127Y-120534173D01*
X138363163Y-120553239D01*
X138376460Y-120551779D01*
X138380591Y-120538534D01*
X138889000Y-120538534D01*
X138892918Y-120551878D01*
X138907194Y-120553865D01*
X138978236Y-120542994D01*
X138988263Y-120540605D01*
X139212570Y-120467291D01*
X139222079Y-120463294D01*
X139431395Y-120354331D01*
X139440120Y-120348837D01*
X139628835Y-120207146D01*
X139636542Y-120200303D01*
X139799584Y-120029690D01*
X139806067Y-120021684D01*
X139939057Y-119826726D01*
X139944143Y-119817774D01*
X140043506Y-119603715D01*
X140047060Y-119594055D01*
X140110130Y-119366631D01*
X140112057Y-119356527D01*
X140132644Y-119163898D01*
X140133000Y-119157206D01*
X140133000Y-118362115D01*
X140128525Y-118346876D01*
X140127135Y-118345671D01*
X140119452Y-118344000D01*
X138907115Y-118344000D01*
X138891876Y-118348475D01*
X138890671Y-118349865D01*
X138889000Y-118357548D01*
X138889000Y-120538534D01*
X138380591Y-120538534D01*
X138381000Y-120537222D01*
X138381000Y-118362115D01*
X138376525Y-118346876D01*
X138375135Y-118345671D01*
X138367452Y-118344000D01*
X137155115Y-118344000D01*
X137139876Y-118348475D01*
X137138671Y-118349865D01*
X137137000Y-118357548D01*
X137137000Y-119139857D01*
X125477999Y-119139857D01*
X125477999Y-118985428D01*
X125498001Y-118917307D01*
X125551657Y-118870814D01*
X125570953Y-118863878D01*
X125578850Y-118862838D01*
X125586477Y-118859679D01*
X125586480Y-118859678D01*
X125679554Y-118821125D01*
X125726875Y-118801524D01*
X125821993Y-118728537D01*
X125847434Y-118709016D01*
X125847437Y-118709013D01*
X125853987Y-118703987D01*
X125951524Y-118576876D01*
X125975450Y-118519114D01*
X126009678Y-118436480D01*
X126009679Y-118436477D01*
X126012838Y-118428850D01*
X126033751Y-118270000D01*
X126029578Y-118238303D01*
X126028500Y-118221857D01*
X126028500Y-117817885D01*
X137137000Y-117817885D01*
X137141475Y-117833124D01*
X137142865Y-117834329D01*
X137150548Y-117836000D01*
X138362885Y-117836000D01*
X138378124Y-117831525D01*
X138379329Y-117830135D01*
X138381000Y-117822452D01*
X138381000Y-117817885D01*
X138889000Y-117817885D01*
X138893475Y-117833124D01*
X138894865Y-117834329D01*
X138902548Y-117836000D01*
X140114885Y-117836000D01*
X140130124Y-117831525D01*
X140131329Y-117830135D01*
X140133000Y-117822452D01*
X140133000Y-117040143D01*
X140132788Y-117034970D01*
X140118374Y-116859650D01*
X140116691Y-116849488D01*
X140059200Y-116620604D01*
X140055879Y-116610849D01*
X139961782Y-116394443D01*
X139956904Y-116385345D01*
X139828727Y-116187213D01*
X139822437Y-116179044D01*
X139663613Y-116004499D01*
X139656080Y-115997474D01*
X139470880Y-115851213D01*
X139462293Y-115845508D01*
X139255703Y-115731464D01*
X139246291Y-115727234D01*
X139023844Y-115648461D01*
X139013873Y-115645827D01*
X138906837Y-115626761D01*
X138893540Y-115628221D01*
X138889000Y-115642778D01*
X138889000Y-117817885D01*
X138381000Y-117817885D01*
X138381000Y-115641466D01*
X138377082Y-115628122D01*
X138362806Y-115626135D01*
X138291764Y-115637006D01*
X138281737Y-115639395D01*
X138057430Y-115712709D01*
X138047921Y-115716706D01*
X137838605Y-115825669D01*
X137829880Y-115831163D01*
X137641165Y-115972854D01*
X137633458Y-115979697D01*
X137470416Y-116150310D01*
X137463933Y-116158316D01*
X137330943Y-116353274D01*
X137325857Y-116362226D01*
X137226494Y-116576285D01*
X137222940Y-116585945D01*
X137159870Y-116813369D01*
X137157943Y-116823473D01*
X137137356Y-117016102D01*
X137137000Y-117022794D01*
X137137000Y-117817885D01*
X126028500Y-117817885D01*
X126028500Y-112818143D01*
X126029578Y-112801697D01*
X126032673Y-112778188D01*
X126033751Y-112770000D01*
X126012838Y-112611150D01*
X125951524Y-112463125D01*
X125853987Y-112336013D01*
X125849333Y-112332442D01*
X125726876Y-112238476D01*
X125719250Y-112235317D01*
X125719248Y-112235316D01*
X125586480Y-112180322D01*
X125586477Y-112180321D01*
X125578850Y-112177162D01*
X125567001Y-112175602D01*
X125488053Y-112165208D01*
X125423126Y-112136485D01*
X125384035Y-112077220D01*
X125378500Y-112040286D01*
X125378500Y-111121866D01*
X125371745Y-111059684D01*
X125320615Y-110923295D01*
X125233261Y-110806739D01*
X125116705Y-110719385D01*
X124980316Y-110668255D01*
X124918134Y-110661500D01*
X123104500Y-110661500D01*
X123036379Y-110641498D01*
X122989886Y-110587842D01*
X122978500Y-110535500D01*
X122978500Y-109710635D01*
X122998502Y-109642514D01*
X123015405Y-109621540D01*
X124861540Y-107775405D01*
X124923852Y-107741379D01*
X124950635Y-107738500D01*
X126509365Y-107738500D01*
X126577486Y-107758502D01*
X126598460Y-107775405D01*
X129304595Y-110481540D01*
X129338621Y-110543852D01*
X129341500Y-110570635D01*
X129341500Y-111654756D01*
X129321498Y-111722877D01*
X129280207Y-111762871D01*
X129193839Y-111814561D01*
X128969472Y-111994313D01*
X128894266Y-112073564D01*
X128809778Y-112162596D01*
X128771577Y-112202851D01*
X128603814Y-112436317D01*
X128601805Y-112440112D01*
X128601804Y-112440113D01*
X128593088Y-112456574D01*
X128469288Y-112690392D01*
X128370489Y-112960373D01*
X128309245Y-113241264D01*
X128305852Y-113284373D01*
X128291680Y-113464457D01*
X128286689Y-113527869D01*
X128303238Y-113814883D01*
X128304063Y-113819088D01*
X128304064Y-113819096D01*
X128334911Y-113976322D01*
X128358586Y-114096995D01*
X128359973Y-114101045D01*
X128359974Y-114101050D01*
X128450321Y-114364930D01*
X128451710Y-114368986D01*
X128488352Y-114441841D01*
X128534386Y-114533368D01*
X128580885Y-114625822D01*
X128743721Y-114862750D01*
X128746608Y-114865923D01*
X128746609Y-114865924D01*
X128866277Y-114997438D01*
X128937206Y-115075388D01*
X128940501Y-115078143D01*
X128940502Y-115078144D01*
X129135490Y-115241178D01*
X129157759Y-115259798D01*
X129401298Y-115412571D01*
X129663318Y-115530877D01*
X129667437Y-115532097D01*
X129934857Y-115611311D01*
X129934862Y-115611312D01*
X129938970Y-115612529D01*
X129943204Y-115613177D01*
X129943209Y-115613178D01*
X130148320Y-115644564D01*
X130223153Y-115656015D01*
X130369485Y-115658314D01*
X130506317Y-115660464D01*
X130506323Y-115660464D01*
X130510608Y-115660531D01*
X130514860Y-115660016D01*
X130514868Y-115660016D01*
X130791756Y-115626508D01*
X130791761Y-115626507D01*
X130796017Y-115625992D01*
X131074097Y-115553039D01*
X131339704Y-115443021D01*
X131587922Y-115297974D01*
X131814159Y-115120582D01*
X131825393Y-115108990D01*
X132011244Y-114917206D01*
X132014227Y-114914128D01*
X132016760Y-114910680D01*
X132016764Y-114910675D01*
X132181887Y-114685886D01*
X132184425Y-114682431D01*
X132186469Y-114678667D01*
X132186475Y-114678657D01*
X132230202Y-114598120D01*
X132280284Y-114547798D01*
X132294150Y-114541248D01*
X132299078Y-114539277D01*
X132304996Y-114537558D01*
X132309961Y-114534985D01*
X132315315Y-114533368D01*
X132401554Y-114487513D01*
X132402616Y-114486956D01*
X132435968Y-114469668D01*
X132483814Y-114444867D01*
X132483818Y-114444864D01*
X132489290Y-114442028D01*
X132493661Y-114438538D01*
X132498599Y-114435913D01*
X132534225Y-114406857D01*
X132599657Y-114379303D01*
X132613861Y-114378500D01*
X149011865Y-114378500D01*
X149079986Y-114398502D01*
X149100960Y-114415405D01*
X150379209Y-115693654D01*
X150413235Y-115755966D01*
X150408170Y-115826781D01*
X150365623Y-115883617D01*
X150347334Y-115894872D01*
X150343779Y-115896276D01*
X150146683Y-116015877D01*
X150142653Y-116019374D01*
X149978626Y-116161709D01*
X149972555Y-116166977D01*
X149940752Y-116205764D01*
X149829760Y-116341127D01*
X149829756Y-116341133D01*
X149826376Y-116345255D01*
X149823737Y-116349891D01*
X149823735Y-116349894D01*
X149779787Y-116427100D01*
X149712325Y-116545614D01*
X149633663Y-116762325D01*
X149617902Y-116849488D01*
X149603719Y-116927920D01*
X149571915Y-116991395D01*
X149510843Y-117027598D01*
X149479730Y-117031500D01*
X145259500Y-117031500D01*
X145191379Y-117011498D01*
X145144886Y-116957842D01*
X145133500Y-116905500D01*
X145133500Y-116061866D01*
X145126745Y-115999684D01*
X145075615Y-115863295D01*
X144988261Y-115746739D01*
X144871705Y-115659385D01*
X144735316Y-115608255D01*
X144673134Y-115601500D01*
X142596866Y-115601500D01*
X142534684Y-115608255D01*
X142398295Y-115659385D01*
X142281739Y-115746739D01*
X142194385Y-115863295D01*
X142143255Y-115999684D01*
X142136500Y-116061866D01*
X142136500Y-120118134D01*
X142143255Y-120180316D01*
X142194385Y-120316705D01*
X142281739Y-120433261D01*
X142398295Y-120520615D01*
X142534684Y-120571745D01*
X142596866Y-120578500D01*
X144673134Y-120578500D01*
X144735316Y-120571745D01*
X144871705Y-120520615D01*
X144988261Y-120433261D01*
X145075615Y-120316705D01*
X145126745Y-120180316D01*
X145133500Y-120118134D01*
X145133500Y-119274500D01*
X145153502Y-119206379D01*
X145207158Y-119159886D01*
X145259500Y-119148500D01*
X146458984Y-119148500D01*
X146527105Y-119168502D01*
X146548079Y-119185405D01*
X149755255Y-122392581D01*
X149767641Y-122406993D01*
X149779900Y-122423651D01*
X149785483Y-122428394D01*
X149818713Y-122456625D01*
X149826229Y-122463555D01*
X149831620Y-122468946D01*
X149853124Y-122485959D01*
X149856510Y-122488736D01*
X149904667Y-122529649D01*
X149904672Y-122529653D01*
X149910251Y-122534392D01*
X149916773Y-122537722D01*
X149921451Y-122540842D01*
X149926205Y-122543778D01*
X149931943Y-122548318D01*
X149938570Y-122551415D01*
X149938571Y-122551416D01*
X149995854Y-122578189D01*
X149999761Y-122580099D01*
X150062582Y-122612176D01*
X150069694Y-122613916D01*
X150074980Y-122615882D01*
X150080265Y-122617640D01*
X150086895Y-122620739D01*
X150155963Y-122635105D01*
X150160247Y-122636075D01*
X150228721Y-122652830D01*
X150234323Y-122653178D01*
X150234326Y-122653178D01*
X150239520Y-122653500D01*
X150239519Y-122653524D01*
X150243934Y-122653788D01*
X150247184Y-122654078D01*
X150254352Y-122655569D01*
X150329123Y-122653546D01*
X150332531Y-122653500D01*
X159720956Y-122653500D01*
X159789077Y-122673502D01*
X159835570Y-122727158D01*
X159846283Y-122766496D01*
X159852474Y-122826166D01*
X159854655Y-122832702D01*
X159854655Y-122832704D01*
X159890033Y-122938744D01*
X159908450Y-122993946D01*
X160001522Y-123144348D01*
X160126697Y-123269305D01*
X160132927Y-123273145D01*
X160132928Y-123273146D01*
X160270090Y-123357694D01*
X160277262Y-123362115D01*
X160306543Y-123371827D01*
X160438611Y-123415632D01*
X160438613Y-123415632D01*
X160445139Y-123417797D01*
X160451975Y-123418497D01*
X160451978Y-123418498D01*
X160487663Y-123422154D01*
X160549600Y-123428500D01*
X161850400Y-123428500D01*
X161853646Y-123428163D01*
X161853650Y-123428163D01*
X161949308Y-123418238D01*
X161949312Y-123418237D01*
X161956166Y-123417526D01*
X161962702Y-123415345D01*
X161962704Y-123415345D01*
X162105764Y-123367616D01*
X162123946Y-123361550D01*
X162274348Y-123268478D01*
X162399305Y-123143303D01*
X162406970Y-123130869D01*
X162433839Y-123087278D01*
X162489081Y-122997660D01*
X162541852Y-122950168D01*
X162611924Y-122938744D01*
X162677048Y-122967018D01*
X162687510Y-122976805D01*
X162729215Y-123020523D01*
X162796576Y-123091135D01*
X162800854Y-123094318D01*
X162849980Y-123130869D01*
X162981542Y-123228754D01*
X162986293Y-123231170D01*
X162986297Y-123231172D01*
X163049481Y-123263296D01*
X163187051Y-123333240D01*
X163192145Y-123334822D01*
X163192148Y-123334823D01*
X163382806Y-123394024D01*
X163407227Y-123401607D01*
X163412516Y-123402308D01*
X163630489Y-123431198D01*
X163630494Y-123431198D01*
X163635774Y-123431898D01*
X163641103Y-123431698D01*
X163641105Y-123431698D01*
X163750966Y-123427574D01*
X163866158Y-123423249D01*
X163888802Y-123418498D01*
X164086572Y-123377002D01*
X164091791Y-123375907D01*
X164096750Y-123373949D01*
X164096752Y-123373948D01*
X164301256Y-123293185D01*
X164301258Y-123293184D01*
X164306221Y-123291224D01*
X164318677Y-123283666D01*
X164498757Y-123174390D01*
X164498756Y-123174390D01*
X164503317Y-123171623D01*
X164554415Y-123127283D01*
X164673412Y-123024023D01*
X164673414Y-123024021D01*
X164677445Y-123020523D01*
X164744500Y-122938744D01*
X164820240Y-122846373D01*
X164820244Y-122846367D01*
X164823624Y-122842245D01*
X164937675Y-122641886D01*
X165016337Y-122425175D01*
X165017287Y-122419923D01*
X165056623Y-122202392D01*
X165056624Y-122202385D01*
X165057361Y-122198308D01*
X165058500Y-122174156D01*
X165058500Y-121712110D01*
X165054590Y-121666029D01*
X165068761Y-121596462D01*
X165091044Y-121566282D01*
X165810081Y-120847245D01*
X165824494Y-120834858D01*
X165833813Y-120828000D01*
X165841151Y-120822600D01*
X165874125Y-120783787D01*
X165881055Y-120776271D01*
X165886446Y-120770880D01*
X165903459Y-120749376D01*
X165906236Y-120745990D01*
X165947149Y-120697833D01*
X165947153Y-120697828D01*
X165951892Y-120692249D01*
X165955222Y-120685727D01*
X165958342Y-120681049D01*
X165961278Y-120676295D01*
X165965818Y-120670557D01*
X165995689Y-120606646D01*
X165997599Y-120602739D01*
X166029676Y-120539918D01*
X166031416Y-120532806D01*
X166033382Y-120527520D01*
X166035140Y-120522235D01*
X166038239Y-120515605D01*
X166052606Y-120446532D01*
X166053576Y-120442248D01*
X166057951Y-120424368D01*
X166070330Y-120373779D01*
X166071000Y-120362980D01*
X166071024Y-120362981D01*
X166071288Y-120358565D01*
X166071578Y-120355316D01*
X166073069Y-120348148D01*
X166071046Y-120273360D01*
X166071000Y-120269954D01*
X166071000Y-112693516D01*
X166091002Y-112625395D01*
X166107905Y-112604421D01*
X172439575Y-106272751D01*
X172501887Y-106238725D01*
X172539651Y-106236325D01*
X172694525Y-106249874D01*
X172700000Y-106250353D01*
X172921463Y-106230978D01*
X173069147Y-106191406D01*
X173130886Y-106174863D01*
X173130888Y-106174862D01*
X173136196Y-106173440D01*
X173142190Y-106170645D01*
X173332690Y-106081814D01*
X173332695Y-106081811D01*
X173337677Y-106079488D01*
X173449001Y-106001538D01*
X173515270Y-105955136D01*
X173515273Y-105955134D01*
X173519781Y-105951977D01*
X173676977Y-105794781D01*
X173699770Y-105762230D01*
X173801331Y-105617185D01*
X173801332Y-105617183D01*
X173804488Y-105612676D01*
X173806811Y-105607694D01*
X173806814Y-105607689D01*
X173896117Y-105416178D01*
X173896118Y-105416177D01*
X173898440Y-105411196D01*
X173955978Y-105196463D01*
X173975353Y-104975000D01*
X173955978Y-104753537D01*
X173913354Y-104594464D01*
X173899863Y-104544114D01*
X173899862Y-104544112D01*
X173898440Y-104538804D01*
X173854127Y-104443774D01*
X173806814Y-104342311D01*
X173806811Y-104342306D01*
X173804488Y-104337324D01*
X173799160Y-104329715D01*
X173680136Y-104159730D01*
X173680134Y-104159727D01*
X173676977Y-104155219D01*
X173519781Y-103998023D01*
X173515273Y-103994866D01*
X173515270Y-103994864D01*
X173421603Y-103929278D01*
X173337677Y-103870512D01*
X173332695Y-103868189D01*
X173332690Y-103868186D01*
X173141178Y-103778883D01*
X173141177Y-103778882D01*
X173136196Y-103776560D01*
X173130888Y-103775138D01*
X173130886Y-103775137D01*
X173065051Y-103757497D01*
X172921463Y-103719022D01*
X172700000Y-103699647D01*
X172478537Y-103719022D01*
X172334949Y-103757497D01*
X172269114Y-103775137D01*
X172269112Y-103775138D01*
X172263804Y-103776560D01*
X172258823Y-103778882D01*
X172258822Y-103778883D01*
X172067311Y-103868186D01*
X172067306Y-103868189D01*
X172062324Y-103870512D01*
X172057817Y-103873668D01*
X172057815Y-103873669D01*
X171884730Y-103994864D01*
X171884727Y-103994866D01*
X171880219Y-103998023D01*
X171723023Y-104155219D01*
X171719866Y-104159727D01*
X171719864Y-104159730D01*
X171600840Y-104329715D01*
X171595512Y-104337324D01*
X171593189Y-104342306D01*
X171593186Y-104342311D01*
X171543919Y-104447965D01*
X171497001Y-104501250D01*
X171428724Y-104520711D01*
X171360764Y-104500169D01*
X171315529Y-104447965D01*
X171266377Y-104342559D01*
X171260897Y-104333068D01*
X171230206Y-104289235D01*
X171219729Y-104280860D01*
X171206282Y-104287928D01*
X169472207Y-106022003D01*
X169465777Y-106033777D01*
X169475074Y-106045793D01*
X169518069Y-106075898D01*
X169527555Y-106081376D01*
X169718993Y-106170645D01*
X169729285Y-106174391D01*
X169933309Y-106229059D01*
X169944105Y-106230963D01*
X170100315Y-106244629D01*
X170166434Y-106270492D01*
X170208073Y-106327996D01*
X170212014Y-106398883D01*
X170178429Y-106459245D01*
X164864923Y-111772752D01*
X164850511Y-111785139D01*
X164833849Y-111797400D01*
X164829106Y-111802983D01*
X164800869Y-111836220D01*
X164793939Y-111843736D01*
X164788555Y-111849120D01*
X164786292Y-111851981D01*
X164786287Y-111851986D01*
X164771568Y-111870591D01*
X164768779Y-111873993D01*
X164727847Y-111922172D01*
X164727844Y-111922176D01*
X164723108Y-111927751D01*
X164719779Y-111934272D01*
X164716658Y-111938951D01*
X164713722Y-111943705D01*
X164709182Y-111949443D01*
X164706085Y-111956070D01*
X164706084Y-111956071D01*
X164679311Y-112013354D01*
X164677401Y-112017261D01*
X164645324Y-112080082D01*
X164643584Y-112087194D01*
X164641618Y-112092480D01*
X164639860Y-112097765D01*
X164636761Y-112104395D01*
X164625650Y-112157815D01*
X164622395Y-112173463D01*
X164621425Y-112177747D01*
X164604670Y-112246221D01*
X164604000Y-112257020D01*
X164603976Y-112257019D01*
X164603712Y-112261434D01*
X164603422Y-112264684D01*
X164601931Y-112271852D01*
X164602129Y-112279169D01*
X164603954Y-112346623D01*
X164604000Y-112350031D01*
X164604000Y-119926484D01*
X164583998Y-119994605D01*
X164567095Y-120015579D01*
X164162182Y-120420492D01*
X164099870Y-120454518D01*
X164035725Y-120451730D01*
X163992773Y-120438393D01*
X163886954Y-120424368D01*
X163769511Y-120408802D01*
X163769506Y-120408802D01*
X163764226Y-120408102D01*
X163758897Y-120408302D01*
X163758895Y-120408302D01*
X163649034Y-120412426D01*
X163533842Y-120416751D01*
X163528623Y-120417846D01*
X163506633Y-120422460D01*
X163308209Y-120464093D01*
X163303250Y-120466051D01*
X163303248Y-120466052D01*
X163098744Y-120546815D01*
X163098742Y-120546816D01*
X163093779Y-120548776D01*
X163089220Y-120551543D01*
X163089217Y-120551544D01*
X162983434Y-120615735D01*
X162896683Y-120668377D01*
X162892653Y-120671874D01*
X162728346Y-120814452D01*
X162722555Y-120819477D01*
X162693330Y-120855120D01*
X162634671Y-120895114D01*
X162563701Y-120897046D01*
X162502952Y-120860302D01*
X162488752Y-120841532D01*
X162402332Y-120701880D01*
X162398478Y-120695652D01*
X162273303Y-120570695D01*
X162246000Y-120553865D01*
X162128968Y-120481725D01*
X162128966Y-120481724D01*
X162122738Y-120477885D01*
X162009392Y-120440290D01*
X161961389Y-120424368D01*
X161961387Y-120424368D01*
X161954861Y-120422203D01*
X161948025Y-120421503D01*
X161948022Y-120421502D01*
X161904969Y-120417091D01*
X161850400Y-120411500D01*
X160549600Y-120411500D01*
X160546354Y-120411837D01*
X160546350Y-120411837D01*
X160450692Y-120421762D01*
X160450688Y-120421763D01*
X160443834Y-120422474D01*
X160437298Y-120424655D01*
X160437296Y-120424655D01*
X160322369Y-120462998D01*
X160276054Y-120478450D01*
X160125652Y-120571522D01*
X160120479Y-120576704D01*
X160118686Y-120578500D01*
X160000695Y-120696697D01*
X159996855Y-120702927D01*
X159996854Y-120702928D01*
X159912051Y-120840504D01*
X159907885Y-120847262D01*
X159881436Y-120927005D01*
X159857033Y-121000578D01*
X159852203Y-121015139D01*
X159851503Y-121021975D01*
X159851502Y-121021978D01*
X159846239Y-121073344D01*
X159819397Y-121139071D01*
X159761282Y-121179852D01*
X159720895Y-121186500D01*
X150676016Y-121186500D01*
X150607895Y-121166498D01*
X150586921Y-121149595D01*
X149707280Y-120269954D01*
X148800920Y-119363595D01*
X148766895Y-119301283D01*
X148771959Y-119230468D01*
X148814506Y-119173632D01*
X148881026Y-119148821D01*
X148890015Y-119148500D01*
X150062923Y-119148500D01*
X150076531Y-119149237D01*
X150110237Y-119152899D01*
X150110241Y-119152899D01*
X150116362Y-119153564D01*
X150122501Y-119153027D01*
X150122506Y-119153027D01*
X150168786Y-119148978D01*
X150173622Y-119148648D01*
X150176655Y-119148500D01*
X150179737Y-119148500D01*
X150182792Y-119148201D01*
X150182802Y-119148200D01*
X150224647Y-119144097D01*
X150225959Y-119143976D01*
X150317009Y-119136010D01*
X150317012Y-119136009D01*
X150323155Y-119135472D01*
X150328530Y-119133910D01*
X150334092Y-119133365D01*
X150427521Y-119105157D01*
X150428724Y-119104801D01*
X150516578Y-119079278D01*
X150516584Y-119079276D01*
X150522496Y-119077558D01*
X150527461Y-119074985D01*
X150532815Y-119073368D01*
X150619054Y-119027513D01*
X150620116Y-119026956D01*
X150663437Y-119004500D01*
X150701314Y-118984867D01*
X150701318Y-118984864D01*
X150706790Y-118982028D01*
X150711161Y-118978538D01*
X150716099Y-118975913D01*
X150720876Y-118972017D01*
X150720882Y-118972013D01*
X150791746Y-118914217D01*
X150792674Y-118913467D01*
X150833838Y-118880607D01*
X150836340Y-118878105D01*
X150837503Y-118877065D01*
X150841819Y-118873378D01*
X150876964Y-118844715D01*
X150896480Y-118821124D01*
X150955312Y-118781387D01*
X150988837Y-118775529D01*
X151061449Y-118772803D01*
X151116158Y-118770749D01*
X151138802Y-118765998D01*
X151336572Y-118724502D01*
X151341791Y-118723407D01*
X151346750Y-118721449D01*
X151346752Y-118721448D01*
X151551256Y-118640685D01*
X151551258Y-118640684D01*
X151556221Y-118638724D01*
X151592343Y-118616805D01*
X151748757Y-118521890D01*
X151748756Y-118521890D01*
X151753317Y-118519123D01*
X151927445Y-118368023D01*
X151956670Y-118332380D01*
X152015329Y-118292386D01*
X152086299Y-118290454D01*
X152147048Y-118327198D01*
X152161248Y-118345968D01*
X152212537Y-118428850D01*
X152251522Y-118491848D01*
X152376697Y-118616805D01*
X152382927Y-118620645D01*
X152382928Y-118620646D01*
X152520090Y-118705194D01*
X152527262Y-118709615D01*
X152600829Y-118734016D01*
X152688611Y-118763132D01*
X152688613Y-118763132D01*
X152695139Y-118765297D01*
X152701975Y-118765997D01*
X152701978Y-118765998D01*
X152737663Y-118769654D01*
X152799600Y-118776000D01*
X154100400Y-118776000D01*
X154103646Y-118775663D01*
X154103650Y-118775663D01*
X154199308Y-118765738D01*
X154199312Y-118765737D01*
X154206166Y-118765026D01*
X154212702Y-118762845D01*
X154212704Y-118762845D01*
X154344806Y-118718772D01*
X154373946Y-118709050D01*
X154524348Y-118615978D01*
X154649305Y-118490803D01*
X154737038Y-118348475D01*
X154738275Y-118346468D01*
X154738276Y-118346466D01*
X154742115Y-118340238D01*
X154797797Y-118172361D01*
X154808500Y-118067900D01*
X154808500Y-116467100D01*
X154808163Y-116463850D01*
X154798238Y-116368192D01*
X154798237Y-116368188D01*
X154797526Y-116361334D01*
X154793710Y-116349894D01*
X154743868Y-116200502D01*
X154741550Y-116193554D01*
X154648478Y-116043152D01*
X154523303Y-115918195D01*
X154517072Y-115914354D01*
X154378968Y-115829225D01*
X154378966Y-115829224D01*
X154372738Y-115825385D01*
X154264195Y-115789383D01*
X154211389Y-115771868D01*
X154211387Y-115771868D01*
X154204861Y-115769703D01*
X154198025Y-115769003D01*
X154198022Y-115769002D01*
X154154969Y-115764591D01*
X154100400Y-115759000D01*
X153490635Y-115759000D01*
X153422514Y-115738998D01*
X153401540Y-115722095D01*
X150296634Y-112617189D01*
X150287533Y-112607046D01*
X150266292Y-112580628D01*
X150262429Y-112575823D01*
X150257711Y-112571865D01*
X150257709Y-112571862D01*
X150222119Y-112541999D01*
X150218470Y-112538815D01*
X150216216Y-112536771D01*
X150214035Y-112534590D01*
X150179173Y-112505955D01*
X150178192Y-112505140D01*
X150108135Y-112446355D01*
X150103411Y-112442391D01*
X150098508Y-112439696D01*
X150094188Y-112436147D01*
X150088764Y-112433238D01*
X150088760Y-112433236D01*
X150008202Y-112390041D01*
X150007043Y-112389412D01*
X149980129Y-112374616D01*
X149921505Y-112342387D01*
X149916174Y-112340696D01*
X149911245Y-112338053D01*
X149905357Y-112336253D01*
X149905355Y-112336252D01*
X149817887Y-112309511D01*
X149816627Y-112309118D01*
X149723639Y-112279621D01*
X149718079Y-112278997D01*
X149712733Y-112277363D01*
X149706608Y-112276741D01*
X149706604Y-112276740D01*
X149647647Y-112270752D01*
X149615656Y-112267502D01*
X149614450Y-112267374D01*
X149562087Y-112261500D01*
X149558582Y-112261500D01*
X149556973Y-112261410D01*
X149551277Y-112260962D01*
X149512342Y-112257007D01*
X149512336Y-112257007D01*
X149506213Y-112256385D01*
X149459895Y-112260763D01*
X149458012Y-112260941D01*
X149446155Y-112261500D01*
X132204569Y-112261500D01*
X132190962Y-112260763D01*
X132157264Y-112257102D01*
X132157259Y-112257102D01*
X132151138Y-112256437D01*
X132143310Y-112257122D01*
X132142439Y-112256947D01*
X132138834Y-112256909D01*
X132138841Y-112256224D01*
X132073705Y-112243138D01*
X132040021Y-112217373D01*
X132026527Y-112202851D01*
X131909783Y-112077220D01*
X131849661Y-112012521D01*
X131849658Y-112012519D01*
X131846740Y-112009378D01*
X131624268Y-111827287D01*
X131620621Y-111825052D01*
X131620604Y-111825040D01*
X131518665Y-111762572D01*
X131471034Y-111709925D01*
X131458500Y-111655140D01*
X131458500Y-110144569D01*
X131459237Y-110130962D01*
X131462898Y-110097264D01*
X131462898Y-110097259D01*
X131463563Y-110091138D01*
X131458979Y-110038739D01*
X131458650Y-110033911D01*
X131458500Y-110030840D01*
X131458500Y-110027763D01*
X131458201Y-110024709D01*
X131458200Y-110024698D01*
X131454094Y-109982828D01*
X131453972Y-109981513D01*
X131446008Y-109890478D01*
X131446007Y-109890473D01*
X131445471Y-109884345D01*
X131443911Y-109878975D01*
X131443365Y-109873408D01*
X131441507Y-109867251D01*
X131415146Y-109779938D01*
X131414772Y-109778674D01*
X131389277Y-109690920D01*
X131389276Y-109690918D01*
X131387558Y-109685004D01*
X131384985Y-109680039D01*
X131383368Y-109674685D01*
X131337513Y-109588446D01*
X131336926Y-109587328D01*
X131294867Y-109506186D01*
X131294864Y-109506182D01*
X131292028Y-109500710D01*
X131288538Y-109496339D01*
X131285913Y-109491401D01*
X131282017Y-109486624D01*
X131282013Y-109486618D01*
X131224217Y-109415754D01*
X131223420Y-109414767D01*
X131190607Y-109373662D01*
X131188105Y-109371160D01*
X131187065Y-109369997D01*
X131183378Y-109365681D01*
X131154715Y-109330536D01*
X131149973Y-109326613D01*
X131149970Y-109326610D01*
X131117407Y-109299672D01*
X131108628Y-109291683D01*
X127794134Y-105977189D01*
X127785033Y-105967046D01*
X127763792Y-105940628D01*
X127759929Y-105935823D01*
X127755211Y-105931865D01*
X127755209Y-105931862D01*
X127719619Y-105901999D01*
X127715970Y-105898815D01*
X127713716Y-105896771D01*
X127711535Y-105894590D01*
X127676673Y-105865955D01*
X127675692Y-105865140D01*
X127605635Y-105806355D01*
X127600911Y-105802391D01*
X127596008Y-105799696D01*
X127591688Y-105796147D01*
X127586264Y-105793238D01*
X127586260Y-105793236D01*
X127505702Y-105750041D01*
X127504543Y-105749412D01*
X127492441Y-105742759D01*
X127419005Y-105702387D01*
X127413674Y-105700696D01*
X127408745Y-105698053D01*
X127402857Y-105696253D01*
X127402855Y-105696252D01*
X127315387Y-105669511D01*
X127314127Y-105669118D01*
X127301864Y-105665228D01*
X127221139Y-105639621D01*
X127215579Y-105638997D01*
X127210233Y-105637363D01*
X127204108Y-105636741D01*
X127204104Y-105636740D01*
X127145147Y-105630752D01*
X127113156Y-105627502D01*
X127111950Y-105627374D01*
X127059587Y-105621500D01*
X127056082Y-105621500D01*
X127054473Y-105621410D01*
X127048777Y-105620962D01*
X127009842Y-105617007D01*
X127009836Y-105617007D01*
X127003713Y-105616385D01*
X126957395Y-105620763D01*
X126955512Y-105620941D01*
X126943655Y-105621500D01*
X124524567Y-105621500D01*
X124510959Y-105620763D01*
X124477263Y-105617102D01*
X124477259Y-105617102D01*
X124471138Y-105616437D01*
X124450003Y-105618286D01*
X124418739Y-105621021D01*
X124413911Y-105621350D01*
X124410840Y-105621500D01*
X124407763Y-105621500D01*
X124404709Y-105621799D01*
X124404698Y-105621800D01*
X124362828Y-105625906D01*
X124361513Y-105626028D01*
X124270478Y-105633992D01*
X124270473Y-105633993D01*
X124264345Y-105634529D01*
X124258975Y-105636089D01*
X124253408Y-105636635D01*
X124247518Y-105638413D01*
X124247514Y-105638414D01*
X124159938Y-105664854D01*
X124158674Y-105665228D01*
X124070920Y-105690723D01*
X124070918Y-105690724D01*
X124065004Y-105692442D01*
X124060039Y-105695015D01*
X124054685Y-105696632D01*
X123968446Y-105742487D01*
X123967384Y-105743044D01*
X123953887Y-105750041D01*
X123886186Y-105785133D01*
X123886182Y-105785136D01*
X123880710Y-105787972D01*
X123876339Y-105791462D01*
X123871401Y-105794087D01*
X123866624Y-105797983D01*
X123866618Y-105797987D01*
X123795754Y-105855783D01*
X123794826Y-105856533D01*
X123753662Y-105889393D01*
X123751160Y-105891895D01*
X123749997Y-105892935D01*
X123745681Y-105896622D01*
X123710536Y-105925285D01*
X123706613Y-105930027D01*
X123706610Y-105930030D01*
X123679672Y-105962593D01*
X123671683Y-105971372D01*
X121217189Y-108425866D01*
X121207046Y-108434967D01*
X121175823Y-108460071D01*
X121171865Y-108464789D01*
X121171862Y-108464791D01*
X121141999Y-108500381D01*
X121138815Y-108504030D01*
X121136771Y-108506284D01*
X121134590Y-108508465D01*
X121105983Y-108543293D01*
X121105140Y-108544308D01*
X121074696Y-108580590D01*
X121042391Y-108619089D01*
X121039696Y-108623992D01*
X121036147Y-108628312D01*
X121033238Y-108633736D01*
X121033236Y-108633740D01*
X120990051Y-108714280D01*
X120989438Y-108715409D01*
X120942387Y-108800995D01*
X120940696Y-108806326D01*
X120938053Y-108811255D01*
X120936253Y-108817143D01*
X120936252Y-108817145D01*
X120909511Y-108904613D01*
X120909122Y-108905860D01*
X120879621Y-108998861D01*
X120878997Y-109004421D01*
X120877363Y-109009767D01*
X120876741Y-109015892D01*
X120876740Y-109015896D01*
X120867507Y-109106798D01*
X120867374Y-109108050D01*
X120861500Y-109160413D01*
X120861500Y-109163918D01*
X120861410Y-109165527D01*
X120860962Y-109171223D01*
X120857007Y-109210158D01*
X120857007Y-109210164D01*
X120856385Y-109216287D01*
X120856965Y-109222419D01*
X120860941Y-109264488D01*
X120861500Y-109276345D01*
X120861500Y-110535500D01*
X120841498Y-110603621D01*
X120787842Y-110650114D01*
X120735500Y-110661500D01*
X119421866Y-110661500D01*
X119359684Y-110668255D01*
X119223295Y-110719385D01*
X119106739Y-110806739D01*
X119019385Y-110923295D01*
X118968255Y-111059684D01*
X118961500Y-111121866D01*
X118961500Y-112040286D01*
X118941498Y-112108407D01*
X118887842Y-112154900D01*
X118851947Y-112165208D01*
X118772999Y-112175602D01*
X118761150Y-112177162D01*
X118613125Y-112238476D01*
X118558587Y-112280325D01*
X118492566Y-112330984D01*
X118492563Y-112330987D01*
X118486013Y-112336013D01*
X118480987Y-112342563D01*
X118480986Y-112342564D01*
X118476567Y-112348323D01*
X118388476Y-112463124D01*
X118385317Y-112470750D01*
X118385316Y-112470752D01*
X118339805Y-112580628D01*
X118327162Y-112611150D01*
X118306249Y-112770000D01*
X118307327Y-112778188D01*
X118310422Y-112801697D01*
X118311500Y-112818143D01*
X118311500Y-117062446D01*
X118291498Y-117130567D01*
X118237842Y-117177060D01*
X118167568Y-117187164D01*
X118102988Y-117157670D01*
X118096405Y-117151541D01*
X117720405Y-116775541D01*
X117686379Y-116713229D01*
X117683500Y-116686446D01*
X117683500Y-104428767D01*
X117684027Y-104417584D01*
X117685702Y-104410091D01*
X117683562Y-104342014D01*
X117683500Y-104338055D01*
X117683500Y-104310144D01*
X117682995Y-104306144D01*
X117682062Y-104294301D01*
X117680922Y-104258029D01*
X117680673Y-104250110D01*
X117675022Y-104230658D01*
X117671014Y-104211306D01*
X117669467Y-104199063D01*
X117668474Y-104191203D01*
X117665556Y-104183832D01*
X117652200Y-104150097D01*
X117648355Y-104138870D01*
X117647721Y-104136687D01*
X117636018Y-104096407D01*
X117631984Y-104089585D01*
X117631981Y-104089579D01*
X117625706Y-104078968D01*
X117617010Y-104061218D01*
X117612472Y-104049756D01*
X117612469Y-104049751D01*
X117609552Y-104042383D01*
X117583573Y-104006625D01*
X117577057Y-103996707D01*
X117558575Y-103965457D01*
X117554542Y-103958637D01*
X117540218Y-103944313D01*
X117527376Y-103929278D01*
X117515472Y-103912893D01*
X117481406Y-103884711D01*
X117472627Y-103876722D01*
X115651218Y-102055313D01*
X115617192Y-101993001D01*
X115619755Y-101929589D01*
X115630865Y-101893022D01*
X115632370Y-101888069D01*
X115661529Y-101666590D01*
X115663156Y-101600000D01*
X115644852Y-101377361D01*
X115590431Y-101160702D01*
X115501354Y-100955840D01*
X115380014Y-100768277D01*
X115229670Y-100603051D01*
X115225619Y-100599852D01*
X115225615Y-100599848D01*
X115058414Y-100467800D01*
X115058410Y-100467798D01*
X115054359Y-100464598D01*
X115013053Y-100441796D01*
X114963084Y-100391364D01*
X114948312Y-100321921D01*
X114973428Y-100255516D01*
X115000780Y-100228909D01*
X115044603Y-100197650D01*
X115179860Y-100101173D01*
X115338096Y-99943489D01*
X115356995Y-99917189D01*
X115465435Y-99766277D01*
X115468453Y-99762077D01*
X115476224Y-99746355D01*
X115565136Y-99566453D01*
X115565137Y-99566451D01*
X115567430Y-99561811D01*
X115632370Y-99348069D01*
X115661529Y-99126590D01*
X115663156Y-99060000D01*
X115644852Y-98837361D01*
X115590431Y-98620702D01*
X115501354Y-98415840D01*
X115416089Y-98284040D01*
X115382822Y-98232617D01*
X115382820Y-98232614D01*
X115380014Y-98228277D01*
X115229670Y-98063051D01*
X115225619Y-98059852D01*
X115225615Y-98059848D01*
X115058414Y-97927800D01*
X115058410Y-97927798D01*
X115054359Y-97924598D01*
X115013053Y-97901796D01*
X114963084Y-97851364D01*
X114948312Y-97781921D01*
X114973428Y-97715516D01*
X115000780Y-97688909D01*
X115049209Y-97654365D01*
X115179860Y-97561173D01*
X115206052Y-97535073D01*
X115266203Y-97475131D01*
X115338096Y-97403489D01*
X115397594Y-97320689D01*
X115465435Y-97226277D01*
X115468453Y-97222077D01*
X115489320Y-97179857D01*
X115565136Y-97026453D01*
X115565137Y-97026451D01*
X115567430Y-97021811D01*
X115617747Y-96856199D01*
X115630865Y-96813023D01*
X115630865Y-96813021D01*
X115632370Y-96808069D01*
X115661529Y-96586590D01*
X115662079Y-96564067D01*
X115663074Y-96523365D01*
X115663074Y-96523361D01*
X115663156Y-96520000D01*
X115644852Y-96297361D01*
X115602863Y-96130196D01*
X115605667Y-96059254D01*
X115646380Y-96001091D01*
X115712075Y-95974172D01*
X115725067Y-95973500D01*
X116365406Y-95973500D01*
X116433527Y-95993502D01*
X116454501Y-96010405D01*
X117091343Y-96647247D01*
X117098887Y-96655537D01*
X117103000Y-96662018D01*
X117108777Y-96667443D01*
X117152667Y-96708658D01*
X117155509Y-96711413D01*
X117175230Y-96731134D01*
X117178425Y-96733612D01*
X117187447Y-96741318D01*
X117219679Y-96771586D01*
X117226628Y-96775406D01*
X117237432Y-96781346D01*
X117253956Y-96792199D01*
X117269959Y-96804613D01*
X117310543Y-96822176D01*
X117321173Y-96827383D01*
X117359940Y-96848695D01*
X117367617Y-96850666D01*
X117367622Y-96850668D01*
X117379558Y-96853732D01*
X117398266Y-96860137D01*
X117416855Y-96868181D01*
X117424680Y-96869420D01*
X117424682Y-96869421D01*
X117460519Y-96875097D01*
X117472140Y-96877504D01*
X117507289Y-96886528D01*
X117514970Y-96888500D01*
X117535231Y-96888500D01*
X117554940Y-96890051D01*
X117574943Y-96893219D01*
X117582835Y-96892473D01*
X117588062Y-96891979D01*
X117618954Y-96889059D01*
X117630811Y-96888500D01*
X139670500Y-96888500D01*
X139738621Y-96908502D01*
X139785114Y-96962158D01*
X139796500Y-97014500D01*
X139796500Y-97178134D01*
X139796869Y-97181529D01*
X139796869Y-97181533D01*
X139800656Y-97216393D01*
X139800656Y-97243606D01*
X139796500Y-97281866D01*
X139796500Y-97654365D01*
X139776498Y-97722486D01*
X139759595Y-97743460D01*
X137978460Y-99524595D01*
X137916148Y-99558621D01*
X137889365Y-99561500D01*
X132634500Y-99561500D01*
X132566379Y-99541498D01*
X132519886Y-99487842D01*
X132508500Y-99435500D01*
X132508500Y-99201866D01*
X132501745Y-99139684D01*
X132450615Y-99003295D01*
X132363261Y-98886739D01*
X132246705Y-98799385D01*
X132110316Y-98748255D01*
X132048134Y-98741500D01*
X128751866Y-98741500D01*
X128689684Y-98748255D01*
X128553295Y-98799385D01*
X128436739Y-98886739D01*
X128349385Y-99003295D01*
X128298255Y-99139684D01*
X128291500Y-99201866D01*
X128291500Y-102498134D01*
X128298255Y-102560316D01*
X128349385Y-102696705D01*
X128436739Y-102813261D01*
X128553295Y-102900615D01*
X128689684Y-102951745D01*
X128751866Y-102958500D01*
X132048134Y-102958500D01*
X132110316Y-102951745D01*
X132246705Y-102900615D01*
X132363261Y-102813261D01*
X132450615Y-102696705D01*
X132501745Y-102560316D01*
X132508500Y-102498134D01*
X132508500Y-101804500D01*
X132528502Y-101736379D01*
X132582158Y-101689886D01*
X132634500Y-101678500D01*
X138315423Y-101678500D01*
X138329031Y-101679237D01*
X138362737Y-101682899D01*
X138362741Y-101682899D01*
X138368862Y-101683564D01*
X138421269Y-101678979D01*
X138432251Y-101678500D01*
X141529365Y-101678500D01*
X141597486Y-101698502D01*
X141618460Y-101715405D01*
X146604595Y-106701540D01*
X146638621Y-106763852D01*
X146641500Y-106790635D01*
X146641500Y-110102237D01*
X146641800Y-110105293D01*
X146641800Y-110105300D01*
X146652960Y-110219114D01*
X146656635Y-110256592D01*
X146680800Y-110336632D01*
X146710202Y-110434016D01*
X146716632Y-110455315D01*
X146719527Y-110460760D01*
X146719528Y-110460762D01*
X146795489Y-110603621D01*
X146814087Y-110638599D01*
X146862917Y-110698471D01*
X146941390Y-110794689D01*
X146941393Y-110794692D01*
X146945285Y-110799464D01*
X146950033Y-110803392D01*
X146950034Y-110803393D01*
X146962758Y-110813919D01*
X147105230Y-110931783D01*
X147110647Y-110934712D01*
X147110650Y-110934714D01*
X147282410Y-111027584D01*
X147282415Y-111027586D01*
X147287830Y-111030514D01*
X147486129Y-111091898D01*
X147492254Y-111092542D01*
X147492255Y-111092542D01*
X147686446Y-111112952D01*
X147686448Y-111112952D01*
X147692575Y-111113596D01*
X147778485Y-111105777D01*
X147893164Y-111095341D01*
X147893167Y-111095340D01*
X147899303Y-111094782D01*
X147905209Y-111093044D01*
X147905213Y-111093043D01*
X148092531Y-111037912D01*
X148092530Y-111037912D01*
X148098440Y-111036173D01*
X148282400Y-110940001D01*
X148324188Y-110906403D01*
X148367644Y-110871463D01*
X148444177Y-110809929D01*
X148449662Y-110803393D01*
X148573650Y-110655629D01*
X148577609Y-110650911D01*
X148580573Y-110645519D01*
X148580576Y-110645515D01*
X148674646Y-110474402D01*
X148677613Y-110469005D01*
X148740379Y-110271139D01*
X148741350Y-110262489D01*
X148754576Y-110144569D01*
X148758500Y-110109587D01*
X148758500Y-106364577D01*
X148759237Y-106350969D01*
X148759439Y-106349108D01*
X148763564Y-106311138D01*
X148761117Y-106283163D01*
X148758980Y-106258745D01*
X148758650Y-106253915D01*
X148758500Y-106250848D01*
X148758500Y-106247763D01*
X148756666Y-106229059D01*
X148754093Y-106202811D01*
X148753972Y-106201500D01*
X148746009Y-106110489D01*
X148746008Y-106110485D01*
X148745471Y-106104345D01*
X148743911Y-106098975D01*
X148743365Y-106093408D01*
X148739733Y-106081376D01*
X148715146Y-105999938D01*
X148714772Y-105998674D01*
X148689277Y-105910920D01*
X148689276Y-105910918D01*
X148687558Y-105905004D01*
X148684985Y-105900039D01*
X148683368Y-105894685D01*
X148637513Y-105808446D01*
X148636926Y-105807328D01*
X148632443Y-105798678D01*
X148615565Y-105766118D01*
X148594867Y-105726186D01*
X148594864Y-105726182D01*
X148592028Y-105720710D01*
X148588538Y-105716339D01*
X148585913Y-105711401D01*
X148582017Y-105706624D01*
X148582013Y-105706618D01*
X148524217Y-105635754D01*
X148523467Y-105634826D01*
X148490607Y-105593662D01*
X148488105Y-105591160D01*
X148487065Y-105589997D01*
X148483378Y-105585681D01*
X148454715Y-105550536D01*
X148449973Y-105546613D01*
X148449970Y-105546610D01*
X148417407Y-105519672D01*
X148408628Y-105511683D01*
X147871945Y-104975000D01*
X154461496Y-104975000D01*
X154481458Y-105164928D01*
X154540473Y-105346556D01*
X154635960Y-105511944D01*
X154640378Y-105516851D01*
X154640379Y-105516852D01*
X154750921Y-105639621D01*
X154763747Y-105653866D01*
X154839957Y-105709236D01*
X154912897Y-105762230D01*
X154918248Y-105766118D01*
X154924276Y-105768802D01*
X154924278Y-105768803D01*
X155053651Y-105826403D01*
X155092712Y-105843794D01*
X155186113Y-105863647D01*
X155273056Y-105882128D01*
X155273061Y-105882128D01*
X155279513Y-105883500D01*
X155470487Y-105883500D01*
X155476939Y-105882128D01*
X155476944Y-105882128D01*
X155563887Y-105863647D01*
X155657288Y-105843794D01*
X155696349Y-105826403D01*
X155825722Y-105768803D01*
X155825724Y-105768802D01*
X155831752Y-105766118D01*
X155837104Y-105762230D01*
X155877935Y-105732564D01*
X155944803Y-105708706D01*
X155951996Y-105708500D01*
X159138818Y-105708500D01*
X159206939Y-105728502D01*
X159253432Y-105782158D01*
X159258341Y-105794623D01*
X159278923Y-105856315D01*
X159278927Y-105856325D01*
X159281244Y-105863268D01*
X159371248Y-106008713D01*
X159492298Y-106129552D01*
X159498528Y-106133392D01*
X159498529Y-106133393D01*
X159611146Y-106202811D01*
X159637899Y-106219302D01*
X159800243Y-106273149D01*
X159807080Y-106273849D01*
X159807082Y-106273850D01*
X159848401Y-106278083D01*
X159901268Y-106283500D01*
X160498732Y-106283500D01*
X160501978Y-106283163D01*
X160501982Y-106283163D01*
X160536083Y-106279625D01*
X160601019Y-106272887D01*
X160685718Y-106244629D01*
X160756324Y-106221073D01*
X160756326Y-106221072D01*
X160763268Y-106218756D01*
X160789984Y-106202224D01*
X160902485Y-106132606D01*
X160908713Y-106128752D01*
X161029552Y-106007702D01*
X161048444Y-105977054D01*
X161115462Y-105868331D01*
X161115463Y-105868329D01*
X161119302Y-105862101D01*
X161141614Y-105794832D01*
X161182045Y-105736473D01*
X161247609Y-105709236D01*
X161261207Y-105708500D01*
X166517018Y-105708500D01*
X166585139Y-105728502D01*
X166620228Y-105762226D01*
X166643023Y-105794781D01*
X166800219Y-105951977D01*
X166804727Y-105955134D01*
X166804730Y-105955136D01*
X166870999Y-106001538D01*
X166982323Y-106079488D01*
X166987305Y-106081811D01*
X166987310Y-106081814D01*
X167177810Y-106170645D01*
X167183804Y-106173440D01*
X167189112Y-106174862D01*
X167189114Y-106174863D01*
X167250853Y-106191406D01*
X167398537Y-106230978D01*
X167620000Y-106250353D01*
X167841463Y-106230978D01*
X167989147Y-106191406D01*
X168050886Y-106174863D01*
X168050888Y-106174862D01*
X168056196Y-106173440D01*
X168062190Y-106170645D01*
X168252690Y-106081814D01*
X168252695Y-106081811D01*
X168257677Y-106079488D01*
X168369001Y-106001538D01*
X168435270Y-105955136D01*
X168435273Y-105955134D01*
X168439781Y-105951977D01*
X168596977Y-105794781D01*
X168619770Y-105762230D01*
X168721331Y-105617185D01*
X168721332Y-105617183D01*
X168724488Y-105612676D01*
X168726811Y-105607694D01*
X168726814Y-105607689D01*
X168776081Y-105502035D01*
X168822999Y-105448750D01*
X168891276Y-105429289D01*
X168959236Y-105449831D01*
X169004471Y-105502035D01*
X169053623Y-105607441D01*
X169059103Y-105616932D01*
X169089794Y-105660765D01*
X169100271Y-105669140D01*
X169113718Y-105662072D01*
X169787978Y-104987812D01*
X169795592Y-104973868D01*
X169795461Y-104972035D01*
X169791210Y-104965420D01*
X169112997Y-104287207D01*
X169101223Y-104280777D01*
X169089207Y-104290074D01*
X169059103Y-104333068D01*
X169053623Y-104342559D01*
X169004471Y-104447965D01*
X168957553Y-104501250D01*
X168889276Y-104520711D01*
X168821316Y-104500169D01*
X168776081Y-104447965D01*
X168726814Y-104342311D01*
X168726811Y-104342306D01*
X168724488Y-104337324D01*
X168719160Y-104329715D01*
X168600136Y-104159730D01*
X168600134Y-104159727D01*
X168596977Y-104155219D01*
X168439781Y-103998023D01*
X168435273Y-103994866D01*
X168435270Y-103994864D01*
X168341603Y-103929278D01*
X168321599Y-103915271D01*
X169465860Y-103915271D01*
X169472928Y-103928718D01*
X170147188Y-104602978D01*
X170161132Y-104610592D01*
X170162965Y-104610461D01*
X170169580Y-104606210D01*
X170847793Y-103927997D01*
X170854223Y-103916223D01*
X170844926Y-103904207D01*
X170801931Y-103874102D01*
X170792445Y-103868624D01*
X170601007Y-103779355D01*
X170590715Y-103775609D01*
X170386691Y-103720941D01*
X170375896Y-103719038D01*
X170165475Y-103700628D01*
X170154525Y-103700628D01*
X169944104Y-103719038D01*
X169933309Y-103720941D01*
X169729285Y-103775609D01*
X169718993Y-103779355D01*
X169527559Y-103868623D01*
X169518068Y-103874103D01*
X169474235Y-103904794D01*
X169465860Y-103915271D01*
X168321599Y-103915271D01*
X168257677Y-103870512D01*
X168252695Y-103868189D01*
X168252690Y-103868186D01*
X168061178Y-103778883D01*
X168061177Y-103778882D01*
X168056196Y-103776560D01*
X168050888Y-103775138D01*
X168050886Y-103775137D01*
X167985051Y-103757497D01*
X167841463Y-103719022D01*
X167620000Y-103699647D01*
X167398537Y-103719022D01*
X167254949Y-103757497D01*
X167189114Y-103775137D01*
X167189112Y-103775138D01*
X167183804Y-103776560D01*
X167178823Y-103778882D01*
X167178822Y-103778883D01*
X166987311Y-103868186D01*
X166987306Y-103868189D01*
X166982324Y-103870512D01*
X166977817Y-103873668D01*
X166977815Y-103873669D01*
X166804730Y-103994864D01*
X166804727Y-103994866D01*
X166800219Y-103998023D01*
X166643023Y-104155219D01*
X166620229Y-104187772D01*
X166564775Y-104232099D01*
X166517018Y-104241500D01*
X161302816Y-104241500D01*
X161234695Y-104221498D01*
X161188202Y-104167842D01*
X161177472Y-104102658D01*
X161182672Y-104051903D01*
X161182929Y-104046874D01*
X161178525Y-104031876D01*
X161177135Y-104030671D01*
X161169452Y-104029000D01*
X159235115Y-104029000D01*
X159219876Y-104033475D01*
X159218671Y-104034865D01*
X159217000Y-104042548D01*
X159217000Y-104045438D01*
X159217337Y-104051952D01*
X159222582Y-104102495D01*
X159209718Y-104172316D01*
X159161148Y-104224099D01*
X159097255Y-104241500D01*
X155951996Y-104241500D01*
X155883875Y-104221498D01*
X155877935Y-104217436D01*
X155837094Y-104187763D01*
X155837093Y-104187762D01*
X155831752Y-104183882D01*
X155825724Y-104181198D01*
X155825722Y-104181197D01*
X155663319Y-104108891D01*
X155663318Y-104108891D01*
X155657288Y-104106206D01*
X155563887Y-104086353D01*
X155476944Y-104067872D01*
X155476939Y-104067872D01*
X155470487Y-104066500D01*
X155279513Y-104066500D01*
X155273061Y-104067872D01*
X155273056Y-104067872D01*
X155186113Y-104086353D01*
X155092712Y-104106206D01*
X155086682Y-104108891D01*
X155086681Y-104108891D01*
X154924278Y-104181197D01*
X154924276Y-104181198D01*
X154918248Y-104183882D01*
X154912907Y-104187762D01*
X154912906Y-104187763D01*
X154897353Y-104199063D01*
X154763747Y-104296134D01*
X154759326Y-104301044D01*
X154759325Y-104301045D01*
X154655003Y-104416907D01*
X154635960Y-104438056D01*
X154632659Y-104443774D01*
X154545658Y-104594464D01*
X154540473Y-104603444D01*
X154481458Y-104785072D01*
X154480768Y-104791633D01*
X154480768Y-104791635D01*
X154475367Y-104843028D01*
X154461496Y-104975000D01*
X147871945Y-104975000D01*
X146400071Y-103503126D01*
X159217071Y-103503126D01*
X159221475Y-103518124D01*
X159222865Y-103519329D01*
X159230548Y-103521000D01*
X159927885Y-103521000D01*
X159943124Y-103516525D01*
X159944329Y-103515135D01*
X159946000Y-103507452D01*
X159946000Y-103502885D01*
X160454000Y-103502885D01*
X160458475Y-103518124D01*
X160459865Y-103519329D01*
X160467548Y-103521000D01*
X161164885Y-103521000D01*
X161180124Y-103516525D01*
X161181329Y-103515135D01*
X161183000Y-103507452D01*
X161183000Y-103504562D01*
X161182663Y-103498047D01*
X161173106Y-103405943D01*
X161170212Y-103392544D01*
X161120619Y-103243893D01*
X161114445Y-103230714D01*
X161032212Y-103097827D01*
X161023176Y-103086426D01*
X160912571Y-102976014D01*
X160901160Y-102967002D01*
X160768120Y-102884996D01*
X160754939Y-102878849D01*
X160606186Y-102829509D01*
X160592810Y-102826642D01*
X160501903Y-102817328D01*
X160495486Y-102817000D01*
X160472115Y-102817000D01*
X160456876Y-102821475D01*
X160455671Y-102822865D01*
X160454000Y-102830548D01*
X160454000Y-103502885D01*
X159946000Y-103502885D01*
X159946000Y-102835115D01*
X159941525Y-102819876D01*
X159940135Y-102818671D01*
X159932452Y-102817000D01*
X159904562Y-102817000D01*
X159898047Y-102817337D01*
X159805943Y-102826894D01*
X159792544Y-102829788D01*
X159643893Y-102879381D01*
X159630714Y-102885555D01*
X159497827Y-102967788D01*
X159486426Y-102976824D01*
X159376014Y-103087429D01*
X159367002Y-103098840D01*
X159284996Y-103231880D01*
X159278849Y-103245061D01*
X159229509Y-103393814D01*
X159226642Y-103407190D01*
X159217328Y-103498097D01*
X159217071Y-103503126D01*
X146400071Y-103503126D01*
X142814134Y-99917189D01*
X142805033Y-99907046D01*
X142783792Y-99880628D01*
X142779929Y-99875823D01*
X142775211Y-99871865D01*
X142775209Y-99871862D01*
X142739619Y-99841999D01*
X142735970Y-99838815D01*
X142733716Y-99836771D01*
X142731535Y-99834590D01*
X142696673Y-99805955D01*
X142695692Y-99805140D01*
X142625635Y-99746355D01*
X142620911Y-99742391D01*
X142616008Y-99739696D01*
X142611688Y-99736147D01*
X142606264Y-99733238D01*
X142606260Y-99733236D01*
X142525702Y-99690041D01*
X142524543Y-99689412D01*
X142497629Y-99674616D01*
X142439005Y-99642387D01*
X142433674Y-99640696D01*
X142428745Y-99638053D01*
X142422857Y-99636253D01*
X142422855Y-99636252D01*
X142335387Y-99609511D01*
X142334127Y-99609118D01*
X142241139Y-99579621D01*
X142235579Y-99578997D01*
X142230233Y-99577363D01*
X142224108Y-99576741D01*
X142224104Y-99576740D01*
X142165147Y-99570752D01*
X142133156Y-99567502D01*
X142131950Y-99567374D01*
X142079587Y-99561500D01*
X142076082Y-99561500D01*
X142074473Y-99561410D01*
X142068777Y-99560962D01*
X142029842Y-99557007D01*
X142029836Y-99557007D01*
X142023713Y-99556385D01*
X141975851Y-99560909D01*
X141975512Y-99560941D01*
X141963655Y-99561500D01*
X141239635Y-99561500D01*
X141171514Y-99541498D01*
X141125021Y-99487842D01*
X141114917Y-99417568D01*
X141144411Y-99352988D01*
X141150540Y-99346405D01*
X141905909Y-98591036D01*
X142004353Y-98471188D01*
X142051961Y-98382401D01*
X142071103Y-98346701D01*
X142120921Y-98296117D01*
X142152999Y-98283660D01*
X142157466Y-98282598D01*
X142165316Y-98281745D01*
X142301705Y-98230615D01*
X142418261Y-98143261D01*
X142505615Y-98026705D01*
X142556745Y-97890316D01*
X142563500Y-97828134D01*
X146996500Y-97828134D01*
X147003255Y-97890316D01*
X147054385Y-98026705D01*
X147141739Y-98143261D01*
X147258295Y-98230615D01*
X147394684Y-98281745D01*
X147456866Y-98288500D01*
X166825423Y-98288500D01*
X166839031Y-98289237D01*
X166872737Y-98292899D01*
X166872741Y-98292899D01*
X166878862Y-98293564D01*
X166885001Y-98293027D01*
X166885006Y-98293027D01*
X166931286Y-98288978D01*
X166936122Y-98288648D01*
X166939155Y-98288500D01*
X166942237Y-98288500D01*
X166945292Y-98288201D01*
X166945302Y-98288200D01*
X166987147Y-98284097D01*
X166988459Y-98283976D01*
X167079509Y-98276010D01*
X167079512Y-98276009D01*
X167085655Y-98275472D01*
X167091030Y-98273910D01*
X167096592Y-98273365D01*
X167190021Y-98245157D01*
X167191224Y-98244801D01*
X167279078Y-98219278D01*
X167279084Y-98219276D01*
X167284996Y-98217558D01*
X167289961Y-98214985D01*
X167295315Y-98213368D01*
X167381554Y-98167513D01*
X167382616Y-98166956D01*
X167417946Y-98148642D01*
X167463814Y-98124867D01*
X167463818Y-98124864D01*
X167469290Y-98122028D01*
X167473661Y-98118538D01*
X167478599Y-98115913D01*
X167483376Y-98112017D01*
X167483382Y-98112013D01*
X167554246Y-98054217D01*
X167555174Y-98053467D01*
X167596338Y-98020607D01*
X167598840Y-98018105D01*
X167600003Y-98017065D01*
X167604319Y-98013378D01*
X167639464Y-97984715D01*
X167643387Y-97979973D01*
X167643390Y-97979970D01*
X167670328Y-97947407D01*
X167678317Y-97938628D01*
X170281540Y-95335405D01*
X170343852Y-95301379D01*
X170370635Y-95298500D01*
X170387890Y-95298500D01*
X170464389Y-95292009D01*
X170554409Y-95284371D01*
X170554413Y-95284370D01*
X170559720Y-95283920D01*
X170564875Y-95282582D01*
X170564881Y-95282581D01*
X170777703Y-95227343D01*
X170777707Y-95227342D01*
X170782872Y-95226001D01*
X170787738Y-95223809D01*
X170787741Y-95223808D01*
X170988202Y-95133507D01*
X170993075Y-95131312D01*
X171184319Y-95002559D01*
X171231826Y-94957240D01*
X171260456Y-94929928D01*
X171351135Y-94843424D01*
X171488754Y-94658458D01*
X171593240Y-94452949D01*
X171612034Y-94392425D01*
X171660024Y-94237871D01*
X171661607Y-94232773D01*
X171670436Y-94166158D01*
X171691198Y-94009511D01*
X171691198Y-94009506D01*
X171691898Y-94004226D01*
X171689546Y-93941562D01*
X171683449Y-93779173D01*
X171683249Y-93773842D01*
X171635907Y-93548209D01*
X171633948Y-93543248D01*
X171553185Y-93338744D01*
X171553184Y-93338742D01*
X171551224Y-93333779D01*
X171547704Y-93327977D01*
X171434390Y-93141243D01*
X171431623Y-93136683D01*
X171428126Y-93132653D01*
X171284023Y-92966588D01*
X171284021Y-92966586D01*
X171280523Y-92962555D01*
X171244880Y-92933330D01*
X171204886Y-92874671D01*
X171202954Y-92803701D01*
X171239698Y-92742952D01*
X171258468Y-92728752D01*
X171398120Y-92642332D01*
X171404348Y-92638478D01*
X171529305Y-92513303D01*
X171533146Y-92507072D01*
X171618275Y-92368968D01*
X171618276Y-92368966D01*
X171622115Y-92362738D01*
X171656154Y-92260114D01*
X171675632Y-92201389D01*
X171675632Y-92201387D01*
X171677797Y-92194861D01*
X171679439Y-92178841D01*
X171685713Y-92117604D01*
X171688500Y-92090400D01*
X171688500Y-90789600D01*
X171681642Y-90723500D01*
X171678238Y-90690692D01*
X171678237Y-90690688D01*
X171677526Y-90683834D01*
X171643598Y-90582138D01*
X171623868Y-90523002D01*
X171621550Y-90516054D01*
X171528478Y-90365652D01*
X171403303Y-90240695D01*
X171369730Y-90220000D01*
X171258968Y-90151725D01*
X171258966Y-90151724D01*
X171252738Y-90147885D01*
X171092254Y-90094655D01*
X171091389Y-90094368D01*
X171091387Y-90094368D01*
X171084861Y-90092203D01*
X171078025Y-90091503D01*
X171078022Y-90091502D01*
X171034969Y-90087091D01*
X170980400Y-90081500D01*
X169379600Y-90081500D01*
X169376354Y-90081837D01*
X169376350Y-90081837D01*
X169280692Y-90091762D01*
X169280688Y-90091763D01*
X169273834Y-90092474D01*
X169267298Y-90094655D01*
X169267296Y-90094655D01*
X169217963Y-90111114D01*
X169106054Y-90148450D01*
X168955652Y-90241522D01*
X168830695Y-90366697D01*
X168826855Y-90372927D01*
X168826854Y-90372928D01*
X168800180Y-90416202D01*
X168737885Y-90517262D01*
X168682203Y-90685139D01*
X168681503Y-90691975D01*
X168681502Y-90691978D01*
X168677814Y-90727976D01*
X168671500Y-90789600D01*
X168671500Y-91399365D01*
X168651498Y-91467486D01*
X168634595Y-91488460D01*
X166588460Y-93534595D01*
X166526148Y-93568621D01*
X166499365Y-93571500D01*
X160139635Y-93571500D01*
X160071514Y-93551498D01*
X160025021Y-93497842D01*
X160014917Y-93427568D01*
X160044411Y-93362988D01*
X160050540Y-93356405D01*
X169056154Y-84350791D01*
X169118466Y-84316765D01*
X169189281Y-84321830D01*
X169246117Y-84364377D01*
X169257372Y-84382666D01*
X169258776Y-84386221D01*
X169378377Y-84583317D01*
X169381874Y-84587347D01*
X169489755Y-84711669D01*
X169529477Y-84757445D01*
X169554524Y-84777982D01*
X169703627Y-84900240D01*
X169703633Y-84900244D01*
X169707755Y-84903624D01*
X169712391Y-84906263D01*
X169712394Y-84906265D01*
X169770327Y-84939242D01*
X169908114Y-85017675D01*
X170124825Y-85096337D01*
X170130074Y-85097286D01*
X170130077Y-85097287D01*
X170347608Y-85136623D01*
X170347615Y-85136624D01*
X170351692Y-85137361D01*
X170369414Y-85138197D01*
X170374356Y-85138430D01*
X170374363Y-85138430D01*
X170375844Y-85138500D01*
X170837890Y-85138500D01*
X170904809Y-85132822D01*
X171004409Y-85124371D01*
X171004413Y-85124370D01*
X171009720Y-85123920D01*
X171014875Y-85122582D01*
X171014881Y-85122581D01*
X171227703Y-85067343D01*
X171227707Y-85067342D01*
X171232872Y-85066001D01*
X171237738Y-85063809D01*
X171237741Y-85063808D01*
X171412205Y-84985218D01*
X171443075Y-84971312D01*
X171634319Y-84842559D01*
X171681826Y-84797240D01*
X171753776Y-84728602D01*
X171801135Y-84683424D01*
X171938754Y-84498458D01*
X172043240Y-84292949D01*
X172062034Y-84232425D01*
X172110024Y-84077871D01*
X172111607Y-84072773D01*
X172119965Y-84009715D01*
X172141198Y-83849511D01*
X172141198Y-83849506D01*
X172141898Y-83844226D01*
X172139546Y-83781562D01*
X172133449Y-83619173D01*
X172133249Y-83613842D01*
X172085907Y-83388209D01*
X172083948Y-83383248D01*
X172003185Y-83178744D01*
X172003184Y-83178742D01*
X172001224Y-83173779D01*
X171982184Y-83142401D01*
X171884390Y-82981243D01*
X171881623Y-82976683D01*
X171878126Y-82972653D01*
X171734023Y-82806588D01*
X171734021Y-82806586D01*
X171730523Y-82802555D01*
X171694880Y-82773330D01*
X171654886Y-82714671D01*
X171652954Y-82643701D01*
X171689698Y-82582952D01*
X171708468Y-82568752D01*
X171848120Y-82482332D01*
X171854348Y-82478478D01*
X171979305Y-82353303D01*
X172001357Y-82317529D01*
X172068275Y-82208968D01*
X172068276Y-82208966D01*
X172072115Y-82202738D01*
X172127797Y-82034861D01*
X172138500Y-81930400D01*
X172138500Y-80629600D01*
X172138163Y-80626350D01*
X172128238Y-80530692D01*
X172128237Y-80530688D01*
X172127526Y-80523834D01*
X172093598Y-80422138D01*
X172073868Y-80363002D01*
X172071550Y-80356054D01*
X171978478Y-80205652D01*
X171853303Y-80080695D01*
X171847072Y-80076854D01*
X171708968Y-79991725D01*
X171708966Y-79991724D01*
X171702738Y-79987885D01*
X171591876Y-79951114D01*
X171541389Y-79934368D01*
X171541387Y-79934368D01*
X171534861Y-79932203D01*
X171528025Y-79931503D01*
X171528022Y-79931502D01*
X171484969Y-79927091D01*
X171430400Y-79921500D01*
X169829600Y-79921500D01*
X169826354Y-79921837D01*
X169826350Y-79921837D01*
X169730692Y-79931762D01*
X169730688Y-79931763D01*
X169723834Y-79932474D01*
X169717298Y-79934655D01*
X169717296Y-79934655D01*
X169667963Y-79951114D01*
X169556054Y-79988450D01*
X169405652Y-80081522D01*
X169280695Y-80206697D01*
X169276855Y-80212927D01*
X169276854Y-80212928D01*
X169233630Y-80283051D01*
X169187885Y-80357262D01*
X169132203Y-80525139D01*
X169121500Y-80629600D01*
X169121500Y-81239365D01*
X169101498Y-81307486D01*
X169084595Y-81328460D01*
X158178460Y-92234595D01*
X158116148Y-92268621D01*
X158089365Y-92271500D01*
X149888999Y-92271500D01*
X149820878Y-92251498D01*
X149774385Y-92197842D01*
X149762999Y-92145500D01*
X149762999Y-92085331D01*
X149762630Y-92078523D01*
X149758838Y-92043603D01*
X149758839Y-92016393D01*
X149762631Y-91981488D01*
X149763000Y-91974671D01*
X149763000Y-91948115D01*
X149758525Y-91932876D01*
X149757135Y-91931671D01*
X149749452Y-91930000D01*
X149613884Y-91930000D01*
X149545763Y-91909998D01*
X149499270Y-91856342D01*
X149489166Y-91786068D01*
X149518660Y-91721488D01*
X149538319Y-91703174D01*
X149540556Y-91701498D01*
X149618261Y-91643261D01*
X149705615Y-91526705D01*
X149705904Y-91526921D01*
X149752065Y-91480861D01*
X149757418Y-91478647D01*
X149761328Y-91474135D01*
X149762999Y-91466452D01*
X149762999Y-91435330D01*
X149762630Y-91428509D01*
X149759091Y-91395929D01*
X149759091Y-91368720D01*
X149763500Y-91328134D01*
X149763500Y-90781866D01*
X149762361Y-90771375D01*
X149759344Y-90743607D01*
X149759344Y-90716393D01*
X149763131Y-90681533D01*
X149763131Y-90681529D01*
X149763500Y-90678134D01*
X149763500Y-90570635D01*
X149783502Y-90502514D01*
X149800405Y-90481540D01*
X150470588Y-89811358D01*
X151162816Y-89119130D01*
X151172959Y-89110029D01*
X151199372Y-89088792D01*
X151204177Y-89084929D01*
X151237997Y-89044624D01*
X151241174Y-89040983D01*
X151243228Y-89038718D01*
X151245410Y-89036536D01*
X151274105Y-89001602D01*
X151274872Y-89000679D01*
X151333642Y-88930640D01*
X151333647Y-88930633D01*
X151337609Y-88925911D01*
X151340304Y-88921008D01*
X151343853Y-88916688D01*
X151352802Y-88900000D01*
X151389949Y-88830720D01*
X151390578Y-88829561D01*
X151437613Y-88744005D01*
X151439304Y-88738674D01*
X151441947Y-88733745D01*
X151470492Y-88640376D01*
X151470882Y-88639127D01*
X151498515Y-88552014D01*
X151500379Y-88546139D01*
X151501003Y-88540579D01*
X151502637Y-88535233D01*
X151512498Y-88438156D01*
X151512633Y-88436889D01*
X151514011Y-88424610D01*
X151518500Y-88384587D01*
X151518500Y-88381082D01*
X151518590Y-88379473D01*
X151519038Y-88373777D01*
X151522993Y-88334842D01*
X151522993Y-88334836D01*
X151523615Y-88328713D01*
X151519059Y-88280513D01*
X151518500Y-88268658D01*
X151518500Y-85977763D01*
X151517780Y-85970413D01*
X151503966Y-85829534D01*
X151503965Y-85829531D01*
X151503365Y-85823408D01*
X151443368Y-85624685D01*
X151345913Y-85441401D01*
X151266779Y-85344373D01*
X151218610Y-85285311D01*
X151218607Y-85285308D01*
X151214715Y-85280536D01*
X151207770Y-85274790D01*
X151059518Y-85152145D01*
X151059519Y-85152145D01*
X151054770Y-85148217D01*
X151049353Y-85145288D01*
X151049350Y-85145286D01*
X150877590Y-85052416D01*
X150877585Y-85052414D01*
X150872170Y-85049486D01*
X150673871Y-84988102D01*
X150667746Y-84987458D01*
X150667745Y-84987458D01*
X150473554Y-84967048D01*
X150473552Y-84967048D01*
X150467425Y-84966404D01*
X150381515Y-84974223D01*
X150266836Y-84984659D01*
X150266833Y-84984660D01*
X150260697Y-84985218D01*
X150254791Y-84986956D01*
X150254787Y-84986957D01*
X150106932Y-85030473D01*
X150061560Y-85043827D01*
X149877600Y-85139999D01*
X149715823Y-85270071D01*
X149711865Y-85274788D01*
X149711863Y-85274790D01*
X149707042Y-85280536D01*
X149582391Y-85429089D01*
X149579427Y-85434481D01*
X149579424Y-85434485D01*
X149485354Y-85605598D01*
X149482387Y-85610995D01*
X149419621Y-85808861D01*
X149418935Y-85814978D01*
X149418934Y-85814982D01*
X149418464Y-85819172D01*
X149401500Y-85970413D01*
X149401500Y-87834365D01*
X149381498Y-87902486D01*
X149364595Y-87923460D01*
X147653460Y-89634595D01*
X147591148Y-89668621D01*
X147564365Y-89671500D01*
X147456866Y-89671500D01*
X147394684Y-89678255D01*
X147258295Y-89729385D01*
X147141739Y-89816739D01*
X147054385Y-89933295D01*
X147003255Y-90069684D01*
X146996500Y-90131866D01*
X146996500Y-90678134D01*
X146996869Y-90681529D01*
X146996869Y-90681533D01*
X147000656Y-90716393D01*
X147000656Y-90743607D01*
X146997640Y-90771375D01*
X146996500Y-90781866D01*
X146996500Y-91328134D01*
X147000909Y-91368720D01*
X147000909Y-91395933D01*
X146997369Y-91428517D01*
X146997000Y-91435328D01*
X146997000Y-91461885D01*
X147001475Y-91477124D01*
X147027170Y-91499389D01*
X147026712Y-91499918D01*
X147039100Y-91506682D01*
X147054207Y-91526839D01*
X147054385Y-91526705D01*
X147141739Y-91643261D01*
X147219445Y-91701498D01*
X147221681Y-91703174D01*
X147264196Y-91760033D01*
X147269222Y-91830851D01*
X147235162Y-91893145D01*
X147172831Y-91927135D01*
X147146116Y-91930000D01*
X147015116Y-91930000D01*
X146999877Y-91934475D01*
X146998672Y-91935865D01*
X146997001Y-91943548D01*
X146997001Y-91974669D01*
X146997371Y-91981493D01*
X147001161Y-92016393D01*
X147001161Y-92043603D01*
X146997369Y-92078510D01*
X146997000Y-92085329D01*
X146997000Y-92111885D01*
X147001475Y-92127124D01*
X147002865Y-92128329D01*
X147010548Y-92130000D01*
X147146116Y-92130000D01*
X147214237Y-92150002D01*
X147260730Y-92203658D01*
X147270834Y-92273932D01*
X147241340Y-92338512D01*
X147221683Y-92356825D01*
X147141739Y-92416739D01*
X147054385Y-92533295D01*
X147054096Y-92533079D01*
X147007935Y-92579139D01*
X147002582Y-92581353D01*
X146998672Y-92585865D01*
X146997001Y-92593548D01*
X146997001Y-92624670D01*
X146997370Y-92631488D01*
X147000909Y-92664067D01*
X147000909Y-92691280D01*
X146996500Y-92731866D01*
X146996500Y-93278134D01*
X146996869Y-93281529D01*
X146996869Y-93281533D01*
X147000656Y-93316393D01*
X147000656Y-93343606D01*
X146996500Y-93381866D01*
X146996500Y-93928134D01*
X146996869Y-93931529D01*
X146996869Y-93931533D01*
X147000656Y-93966393D01*
X147000656Y-93993606D01*
X146996500Y-94031866D01*
X146996500Y-94578134D01*
X146996869Y-94581529D01*
X146996869Y-94581533D01*
X147000656Y-94616393D01*
X147000656Y-94643607D01*
X146998578Y-94662740D01*
X146996500Y-94681866D01*
X146996500Y-95228134D01*
X147000909Y-95268720D01*
X147000909Y-95295933D01*
X146997369Y-95328517D01*
X146997000Y-95335328D01*
X146997000Y-95361885D01*
X147001475Y-95377124D01*
X147027170Y-95399389D01*
X147026712Y-95399918D01*
X147039100Y-95406682D01*
X147054207Y-95426839D01*
X147054385Y-95426705D01*
X147141739Y-95543261D01*
X147155611Y-95553657D01*
X147221681Y-95603174D01*
X147264196Y-95660033D01*
X147269222Y-95730851D01*
X147235162Y-95793145D01*
X147172831Y-95827135D01*
X147146116Y-95830000D01*
X147015116Y-95830000D01*
X146999877Y-95834475D01*
X146998672Y-95835865D01*
X146997001Y-95843548D01*
X146997001Y-95874669D01*
X146997371Y-95881493D01*
X147001161Y-95916393D01*
X147001161Y-95943603D01*
X146997369Y-95978510D01*
X146997000Y-95985329D01*
X146997000Y-96011885D01*
X147001475Y-96027124D01*
X147002865Y-96028329D01*
X147010548Y-96030000D01*
X147146116Y-96030000D01*
X147214237Y-96050002D01*
X147260730Y-96103658D01*
X147270834Y-96173932D01*
X147241340Y-96238512D01*
X147221683Y-96256825D01*
X147141739Y-96316739D01*
X147054385Y-96433295D01*
X147054096Y-96433079D01*
X147007935Y-96479139D01*
X147002582Y-96481353D01*
X146998672Y-96485865D01*
X146997001Y-96493548D01*
X146997001Y-96524670D01*
X146997370Y-96531488D01*
X147000909Y-96564067D01*
X147000909Y-96591280D01*
X146996500Y-96631866D01*
X146996500Y-97178134D01*
X146996869Y-97181529D01*
X146996869Y-97181533D01*
X147000656Y-97216393D01*
X147000656Y-97243606D01*
X146996500Y-97281866D01*
X146996500Y-97828134D01*
X142563500Y-97828134D01*
X142563500Y-97675931D01*
X142583502Y-97607810D01*
X142627785Y-97566465D01*
X142632617Y-97564552D01*
X142668387Y-97538564D01*
X142678307Y-97532048D01*
X142709535Y-97513580D01*
X142709538Y-97513578D01*
X142716362Y-97509542D01*
X142730683Y-97495221D01*
X142745717Y-97482380D01*
X142755694Y-97475131D01*
X142762107Y-97470472D01*
X142790298Y-97436395D01*
X142798288Y-97427616D01*
X144672247Y-95553657D01*
X144680537Y-95546113D01*
X144687018Y-95542000D01*
X144733659Y-95492332D01*
X144736413Y-95489491D01*
X144756135Y-95469769D01*
X144758612Y-95466576D01*
X144766317Y-95457555D01*
X144791159Y-95431100D01*
X144796586Y-95425321D01*
X144800407Y-95418371D01*
X144806346Y-95407568D01*
X144817202Y-95391041D01*
X144824757Y-95381302D01*
X144824758Y-95381300D01*
X144829614Y-95375040D01*
X144847174Y-95334460D01*
X144852391Y-95323812D01*
X144869875Y-95292009D01*
X144869876Y-95292007D01*
X144873695Y-95285060D01*
X144878733Y-95265437D01*
X144885137Y-95246734D01*
X144890033Y-95235420D01*
X144890033Y-95235419D01*
X144893181Y-95228145D01*
X144894421Y-95220319D01*
X144896634Y-95212701D01*
X144899708Y-95213594D01*
X144924194Y-95162281D01*
X145019040Y-95056944D01*
X145114527Y-94891556D01*
X145173542Y-94709928D01*
X145174399Y-94701780D01*
X145192814Y-94526565D01*
X145193504Y-94520000D01*
X145192212Y-94507708D01*
X145174232Y-94336635D01*
X145174232Y-94336633D01*
X145173542Y-94330072D01*
X145114527Y-94148444D01*
X145105932Y-94133556D01*
X145049194Y-94035284D01*
X145019040Y-93983056D01*
X145013269Y-93976646D01*
X144895675Y-93846045D01*
X144895674Y-93846044D01*
X144891253Y-93841134D01*
X144736752Y-93728882D01*
X144730724Y-93726198D01*
X144730722Y-93726197D01*
X144568319Y-93653891D01*
X144568318Y-93653891D01*
X144562288Y-93651206D01*
X144468888Y-93631353D01*
X144381944Y-93612872D01*
X144381939Y-93612872D01*
X144375487Y-93611500D01*
X144184513Y-93611500D01*
X144178061Y-93612872D01*
X144178056Y-93612872D01*
X144091112Y-93631353D01*
X143997712Y-93651206D01*
X143991682Y-93653891D01*
X143991681Y-93653891D01*
X143829278Y-93726197D01*
X143829276Y-93726198D01*
X143823248Y-93728882D01*
X143668747Y-93841134D01*
X143664326Y-93846044D01*
X143664325Y-93846045D01*
X143546732Y-93976646D01*
X143540960Y-93983056D01*
X143510806Y-94035284D01*
X143454069Y-94133556D01*
X143445473Y-94148444D01*
X143386458Y-94330072D01*
X143385768Y-94336633D01*
X143385768Y-94336635D01*
X143367788Y-94507708D01*
X143366496Y-94520000D01*
X143367186Y-94526565D01*
X143385602Y-94701780D01*
X143386458Y-94709928D01*
X143396229Y-94740000D01*
X143445417Y-94891385D01*
X143447445Y-94962352D01*
X143414679Y-95019417D01*
X142778595Y-95655500D01*
X142716283Y-95689525D01*
X142645467Y-95684460D01*
X142588632Y-95641913D01*
X142563821Y-95575393D01*
X142563500Y-95566404D01*
X142563500Y-95331866D01*
X142562936Y-95326669D01*
X142559344Y-95293607D01*
X142559344Y-95266393D01*
X142563131Y-95231533D01*
X142563131Y-95231528D01*
X142563500Y-95228134D01*
X142563500Y-94681866D01*
X142561423Y-94662740D01*
X142559344Y-94643607D01*
X142559344Y-94616393D01*
X142563131Y-94581533D01*
X142563131Y-94581529D01*
X142563500Y-94578134D01*
X142563500Y-94031866D01*
X142559344Y-93993606D01*
X142559344Y-93966393D01*
X142563131Y-93931533D01*
X142563131Y-93931529D01*
X142563500Y-93928134D01*
X142563500Y-93381866D01*
X142559344Y-93343606D01*
X142559344Y-93316393D01*
X142563131Y-93281533D01*
X142563131Y-93281529D01*
X142563500Y-93278134D01*
X142563500Y-92731866D01*
X142562309Y-92720897D01*
X142559344Y-92693607D01*
X142559344Y-92666393D01*
X142563131Y-92631533D01*
X142563131Y-92631529D01*
X142563500Y-92628134D01*
X142563500Y-92081866D01*
X142562100Y-92068973D01*
X142559344Y-92043606D01*
X142559344Y-92016392D01*
X142563131Y-91981533D01*
X142563131Y-91981529D01*
X142563500Y-91978134D01*
X142563500Y-91431866D01*
X142559344Y-91393606D01*
X142559344Y-91366393D01*
X142563131Y-91331533D01*
X142563131Y-91331528D01*
X142563500Y-91328134D01*
X142563500Y-90781866D01*
X142562361Y-90771375D01*
X142559344Y-90743607D01*
X142559344Y-90716393D01*
X142563131Y-90681533D01*
X142563131Y-90681529D01*
X142563500Y-90678134D01*
X142563500Y-90131866D01*
X142556745Y-90069684D01*
X142505615Y-89933295D01*
X142418261Y-89816739D01*
X142301705Y-89729385D01*
X142165316Y-89678255D01*
X142103134Y-89671500D01*
X140256866Y-89671500D01*
X140194684Y-89678255D01*
X140058295Y-89729385D01*
X139941739Y-89816739D01*
X139854385Y-89933295D01*
X139803255Y-90069684D01*
X139796500Y-90131866D01*
X139796500Y-90678134D01*
X139796869Y-90681529D01*
X139796869Y-90681533D01*
X139800656Y-90716393D01*
X139800656Y-90743607D01*
X139797640Y-90771375D01*
X139796500Y-90781866D01*
X139796500Y-90945500D01*
X139776498Y-91013621D01*
X139722842Y-91060114D01*
X139670500Y-91071500D01*
X133899595Y-91071500D01*
X133831474Y-91051498D01*
X133810499Y-91034595D01*
X132968900Y-90192995D01*
X132934875Y-90130683D01*
X132932686Y-90117071D01*
X132924232Y-90036636D01*
X132924232Y-90036635D01*
X132923542Y-90030072D01*
X132864527Y-89848444D01*
X132850368Y-89823919D01*
X132772341Y-89688774D01*
X132769040Y-89683056D01*
X132724512Y-89633602D01*
X132645675Y-89546045D01*
X132645674Y-89546044D01*
X132641253Y-89541134D01*
X132518268Y-89451780D01*
X132492094Y-89432763D01*
X132492093Y-89432762D01*
X132486752Y-89428882D01*
X132480724Y-89426198D01*
X132480722Y-89426197D01*
X132318319Y-89353891D01*
X132318318Y-89353891D01*
X132312288Y-89351206D01*
X132218887Y-89331353D01*
X132131944Y-89312872D01*
X132131939Y-89312872D01*
X132125487Y-89311500D01*
X131934513Y-89311500D01*
X131928061Y-89312872D01*
X131928056Y-89312872D01*
X131841113Y-89331353D01*
X131747712Y-89351206D01*
X131741682Y-89353891D01*
X131741681Y-89353891D01*
X131579278Y-89426197D01*
X131579276Y-89426198D01*
X131573248Y-89428882D01*
X131567907Y-89432762D01*
X131567906Y-89432763D01*
X131541732Y-89451780D01*
X131418747Y-89541134D01*
X131414326Y-89546044D01*
X131414325Y-89546045D01*
X131335489Y-89633602D01*
X131290960Y-89683056D01*
X131287659Y-89688774D01*
X131209633Y-89823919D01*
X131195473Y-89848444D01*
X131136458Y-90030072D01*
X131135768Y-90036633D01*
X131135768Y-90036635D01*
X131124016Y-90148450D01*
X131116496Y-90220000D01*
X131136458Y-90409928D01*
X131147849Y-90444986D01*
X131149877Y-90515952D01*
X131113215Y-90576750D01*
X131049503Y-90608075D01*
X130978969Y-90599983D01*
X130938921Y-90573016D01*
X125158652Y-84792747D01*
X125151112Y-84784461D01*
X125147000Y-84777982D01*
X125097348Y-84731356D01*
X125094507Y-84728602D01*
X125074770Y-84708865D01*
X125071573Y-84706385D01*
X125062551Y-84698680D01*
X125036100Y-84673841D01*
X125030321Y-84668414D01*
X125023375Y-84664595D01*
X125023372Y-84664593D01*
X125012566Y-84658652D01*
X124996047Y-84647801D01*
X124995583Y-84647441D01*
X124980041Y-84635386D01*
X124972772Y-84632241D01*
X124972768Y-84632238D01*
X124939463Y-84617826D01*
X124928813Y-84612609D01*
X124890060Y-84591305D01*
X124870437Y-84586267D01*
X124851734Y-84579863D01*
X124840420Y-84574967D01*
X124840419Y-84574967D01*
X124833145Y-84571819D01*
X124825322Y-84570580D01*
X124825312Y-84570577D01*
X124789476Y-84564901D01*
X124777856Y-84562495D01*
X124742711Y-84553472D01*
X124742710Y-84553472D01*
X124735030Y-84551500D01*
X124714776Y-84551500D01*
X124695065Y-84549949D01*
X124682886Y-84548020D01*
X124675057Y-84546780D01*
X124667165Y-84547526D01*
X124631039Y-84550941D01*
X124619181Y-84551500D01*
X115656732Y-84551500D01*
X115588611Y-84531498D01*
X115542118Y-84477842D01*
X115532014Y-84407568D01*
X115543775Y-84369673D01*
X115567430Y-84321811D01*
X115632370Y-84108069D01*
X115661529Y-83886590D01*
X115662564Y-83844226D01*
X115663074Y-83823365D01*
X115663074Y-83823361D01*
X115663156Y-83820000D01*
X115644852Y-83597361D01*
X115590431Y-83380702D01*
X115501354Y-83175840D01*
X115380014Y-82988277D01*
X115229670Y-82823051D01*
X115225619Y-82819852D01*
X115225615Y-82819848D01*
X115058414Y-82687800D01*
X115058410Y-82687798D01*
X115054359Y-82684598D01*
X115013053Y-82661796D01*
X114963084Y-82611364D01*
X114948312Y-82541921D01*
X114973428Y-82475516D01*
X115000780Y-82448909D01*
X115044603Y-82417650D01*
X115179860Y-82321173D01*
X115338096Y-82163489D01*
X115397594Y-82080689D01*
X115465435Y-81986277D01*
X115468453Y-81982077D01*
X115489320Y-81939857D01*
X115565136Y-81786453D01*
X115565137Y-81786451D01*
X115567430Y-81781811D01*
X115632370Y-81568069D01*
X115661529Y-81346590D01*
X115661972Y-81328460D01*
X115663074Y-81283365D01*
X115663074Y-81283361D01*
X115663156Y-81280000D01*
X115644852Y-81057361D01*
X115590431Y-80840702D01*
X115501354Y-80635840D01*
X115425515Y-80518611D01*
X115382822Y-80452617D01*
X115382820Y-80452614D01*
X115380014Y-80448277D01*
X115229670Y-80283051D01*
X115225619Y-80279852D01*
X115225615Y-80279848D01*
X115058414Y-80147800D01*
X115058410Y-80147798D01*
X115054359Y-80144598D01*
X115013053Y-80121796D01*
X114963084Y-80071364D01*
X114948312Y-80001921D01*
X114973428Y-79935516D01*
X115000780Y-79908909D01*
X115064009Y-79863808D01*
X115179860Y-79781173D01*
X115338096Y-79623489D01*
X115468453Y-79442077D01*
X115472611Y-79433665D01*
X115565136Y-79246453D01*
X115565137Y-79246451D01*
X115567430Y-79241811D01*
X115612658Y-79092949D01*
X115630865Y-79033023D01*
X115630865Y-79033021D01*
X115632370Y-79028069D01*
X115640467Y-78966572D01*
X115652346Y-78876338D01*
X115681068Y-78811410D01*
X115740334Y-78772319D01*
X115811325Y-78771474D01*
X115866363Y-78803689D01*
X118655255Y-81592581D01*
X118667641Y-81606993D01*
X118679900Y-81623651D01*
X118685483Y-81628394D01*
X118718713Y-81656625D01*
X118726229Y-81663555D01*
X118731620Y-81668946D01*
X118753124Y-81685959D01*
X118756510Y-81688736D01*
X118804667Y-81729649D01*
X118804672Y-81729653D01*
X118810251Y-81734392D01*
X118816773Y-81737722D01*
X118821451Y-81740842D01*
X118826205Y-81743778D01*
X118831943Y-81748318D01*
X118838570Y-81751415D01*
X118838571Y-81751416D01*
X118895854Y-81778189D01*
X118899761Y-81780099D01*
X118962582Y-81812176D01*
X118969694Y-81813916D01*
X118974980Y-81815882D01*
X118980265Y-81817640D01*
X118986895Y-81820739D01*
X119055963Y-81835105D01*
X119060247Y-81836075D01*
X119128721Y-81852830D01*
X119134323Y-81853178D01*
X119134326Y-81853178D01*
X119139520Y-81853500D01*
X119139519Y-81853524D01*
X119143935Y-81853788D01*
X119147184Y-81854078D01*
X119154352Y-81855569D01*
X119229140Y-81853546D01*
X119232546Y-81853500D01*
X137254834Y-81853500D01*
X137273784Y-81854933D01*
X137286993Y-81856943D01*
X137286997Y-81856943D01*
X137294227Y-81858043D01*
X137301519Y-81857450D01*
X137301522Y-81857450D01*
X137344979Y-81853915D01*
X137355194Y-81853500D01*
X137362826Y-81853500D01*
X137366445Y-81853078D01*
X137366464Y-81853077D01*
X137390069Y-81850325D01*
X137394435Y-81849893D01*
X137421754Y-81847671D01*
X137457404Y-81844771D01*
X137457406Y-81844771D01*
X137464704Y-81844177D01*
X137471673Y-81841919D01*
X137477193Y-81840816D01*
X137482618Y-81839534D01*
X137489890Y-81838686D01*
X137556210Y-81814613D01*
X137560356Y-81813190D01*
X137620458Y-81793720D01*
X137620462Y-81793718D01*
X137627420Y-81791464D01*
X137633672Y-81787670D01*
X137638788Y-81785328D01*
X137643789Y-81782824D01*
X137650667Y-81780327D01*
X137656784Y-81776317D01*
X137656789Y-81776314D01*
X137709654Y-81741653D01*
X137713376Y-81739305D01*
X137768848Y-81705644D01*
X137768849Y-81705643D01*
X137773645Y-81702733D01*
X137781755Y-81695571D01*
X137781770Y-81695588D01*
X137785080Y-81692654D01*
X137787587Y-81690558D01*
X137793706Y-81686546D01*
X137845166Y-81632224D01*
X137847544Y-81629782D01*
X147818621Y-71658705D01*
X147826894Y-71651136D01*
X147827580Y-71650563D01*
X147833706Y-71646546D01*
X147885166Y-71592224D01*
X147887544Y-71589782D01*
X148068946Y-71408380D01*
X155452577Y-64024748D01*
X155466990Y-64012361D01*
X155483651Y-64000100D01*
X155516631Y-63961280D01*
X155523561Y-63953764D01*
X155528945Y-63948380D01*
X155531208Y-63945519D01*
X155531213Y-63945514D01*
X155545932Y-63926909D01*
X155548721Y-63923507D01*
X155589653Y-63875328D01*
X155589656Y-63875324D01*
X155594392Y-63869749D01*
X155597722Y-63863227D01*
X155600831Y-63858565D01*
X155603773Y-63853801D01*
X155608318Y-63848057D01*
X155638186Y-63784151D01*
X155640110Y-63780216D01*
X155668847Y-63723937D01*
X155672176Y-63717418D01*
X155673916Y-63710308D01*
X155675867Y-63705061D01*
X155677638Y-63699737D01*
X155680738Y-63693105D01*
X155695102Y-63624049D01*
X155696072Y-63619764D01*
X155711495Y-63556733D01*
X155712830Y-63551279D01*
X155713500Y-63540480D01*
X155713524Y-63540481D01*
X155713788Y-63536066D01*
X155714078Y-63532816D01*
X155715569Y-63525648D01*
X155713546Y-63450877D01*
X155713500Y-63447469D01*
X155713500Y-59752414D01*
X155733502Y-59684293D01*
X155774133Y-59644696D01*
X155778755Y-59641891D01*
X155783317Y-59639123D01*
X155823134Y-59604572D01*
X155953412Y-59491523D01*
X155953414Y-59491521D01*
X155957445Y-59488023D01*
X156024500Y-59406244D01*
X156100240Y-59313873D01*
X156100244Y-59313867D01*
X156103624Y-59309745D01*
X156121552Y-59278250D01*
X156172632Y-59228945D01*
X156242262Y-59215083D01*
X156308333Y-59241066D01*
X156335573Y-59270216D01*
X156340983Y-59278252D01*
X156417441Y-59391819D01*
X156576576Y-59558635D01*
X156761542Y-59696254D01*
X156766293Y-59698670D01*
X156766297Y-59698672D01*
X156829481Y-59730796D01*
X156967051Y-59800740D01*
X156972145Y-59802322D01*
X156972148Y-59802323D01*
X157137583Y-59853692D01*
X157187227Y-59869107D01*
X157192516Y-59869808D01*
X157410489Y-59898698D01*
X157410494Y-59898698D01*
X157415774Y-59899398D01*
X157421103Y-59899198D01*
X157421105Y-59899198D01*
X157530966Y-59895073D01*
X157646158Y-59890749D01*
X157666600Y-59886460D01*
X157866572Y-59844502D01*
X157871791Y-59843407D01*
X157876750Y-59841449D01*
X157876752Y-59841448D01*
X158081256Y-59760685D01*
X158081258Y-59760684D01*
X158086221Y-59758724D01*
X158091525Y-59755506D01*
X158238276Y-59666455D01*
X158283317Y-59639123D01*
X158323134Y-59604572D01*
X158453412Y-59491523D01*
X158453414Y-59491521D01*
X158457445Y-59488023D01*
X158524500Y-59406244D01*
X158600240Y-59313873D01*
X158600244Y-59313867D01*
X158603624Y-59309745D01*
X158621552Y-59278250D01*
X158672632Y-59228945D01*
X158742262Y-59215083D01*
X158808333Y-59241066D01*
X158835573Y-59270216D01*
X158840983Y-59278252D01*
X158917441Y-59391819D01*
X159076576Y-59558635D01*
X159261542Y-59696254D01*
X159266293Y-59698670D01*
X159266297Y-59698672D01*
X159329481Y-59730796D01*
X159467051Y-59800740D01*
X159472145Y-59802322D01*
X159472148Y-59802323D01*
X159637583Y-59853692D01*
X159687227Y-59869107D01*
X159692516Y-59869808D01*
X159910489Y-59898698D01*
X159910494Y-59898698D01*
X159915774Y-59899398D01*
X159921103Y-59899198D01*
X159921105Y-59899198D01*
X160030966Y-59895073D01*
X160146158Y-59890749D01*
X160166600Y-59886460D01*
X160366572Y-59844502D01*
X160371791Y-59843407D01*
X160376750Y-59841449D01*
X160376752Y-59841448D01*
X160581256Y-59760685D01*
X160581258Y-59760684D01*
X160586221Y-59758724D01*
X160591525Y-59755506D01*
X160738276Y-59666455D01*
X160783317Y-59639123D01*
X160823134Y-59604572D01*
X160953412Y-59491523D01*
X160953414Y-59491521D01*
X160957445Y-59488023D01*
X161024500Y-59406244D01*
X161100240Y-59313873D01*
X161100244Y-59313867D01*
X161103624Y-59309745D01*
X161121552Y-59278250D01*
X161172632Y-59228945D01*
X161242262Y-59215083D01*
X161308333Y-59241066D01*
X161335573Y-59270216D01*
X161340983Y-59278252D01*
X161417441Y-59391819D01*
X161576576Y-59558635D01*
X161761542Y-59696254D01*
X161766293Y-59698670D01*
X161766297Y-59698672D01*
X161829481Y-59730796D01*
X161967051Y-59800740D01*
X161972145Y-59802322D01*
X161972148Y-59802323D01*
X162137583Y-59853692D01*
X162187227Y-59869107D01*
X162192516Y-59869808D01*
X162410489Y-59898698D01*
X162410494Y-59898698D01*
X162415774Y-59899398D01*
X162421103Y-59899198D01*
X162421105Y-59899198D01*
X162530966Y-59895073D01*
X162646158Y-59890749D01*
X162666600Y-59886460D01*
X162866572Y-59844502D01*
X162871791Y-59843407D01*
X162876750Y-59841449D01*
X162876752Y-59841448D01*
X163081256Y-59760685D01*
X163081258Y-59760684D01*
X163086221Y-59758724D01*
X163091525Y-59755506D01*
X163238276Y-59666455D01*
X163283317Y-59639123D01*
X163323134Y-59604572D01*
X163453412Y-59491523D01*
X163453414Y-59491521D01*
X163457445Y-59488023D01*
X163524500Y-59406244D01*
X163600240Y-59313873D01*
X163600244Y-59313867D01*
X163603624Y-59309745D01*
X163621815Y-59277789D01*
X163715032Y-59114029D01*
X163717675Y-59109386D01*
X163796337Y-58892675D01*
X163806243Y-58837895D01*
X163836623Y-58669892D01*
X163836624Y-58669885D01*
X163837361Y-58665808D01*
X163838500Y-58641656D01*
X163838500Y-58229610D01*
X163827730Y-58102683D01*
X163824371Y-58063091D01*
X163824370Y-58063087D01*
X163823920Y-58057780D01*
X163822582Y-58052625D01*
X163822581Y-58052619D01*
X163767343Y-57839797D01*
X163767342Y-57839793D01*
X163766001Y-57834628D01*
X163705951Y-57701320D01*
X163678471Y-57640317D01*
X163671312Y-57624425D01*
X163542559Y-57433181D01*
X163483918Y-57371709D01*
X163454725Y-57341108D01*
X163383424Y-57266365D01*
X163198458Y-57128746D01*
X163193707Y-57126330D01*
X163193703Y-57126328D01*
X163075588Y-57066276D01*
X162992949Y-57024260D01*
X162987855Y-57022678D01*
X162987852Y-57022677D01*
X162777871Y-56957476D01*
X162772773Y-56955893D01*
X162767484Y-56955192D01*
X162549511Y-56926302D01*
X162549506Y-56926302D01*
X162544226Y-56925602D01*
X162538897Y-56925802D01*
X162538895Y-56925802D01*
X162429034Y-56929927D01*
X162313842Y-56934251D01*
X162308623Y-56935346D01*
X162286566Y-56939974D01*
X162088209Y-56981593D01*
X162083250Y-56983551D01*
X162083248Y-56983552D01*
X161878744Y-57064315D01*
X161878742Y-57064316D01*
X161873779Y-57066276D01*
X161869220Y-57069043D01*
X161869217Y-57069044D01*
X161770832Y-57128746D01*
X161676683Y-57185877D01*
X161672653Y-57189374D01*
X161579484Y-57270222D01*
X161502555Y-57336977D01*
X161499168Y-57341108D01*
X161359760Y-57511127D01*
X161359756Y-57511133D01*
X161356376Y-57515255D01*
X161338448Y-57546750D01*
X161287368Y-57596055D01*
X161217738Y-57609917D01*
X161151667Y-57583934D01*
X161124427Y-57554784D01*
X161097814Y-57515255D01*
X161042559Y-57433181D01*
X160983918Y-57371709D01*
X160954725Y-57341108D01*
X160883424Y-57266365D01*
X160698458Y-57128746D01*
X160693707Y-57126330D01*
X160693703Y-57126328D01*
X160575588Y-57066276D01*
X160492949Y-57024260D01*
X160487855Y-57022678D01*
X160487852Y-57022677D01*
X160277871Y-56957476D01*
X160272773Y-56955893D01*
X160267484Y-56955192D01*
X160049511Y-56926302D01*
X160049506Y-56926302D01*
X160044226Y-56925602D01*
X160038897Y-56925802D01*
X160038895Y-56925802D01*
X159929034Y-56929927D01*
X159813842Y-56934251D01*
X159808623Y-56935346D01*
X159786566Y-56939974D01*
X159588209Y-56981593D01*
X159583250Y-56983551D01*
X159583248Y-56983552D01*
X159378744Y-57064315D01*
X159378742Y-57064316D01*
X159373779Y-57066276D01*
X159369220Y-57069043D01*
X159369217Y-57069044D01*
X159270832Y-57128746D01*
X159176683Y-57185877D01*
X159172653Y-57189374D01*
X159079484Y-57270222D01*
X159002555Y-57336977D01*
X158999168Y-57341108D01*
X158859760Y-57511127D01*
X158859756Y-57511133D01*
X158856376Y-57515255D01*
X158838448Y-57546750D01*
X158787368Y-57596055D01*
X158717738Y-57609917D01*
X158651667Y-57583934D01*
X158624427Y-57554784D01*
X158597814Y-57515255D01*
X158542559Y-57433181D01*
X158483918Y-57371709D01*
X158454725Y-57341108D01*
X158383424Y-57266365D01*
X158198458Y-57128746D01*
X158193707Y-57126330D01*
X158193703Y-57126328D01*
X158075588Y-57066276D01*
X157992949Y-57024260D01*
X157987855Y-57022678D01*
X157987852Y-57022677D01*
X157777871Y-56957476D01*
X157772773Y-56955893D01*
X157767484Y-56955192D01*
X157549511Y-56926302D01*
X157549506Y-56926302D01*
X157544226Y-56925602D01*
X157538897Y-56925802D01*
X157538895Y-56925802D01*
X157429034Y-56929927D01*
X157313842Y-56934251D01*
X157308623Y-56935346D01*
X157286566Y-56939974D01*
X157088209Y-56981593D01*
X157083250Y-56983551D01*
X157083248Y-56983552D01*
X156878744Y-57064315D01*
X156878742Y-57064316D01*
X156873779Y-57066276D01*
X156869220Y-57069043D01*
X156869217Y-57069044D01*
X156770832Y-57128746D01*
X156676683Y-57185877D01*
X156672653Y-57189374D01*
X156579484Y-57270222D01*
X156502555Y-57336977D01*
X156499168Y-57341108D01*
X156359760Y-57511127D01*
X156359756Y-57511133D01*
X156356376Y-57515255D01*
X156338448Y-57546750D01*
X156287368Y-57596055D01*
X156217738Y-57609917D01*
X156151667Y-57583934D01*
X156124427Y-57554784D01*
X156097814Y-57515255D01*
X156042559Y-57433181D01*
X155983918Y-57371709D01*
X155954725Y-57341108D01*
X155883424Y-57266365D01*
X155698458Y-57128746D01*
X155693707Y-57126330D01*
X155693703Y-57126328D01*
X155575588Y-57066276D01*
X155492949Y-57024260D01*
X155487855Y-57022678D01*
X155487852Y-57022677D01*
X155277871Y-56957476D01*
X155272773Y-56955893D01*
X155267484Y-56955192D01*
X155049511Y-56926302D01*
X155049506Y-56926302D01*
X155044226Y-56925602D01*
X155038897Y-56925802D01*
X155038895Y-56925802D01*
X154929034Y-56929927D01*
X154813842Y-56934251D01*
X154808623Y-56935346D01*
X154786566Y-56939974D01*
X154588209Y-56981593D01*
X154583250Y-56983551D01*
X154583248Y-56983552D01*
X154378744Y-57064315D01*
X154378742Y-57064316D01*
X154373779Y-57066276D01*
X154369220Y-57069043D01*
X154369217Y-57069044D01*
X154270832Y-57128746D01*
X154176683Y-57185877D01*
X154172653Y-57189374D01*
X154079484Y-57270222D01*
X154002555Y-57336977D01*
X153973330Y-57372620D01*
X153914671Y-57412614D01*
X153843701Y-57414546D01*
X153782952Y-57377802D01*
X153768752Y-57359032D01*
X153682332Y-57219380D01*
X153678478Y-57213152D01*
X153553303Y-57088195D01*
X153522965Y-57069494D01*
X153408968Y-56999225D01*
X153408966Y-56999224D01*
X153402738Y-56995385D01*
X153319870Y-56967899D01*
X153241389Y-56941868D01*
X153241387Y-56941868D01*
X153234861Y-56939703D01*
X153228025Y-56939003D01*
X153228022Y-56939002D01*
X153184969Y-56934591D01*
X153130400Y-56929000D01*
X151829600Y-56929000D01*
X151826354Y-56929337D01*
X151826350Y-56929337D01*
X151730692Y-56939262D01*
X151730688Y-56939263D01*
X151723834Y-56939974D01*
X151717298Y-56942155D01*
X151717296Y-56942155D01*
X151585194Y-56986228D01*
X151556054Y-56995950D01*
X151405652Y-57089022D01*
X151280695Y-57214197D01*
X151276855Y-57220427D01*
X151276854Y-57220428D01*
X151202466Y-57341108D01*
X151187885Y-57364762D01*
X151166472Y-57429322D01*
X151136432Y-57519890D01*
X151132203Y-57532639D01*
X151131503Y-57539475D01*
X151131502Y-57539478D01*
X151128032Y-57573344D01*
X151101190Y-57639071D01*
X151043074Y-57679852D01*
X151002688Y-57686500D01*
X117177174Y-57686500D01*
X117077849Y-57698080D01*
X117057383Y-57700466D01*
X117057382Y-57700466D01*
X117050110Y-57701314D01*
X117049631Y-57701488D01*
X117005839Y-57703265D01*
X116873007Y-57683057D01*
X116873003Y-57683057D01*
X116865773Y-57681957D01*
X116858481Y-57682550D01*
X116858478Y-57682550D01*
X116702596Y-57695229D01*
X116702594Y-57695229D01*
X116695296Y-57695823D01*
X116688329Y-57698080D01*
X116539540Y-57746281D01*
X116539538Y-57746282D01*
X116532580Y-57748536D01*
X116386355Y-57837267D01*
X116382152Y-57840979D01*
X116379712Y-57843133D01*
X116379704Y-57843141D01*
X116378245Y-57844429D01*
X116376858Y-57845816D01*
X111287423Y-62935252D01*
X111273011Y-62947639D01*
X111256349Y-62959900D01*
X111251606Y-62965483D01*
X111223369Y-62998720D01*
X111216439Y-63006236D01*
X111211055Y-63011620D01*
X111208792Y-63014481D01*
X111208787Y-63014486D01*
X111194068Y-63033091D01*
X111191279Y-63036493D01*
X111150347Y-63084672D01*
X111150344Y-63084676D01*
X111145608Y-63090251D01*
X111142279Y-63096772D01*
X111139158Y-63101451D01*
X111136222Y-63106205D01*
X111131682Y-63111943D01*
X111128585Y-63118570D01*
X111128584Y-63118571D01*
X111101811Y-63175854D01*
X111099901Y-63179761D01*
X111067824Y-63242582D01*
X111066084Y-63249694D01*
X111064118Y-63254980D01*
X111062360Y-63260265D01*
X111059261Y-63266895D01*
X111057771Y-63274060D01*
X111044895Y-63335963D01*
X111043925Y-63340247D01*
X111027170Y-63408721D01*
X111026500Y-63419520D01*
X111026476Y-63419519D01*
X111026212Y-63423934D01*
X111025922Y-63427184D01*
X111024431Y-63434352D01*
X111024629Y-63441669D01*
X111026454Y-63509123D01*
X111026500Y-63512531D01*
X111026500Y-64828885D01*
X111006498Y-64897006D01*
X110976154Y-64929644D01*
X110854965Y-65020635D01*
X110815525Y-65061907D01*
X110761280Y-65118671D01*
X110700629Y-65182138D01*
X110574743Y-65366680D01*
X110480688Y-65569305D01*
X110420989Y-65784570D01*
X110397251Y-66006695D01*
X110410110Y-66229715D01*
X110411247Y-66234761D01*
X110411248Y-66234767D01*
X110435304Y-66341508D01*
X110459222Y-66447639D01*
X110543266Y-66654616D01*
X110659987Y-66845088D01*
X110806250Y-67013938D01*
X110978126Y-67156632D01*
X111048595Y-67197811D01*
X111051445Y-67199476D01*
X111100169Y-67251114D01*
X111113240Y-67320897D01*
X111086509Y-67386669D01*
X111046055Y-67420027D01*
X111033607Y-67426507D01*
X111029474Y-67429610D01*
X111029471Y-67429612D01*
X110905567Y-67522642D01*
X110854965Y-67560635D01*
X110851393Y-67564373D01*
X110768580Y-67651032D01*
X110700629Y-67722138D01*
X110653309Y-67791506D01*
X110598400Y-67836507D01*
X110549223Y-67846500D01*
X109336016Y-67846500D01*
X109267895Y-67826498D01*
X109246921Y-67809595D01*
X106130513Y-64693187D01*
X106096487Y-64630875D01*
X106094298Y-64617264D01*
X106094232Y-64616637D01*
X106094232Y-64616635D01*
X106093542Y-64610072D01*
X106034527Y-64428444D01*
X105939040Y-64263056D01*
X105811253Y-64121134D01*
X105678590Y-64024748D01*
X105662094Y-64012763D01*
X105662093Y-64012762D01*
X105656752Y-64008882D01*
X105650724Y-64006198D01*
X105650722Y-64006197D01*
X105488319Y-63933891D01*
X105488318Y-63933891D01*
X105482288Y-63931206D01*
X105388888Y-63911353D01*
X105301944Y-63892872D01*
X105301939Y-63892872D01*
X105295487Y-63891500D01*
X105104513Y-63891500D01*
X105098061Y-63892872D01*
X105098056Y-63892872D01*
X105011112Y-63911353D01*
X104917712Y-63931206D01*
X104911682Y-63933891D01*
X104911681Y-63933891D01*
X104749278Y-64006197D01*
X104749276Y-64006198D01*
X104743248Y-64008882D01*
X104737907Y-64012762D01*
X104737906Y-64012763D01*
X104721410Y-64024748D01*
X104588747Y-64121134D01*
X104460960Y-64263056D01*
X104365473Y-64428444D01*
X104306458Y-64610072D01*
X104305768Y-64616633D01*
X104305768Y-64616635D01*
X104301038Y-64661636D01*
X104286496Y-64800000D01*
X104287186Y-64806565D01*
X104297490Y-64904598D01*
X104306458Y-64989928D01*
X104365473Y-65171556D01*
X104368776Y-65177278D01*
X104368777Y-65177279D01*
X104386674Y-65208277D01*
X104460960Y-65336944D01*
X104465378Y-65341851D01*
X104465379Y-65341852D01*
X104486357Y-65365150D01*
X104588747Y-65478866D01*
X104743248Y-65591118D01*
X104749276Y-65593802D01*
X104749278Y-65593803D01*
X104911681Y-65666109D01*
X104917712Y-65668794D01*
X105025670Y-65691741D01*
X105088567Y-65725893D01*
X108415252Y-69052577D01*
X108427639Y-69066989D01*
X108439900Y-69083651D01*
X108445483Y-69088394D01*
X108478720Y-69116631D01*
X108486236Y-69123561D01*
X108491620Y-69128945D01*
X108494496Y-69131220D01*
X108494500Y-69131224D01*
X108513106Y-69145945D01*
X108516486Y-69148716D01*
X108570251Y-69194392D01*
X108576772Y-69197722D01*
X108581427Y-69200826D01*
X108586195Y-69203771D01*
X108591942Y-69208318D01*
X108646144Y-69233650D01*
X108655817Y-69238171D01*
X108659763Y-69240099D01*
X108722582Y-69272176D01*
X108729693Y-69273916D01*
X108734945Y-69275869D01*
X108740263Y-69277638D01*
X108746895Y-69280738D01*
X108815947Y-69295101D01*
X108820231Y-69296071D01*
X108888721Y-69312830D01*
X108894323Y-69313178D01*
X108894326Y-69313178D01*
X108899520Y-69313500D01*
X108899519Y-69313524D01*
X108903934Y-69313788D01*
X108907184Y-69314078D01*
X108914352Y-69315569D01*
X108989123Y-69313546D01*
X108992531Y-69313500D01*
X110545554Y-69313500D01*
X110613675Y-69333502D01*
X110652987Y-69373665D01*
X110657291Y-69380688D01*
X110659987Y-69385088D01*
X110806250Y-69553938D01*
X110978126Y-69696632D01*
X111051445Y-69739476D01*
X111051955Y-69739774D01*
X111100679Y-69791412D01*
X111113750Y-69861195D01*
X111087019Y-69926967D01*
X111046562Y-69960327D01*
X111038457Y-69964546D01*
X111029738Y-69970036D01*
X110859433Y-70097905D01*
X110851726Y-70104748D01*
X110704590Y-70258717D01*
X110698104Y-70266727D01*
X110578098Y-70442649D01*
X110573000Y-70451623D01*
X110483338Y-70644783D01*
X110479775Y-70654470D01*
X110424389Y-70854183D01*
X110425912Y-70862607D01*
X110438292Y-70866000D01*
X111888000Y-70866000D01*
X111956121Y-70886002D01*
X112002614Y-70939658D01*
X112014000Y-70992000D01*
X112014000Y-71248000D01*
X111993998Y-71316121D01*
X111940342Y-71362614D01*
X111888000Y-71374000D01*
X110443225Y-71374000D01*
X110429694Y-71377973D01*
X110428257Y-71387966D01*
X110458565Y-71522446D01*
X110461645Y-71532275D01*
X110541770Y-71729603D01*
X110546413Y-71738794D01*
X110657694Y-71920388D01*
X110663777Y-71928699D01*
X110803213Y-72089667D01*
X110810580Y-72096883D01*
X110974434Y-72232916D01*
X110982881Y-72238831D01*
X111051969Y-72279203D01*
X111100693Y-72330842D01*
X111113764Y-72400625D01*
X111087033Y-72466396D01*
X111046584Y-72499752D01*
X111033607Y-72506507D01*
X111029474Y-72509610D01*
X111029471Y-72509612D01*
X110900311Y-72606588D01*
X110854965Y-72640635D01*
X110851393Y-72644373D01*
X110728806Y-72772653D01*
X110700629Y-72802138D01*
X110697720Y-72806403D01*
X110697714Y-72806411D01*
X110585095Y-72971504D01*
X110530184Y-73016507D01*
X110481007Y-73026500D01*
X109534595Y-73026500D01*
X109466474Y-73006498D01*
X109445500Y-72989595D01*
X97190405Y-60734500D01*
X97156379Y-60672188D01*
X97153500Y-60645405D01*
X97153500Y-59813096D01*
X97173502Y-59744975D01*
X97214134Y-59705377D01*
X97225184Y-59698672D01*
X97323317Y-59639123D01*
X97363134Y-59604572D01*
X97493412Y-59491523D01*
X97493414Y-59491521D01*
X97497445Y-59488023D01*
X97564500Y-59406244D01*
X97640240Y-59313873D01*
X97640244Y-59313867D01*
X97643624Y-59309745D01*
X97656681Y-59286808D01*
X97661829Y-59277765D01*
X97712912Y-59228459D01*
X97782542Y-59214598D01*
X97848613Y-59240582D01*
X97875851Y-59269732D01*
X97954852Y-59387078D01*
X97961519Y-59395370D01*
X98113228Y-59554400D01*
X98121186Y-59561441D01*
X98297525Y-59692641D01*
X98306562Y-59698245D01*
X98502484Y-59797857D01*
X98512335Y-59801857D01*
X98722240Y-59867034D01*
X98732624Y-59869317D01*
X98748043Y-59871361D01*
X98762207Y-59869165D01*
X98766000Y-59855978D01*
X98766000Y-58284500D01*
X98786002Y-58216379D01*
X98839658Y-58169886D01*
X98892000Y-58158500D01*
X99148000Y-58158500D01*
X99216121Y-58178502D01*
X99262614Y-58232158D01*
X99274000Y-58284500D01*
X99274000Y-59853692D01*
X99277973Y-59867223D01*
X99288580Y-59868748D01*
X99406421Y-59844023D01*
X99416617Y-59840963D01*
X99621029Y-59760237D01*
X99630561Y-59755506D01*
X99818462Y-59641484D01*
X99827052Y-59635220D01*
X99993052Y-59491173D01*
X100000472Y-59483542D01*
X100139826Y-59313589D01*
X100145848Y-59304826D01*
X100161238Y-59277789D01*
X100212320Y-59228482D01*
X100281951Y-59214620D01*
X100348022Y-59240603D01*
X100375261Y-59269753D01*
X100404773Y-59313589D01*
X100457441Y-59391819D01*
X100616576Y-59558635D01*
X100801542Y-59696254D01*
X100806293Y-59698670D01*
X100806297Y-59698672D01*
X100869481Y-59730796D01*
X101007051Y-59800740D01*
X101012145Y-59802322D01*
X101012148Y-59802323D01*
X101177583Y-59853692D01*
X101227227Y-59869107D01*
X101232516Y-59869808D01*
X101450489Y-59898698D01*
X101450494Y-59898698D01*
X101455774Y-59899398D01*
X101461103Y-59899198D01*
X101461105Y-59899198D01*
X101570966Y-59895073D01*
X101686158Y-59890749D01*
X101706600Y-59886460D01*
X101906572Y-59844502D01*
X101911791Y-59843407D01*
X101916750Y-59841449D01*
X101916752Y-59841448D01*
X102121256Y-59760685D01*
X102121258Y-59760684D01*
X102126221Y-59758724D01*
X102131525Y-59755506D01*
X102278276Y-59666455D01*
X102323317Y-59639123D01*
X102363134Y-59604572D01*
X102493412Y-59491523D01*
X102493414Y-59491521D01*
X102497445Y-59488023D01*
X102564500Y-59406244D01*
X102640240Y-59313873D01*
X102640244Y-59313867D01*
X102643624Y-59309745D01*
X102661815Y-59277789D01*
X102755032Y-59114029D01*
X102757675Y-59109386D01*
X102836337Y-58892675D01*
X102846243Y-58837895D01*
X102876623Y-58669892D01*
X102876624Y-58669885D01*
X102877361Y-58665808D01*
X102878500Y-58641656D01*
X102878500Y-58229610D01*
X102867730Y-58102683D01*
X102864371Y-58063091D01*
X102864370Y-58063087D01*
X102863920Y-58057780D01*
X102862582Y-58052625D01*
X102862581Y-58052619D01*
X102807343Y-57839797D01*
X102807342Y-57839793D01*
X102806001Y-57834628D01*
X102745951Y-57701320D01*
X102718471Y-57640317D01*
X102711312Y-57624425D01*
X102582559Y-57433181D01*
X102523918Y-57371709D01*
X102494725Y-57341108D01*
X102423424Y-57266365D01*
X102238458Y-57128746D01*
X102233707Y-57126330D01*
X102233703Y-57126328D01*
X102115588Y-57066276D01*
X102032949Y-57024260D01*
X102027855Y-57022678D01*
X102027852Y-57022677D01*
X101817871Y-56957476D01*
X101812773Y-56955893D01*
X101807484Y-56955192D01*
X101589511Y-56926302D01*
X101589506Y-56926302D01*
X101584226Y-56925602D01*
X101578897Y-56925802D01*
X101578895Y-56925802D01*
X101469034Y-56929927D01*
X101353842Y-56934251D01*
X101348623Y-56935346D01*
X101193474Y-56967899D01*
X101122697Y-56962311D01*
X101078505Y-56933679D01*
X97722248Y-53577423D01*
X97709861Y-53563010D01*
X97701941Y-53552248D01*
X97697600Y-53546349D01*
X97658780Y-53513369D01*
X97651264Y-53506439D01*
X97645880Y-53501055D01*
X97643019Y-53498792D01*
X97643014Y-53498787D01*
X97624409Y-53484068D01*
X97621007Y-53481279D01*
X97572828Y-53440347D01*
X97572824Y-53440344D01*
X97567249Y-53435608D01*
X97560728Y-53432279D01*
X97556049Y-53429158D01*
X97551295Y-53426222D01*
X97545557Y-53421682D01*
X97481647Y-53391811D01*
X97477739Y-53389901D01*
X97414918Y-53357824D01*
X97407806Y-53356084D01*
X97402520Y-53354118D01*
X97397235Y-53352360D01*
X97390605Y-53349261D01*
X97321532Y-53334894D01*
X97317248Y-53333924D01*
X97248779Y-53317170D01*
X97243177Y-53316822D01*
X97243174Y-53316822D01*
X97237980Y-53316500D01*
X97237981Y-53316476D01*
X97233566Y-53316212D01*
X97230316Y-53315922D01*
X97223148Y-53314431D01*
X97162016Y-53316085D01*
X97148377Y-53316454D01*
X97144969Y-53316500D01*
X90015166Y-53316500D01*
X89996216Y-53315067D01*
X89983007Y-53313057D01*
X89983003Y-53313057D01*
X89975773Y-53311957D01*
X89968481Y-53312550D01*
X89968478Y-53312550D01*
X89925021Y-53316085D01*
X89914806Y-53316500D01*
X89907174Y-53316500D01*
X89903555Y-53316922D01*
X89903536Y-53316923D01*
X89879931Y-53319675D01*
X89875565Y-53320107D01*
X89848246Y-53322329D01*
X89812596Y-53325229D01*
X89812594Y-53325229D01*
X89805296Y-53325823D01*
X89798327Y-53328081D01*
X89792807Y-53329184D01*
X89787382Y-53330466D01*
X89780110Y-53331314D01*
X89713790Y-53355387D01*
X89709644Y-53356810D01*
X89649542Y-53376280D01*
X89649538Y-53376282D01*
X89642580Y-53378536D01*
X89636328Y-53382330D01*
X89631212Y-53384672D01*
X89626211Y-53387176D01*
X89619333Y-53389673D01*
X89613216Y-53393683D01*
X89613211Y-53393686D01*
X89560346Y-53428347D01*
X89556624Y-53430695D01*
X89496355Y-53467267D01*
X89488245Y-53474429D01*
X89488230Y-53474412D01*
X89484920Y-53477346D01*
X89482413Y-53479442D01*
X89476294Y-53483454D01*
X89471262Y-53488766D01*
X89424834Y-53537776D01*
X89422456Y-53540218D01*
X84977423Y-57985252D01*
X84963011Y-57997639D01*
X84946349Y-58009900D01*
X84941606Y-58015483D01*
X84913369Y-58048720D01*
X84906439Y-58056236D01*
X84901055Y-58061620D01*
X84898792Y-58064481D01*
X84898787Y-58064486D01*
X84884068Y-58083091D01*
X84881279Y-58086493D01*
X84840347Y-58134672D01*
X84840344Y-58134676D01*
X84835608Y-58140251D01*
X84832279Y-58146772D01*
X84829158Y-58151451D01*
X84826222Y-58156205D01*
X84821682Y-58161943D01*
X84818585Y-58168570D01*
X84818584Y-58168571D01*
X84791811Y-58225854D01*
X84789901Y-58229761D01*
X84757824Y-58292582D01*
X84756084Y-58299694D01*
X84754118Y-58304980D01*
X84752360Y-58310265D01*
X84749261Y-58316895D01*
X84747771Y-58324060D01*
X84734895Y-58385963D01*
X84733925Y-58390247D01*
X84717170Y-58458721D01*
X84716500Y-58469520D01*
X84716476Y-58469519D01*
X84716212Y-58473934D01*
X84715922Y-58477184D01*
X84714431Y-58484352D01*
X84714629Y-58491669D01*
X84716454Y-58559123D01*
X84716500Y-58562531D01*
X84716500Y-103342826D01*
X84731314Y-103469890D01*
X84733810Y-103476768D01*
X84733811Y-103476770D01*
X84748822Y-103518124D01*
X84789673Y-103630667D01*
X84883454Y-103773706D01*
X84888766Y-103778738D01*
X84937776Y-103825166D01*
X84940218Y-103827544D01*
X91769487Y-110656812D01*
X91803513Y-110719124D01*
X91805702Y-110732734D01*
X91806458Y-110739928D01*
X91808498Y-110746205D01*
X91808498Y-110746207D01*
X91826418Y-110801358D01*
X91865473Y-110921556D01*
X91868776Y-110927278D01*
X91868777Y-110927279D01*
X91871859Y-110932617D01*
X91960960Y-111086944D01*
X91965378Y-111091851D01*
X91965379Y-111091852D01*
X92084325Y-111223955D01*
X92088747Y-111228866D01*
X92147298Y-111271406D01*
X92222055Y-111325720D01*
X92243248Y-111341118D01*
X92249276Y-111343802D01*
X92249278Y-111343803D01*
X92411681Y-111416109D01*
X92417712Y-111418794D01*
X92511113Y-111438647D01*
X92598056Y-111457128D01*
X92598061Y-111457128D01*
X92604513Y-111458500D01*
X92795487Y-111458500D01*
X92801939Y-111457128D01*
X92801944Y-111457128D01*
X92888887Y-111438647D01*
X92982288Y-111418794D01*
X92988319Y-111416109D01*
X93150722Y-111343803D01*
X93150724Y-111343802D01*
X93156752Y-111341118D01*
X93177946Y-111325720D01*
X93252702Y-111271406D01*
X93311253Y-111228866D01*
X93315675Y-111223955D01*
X93434621Y-111091852D01*
X93434622Y-111091851D01*
X93439040Y-111086944D01*
X93528141Y-110932617D01*
X93531223Y-110927279D01*
X93531224Y-110927278D01*
X93534527Y-110921556D01*
X93593542Y-110739928D01*
X93596033Y-110716233D01*
X93612814Y-110556565D01*
X93613504Y-110550000D01*
X93611980Y-110535500D01*
X93594232Y-110366635D01*
X93594232Y-110366633D01*
X93593542Y-110360072D01*
X93534527Y-110178444D01*
X93439040Y-110013056D01*
X93328671Y-109890478D01*
X93315675Y-109876045D01*
X93315674Y-109876044D01*
X93311253Y-109871134D01*
X93156752Y-109758882D01*
X93150724Y-109756198D01*
X93150722Y-109756197D01*
X92988319Y-109683891D01*
X92988318Y-109683891D01*
X92982288Y-109681206D01*
X92874330Y-109658259D01*
X92811433Y-109624107D01*
X89538295Y-106350969D01*
X86220405Y-103033080D01*
X86186379Y-102970768D01*
X86183500Y-102943985D01*
X86183500Y-58906016D01*
X86203502Y-58837895D01*
X86220405Y-58816921D01*
X90216920Y-54820405D01*
X90279232Y-54786379D01*
X90306015Y-54783500D01*
X96801484Y-54783500D01*
X96869605Y-54803502D01*
X96890579Y-54820405D01*
X98814124Y-56743950D01*
X98848150Y-56806262D01*
X98843085Y-56877077D01*
X98800538Y-56933913D01*
X98750903Y-56956360D01*
X98633580Y-56980977D01*
X98623383Y-56984037D01*
X98418971Y-57064763D01*
X98409439Y-57069494D01*
X98221538Y-57183516D01*
X98212948Y-57189780D01*
X98046948Y-57333827D01*
X98039528Y-57341458D01*
X97900174Y-57511411D01*
X97894152Y-57520174D01*
X97878762Y-57547211D01*
X97827680Y-57596518D01*
X97758049Y-57610380D01*
X97691978Y-57584397D01*
X97664739Y-57555247D01*
X97585539Y-57437608D01*
X97582559Y-57433181D01*
X97523918Y-57371709D01*
X97494725Y-57341108D01*
X97423424Y-57266365D01*
X97238458Y-57128746D01*
X97233707Y-57126330D01*
X97233703Y-57126328D01*
X97115588Y-57066276D01*
X97032949Y-57024260D01*
X97027855Y-57022678D01*
X97027852Y-57022677D01*
X96817871Y-56957476D01*
X96812773Y-56955893D01*
X96807484Y-56955192D01*
X96589511Y-56926302D01*
X96589506Y-56926302D01*
X96584226Y-56925602D01*
X96578897Y-56925802D01*
X96578895Y-56925802D01*
X96469034Y-56929927D01*
X96353842Y-56934251D01*
X96348623Y-56935346D01*
X96326566Y-56939974D01*
X96128209Y-56981593D01*
X96123250Y-56983551D01*
X96123248Y-56983552D01*
X95918744Y-57064315D01*
X95918742Y-57064316D01*
X95913779Y-57066276D01*
X95909220Y-57069043D01*
X95909217Y-57069044D01*
X95810832Y-57128746D01*
X95716683Y-57185877D01*
X95712653Y-57189374D01*
X95619484Y-57270222D01*
X95542555Y-57336977D01*
X95539168Y-57341108D01*
X95399760Y-57511127D01*
X95399756Y-57511133D01*
X95396376Y-57515255D01*
X95378448Y-57546750D01*
X95327368Y-57596055D01*
X95257738Y-57609917D01*
X95191667Y-57583934D01*
X95164427Y-57554784D01*
X95137814Y-57515255D01*
X95082559Y-57433181D01*
X95023918Y-57371709D01*
X94994725Y-57341108D01*
X94923424Y-57266365D01*
X94738458Y-57128746D01*
X94733707Y-57126330D01*
X94733703Y-57126328D01*
X94615588Y-57066276D01*
X94532949Y-57024260D01*
X94527855Y-57022678D01*
X94527852Y-57022677D01*
X94317871Y-56957476D01*
X94312773Y-56955893D01*
X94307484Y-56955192D01*
X94089511Y-56926302D01*
X94089506Y-56926302D01*
X94084226Y-56925602D01*
X94078897Y-56925802D01*
X94078895Y-56925802D01*
X93969034Y-56929927D01*
X93853842Y-56934251D01*
X93848623Y-56935346D01*
X93826566Y-56939974D01*
X93628209Y-56981593D01*
X93623250Y-56983551D01*
X93623248Y-56983552D01*
X93418744Y-57064315D01*
X93418742Y-57064316D01*
X93413779Y-57066276D01*
X93409220Y-57069043D01*
X93409217Y-57069044D01*
X93310832Y-57128746D01*
X93216683Y-57185877D01*
X93212653Y-57189374D01*
X93119484Y-57270222D01*
X93042555Y-57336977D01*
X93013330Y-57372620D01*
X92954671Y-57412614D01*
X92883701Y-57414546D01*
X92822952Y-57377802D01*
X92808752Y-57359032D01*
X92722332Y-57219380D01*
X92718478Y-57213152D01*
X92593303Y-57088195D01*
X92562965Y-57069494D01*
X92448968Y-56999225D01*
X92448966Y-56999224D01*
X92442738Y-56995385D01*
X92359870Y-56967899D01*
X92281389Y-56941868D01*
X92281387Y-56941868D01*
X92274861Y-56939703D01*
X92268025Y-56939003D01*
X92268022Y-56939002D01*
X92224969Y-56934591D01*
X92170400Y-56929000D01*
X90869600Y-56929000D01*
X90866354Y-56929337D01*
X90866350Y-56929337D01*
X90770692Y-56939262D01*
X90770688Y-56939263D01*
X90763834Y-56939974D01*
X90757298Y-56942155D01*
X90757296Y-56942155D01*
X90625194Y-56986228D01*
X90596054Y-56995950D01*
X90445652Y-57089022D01*
X90320695Y-57214197D01*
X90316855Y-57220427D01*
X90316854Y-57220428D01*
X90242466Y-57341108D01*
X90227885Y-57364762D01*
X90206472Y-57429322D01*
X90176432Y-57519890D01*
X90172203Y-57532639D01*
X90171503Y-57539475D01*
X90171502Y-57539478D01*
X90169338Y-57560602D01*
X90161500Y-57637100D01*
X90161500Y-59187900D01*
X90161837Y-59191146D01*
X90161837Y-59191150D01*
X90170875Y-59278252D01*
X90172474Y-59293666D01*
X90174655Y-59300202D01*
X90174655Y-59300204D01*
X90206405Y-59395370D01*
X90228450Y-59461446D01*
X90321522Y-59611848D01*
X90446697Y-59736805D01*
X90452927Y-59740645D01*
X90452928Y-59740646D01*
X90590090Y-59825194D01*
X90597262Y-59829615D01*
X90632938Y-59841448D01*
X90758611Y-59883132D01*
X90758613Y-59883132D01*
X90765139Y-59885297D01*
X90771980Y-59885998D01*
X90771985Y-59885999D01*
X90773349Y-59886139D01*
X90774136Y-59886460D01*
X90778710Y-59887441D01*
X90778535Y-59888257D01*
X90839075Y-59912983D01*
X90879854Y-59971100D01*
X90886500Y-60011482D01*
X90886500Y-60617845D01*
X90876138Y-60667883D01*
X90868080Y-60686505D01*
X90864722Y-60693642D01*
X90839215Y-60743704D01*
X90837417Y-60751749D01*
X90830091Y-60774294D01*
X90826819Y-60781855D01*
X90825579Y-60789685D01*
X90818033Y-60837326D01*
X90816549Y-60845101D01*
X90804298Y-60899909D01*
X90804547Y-60907832D01*
X90804547Y-60907833D01*
X90804557Y-60908141D01*
X90803067Y-60931815D01*
X90801780Y-60939943D01*
X90802526Y-60947835D01*
X90802526Y-60947836D01*
X90807065Y-60995858D01*
X90807562Y-61003755D01*
X90807695Y-61007986D01*
X90809327Y-61059889D01*
X90811539Y-61067501D01*
X90811624Y-61067794D01*
X90816068Y-61091094D01*
X90816843Y-61099292D01*
X90826520Y-61126170D01*
X90835871Y-61152144D01*
X90838317Y-61159673D01*
X90851770Y-61205981D01*
X90851771Y-61205983D01*
X90853982Y-61213593D01*
X90858017Y-61220416D01*
X90858019Y-61220420D01*
X90858177Y-61220688D01*
X90868267Y-61242132D01*
X90868372Y-61242423D01*
X90868376Y-61242431D01*
X90871061Y-61249889D01*
X90902646Y-61296365D01*
X90906855Y-61302996D01*
X90935458Y-61351362D01*
X90941278Y-61357182D01*
X90956394Y-61375453D01*
X90961028Y-61382271D01*
X90966976Y-61387515D01*
X90966977Y-61387516D01*
X91003163Y-61419418D01*
X91008933Y-61424837D01*
X108716343Y-79132247D01*
X108723887Y-79140537D01*
X108728000Y-79147018D01*
X108733777Y-79152443D01*
X108777667Y-79193658D01*
X108780509Y-79196413D01*
X108800230Y-79216134D01*
X108803425Y-79218612D01*
X108812447Y-79226318D01*
X108844679Y-79256586D01*
X108851628Y-79260406D01*
X108862432Y-79266346D01*
X108878956Y-79277199D01*
X108894959Y-79289613D01*
X108935543Y-79307176D01*
X108946173Y-79312383D01*
X108984940Y-79333695D01*
X108992617Y-79335666D01*
X108992622Y-79335668D01*
X109004558Y-79338732D01*
X109023266Y-79345137D01*
X109041855Y-79353181D01*
X109049683Y-79354421D01*
X109049690Y-79354423D01*
X109085524Y-79360099D01*
X109097144Y-79362505D01*
X109132289Y-79371528D01*
X109139970Y-79373500D01*
X109160224Y-79373500D01*
X109179934Y-79375051D01*
X109199943Y-79378220D01*
X109207835Y-79377474D01*
X109243961Y-79374059D01*
X109255819Y-79373500D01*
X110484274Y-79373500D01*
X110552395Y-79393502D01*
X110591707Y-79433665D01*
X110659987Y-79545088D01*
X110663367Y-79548990D01*
X110670691Y-79557445D01*
X110806250Y-79713938D01*
X110978126Y-79856632D01*
X110996456Y-79867343D01*
X111051445Y-79899476D01*
X111100169Y-79951114D01*
X111113240Y-80020897D01*
X111086509Y-80086669D01*
X111046055Y-80120027D01*
X111033607Y-80126507D01*
X111029474Y-80129610D01*
X111029471Y-80129612D01*
X110859100Y-80257530D01*
X110854965Y-80260635D01*
X110851393Y-80264373D01*
X110768580Y-80351032D01*
X110700629Y-80422138D01*
X110574743Y-80606680D01*
X110480688Y-80809305D01*
X110420989Y-81024570D01*
X110397251Y-81246695D01*
X110397548Y-81251848D01*
X110397548Y-81251851D01*
X110403011Y-81346590D01*
X110410110Y-81469715D01*
X110411247Y-81474761D01*
X110411248Y-81474767D01*
X110431119Y-81562939D01*
X110459222Y-81687639D01*
X110511040Y-81815253D01*
X110528175Y-81857450D01*
X110543266Y-81894616D01*
X110594019Y-81977438D01*
X110657291Y-82080688D01*
X110659987Y-82085088D01*
X110806250Y-82253938D01*
X110978126Y-82396632D01*
X111048595Y-82437811D01*
X111051445Y-82439476D01*
X111100169Y-82491114D01*
X111113240Y-82560897D01*
X111086509Y-82626669D01*
X111046055Y-82660027D01*
X111033607Y-82666507D01*
X111029474Y-82669610D01*
X111029471Y-82669612D01*
X110859100Y-82797530D01*
X110854965Y-82800635D01*
X110700629Y-82962138D01*
X110574743Y-83146680D01*
X110480688Y-83349305D01*
X110420989Y-83564570D01*
X110397251Y-83786695D01*
X110397548Y-83791848D01*
X110397548Y-83791851D01*
X110403011Y-83886590D01*
X110410110Y-84009715D01*
X110411247Y-84014761D01*
X110411248Y-84014767D01*
X110423129Y-84067484D01*
X110459222Y-84227639D01*
X110543266Y-84434616D01*
X110582388Y-84498458D01*
X110636198Y-84586267D01*
X110659987Y-84625088D01*
X110806250Y-84793938D01*
X110978126Y-84936632D01*
X111029075Y-84966404D01*
X111051445Y-84979476D01*
X111100169Y-85031114D01*
X111113240Y-85100897D01*
X111086509Y-85166669D01*
X111046055Y-85200027D01*
X111033607Y-85206507D01*
X111029474Y-85209610D01*
X111029471Y-85209612D01*
X110859100Y-85337530D01*
X110854965Y-85340635D01*
X110700629Y-85502138D01*
X110697715Y-85506410D01*
X110697714Y-85506411D01*
X110620749Y-85619238D01*
X110574743Y-85686680D01*
X110572564Y-85691375D01*
X110513243Y-85819172D01*
X110480688Y-85889305D01*
X110420989Y-86104570D01*
X110397251Y-86326695D01*
X110397548Y-86331848D01*
X110397548Y-86331851D01*
X110403011Y-86426590D01*
X110410110Y-86549715D01*
X110411247Y-86554761D01*
X110411248Y-86554767D01*
X110431119Y-86642939D01*
X110459222Y-86767639D01*
X110543266Y-86974616D01*
X110659987Y-87165088D01*
X110806250Y-87333938D01*
X110978126Y-87476632D01*
X111048595Y-87517811D01*
X111051445Y-87519476D01*
X111100169Y-87571114D01*
X111113240Y-87640897D01*
X111086509Y-87706669D01*
X111046055Y-87740027D01*
X111033607Y-87746507D01*
X111029474Y-87749610D01*
X111029471Y-87749612D01*
X110859100Y-87877530D01*
X110854965Y-87880635D01*
X110700629Y-88042138D01*
X110574743Y-88226680D01*
X110527715Y-88327993D01*
X110499829Y-88388070D01*
X110480688Y-88429305D01*
X110420989Y-88644570D01*
X110397251Y-88866695D01*
X110397548Y-88871848D01*
X110397548Y-88871851D01*
X110403011Y-88966590D01*
X110410110Y-89089715D01*
X110411247Y-89094761D01*
X110411248Y-89094767D01*
X110414688Y-89110029D01*
X110459222Y-89307639D01*
X110543266Y-89514616D01*
X110548297Y-89522826D01*
X110651662Y-89691502D01*
X110659987Y-89705088D01*
X110806250Y-89873938D01*
X110978126Y-90016632D01*
X111001126Y-90030072D01*
X111051445Y-90059476D01*
X111100169Y-90111114D01*
X111113240Y-90180897D01*
X111086509Y-90246669D01*
X111046055Y-90280027D01*
X111033607Y-90286507D01*
X111029474Y-90289610D01*
X111029471Y-90289612D01*
X110869225Y-90409928D01*
X110854965Y-90420635D01*
X110851393Y-90424373D01*
X110711622Y-90570635D01*
X110700629Y-90582138D01*
X110574743Y-90766680D01*
X110545678Y-90829296D01*
X110513385Y-90898866D01*
X110480688Y-90969305D01*
X110420989Y-91184570D01*
X110397251Y-91406695D01*
X110397548Y-91411848D01*
X110397548Y-91411851D01*
X110404178Y-91526839D01*
X110410110Y-91629715D01*
X110411247Y-91634761D01*
X110411248Y-91634767D01*
X110430792Y-91721488D01*
X110459222Y-91847639D01*
X110500021Y-91948115D01*
X110533271Y-92030000D01*
X110543266Y-92054616D01*
X110578360Y-92111885D01*
X110654637Y-92236357D01*
X110659987Y-92245088D01*
X110806250Y-92413938D01*
X110978126Y-92556632D01*
X111041300Y-92593548D01*
X111051445Y-92599476D01*
X111100169Y-92651114D01*
X111113240Y-92720897D01*
X111086509Y-92786669D01*
X111046055Y-92820027D01*
X111033607Y-92826507D01*
X111029474Y-92829610D01*
X111029471Y-92829612D01*
X110859100Y-92957530D01*
X110854965Y-92960635D01*
X110700629Y-93122138D01*
X110574743Y-93306680D01*
X110480688Y-93509305D01*
X110420989Y-93724570D01*
X110397251Y-93946695D01*
X110397548Y-93951848D01*
X110397548Y-93951851D01*
X110406667Y-94109999D01*
X110410110Y-94169715D01*
X110411247Y-94174761D01*
X110411248Y-94174767D01*
X110427909Y-94248695D01*
X110459222Y-94387639D01*
X110507977Y-94507708D01*
X110537954Y-94581533D01*
X110543266Y-94594616D01*
X110659987Y-94785088D01*
X110806250Y-94953938D01*
X110978126Y-95096632D01*
X111032366Y-95128327D01*
X111051445Y-95139476D01*
X111100169Y-95191114D01*
X111113240Y-95260897D01*
X111086509Y-95326669D01*
X111046055Y-95360027D01*
X111033607Y-95366507D01*
X111029474Y-95369610D01*
X111029471Y-95369612D01*
X110892341Y-95472572D01*
X110854965Y-95500635D01*
X110700629Y-95662138D01*
X110697715Y-95666410D01*
X110697714Y-95666411D01*
X110674879Y-95699886D01*
X110574743Y-95846680D01*
X110542383Y-95916394D01*
X110490425Y-96028329D01*
X110480688Y-96049305D01*
X110420989Y-96264570D01*
X110397251Y-96486695D01*
X110397548Y-96491848D01*
X110397548Y-96491851D01*
X110403011Y-96586590D01*
X110410110Y-96709715D01*
X110411247Y-96714761D01*
X110411248Y-96714767D01*
X110428699Y-96792199D01*
X110459222Y-96927639D01*
X110543266Y-97134616D01*
X110593379Y-97216393D01*
X110657291Y-97320688D01*
X110659987Y-97325088D01*
X110806250Y-97493938D01*
X110978126Y-97636632D01*
X111008473Y-97654365D01*
X111051445Y-97679476D01*
X111100169Y-97731114D01*
X111113240Y-97800897D01*
X111086509Y-97866669D01*
X111046055Y-97900027D01*
X111033607Y-97906507D01*
X111029474Y-97909610D01*
X111029471Y-97909612D01*
X110878708Y-98022808D01*
X110854965Y-98040635D01*
X110700629Y-98202138D01*
X110697720Y-98206403D01*
X110697714Y-98206411D01*
X110652523Y-98272659D01*
X110574743Y-98386680D01*
X110480688Y-98589305D01*
X110420989Y-98804570D01*
X110397251Y-99026695D01*
X110397548Y-99031848D01*
X110397548Y-99031851D01*
X110403011Y-99126590D01*
X110410110Y-99249715D01*
X110411247Y-99254761D01*
X110411248Y-99254767D01*
X110431119Y-99342939D01*
X110459222Y-99467639D01*
X110504979Y-99580325D01*
X110530494Y-99643161D01*
X110543266Y-99674616D01*
X110580972Y-99736147D01*
X110657291Y-99860688D01*
X110659987Y-99865088D01*
X110806250Y-100033938D01*
X110978126Y-100176632D01*
X111051445Y-100219476D01*
X111051955Y-100219774D01*
X111100679Y-100271412D01*
X111113750Y-100341195D01*
X111087019Y-100406967D01*
X111046562Y-100440327D01*
X111038457Y-100444546D01*
X111029738Y-100450036D01*
X110859433Y-100577905D01*
X110851726Y-100584748D01*
X110704590Y-100738717D01*
X110698104Y-100746727D01*
X110578098Y-100922649D01*
X110573000Y-100931623D01*
X110483338Y-101124783D01*
X110479775Y-101134470D01*
X110424389Y-101334183D01*
X110425912Y-101342607D01*
X110438292Y-101346000D01*
X111888000Y-101346000D01*
X111956121Y-101366002D01*
X112002614Y-101419658D01*
X112014000Y-101472000D01*
X112014000Y-101728000D01*
X111993998Y-101796121D01*
X111940342Y-101842614D01*
X111888000Y-101854000D01*
X110443225Y-101854000D01*
X110429694Y-101857973D01*
X110428257Y-101867966D01*
X110458565Y-102002446D01*
X110461645Y-102012275D01*
X110541770Y-102209603D01*
X110546413Y-102218794D01*
X110657694Y-102400388D01*
X110663777Y-102408699D01*
X110803213Y-102569667D01*
X110810580Y-102576883D01*
X110974434Y-102712916D01*
X110982881Y-102718831D01*
X111051969Y-102759203D01*
X111100693Y-102810842D01*
X111113764Y-102880625D01*
X111087033Y-102946396D01*
X111046584Y-102979752D01*
X111033607Y-102986507D01*
X111029474Y-102989610D01*
X111029471Y-102989612D01*
X111005247Y-103007800D01*
X110854965Y-103120635D01*
X110700629Y-103282138D01*
X110574743Y-103466680D01*
X110480688Y-103669305D01*
X110420989Y-103884570D01*
X110397251Y-104106695D01*
X110397548Y-104111848D01*
X110397548Y-104111851D01*
X110408457Y-104301045D01*
X110410110Y-104329715D01*
X110411247Y-104334761D01*
X110411248Y-104334767D01*
X110443453Y-104477668D01*
X110438917Y-104548520D01*
X110409631Y-104594464D01*
X98834500Y-116169595D01*
X98772188Y-116203621D01*
X98745405Y-116206500D01*
X98525944Y-116206500D01*
X98457823Y-116186498D01*
X98411330Y-116132842D01*
X98406421Y-116120377D01*
X98389422Y-116069427D01*
X98389421Y-116069425D01*
X98387102Y-116062474D01*
X98294797Y-115913311D01*
X98170653Y-115789383D01*
X98021329Y-115697339D01*
X98010219Y-115693654D01*
X97861366Y-115644281D01*
X97861364Y-115644281D01*
X97854835Y-115642115D01*
X97751231Y-115631500D01*
X97459766Y-115631500D01*
X97163770Y-115631501D01*
X97058871Y-115642384D01*
X97052340Y-115644563D01*
X97052335Y-115644564D01*
X96941796Y-115681443D01*
X96892474Y-115697898D01*
X96743311Y-115790203D01*
X96619383Y-115914347D01*
X96617581Y-115917270D01*
X96560971Y-115957408D01*
X96490048Y-115960642D01*
X96428636Y-115925018D01*
X96423084Y-115918622D01*
X96419797Y-115913311D01*
X96295653Y-115789383D01*
X96146329Y-115697339D01*
X96135219Y-115693654D01*
X95986366Y-115644281D01*
X95986364Y-115644281D01*
X95979835Y-115642115D01*
X95876231Y-115631500D01*
X95584766Y-115631500D01*
X95288770Y-115631501D01*
X95183871Y-115642384D01*
X95177340Y-115644563D01*
X95177335Y-115644564D01*
X95066796Y-115681443D01*
X95017474Y-115697898D01*
X94868311Y-115790203D01*
X94744383Y-115914347D01*
X94740543Y-115920577D01*
X94740542Y-115920578D01*
X94737805Y-115925018D01*
X94652339Y-116063671D01*
X94650035Y-116070618D01*
X94633599Y-116120169D01*
X94593167Y-116178528D01*
X94527603Y-116205764D01*
X94514006Y-116206500D01*
X91119516Y-116206500D01*
X91051395Y-116186498D01*
X91012372Y-116146803D01*
X90995891Y-116120169D01*
X90923478Y-116003152D01*
X90798303Y-115878195D01*
X90762473Y-115856109D01*
X90653968Y-115789225D01*
X90653966Y-115789224D01*
X90647738Y-115785385D01*
X90559042Y-115755966D01*
X90486389Y-115731868D01*
X90486387Y-115731868D01*
X90479861Y-115729703D01*
X90473025Y-115729003D01*
X90473022Y-115729002D01*
X90429969Y-115724591D01*
X90375400Y-115719000D01*
X87424600Y-115719000D01*
X87421354Y-115719337D01*
X87421350Y-115719337D01*
X87325692Y-115729262D01*
X87325688Y-115729263D01*
X87318834Y-115729974D01*
X87312298Y-115732155D01*
X87312296Y-115732155D01*
X87201853Y-115769002D01*
X87151054Y-115785950D01*
X87000652Y-115879022D01*
X86875695Y-116004197D01*
X86871855Y-116010427D01*
X86871854Y-116010428D01*
X86804209Y-116120169D01*
X86782885Y-116154762D01*
X86759773Y-116224444D01*
X86742165Y-116277531D01*
X86727203Y-116322639D01*
X86726503Y-116329475D01*
X86726502Y-116329478D01*
X86725309Y-116341127D01*
X86716500Y-116427100D01*
X86716500Y-117252900D01*
X86716837Y-117256146D01*
X86716837Y-117256150D01*
X86726428Y-117348580D01*
X86727474Y-117358666D01*
X86729655Y-117365202D01*
X86729655Y-117365204D01*
X86759799Y-117455555D01*
X86783450Y-117526446D01*
X86876522Y-117676848D01*
X87001697Y-117801805D01*
X87007927Y-117805645D01*
X87007928Y-117805646D01*
X87145090Y-117890194D01*
X87152262Y-117894615D01*
X87205904Y-117912407D01*
X87313611Y-117948132D01*
X87313613Y-117948132D01*
X87320139Y-117950297D01*
X87326975Y-117950997D01*
X87326978Y-117950998D01*
X87370031Y-117955409D01*
X87424600Y-117961000D01*
X90375400Y-117961000D01*
X90378646Y-117960663D01*
X90378650Y-117960663D01*
X90474308Y-117950738D01*
X90474312Y-117950737D01*
X90481166Y-117950026D01*
X90487702Y-117947845D01*
X90487704Y-117947845D01*
X90622761Y-117902786D01*
X90648946Y-117894050D01*
X90799348Y-117800978D01*
X90924305Y-117675803D01*
X90956387Y-117623757D01*
X91012094Y-117533384D01*
X91064867Y-117485890D01*
X91119354Y-117473500D01*
X94514056Y-117473500D01*
X94582177Y-117493502D01*
X94628670Y-117547158D01*
X94633579Y-117559623D01*
X94645058Y-117594027D01*
X94652898Y-117617526D01*
X94745203Y-117766689D01*
X94869347Y-117890617D01*
X94875577Y-117894457D01*
X94875578Y-117894458D01*
X94889115Y-117902802D01*
X94936609Y-117955574D01*
X94949000Y-118010062D01*
X94949000Y-120750069D01*
X94928998Y-120818190D01*
X94889304Y-120857212D01*
X94868311Y-120870203D01*
X94744383Y-120994347D01*
X94740543Y-121000577D01*
X94740542Y-121000578D01*
X94732371Y-121013834D01*
X94652339Y-121143671D01*
X94650034Y-121150619D01*
X94650034Y-121150620D01*
X94644768Y-121166498D01*
X94597115Y-121310165D01*
X94586500Y-121413769D01*
X94586501Y-121809204D01*
X94586501Y-122185500D01*
X94566499Y-122253621D01*
X94512843Y-122300114D01*
X94460501Y-122311500D01*
X91185058Y-122311500D01*
X91116937Y-122291498D01*
X91070444Y-122237842D01*
X91065534Y-122225376D01*
X91018868Y-122085502D01*
X91016550Y-122078554D01*
X90923478Y-121928152D01*
X90798303Y-121803195D01*
X90792072Y-121799354D01*
X90653968Y-121714225D01*
X90653966Y-121714224D01*
X90647738Y-121710385D01*
X90567995Y-121683936D01*
X90486389Y-121656868D01*
X90486387Y-121656868D01*
X90479861Y-121654703D01*
X90473025Y-121654003D01*
X90473022Y-121654002D01*
X90429969Y-121649591D01*
X90375400Y-121644000D01*
X87424600Y-121644000D01*
X87421354Y-121644337D01*
X87421350Y-121644337D01*
X87325692Y-121654262D01*
X87325688Y-121654263D01*
X87318834Y-121654974D01*
X87312298Y-121657155D01*
X87312296Y-121657155D01*
X87285695Y-121666030D01*
X87151054Y-121710950D01*
X87000652Y-121804022D01*
X86875695Y-121929197D01*
X86782885Y-122079762D01*
X86780581Y-122086709D01*
X86730096Y-122238918D01*
X86727203Y-122247639D01*
X86716500Y-122352100D01*
X86716500Y-123177900D01*
X86727474Y-123283666D01*
X86729655Y-123290202D01*
X86729655Y-123290204D01*
X86758248Y-123375907D01*
X86783450Y-123451446D01*
X86876522Y-123601848D01*
X87001697Y-123726805D01*
X87003942Y-123728189D01*
X87043891Y-123784535D01*
X87047123Y-123855458D01*
X87011498Y-123916869D01*
X86948327Y-123949272D01*
X86924736Y-123951500D01*
X80559379Y-123951500D01*
X80491258Y-123931498D01*
X80444765Y-123877842D01*
X80434661Y-123807568D01*
X80464155Y-123742988D01*
X80473126Y-123733650D01*
X80569342Y-123643297D01*
X80569343Y-123643296D01*
X80572233Y-123640582D01*
X80623130Y-123579059D01*
X80711657Y-123472048D01*
X80773432Y-123397375D01*
X80937960Y-123138120D01*
X80940438Y-123134216D01*
X80940438Y-123134215D01*
X80942562Y-123130869D01*
X80944246Y-123127290D01*
X80944250Y-123127283D01*
X81075267Y-122848856D01*
X81075269Y-122848852D01*
X81076956Y-122845266D01*
X81174495Y-122545072D01*
X81233641Y-122235020D01*
X81253460Y-121920000D01*
X81233641Y-121604980D01*
X81174495Y-121294928D01*
X81081465Y-121008611D01*
X81078182Y-120998507D01*
X81078182Y-120998506D01*
X81076956Y-120994734D01*
X81075267Y-120991144D01*
X80944250Y-120712717D01*
X80944246Y-120712710D01*
X80942562Y-120709131D01*
X80938626Y-120702928D01*
X80883291Y-120615735D01*
X80773432Y-120442625D01*
X80589335Y-120220091D01*
X80574758Y-120202470D01*
X80574757Y-120202469D01*
X80572233Y-120199418D01*
X80551892Y-120180316D01*
X80485674Y-120118134D01*
X80342140Y-119983346D01*
X80086779Y-119797816D01*
X80081030Y-119794655D01*
X79813648Y-119647660D01*
X79813647Y-119647659D01*
X79810179Y-119645753D01*
X79806510Y-119644300D01*
X79806505Y-119644298D01*
X79520372Y-119531010D01*
X79520371Y-119531010D01*
X79516702Y-119529557D01*
X79210975Y-119451060D01*
X78897821Y-119411500D01*
X78582179Y-119411500D01*
X78269025Y-119451060D01*
X77963298Y-119529557D01*
X77959629Y-119531010D01*
X77959628Y-119531010D01*
X77673495Y-119644298D01*
X77673490Y-119644300D01*
X77669821Y-119645753D01*
X77666353Y-119647659D01*
X77666352Y-119647660D01*
X77398971Y-119794655D01*
X77393221Y-119797816D01*
X77137860Y-119983346D01*
X77134974Y-119986056D01*
X77134973Y-119986057D01*
X76920753Y-120187223D01*
X76857403Y-120219274D01*
X76786781Y-120211987D01*
X76731310Y-120167676D01*
X76708500Y-120095373D01*
X76708500Y-55164627D01*
X76728502Y-55096506D01*
X76782158Y-55050013D01*
X76852432Y-55039909D01*
X76920753Y-55072777D01*
X77134973Y-55273943D01*
X77137860Y-55276654D01*
X77393221Y-55462184D01*
X77669821Y-55614247D01*
X77673490Y-55615700D01*
X77673495Y-55615702D01*
X77959628Y-55728990D01*
X77963298Y-55730443D01*
X78269025Y-55808940D01*
X78582179Y-55848500D01*
X78897821Y-55848500D01*
X79210975Y-55808940D01*
X79516702Y-55730443D01*
X79520372Y-55728990D01*
X79806505Y-55615702D01*
X79806510Y-55615700D01*
X79810179Y-55614247D01*
X80086779Y-55462184D01*
X80342140Y-55276654D01*
X80572233Y-55060582D01*
X80580977Y-55050013D01*
X80770907Y-54820427D01*
X80773432Y-54817375D01*
X80942562Y-54550869D01*
X80944246Y-54547290D01*
X80944250Y-54547283D01*
X81075267Y-54268856D01*
X81075269Y-54268852D01*
X81076956Y-54265266D01*
X81174495Y-53965072D01*
X81233641Y-53655020D01*
X81253460Y-53340000D01*
X81233641Y-53024980D01*
X81174495Y-52714928D01*
X81076956Y-52414734D01*
X81075267Y-52411144D01*
X80944250Y-52132717D01*
X80944246Y-52132710D01*
X80942562Y-52129131D01*
X80773432Y-51862625D01*
X80572233Y-51619418D01*
X80473126Y-51526350D01*
X80437160Y-51465137D01*
X80439999Y-51394197D01*
X80480739Y-51336053D01*
X80546447Y-51309165D01*
X80559379Y-51308500D01*
X173440621Y-51308500D01*
X173508742Y-51328502D01*
G37*
%TD.AperFunction*%
%TA.AperFunction,Conductor*%
G36*
X148547121Y-95708502D02*
G01*
X148593614Y-95762158D01*
X148605000Y-95814500D01*
X148605000Y-96045500D01*
X148584998Y-96113621D01*
X148531342Y-96160114D01*
X148479000Y-96171500D01*
X148277628Y-96171500D01*
X148209507Y-96151498D01*
X148163014Y-96097842D01*
X148152910Y-96027568D01*
X148154508Y-96018715D01*
X148155000Y-96016453D01*
X148155000Y-95830000D01*
X148155552Y-95830000D01*
X148155553Y-95779000D01*
X148193938Y-95719275D01*
X148258519Y-95689782D01*
X148276449Y-95688500D01*
X148479000Y-95688500D01*
X148547121Y-95708502D01*
G37*
%TD.AperFunction*%
%TA.AperFunction,Conductor*%
G36*
X148550493Y-91808502D02*
G01*
X148596986Y-91862158D01*
X148607090Y-91932432D01*
X148605492Y-91941285D01*
X148605000Y-91943547D01*
X148605000Y-92145500D01*
X148584998Y-92213621D01*
X148531342Y-92260114D01*
X148479000Y-92271500D01*
X148277628Y-92271500D01*
X148209507Y-92251498D01*
X148163014Y-92197842D01*
X148152910Y-92127568D01*
X148154508Y-92118715D01*
X148155000Y-92116453D01*
X148155000Y-91930000D01*
X148155552Y-91930000D01*
X148155553Y-91879000D01*
X148193938Y-91819275D01*
X148258519Y-91789782D01*
X148276449Y-91788500D01*
X148482372Y-91788500D01*
X148550493Y-91808502D01*
G37*
%TD.AperFunction*%
%TD*%
M02*
