%TF.GenerationSoftware,KiCad,Pcbnew,(6.0.6)*%
%TF.CreationDate,2022-07-05T22:30:02+09:00*%
%TF.ProjectId,arliss,61726c69-7373-42e6-9b69-6361645f7063,rev?*%
%TF.SameCoordinates,Original*%
%TF.FileFunction,Copper,L2,Bot*%
%TF.FilePolarity,Positive*%
%FSLAX46Y46*%
G04 Gerber Fmt 4.6, Leading zero omitted, Abs format (unit mm)*
G04 Created by KiCad (PCBNEW (6.0.6)) date 2022-07-05 22:30:02*
%MOMM*%
%LPD*%
G01*
G04 APERTURE LIST*
G04 Aperture macros list*
%AMRoundRect*
0 Rectangle with rounded corners*
0 $1 Rounding radius*
0 $2 $3 $4 $5 $6 $7 $8 $9 X,Y pos of 4 corners*
0 Add a 4 corners polygon primitive as box body*
4,1,4,$2,$3,$4,$5,$6,$7,$8,$9,$2,$3,0*
0 Add four circle primitives for the rounded corners*
1,1,$1+$1,$2,$3*
1,1,$1+$1,$4,$5*
1,1,$1+$1,$6,$7*
1,1,$1+$1,$8,$9*
0 Add four rect primitives between the rounded corners*
20,1,$1+$1,$2,$3,$4,$5,0*
20,1,$1+$1,$4,$5,$6,$7,0*
20,1,$1+$1,$6,$7,$8,$9,0*
20,1,$1+$1,$8,$9,$2,$3,0*%
G04 Aperture macros list end*
%TA.AperFunction,ComponentPad*%
%ADD10C,4.000000*%
%TD*%
%TA.AperFunction,ComponentPad*%
%ADD11RoundRect,0.250000X-0.600000X-0.725000X0.600000X-0.725000X0.600000X0.725000X-0.600000X0.725000X0*%
%TD*%
%TA.AperFunction,ComponentPad*%
%ADD12O,1.700000X1.950000*%
%TD*%
%TA.AperFunction,ComponentPad*%
%ADD13R,1.700000X1.700000*%
%TD*%
%TA.AperFunction,ComponentPad*%
%ADD14O,1.700000X1.700000*%
%TD*%
%TA.AperFunction,ComponentPad*%
%ADD15C,1.524000*%
%TD*%
%TA.AperFunction,ComponentPad*%
%ADD16R,3.200000X3.200000*%
%TD*%
%TA.AperFunction,ComponentPad*%
%ADD17O,3.200000X3.200000*%
%TD*%
%TA.AperFunction,ComponentPad*%
%ADD18RoundRect,0.250000X-0.750000X0.600000X-0.750000X-0.600000X0.750000X-0.600000X0.750000X0.600000X0*%
%TD*%
%TA.AperFunction,ComponentPad*%
%ADD19O,2.000000X1.700000*%
%TD*%
%TA.AperFunction,ComponentPad*%
%ADD20RoundRect,0.250000X-0.725000X0.600000X-0.725000X-0.600000X0.725000X-0.600000X0.725000X0.600000X0*%
%TD*%
%TA.AperFunction,ComponentPad*%
%ADD21O,1.950000X1.700000*%
%TD*%
%TA.AperFunction,ComponentPad*%
%ADD22RoundRect,0.250000X-0.600000X-0.750000X0.600000X-0.750000X0.600000X0.750000X-0.600000X0.750000X0*%
%TD*%
%TA.AperFunction,ComponentPad*%
%ADD23O,1.700000X2.000000*%
%TD*%
%TA.AperFunction,ComponentPad*%
%ADD24RoundRect,0.250000X0.600000X0.750000X-0.600000X0.750000X-0.600000X-0.750000X0.600000X-0.750000X0*%
%TD*%
%TA.AperFunction,ComponentPad*%
%ADD25R,1.980000X3.960000*%
%TD*%
%TA.AperFunction,ComponentPad*%
%ADD26O,1.980000X3.960000*%
%TD*%
%TA.AperFunction,ViaPad*%
%ADD27C,0.800000*%
%TD*%
%TA.AperFunction,ViaPad*%
%ADD28C,0.500000*%
%TD*%
%TA.AperFunction,Conductor*%
%ADD29C,0.450000*%
%TD*%
%TA.AperFunction,Conductor*%
%ADD30C,0.250000*%
%TD*%
%TA.AperFunction,Conductor*%
%ADD31C,1.100000*%
%TD*%
G04 APERTURE END LIST*
D10*
%TO.P,REF\u002A\u002A,1*%
%TO.N,N/C*%
X78740000Y-53340000D03*
%TD*%
D11*
%TO.P,GPS_MAXB1,1,Pin_1*%
%TO.N,Net-(GPS_MAXB1-Pad1)*%
X91520000Y-58412500D03*
D12*
%TO.P,GPS_MAXB1,2,Pin_2*%
%TO.N,Net-(GPS_MAXB1-Pad2)*%
X94020000Y-58412500D03*
%TO.P,GPS_MAXB1,3,Pin_3*%
%TO.N,Net-(GPS_MAXB1-Pad3)*%
X96520000Y-58412500D03*
%TO.P,GPS_MAXB1,4,Pin_4*%
%TO.N,Raspi_GND*%
X99020000Y-58412500D03*
%TO.P,GPS_MAXB1,5,Pin_5*%
%TO.N,/ToMotor*%
X101520000Y-58412500D03*
%TD*%
D13*
%TO.P,J1,1,3V3*%
%TO.N,unconnected-(J1-Pad1)*%
X114300000Y-66040000D03*
D14*
%TO.P,J1,2,5V*%
%TO.N,Net-(9axis1-Pad1)*%
X111760000Y-66040000D03*
%TO.P,J1,3,SDA/GPIO2*%
%TO.N,Net-(9axis1-Pad3)*%
X114300000Y-68580000D03*
%TO.P,J1,4,5V*%
%TO.N,RasPi_Vcc*%
X111760000Y-68580000D03*
%TO.P,J1,5,SCL/GPIO3*%
%TO.N,Net-(9axis1-Pad4)*%
X114300000Y-71120000D03*
%TO.P,J1,6,GND*%
%TO.N,Raspi_GND*%
X111760000Y-71120000D03*
%TO.P,J1,7,GCLK0/GPIO4*%
%TO.N,unconnected-(J1-Pad7)*%
X114300000Y-73660000D03*
%TO.P,J1,8,GPIO14/TXD*%
%TO.N,Net-(GPS_MAXB1-Pad3)*%
X111760000Y-73660000D03*
%TO.P,J1,9,GND*%
%TO.N,/GND_9*%
X114300000Y-76200000D03*
%TO.P,J1,10,GPIO15/RXD*%
%TO.N,Net-(GPS_MAXB1-Pad2)*%
X111760000Y-76200000D03*
%TO.P,J1,11,GPIO17*%
%TO.N,unconnected-(J1-Pad11)*%
X114300000Y-78740000D03*
%TO.P,J1,12,GPIO18/PWM0*%
%TO.N,Net-(GPS_MAXB1-Pad1)*%
X111760000Y-78740000D03*
%TO.P,J1,13,GPIO27*%
%TO.N,Net-(J1-Pad13)*%
X114300000Y-81280000D03*
%TO.P,J1,14,GND*%
%TO.N,unconnected-(J1-Pad14)*%
X111760000Y-81280000D03*
%TO.P,J1,15,GPIO22*%
%TO.N,Net-(J1-Pad15)*%
X114300000Y-83820000D03*
%TO.P,J1,16,GPIO23*%
%TO.N,Net-(J1-Pad18)*%
X111760000Y-83820000D03*
%TO.P,J1,17,3V3*%
%TO.N,/33Vcc*%
X114300000Y-86360000D03*
%TO.P,J1,18,GPIO24*%
%TO.N,Net-(J1-Pad16)*%
X111760000Y-86360000D03*
%TO.P,J1,19,MOSI0/GPIO10*%
%TO.N,unconnected-(J1-Pad19)*%
X114300000Y-88900000D03*
%TO.P,J1,20,GND*%
%TO.N,/GND_20*%
X111760000Y-88900000D03*
%TO.P,J1,21,MISO0/GPIO9*%
%TO.N,unconnected-(J1-Pad21)*%
X114300000Y-91440000D03*
%TO.P,J1,22,GPIO25*%
%TO.N,Net-(J1-Pad24)*%
X111760000Y-91440000D03*
%TO.P,J1,23,SCLK0/GPIO11*%
%TO.N,unconnected-(J1-Pad23)*%
X114300000Y-93980000D03*
%TO.P,J1,24,~{CE0}/GPIO8*%
%TO.N,Net-(J1-Pad22)*%
X111760000Y-93980000D03*
%TO.P,J1,25,GND*%
%TO.N,unconnected-(J1-Pad25)*%
X114300000Y-96520000D03*
%TO.P,J1,26,~{CE1}/GPIO7*%
%TO.N,unconnected-(J1-Pad26)*%
X111760000Y-96520000D03*
%TO.P,J1,27,ID_SD/GPIO0*%
%TO.N,unconnected-(J1-Pad27)*%
X114300000Y-99060000D03*
%TO.P,J1,28,ID_SC/GPIO1*%
%TO.N,unconnected-(J1-Pad28)*%
X111760000Y-99060000D03*
%TO.P,J1,29,GCLK1/GPIO5*%
%TO.N,Net-(J1-Pad29)*%
X114300000Y-101600000D03*
%TO.P,J1,30,GND*%
%TO.N,Raspi_GND*%
X111760000Y-101600000D03*
%TO.P,J1,31,GCLK2/GPIO6*%
%TO.N,unconnected-(J1-Pad31)*%
X114300000Y-104140000D03*
%TO.P,J1,32,PWM0/GPIO12*%
%TO.N,Net-(J1-Pad32)*%
X111760000Y-104140000D03*
%TO.P,J1,33,PWM1/GPIO13*%
%TO.N,Net-(J1-Pad33)*%
X114300000Y-106680000D03*
%TO.P,J1,34,GND*%
%TO.N,unconnected-(J1-Pad34)*%
X111760000Y-106680000D03*
%TO.P,J1,35,GPIO19/MISO1*%
%TO.N,unconnected-(J1-Pad35)*%
X114300000Y-109220000D03*
%TO.P,J1,36,GPIO16*%
%TO.N,unconnected-(J1-Pad36)*%
X111760000Y-109220000D03*
%TO.P,J1,37,GPIO26*%
%TO.N,unconnected-(J1-Pad37)*%
X114300000Y-111760000D03*
%TO.P,J1,38,GPIO20/MOSI1*%
%TO.N,unconnected-(J1-Pad38)*%
X111760000Y-111760000D03*
%TO.P,J1,39,GND*%
%TO.N,/GND_39*%
X114300000Y-114300000D03*
%TO.P,J1,40,GPIO21/SCLK1*%
%TO.N,unconnected-(J1-Pad40)*%
X111760000Y-114300000D03*
%TD*%
D15*
%TO.P,3V3Regu1,1,+VIN*%
%TO.N,Net-(3V3Regu1-Pad1)*%
X172700000Y-104975000D03*
%TO.P,3V3Regu1,2,GND*%
%TO.N,Raspi_GND*%
X170160000Y-104975000D03*
%TO.P,3V3Regu1,3,+VOUT*%
%TO.N,RasPi_Vcc*%
X167620000Y-104975000D03*
%TD*%
D16*
%TO.P,stranger1,1,K*%
%TO.N,/ToMotor*%
X130400000Y-100850000D03*
D17*
%TO.P,stranger1,2,A*%
%TO.N,Net-(MOSFET1-Pad2)*%
X130400000Y-113550000D03*
%TD*%
D18*
%TO.P,Motor_2,1,Pin_1*%
%TO.N,Net-(Motor_2-Pad1)*%
X170180000Y-91440000D03*
D19*
%TO.P,Motor_2,2,Pin_2*%
%TO.N,Net-(Motor_2-Pad2)*%
X170180000Y-93940000D03*
%TD*%
D15*
%TO.P,S1,18*%
%TO.N,Net-(3V3Regu1-Pad1)*%
X175200000Y-114800000D03*
%TO.P,S1,20*%
%TO.N,N/C*%
X175200000Y-116800000D03*
%TO.P,S1,21*%
X175200000Y-118950000D03*
%TO.P,S1,22*%
%TO.N,/ToMotor*%
X175200000Y-112800000D03*
%TO.P,S1,23*%
%TO.N,N/C*%
X175200000Y-110650000D03*
%TD*%
D18*
%TO.P,Motor_1,1,Pin_1*%
%TO.N,Net-(Motor_1-Pad1)*%
X170630000Y-81280000D03*
D19*
%TO.P,Motor_1,2,Pin_2*%
%TO.N,Net-(Motor_1-Pad2)*%
X170630000Y-83780000D03*
%TD*%
D20*
%TO.P,Balom1,1,Pin_1*%
%TO.N,Net-(9axis1-Pad5)*%
X129540000Y-68580000D03*
D21*
%TO.P,Balom1,2,Pin_2*%
%TO.N,/GND_9*%
X129540000Y-71080000D03*
%TO.P,Balom1,3,Pin_3*%
%TO.N,Net-(9axis1-Pad3)*%
X129540000Y-73580000D03*
%TO.P,Balom1,4,Pin_4*%
%TO.N,Net-(9axis1-Pad4)*%
X129540000Y-76080000D03*
%TO.P,Balom1,5,Pin_5*%
%TO.N,unconnected-(Balom1-Pad5)*%
X129540000Y-78580000D03*
%TD*%
D22*
%TO.P,release_detect1,1,Pin_1*%
%TO.N,/ToMotor*%
X161200000Y-121920000D03*
D23*
%TO.P,release_detect1,2,Pin_2*%
%TO.N,Net-(3V3Regu1-Pad1)*%
X163700000Y-121920000D03*
%TD*%
D24*
%TO.P,NiCr_Wire1,1,Pin_1*%
%TO.N,Net-(MOSFET1-Pad2)*%
X153450000Y-117267500D03*
D23*
%TO.P,NiCr_Wire1,2,Pin_2*%
%TO.N,/ToMotor*%
X150950000Y-117267500D03*
%TD*%
D11*
%TO.P,9axis1,1,Pin_1*%
%TO.N,Net-(9axis1-Pad1)*%
X152480000Y-58412500D03*
D12*
%TO.P,9axis1,2,Pin_2*%
%TO.N,/GND_9*%
X154980000Y-58412500D03*
%TO.P,9axis1,3,Pin_3*%
%TO.N,Net-(9axis1-Pad3)*%
X157480000Y-58412500D03*
%TO.P,9axis1,4,Pin_4*%
%TO.N,Net-(9axis1-Pad4)*%
X159980000Y-58412500D03*
%TO.P,9axis1,5,Pin_5*%
%TO.N,Net-(9axis1-Pad5)*%
X162480000Y-58412500D03*
%TD*%
D10*
%TO.P,REF\u002A\u002A,1*%
%TO.N,N/C*%
X78740000Y-121920000D03*
%TD*%
%TO.P,REF\u002A\u002A,1*%
%TO.N,N/C*%
X175260000Y-53340000D03*
%TD*%
D25*
%TO.P,J2,1,Pin_1*%
%TO.N,/ToMotor*%
X143635000Y-118090000D03*
D26*
%TO.P,J2,2,Pin_2*%
%TO.N,Raspi_GND*%
X138635000Y-118090000D03*
%TD*%
D10*
%TO.P,REF\u002A\u002A,1*%
%TO.N,N/C*%
X175260000Y-121920000D03*
%TD*%
D27*
%TO.N,Net-(J1-Pad13)*%
X126190000Y-94740000D03*
%TO.N,Net-(J1-Pad15)*%
X132030000Y-90220000D03*
X144280000Y-94520000D03*
D28*
%TO.N,/33Vcc*%
X138600000Y-95030500D03*
D27*
%TO.N,/ToMotor*%
X92700000Y-110550000D03*
X147700000Y-110050000D03*
%TO.N,Net-(Motor_1-Pad2)*%
X150460000Y-86030000D03*
%TO.N,Raspi_GND*%
X122450000Y-122320000D03*
X100600000Y-62600000D03*
X155200000Y-103800000D03*
X153400000Y-108800000D03*
%TO.N,RasPi_Vcc*%
X155375000Y-104975000D03*
X105200000Y-64800000D03*
%TD*%
D29*
%TO.N,Net-(3V3Regu1-Pad1)*%
X166950000Y-114800000D02*
X163700000Y-118050000D01*
X175200000Y-114800000D02*
X166950000Y-114800000D01*
X163700000Y-121920000D02*
X163700000Y-118050000D01*
D30*
%TO.N,Net-(9axis1-Pad3)*%
X157480000Y-63500000D02*
X147320000Y-73660000D01*
X147320000Y-73660000D02*
X147240000Y-73580000D01*
X129540000Y-73580000D02*
X126920000Y-73580000D01*
X147240000Y-73580000D02*
X129540000Y-73580000D01*
X121920000Y-68580000D02*
X114300000Y-68580000D01*
X157480000Y-58412500D02*
X157480000Y-63500000D01*
X126920000Y-73580000D02*
X121920000Y-68580000D01*
%TO.N,Net-(9axis1-Pad4)*%
X129540000Y-76080000D02*
X147200000Y-76080000D01*
X147320000Y-76200000D02*
X160020000Y-63500000D01*
X160020000Y-63500000D02*
X159980000Y-63460000D01*
X119380000Y-71120000D02*
X124460000Y-76200000D01*
X147200000Y-76080000D02*
X147320000Y-76200000D01*
X114300000Y-71120000D02*
X119380000Y-71120000D01*
X159980000Y-63460000D02*
X159980000Y-58412500D01*
X124580000Y-76080000D02*
X129540000Y-76080000D01*
X124460000Y-76200000D02*
X124580000Y-76080000D01*
%TO.N,Net-(9axis1-Pad5)*%
X162480000Y-55960000D02*
X162560000Y-55880000D01*
X162560000Y-55880000D02*
X142240000Y-55880000D01*
X142240000Y-55880000D02*
X129540000Y-68580000D01*
X162480000Y-58412500D02*
X162480000Y-55960000D01*
%TO.N,Net-(J1-Pad13)*%
X108910000Y-80040000D02*
X113060000Y-80040000D01*
X108510000Y-90080000D02*
X106170000Y-87740000D01*
X106170000Y-82780000D02*
X108910000Y-80040000D01*
X106170000Y-87740000D02*
X106170000Y-82780000D01*
X113060000Y-80040000D02*
X114300000Y-81280000D01*
X121530000Y-90080000D02*
X108510000Y-90080000D01*
X126190000Y-94740000D02*
X121530000Y-90080000D01*
%TO.N,Net-(J1-Pad15)*%
X144430000Y-90600000D02*
X144430000Y-94580000D01*
X133730000Y-88520000D02*
X134660000Y-88520000D01*
X144090000Y-94920000D02*
X144090000Y-94710000D01*
X144430000Y-94580000D02*
X144090000Y-94920000D01*
X134660000Y-88520000D02*
X142350000Y-88520000D01*
X129286396Y-90220000D02*
X124836396Y-85770000D01*
X144090000Y-94710000D02*
X144280000Y-94520000D01*
X116580000Y-83820000D02*
X114300000Y-83820000D01*
X118530000Y-85770000D02*
X116580000Y-83820000D01*
X124836396Y-85770000D02*
X118530000Y-85770000D01*
X132030000Y-90220000D02*
X129286396Y-90220000D01*
X142350000Y-88520000D02*
X144430000Y-90600000D01*
X132030000Y-90220000D02*
X133730000Y-88520000D01*
%TO.N,/33Vcc*%
X124790000Y-86360000D02*
X133410000Y-94980000D01*
X114300000Y-86360000D02*
X124790000Y-86360000D01*
X138549500Y-94980000D02*
X138600000Y-95030500D01*
X133410000Y-94980000D02*
X138549500Y-94980000D01*
D29*
%TO.N,/ToMotor*%
X99200000Y-117050000D02*
X92700000Y-110550000D01*
X161200000Y-118050000D02*
X166450000Y-112800000D01*
X131950000Y-122300000D02*
X126700000Y-117050000D01*
D31*
X147700000Y-114025000D02*
X143635000Y-118090000D01*
D29*
X139425000Y-122300000D02*
X131950000Y-122300000D01*
X175200000Y-112800000D02*
X166450000Y-112800000D01*
X143635000Y-118090000D02*
X139562500Y-122162500D01*
D31*
X147700000Y-110050000D02*
X147700000Y-114025000D01*
D30*
X139562500Y-122162500D02*
X139425000Y-122300000D01*
D29*
X161200000Y-121920000D02*
X161200000Y-118050000D01*
X126700000Y-117050000D02*
X99200000Y-117050000D01*
D31*
%TO.N,Net-(Motor_1-Pad2)*%
X150460000Y-86030000D02*
X152710000Y-83780000D01*
X152710000Y-83780000D02*
X170630000Y-83780000D01*
X150460000Y-86030000D02*
X150460000Y-85850000D01*
D29*
%TO.N,Raspi_GND*%
X122450000Y-122320000D02*
X86550000Y-122320000D01*
X102000000Y-94600000D02*
X98200000Y-90800000D01*
D31*
X146000000Y-108600000D02*
X168000000Y-108600000D01*
D29*
X86550000Y-122320000D02*
X81710000Y-117480000D01*
X81710000Y-109940000D02*
X90050000Y-101600000D01*
D31*
X170160000Y-106440000D02*
X170160000Y-104975000D01*
D29*
X111760000Y-71120000D02*
X106880000Y-71120000D01*
X81825000Y-109825000D02*
X81825000Y-81375000D01*
X155200000Y-103800000D02*
X127200000Y-103800000D01*
X105400000Y-94600000D02*
X102000000Y-94600000D01*
D31*
X138635000Y-116035000D02*
X138600000Y-116000000D01*
D29*
X81825000Y-81375000D02*
X100600000Y-62600000D01*
D30*
X110000000Y-92800000D02*
X116200000Y-92800000D01*
D29*
X81710000Y-117480000D02*
X81710000Y-109940000D01*
D31*
X138600000Y-116000000D02*
X146000000Y-108600000D01*
D29*
X127200000Y-103800000D02*
X116200000Y-92800000D01*
X90050000Y-101600000D02*
X111760000Y-101600000D01*
X106880000Y-71120000D02*
X98200000Y-79800000D01*
D31*
X138635000Y-118090000D02*
X138635000Y-116035000D01*
D29*
X105400000Y-94600000D02*
X107200000Y-92800000D01*
D30*
X81825000Y-109825000D02*
X90050000Y-101600000D01*
D31*
X168000000Y-108600000D02*
X170160000Y-106440000D01*
D29*
X98200000Y-90800000D02*
X98200000Y-79800000D01*
X110000000Y-92800000D02*
X107200000Y-92800000D01*
X81710000Y-109940000D02*
X81825000Y-109825000D01*
%TO.N,RasPi_Vcc*%
X123375000Y-104975000D02*
X116200000Y-97800000D01*
D30*
X116200000Y-97800000D02*
X110400000Y-97800000D01*
D29*
X155375000Y-104975000D02*
X123375000Y-104975000D01*
D30*
X94300000Y-75700000D02*
X105200000Y-64800000D01*
D29*
X100400000Y-97800000D02*
X94200000Y-91600000D01*
X94200000Y-75800000D02*
X94300000Y-75700000D01*
X110400000Y-97800000D02*
X100400000Y-97800000D01*
X94200000Y-91600000D02*
X94200000Y-75800000D01*
X94200000Y-75800000D02*
X105200000Y-64800000D01*
%TD*%
M02*
