%TF.GenerationSoftware,KiCad,Pcbnew,(6.0.6)*%
%TF.CreationDate,2022-07-05T22:30:03+09:00*%
%TF.ProjectId,arliss,61726c69-7373-42e6-9b69-6361645f7063,rev?*%
%TF.SameCoordinates,Original*%
%TF.FileFunction,Soldermask,Top*%
%TF.FilePolarity,Negative*%
%FSLAX46Y46*%
G04 Gerber Fmt 4.6, Leading zero omitted, Abs format (unit mm)*
G04 Created by KiCad (PCBNEW (6.0.6)) date 2022-07-05 22:30:03*
%MOMM*%
%LPD*%
G01*
G04 APERTURE LIST*
G04 Aperture macros list*
%AMRoundRect*
0 Rectangle with rounded corners*
0 $1 Rounding radius*
0 $2 $3 $4 $5 $6 $7 $8 $9 X,Y pos of 4 corners*
0 Add a 4 corners polygon primitive as box body*
4,1,4,$2,$3,$4,$5,$6,$7,$8,$9,$2,$3,0*
0 Add four circle primitives for the rounded corners*
1,1,$1+$1,$2,$3*
1,1,$1+$1,$4,$5*
1,1,$1+$1,$6,$7*
1,1,$1+$1,$8,$9*
0 Add four rect primitives between the rounded corners*
20,1,$1+$1,$2,$3,$4,$5,0*
20,1,$1+$1,$4,$5,$6,$7,0*
20,1,$1+$1,$6,$7,$8,$9,0*
20,1,$1+$1,$8,$9,$2,$3,0*%
G04 Aperture macros list end*
%ADD10C,4.000000*%
%ADD11RoundRect,0.250000X-0.600000X-0.725000X0.600000X-0.725000X0.600000X0.725000X-0.600000X0.725000X0*%
%ADD12O,1.700000X1.950000*%
%ADD13R,1.700000X1.700000*%
%ADD14O,1.700000X1.700000*%
%ADD15RoundRect,0.243750X-0.243750X-0.456250X0.243750X-0.456250X0.243750X0.456250X-0.243750X0.456250X0*%
%ADD16C,1.524000*%
%ADD17R,1.000000X1.500000*%
%ADD18R,5.400000X1.700000*%
%ADD19R,3.200000X3.200000*%
%ADD20O,3.200000X3.200000*%
%ADD21RoundRect,0.250000X-0.750000X0.600000X-0.750000X-0.600000X0.750000X-0.600000X0.750000X0.600000X0*%
%ADD22O,2.000000X1.700000*%
%ADD23RoundRect,0.250000X-0.725000X0.600000X-0.725000X-0.600000X0.725000X-0.600000X0.725000X0.600000X0*%
%ADD24O,1.950000X1.700000*%
%ADD25RoundRect,0.250000X-0.600000X-0.750000X0.600000X-0.750000X0.600000X0.750000X-0.600000X0.750000X0*%
%ADD26O,1.700000X2.000000*%
%ADD27RoundRect,0.250000X0.600000X0.750000X-0.600000X0.750000X-0.600000X-0.750000X0.600000X-0.750000X0*%
%ADD28RoundRect,0.250000X1.425000X-0.362500X1.425000X0.362500X-1.425000X0.362500X-1.425000X-0.362500X0*%
%ADD29R,1.980000X3.960000*%
%ADD30O,1.980000X3.960000*%
%ADD31RoundRect,0.225000X-0.250000X0.225000X-0.250000X-0.225000X0.250000X-0.225000X0.250000X0.225000X0*%
%ADD32R,1.750000X0.450000*%
G04 APERTURE END LIST*
D10*
%TO.C,REF\u002A\u002A*%
X78740000Y-53340000D03*
%TD*%
D11*
%TO.C,GPS_MAXB1*%
X91520000Y-58412500D03*
D12*
X94020000Y-58412500D03*
X96520000Y-58412500D03*
X99020000Y-58412500D03*
X101520000Y-58412500D03*
%TD*%
D13*
%TO.C,J1*%
X114300000Y-66040000D03*
D14*
X111760000Y-66040000D03*
X114300000Y-68580000D03*
X111760000Y-68580000D03*
X114300000Y-71120000D03*
X111760000Y-71120000D03*
X114300000Y-73660000D03*
X111760000Y-73660000D03*
X114300000Y-76200000D03*
X111760000Y-76200000D03*
X114300000Y-78740000D03*
X111760000Y-78740000D03*
X114300000Y-81280000D03*
X111760000Y-81280000D03*
X114300000Y-83820000D03*
X111760000Y-83820000D03*
X114300000Y-86360000D03*
X111760000Y-86360000D03*
X114300000Y-88900000D03*
X111760000Y-88900000D03*
X114300000Y-91440000D03*
X111760000Y-91440000D03*
X114300000Y-93980000D03*
X111760000Y-93980000D03*
X114300000Y-96520000D03*
X111760000Y-96520000D03*
X114300000Y-99060000D03*
X111760000Y-99060000D03*
X114300000Y-101600000D03*
X111760000Y-101600000D03*
X114300000Y-104140000D03*
X111760000Y-104140000D03*
X114300000Y-106680000D03*
X111760000Y-106680000D03*
X114300000Y-109220000D03*
X111760000Y-109220000D03*
X114300000Y-111760000D03*
X111760000Y-111760000D03*
X114300000Y-114300000D03*
X111760000Y-114300000D03*
%TD*%
D15*
%TO.C,LED2*%
X95582500Y-116840000D03*
X97457500Y-116840000D03*
%TD*%
D16*
%TO.C,3V3Regu1*%
X172700000Y-104975000D03*
X170160000Y-104975000D03*
X167620000Y-104975000D03*
%TD*%
D17*
%TO.C,MOSFET1*%
X119870000Y-119570000D03*
D18*
X122170000Y-112020000D03*
D17*
X124470000Y-119570000D03*
%TD*%
D19*
%TO.C,stranger1*%
X130400000Y-100850000D03*
D20*
X130400000Y-113550000D03*
%TD*%
D15*
%TO.C,LED1*%
X95582500Y-121920000D03*
X97457500Y-121920000D03*
%TD*%
D21*
%TO.C,Motor_2*%
X170180000Y-91440000D03*
D22*
X170180000Y-93940000D03*
%TD*%
D16*
%TO.C,S1*%
X175200000Y-114800000D03*
X175200000Y-116800000D03*
X175200000Y-118950000D03*
X175200000Y-112800000D03*
X175200000Y-110650000D03*
%TD*%
D21*
%TO.C,Motor_1*%
X170630000Y-81280000D03*
D22*
X170630000Y-83780000D03*
%TD*%
D23*
%TO.C,Balom1*%
X129540000Y-68580000D03*
D24*
X129540000Y-71080000D03*
X129540000Y-73580000D03*
X129540000Y-76080000D03*
X129540000Y-78580000D03*
%TD*%
D25*
%TO.C,release_detect1*%
X161200000Y-121920000D03*
D26*
X163700000Y-121920000D03*
%TD*%
D27*
%TO.C,NiCr_Wire1*%
X153450000Y-117267500D03*
D26*
X150950000Y-117267500D03*
%TD*%
D11*
%TO.C,9axis1*%
X152480000Y-58412500D03*
D12*
X154980000Y-58412500D03*
X157480000Y-58412500D03*
X159980000Y-58412500D03*
X162480000Y-58412500D03*
%TD*%
D28*
%TO.C,R1*%
X88900000Y-122765000D03*
X88900000Y-116840000D03*
%TD*%
D10*
%TO.C,REF\u002A\u002A*%
X78740000Y-121920000D03*
%TD*%
%TO.C,REF\u002A\u002A*%
X175260000Y-53340000D03*
%TD*%
D29*
%TO.C,J2*%
X143635000Y-118090000D03*
D30*
X138635000Y-118090000D03*
%TD*%
D31*
%TO.C,3.3\u03BCF1*%
X160200000Y-103775000D03*
X160200000Y-105325000D03*
%TD*%
D10*
%TO.C,REF\u002A\u002A*%
X175260000Y-121920000D03*
%TD*%
D32*
%TO.C,U1*%
X148380000Y-97555000D03*
X148380000Y-96905000D03*
X148380000Y-96255000D03*
X148380000Y-95605000D03*
X148380000Y-94955000D03*
X148380000Y-94305000D03*
X148380000Y-93655000D03*
X148380000Y-93005000D03*
X148380000Y-92355000D03*
X148380000Y-91705000D03*
X148380000Y-91055000D03*
X148380000Y-90405000D03*
X141180000Y-90405000D03*
X141180000Y-91055000D03*
X141180000Y-91705000D03*
X141180000Y-92355000D03*
X141180000Y-93005000D03*
X141180000Y-93655000D03*
X141180000Y-94305000D03*
X141180000Y-94955000D03*
X141180000Y-95605000D03*
X141180000Y-96255000D03*
X141180000Y-96905000D03*
X141180000Y-97555000D03*
%TD*%
M02*
