M48
; DRILL file {KiCad (6.0.6)} date Mon Aug 15 14:06:13 2022
; FORMAT={-:-/ absolute / metric / decimal}
; #@! TF.CreationDate,2022-08-15T14:06:13+09:00
; #@! TF.GenerationSoftware,Kicad,Pcbnew,(6.0.6)
; #@! TF.FileFunction,MixedPlating,1,2
FMAT,2
METRIC
; #@! TA.AperFunction,Plated,PTH,ViaDrill
T1C0.400
; #@! TA.AperFunction,Plated,PTH,ComponentDrill
T2C0.400
; #@! TA.AperFunction,Plated,PTH,ComponentDrill
T3C0.700
; #@! TA.AperFunction,Plated,PTH,ComponentDrill
T4C0.762
; #@! TA.AperFunction,Plated,PTH,ComponentDrill
T5C0.800
; #@! TA.AperFunction,Plated,PTH,ComponentDrill
T6C0.950
; #@! TA.AperFunction,Plated,PTH,ComponentDrill
T7C1.000
; #@! TA.AperFunction,Plated,PTH,ComponentDrill
T8C1.320
; #@! TA.AperFunction,Plated,PTH,ComponentDrill
T9C1.600
; #@! TA.AperFunction,Plated,PTH,ComponentDrill
T10C3.200
; #@! TA.AperFunction,NonPlated,NPTH,ComponentDrill
T11C2.750
%
G90
G05
T1
X79.841Y-109.363
X82.178Y-66.031
X82.254Y-58.258
X87.613Y-116.882
X96.706Y-120.92
X96.95Y-83.66
X99.64Y-81.65
X100.185Y-114.855
X101.69Y-77.0
X108.3Y-84.99
X108.57Y-92.33
X110.02Y-75.45
X112.59Y-85.01
X112.81Y-104.309
X114.385Y-56.963
X118.94Y-116.01
X120.06Y-79.72
X120.735Y-56.963
X125.535Y-81.347
X125.764Y-88.865
X125.79Y-64.55
X132.978Y-88.713
X133.181Y-95.469
X133.435Y-81.195
X140.648Y-88.815
X145.525Y-58.411
X145.703Y-104.08
X151.012Y-109.135
X152.44Y-86.22
X154.18Y-122.95
X154.89Y-80.7
X156.015Y-104.08
X166.048Y-111.675
X166.745Y-70.565
X174.1Y-69.003
X174.126Y-60.875
X230.463Y-147.438
T3
X84.557Y-103.769
X84.557Y-122.869
X85.827Y-103.769
X85.827Y-122.869
X87.097Y-103.769
X87.097Y-122.869
X88.367Y-103.769
X88.367Y-122.869
X89.637Y-103.769
X89.637Y-122.869
X90.907Y-103.769
X90.907Y-122.869
X92.177Y-103.769
X92.177Y-122.869
X93.447Y-103.769
X93.447Y-122.869
X94.717Y-103.769
X94.717Y-122.869
X95.987Y-103.769
X95.987Y-122.869
X97.257Y-103.769
X97.257Y-122.869
X98.527Y-103.769
X98.527Y-122.869
X99.797Y-103.769
X99.797Y-122.869
T4
X163.7Y-122.1
X165.85Y-122.1
X167.85Y-122.1
X169.735Y-104.0
X169.85Y-122.1
X172.0Y-122.1
X172.275Y-104.0
X174.815Y-104.0
T5
X125.81Y-52.565
X125.81Y-60.185
X128.35Y-52.565
X128.35Y-60.185
X130.89Y-52.565
X130.89Y-60.185
X133.43Y-52.565
X133.43Y-60.185
T6
X93.8Y-57.883
X96.3Y-57.883
X98.8Y-57.883
X101.3Y-57.883
X103.8Y-57.883
X155.02Y-58.412
X157.52Y-58.412
X160.02Y-58.412
X162.52Y-58.412
X165.02Y-58.412
T7
X83.338Y-76.82
X83.338Y-79.32
X93.27Y-87.28
X93.27Y-89.82
X93.27Y-92.36
X93.27Y-94.9
X103.595Y-67.485
X103.595Y-70.025
X106.135Y-67.485
X106.135Y-70.025
X108.675Y-67.485
X108.675Y-70.025
X111.215Y-67.485
X111.215Y-70.025
X113.755Y-67.485
X113.755Y-70.025
X116.295Y-67.485
X116.295Y-70.025
X118.835Y-67.485
X118.835Y-70.025
X121.375Y-67.485
X121.375Y-70.025
X123.915Y-67.485
X123.915Y-70.025
X126.455Y-67.485
X126.455Y-70.025
X128.995Y-67.485
X128.995Y-70.025
X131.535Y-67.485
X131.535Y-70.025
X134.075Y-67.485
X134.075Y-70.025
X134.375Y-117.367
X136.615Y-67.485
X136.615Y-70.025
X136.875Y-117.367
X139.155Y-67.485
X139.155Y-70.025
X141.695Y-67.485
X141.695Y-70.025
X144.235Y-67.485
X144.235Y-70.025
X146.775Y-67.485
X146.775Y-70.025
X149.315Y-67.485
X149.315Y-70.025
X151.855Y-67.485
X151.855Y-70.025
X162.64Y-86.01
X162.64Y-88.55
X162.64Y-91.09
X162.64Y-93.63
X170.887Y-77.62
X170.887Y-80.12
T8
X148.765Y-117.7
X153.765Y-117.7
T9
X125.06Y-107.99
X137.76Y-107.99
T10
X78.74Y-53.34
X78.74Y-121.92
X175.26Y-53.34
X175.26Y-121.92
T11
X98.725Y-68.755
X98.725Y-91.755
X156.725Y-68.755
X156.725Y-91.755
T2
G00X162.027Y-117.293
M15
G01X162.777Y-117.293
M16
G05
G00X163.027Y-121.093
M15
G01X163.777Y-121.093
M16
G05
G00X164.027Y-119.193
M15
G01X164.777Y-119.193
M16
G05
T0
M30
