G04 #@! TF.GenerationSoftware,KiCad,Pcbnew,(6.0.6)*
G04 #@! TF.CreationDate,2022-08-15T14:06:09+09:00*
G04 #@! TF.ProjectId,arliss,61726c69-7373-42e6-9b69-6361645f7063,rev?*
G04 #@! TF.SameCoordinates,Original*
G04 #@! TF.FileFunction,Soldermask,Bot*
G04 #@! TF.FilePolarity,Negative*
%FSLAX46Y46*%
G04 Gerber Fmt 4.6, Leading zero omitted, Abs format (unit mm)*
G04 Created by KiCad (PCBNEW (6.0.6)) date 2022-08-15 14:06:09*
%MOMM*%
%LPD*%
G01*
G04 APERTURE LIST*
G04 Aperture macros list*
%AMRoundRect*
0 Rectangle with rounded corners*
0 $1 Rounding radius*
0 $2 $3 $4 $5 $6 $7 $8 $9 X,Y pos of 4 corners*
0 Add a 4 corners polygon primitive as box body*
4,1,4,$2,$3,$4,$5,$6,$7,$8,$9,$2,$3,0*
0 Add four circle primitives for the rounded corners*
1,1,$1+$1,$2,$3*
1,1,$1+$1,$4,$5*
1,1,$1+$1,$6,$7*
1,1,$1+$1,$8,$9*
0 Add four rect primitives between the rounded corners*
20,1,$1+$1,$2,$3,$4,$5,0*
20,1,$1+$1,$4,$5,$6,$7,0*
20,1,$1+$1,$6,$7,$8,$9,0*
20,1,$1+$1,$8,$9,$2,$3,0*%
G04 Aperture macros list end*
G04 #@! TA.AperFunction,Profile*
%ADD10C,0.100000*%
G04 #@! TD*
%ADD11C,1.000000*%
%ADD12C,4.000000*%
%ADD13RoundRect,0.250000X-0.600000X-0.725000X0.600000X-0.725000X0.600000X0.725000X-0.600000X0.725000X0*%
%ADD14O,1.700000X1.950000*%
%ADD15C,6.000000*%
%ADD16R,1.700000X1.700000*%
%ADD17O,1.700000X1.700000*%
%ADD18R,3.200000X3.200000*%
%ADD19O,3.200000X3.200000*%
%ADD20RoundRect,0.250000X-0.750000X0.600000X-0.750000X-0.600000X0.750000X-0.600000X0.750000X0.600000X0*%
%ADD21O,2.000000X1.700000*%
%ADD22C,1.524000*%
%ADD23RoundRect,0.250000X0.750000X-0.600000X0.750000X0.600000X-0.750000X0.600000X-0.750000X-0.600000X0*%
%ADD24RoundRect,0.250000X0.512000X-0.250000X0.512000X0.250000X-0.512000X0.250000X-0.512000X-0.250000X0*%
%ADD25RoundRect,0.250000X0.600000X0.750000X-0.600000X0.750000X-0.600000X-0.750000X0.600000X-0.750000X0*%
%ADD26O,1.700000X2.000000*%
%ADD27R,1.980000X3.960000*%
%ADD28O,1.980000X3.960000*%
%ADD29R,1.600000X2.400000*%
%ADD30O,1.600000X2.400000*%
G04 APERTURE END LIST*
D10*
X76200000Y-50800000D02*
X177800000Y-50800000D01*
X177800000Y-50800000D02*
X177800000Y-124460000D01*
X177800000Y-124460000D02*
X76200000Y-124460000D01*
X76200000Y-124460000D02*
X76200000Y-50800000D01*
D11*
X99796800Y-103769000D03*
X98526800Y-103769000D03*
X97256800Y-103769000D03*
X95986800Y-103769000D03*
X94716800Y-103769000D03*
X93446800Y-103769000D03*
X92176800Y-103769000D03*
X90906800Y-103769000D03*
X89636800Y-103769000D03*
X88366800Y-103769000D03*
X87096800Y-103769000D03*
X85826800Y-103769000D03*
X84556800Y-103769000D03*
X84556800Y-122869000D03*
X85826800Y-122869000D03*
X87096800Y-122869000D03*
X88366800Y-122869000D03*
X89636800Y-122869000D03*
X90906800Y-122869000D03*
X92176800Y-122869000D03*
X93446800Y-122869000D03*
X94716800Y-122869000D03*
X95986800Y-122869000D03*
X97256800Y-122869000D03*
X98526800Y-122869000D03*
X99796800Y-122869000D03*
D12*
X78740000Y-53340000D03*
D13*
X93800000Y-57882500D03*
D14*
X96300000Y-57882500D03*
X98800000Y-57882500D03*
X101300000Y-57882500D03*
X103800000Y-57882500D03*
D15*
X98725000Y-91755000D03*
X156725000Y-91755000D03*
X156725000Y-68755000D03*
X98725000Y-68755000D03*
D16*
X151855000Y-70025000D03*
D17*
X151855000Y-67485000D03*
X149315000Y-70025000D03*
X149315000Y-67485000D03*
X146775000Y-70025000D03*
X146775000Y-67485000D03*
X144235000Y-70025000D03*
X144235000Y-67485000D03*
X141695000Y-70025000D03*
X141695000Y-67485000D03*
X139155000Y-70025000D03*
X139155000Y-67485000D03*
X136615000Y-70025000D03*
X136615000Y-67485000D03*
X134075000Y-70025000D03*
X134075000Y-67485000D03*
X131535000Y-70025000D03*
X131535000Y-67485000D03*
X128995000Y-70025000D03*
X128995000Y-67485000D03*
X126455000Y-70025000D03*
X126455000Y-67485000D03*
X123915000Y-70025000D03*
X123915000Y-67485000D03*
X121375000Y-70025000D03*
X121375000Y-67485000D03*
X118835000Y-70025000D03*
X118835000Y-67485000D03*
X116295000Y-70025000D03*
X116295000Y-67485000D03*
X113755000Y-70025000D03*
X113755000Y-67485000D03*
X111215000Y-70025000D03*
X111215000Y-67485000D03*
X108675000Y-70025000D03*
X108675000Y-67485000D03*
X106135000Y-70025000D03*
X106135000Y-67485000D03*
X103595000Y-70025000D03*
X103595000Y-67485000D03*
D16*
X162640000Y-93630000D03*
D17*
X162640000Y-91090000D03*
X162640000Y-88550000D03*
X162640000Y-86010000D03*
D18*
X137760000Y-107990000D03*
D19*
X125060000Y-107990000D03*
D20*
X170887500Y-77620000D03*
D21*
X170887500Y-80120000D03*
D22*
X167850000Y-122100000D03*
X165850000Y-122100000D03*
X163700000Y-122100000D03*
X169850000Y-122100000D03*
X172000000Y-122100000D03*
D23*
X83338500Y-79320400D03*
D21*
X83338500Y-76820400D03*
D24*
X162401600Y-117293000D03*
X164401600Y-119193000D03*
X163401600Y-121093000D03*
D25*
X136875000Y-117367500D03*
D26*
X134375000Y-117367500D03*
D16*
X93270000Y-87280000D03*
D17*
X93270000Y-89820000D03*
X93270000Y-92360000D03*
X93270000Y-94900000D03*
D13*
X155020000Y-58412500D03*
D14*
X157520000Y-58412500D03*
X160020000Y-58412500D03*
X162520000Y-58412500D03*
X165020000Y-58412500D03*
D22*
X174815000Y-104000000D03*
X172275000Y-104000000D03*
X169735000Y-104000000D03*
D12*
X78740000Y-121920000D03*
X175260000Y-53340000D03*
D27*
X153765000Y-117700000D03*
D28*
X148765000Y-117700000D03*
D29*
X125810000Y-60185000D03*
D30*
X128350000Y-60185000D03*
X130890000Y-60185000D03*
X133430000Y-60185000D03*
X133430000Y-52565000D03*
X130890000Y-52565000D03*
X128350000Y-52565000D03*
X125810000Y-52565000D03*
D12*
X175260000Y-121920000D03*
M02*
