G04 #@! TF.GenerationSoftware,KiCad,Pcbnew,(6.0.6)*
G04 #@! TF.CreationDate,2022-08-15T14:06:08+09:00*
G04 #@! TF.ProjectId,arliss,61726c69-7373-42e6-9b69-6361645f7063,rev?*
G04 #@! TF.SameCoordinates,Original*
G04 #@! TF.FileFunction,Paste,Top*
G04 #@! TF.FilePolarity,Positive*
%FSLAX46Y46*%
G04 Gerber Fmt 4.6, Leading zero omitted, Abs format (unit mm)*
G04 Created by KiCad (PCBNEW (6.0.6)) date 2022-08-15 14:06:08*
%MOMM*%
%LPD*%
G01*
G04 APERTURE LIST*
G04 Aperture macros list*
%AMRoundRect*
0 Rectangle with rounded corners*
0 $1 Rounding radius*
0 $2 $3 $4 $5 $6 $7 $8 $9 X,Y pos of 4 corners*
0 Add a 4 corners polygon primitive as box body*
4,1,4,$2,$3,$4,$5,$6,$7,$8,$9,$2,$3,0*
0 Add four circle primitives for the rounded corners*
1,1,$1+$1,$2,$3*
1,1,$1+$1,$4,$5*
1,1,$1+$1,$6,$7*
1,1,$1+$1,$8,$9*
0 Add four rect primitives between the rounded corners*
20,1,$1+$1,$2,$3,$4,$5,0*
20,1,$1+$1,$4,$5,$6,$7,0*
20,1,$1+$1,$6,$7,$8,$9,0*
20,1,$1+$1,$8,$9,$2,$3,0*%
G04 Aperture macros list end*
G04 #@! TA.AperFunction,Profile*
%ADD10C,0.100000*%
G04 #@! TD*
%ADD11RoundRect,0.225000X0.250000X-0.225000X0.250000X0.225000X-0.250000X0.225000X-0.250000X-0.225000X0*%
%ADD12RoundRect,0.200000X0.200000X0.275000X-0.200000X0.275000X-0.200000X-0.275000X0.200000X-0.275000X0*%
%ADD13RoundRect,0.243750X0.243750X0.456250X-0.243750X0.456250X-0.243750X-0.456250X0.243750X-0.456250X0*%
%ADD14R,1.000000X1.500000*%
%ADD15R,5.400000X1.700000*%
%ADD16RoundRect,0.200000X-0.200000X-0.275000X0.200000X-0.275000X0.200000X0.275000X-0.200000X0.275000X0*%
%ADD17RoundRect,0.243750X-0.243750X-0.456250X0.243750X-0.456250X0.243750X0.456250X-0.243750X0.456250X0*%
%ADD18RoundRect,0.243750X-0.456250X0.243750X-0.456250X-0.243750X0.456250X-0.243750X0.456250X0.243750X0*%
%ADD19RoundRect,0.225000X-0.250000X0.225000X-0.250000X-0.225000X0.250000X-0.225000X0.250000X0.225000X0*%
%ADD20RoundRect,0.200000X-0.275000X0.200000X-0.275000X-0.200000X0.275000X-0.200000X0.275000X0.200000X0*%
%ADD21RoundRect,0.150000X0.825000X0.150000X-0.825000X0.150000X-0.825000X-0.150000X0.825000X-0.150000X0*%
%ADD22RoundRect,0.232500X-0.232500X-0.232500X0.232500X-0.232500X0.232500X0.232500X-0.232500X0.232500X0*%
%ADD23RoundRect,0.150000X-0.825000X-0.150000X0.825000X-0.150000X0.825000X0.150000X-0.825000X0.150000X0*%
%ADD24R,1.000000X0.400000*%
%ADD25R,0.400000X1.000000*%
%ADD26RoundRect,0.225000X0.225000X0.250000X-0.225000X0.250000X-0.225000X-0.250000X0.225000X-0.250000X0*%
%ADD27RoundRect,0.250000X-1.425000X0.362500X-1.425000X-0.362500X1.425000X-0.362500X1.425000X0.362500X0*%
%ADD28RoundRect,0.250000X0.362500X1.425000X-0.362500X1.425000X-0.362500X-1.425000X0.362500X-1.425000X0*%
%ADD29RoundRect,0.250000X0.325000X1.100000X-0.325000X1.100000X-0.325000X-1.100000X0.325000X-1.100000X0*%
G04 APERTURE END LIST*
D10*
X76200000Y-50800000D02*
X177800000Y-50800000D01*
X177800000Y-50800000D02*
X177800000Y-124460000D01*
X177800000Y-124460000D02*
X76200000Y-124460000D01*
X76200000Y-124460000D02*
X76200000Y-50800000D01*
D11*
X152920000Y-98425000D03*
X152920000Y-96875000D03*
D12*
X121705000Y-123050000D03*
X120055000Y-123050000D03*
D13*
X112657500Y-121950000D03*
X110782500Y-121950000D03*
D14*
X122930000Y-120850000D03*
D15*
X125230000Y-113300000D03*
D14*
X127530000Y-120850000D03*
D16*
X89045000Y-100730000D03*
X90695000Y-100730000D03*
D12*
X126145000Y-123040000D03*
X124495000Y-123040000D03*
D17*
X115562500Y-121990000D03*
X117437500Y-121990000D03*
D12*
X93685000Y-106850000D03*
X92035000Y-106850000D03*
D18*
X144175000Y-121050000D03*
X144175000Y-122925000D03*
D19*
X149080000Y-98415000D03*
X149080000Y-99965000D03*
D20*
X84500000Y-100675000D03*
X84500000Y-102325000D03*
D21*
X106500000Y-82920000D03*
X106500000Y-81650000D03*
X106500000Y-80380000D03*
X106500000Y-79110000D03*
X101550000Y-79110000D03*
X101550000Y-80380000D03*
X101550000Y-81650000D03*
X101550000Y-82920000D03*
D19*
X168320000Y-69015000D03*
X168320000Y-70565000D03*
D22*
X150525000Y-80775000D03*
X150525000Y-81925000D03*
X149375000Y-81925000D03*
X149375000Y-80775000D03*
D23*
X147475000Y-79445000D03*
X147475000Y-80715000D03*
X147475000Y-81985000D03*
X147475000Y-83255000D03*
X152425000Y-83255000D03*
X152425000Y-81985000D03*
X152425000Y-80715000D03*
X152425000Y-79445000D03*
D24*
X156210000Y-96790000D03*
X156210000Y-98290000D03*
X156210000Y-99790000D03*
D25*
X159710000Y-98290000D03*
X159410000Y-98290000D03*
D26*
X154485000Y-61650000D03*
X152935000Y-61650000D03*
D20*
X144190000Y-117625000D03*
X144190000Y-119275000D03*
D27*
X85835200Y-58775700D03*
X85835200Y-64700700D03*
D28*
X117632500Y-116010000D03*
X111707500Y-116010000D03*
D12*
X100185000Y-118470000D03*
X98535000Y-118470000D03*
D29*
X172425000Y-99575000D03*
X169475000Y-99575000D03*
M02*
