%FSLAX45Y45*%
G04 Gerber Fmt 4.5, Leading zero omitted, Abs format (unit mm)*
G04 Created by KiCad (PCBNEW (6.0.6)) date 2022-08-15 12:49:02*
%MOMM*%
%LPD*%
G01*
G04 APERTURE LIST*
%TA.AperFunction,Profile*%
%ADD10C,0.100000*%
%TD*%
%ADD11C,0.200000*%
%ADD12C,0.040000*%
%ADD13C,0.095000*%
%ADD14C,0.320000*%
G04 APERTURE END LIST*
D10*
X8000000Y-11500000D02*
X8000000Y-8500000D01*
X16000000Y-11500000D02*
X8000000Y-11500000D01*
X16000000Y-8500000D02*
X16000000Y-11500000D01*
X8000000Y-8500000D02*
X16000000Y-8500000D01*
D11*
D12*
X10245480Y-8654820D02*
X10285480Y-8694820D01*
X10285480Y-8654820D02*
X10245480Y-8694820D01*
X10979540Y-8667520D02*
X11019540Y-8707520D01*
X11019540Y-8667520D02*
X10979540Y-8707520D01*
X12819200Y-9621860D02*
X12859200Y-9661860D01*
X12859200Y-9621860D02*
X12819200Y-9661860D01*
D13*
X8580220Y-9719680D02*
G75*
G03*
X8580220Y-9719680I-47500J0D01*
G01*
X8580220Y-9969680D02*
G75*
G03*
X8580220Y-9969680I-47500J0D01*
G01*
X8580220Y-10219680D02*
G75*
G03*
X8580220Y-10219680I-47500J0D01*
G01*
X8580220Y-10469680D02*
G75*
G03*
X8580220Y-10469680I-47500J0D01*
G01*
X15377740Y-9641860D02*
G75*
G03*
X15377740Y-9641860I-47500J0D01*
G01*
X15377740Y-9891860D02*
G75*
G03*
X15377740Y-9891860I-47500J0D01*
G01*
X15377740Y-10141860D02*
G75*
G03*
X15377740Y-10141860I-47500J0D01*
G01*
X15377740Y-10391860D02*
G75*
G03*
X15377740Y-10391860I-47500J0D01*
G01*
D14*
X8300000Y-8640000D02*
X8300000Y-8960000D01*
X8140000Y-8800000D02*
X8460000Y-8800000D01*
X8300000Y-11140000D02*
X8300000Y-11460000D01*
X8140000Y-11300000D02*
X8460000Y-11300000D01*
X15700000Y-8640000D02*
X15700000Y-8960000D01*
X15540000Y-8800000D02*
X15860000Y-8800000D01*
X15700000Y-11140000D02*
X15700000Y-11460000D01*
X15540000Y-11300000D02*
X15860000Y-11300000D01*
D11*
X8252619Y-11815476D02*
X8252619Y-11615476D01*
X8300238Y-11615476D01*
X8328809Y-11625000D01*
X8347857Y-11644048D01*
X8357381Y-11663095D01*
X8366905Y-11701190D01*
X8366905Y-11729762D01*
X8357381Y-11767857D01*
X8347857Y-11786905D01*
X8328809Y-11805952D01*
X8300238Y-11815476D01*
X8252619Y-11815476D01*
X8452619Y-11815476D02*
X8452619Y-11682143D01*
X8452619Y-11720238D02*
X8462143Y-11701190D01*
X8471667Y-11691667D01*
X8490714Y-11682143D01*
X8509762Y-11682143D01*
X8576429Y-11815476D02*
X8576429Y-11682143D01*
X8576429Y-11615476D02*
X8566905Y-11625000D01*
X8576429Y-11634524D01*
X8585952Y-11625000D01*
X8576429Y-11615476D01*
X8576429Y-11634524D01*
X8700238Y-11815476D02*
X8681190Y-11805952D01*
X8671667Y-11786905D01*
X8671667Y-11615476D01*
X8805000Y-11815476D02*
X8785952Y-11805952D01*
X8776429Y-11786905D01*
X8776429Y-11615476D01*
X9033571Y-11815476D02*
X9033571Y-11615476D01*
X9100238Y-11758333D01*
X9166905Y-11615476D01*
X9166905Y-11815476D01*
X9347857Y-11815476D02*
X9347857Y-11710714D01*
X9338333Y-11691667D01*
X9319286Y-11682143D01*
X9281190Y-11682143D01*
X9262143Y-11691667D01*
X9347857Y-11805952D02*
X9328810Y-11815476D01*
X9281190Y-11815476D01*
X9262143Y-11805952D01*
X9252619Y-11786905D01*
X9252619Y-11767857D01*
X9262143Y-11748809D01*
X9281190Y-11739286D01*
X9328810Y-11739286D01*
X9347857Y-11729762D01*
X9443095Y-11682143D02*
X9443095Y-11882143D01*
X9443095Y-11691667D02*
X9462143Y-11682143D01*
X9500238Y-11682143D01*
X9519286Y-11691667D01*
X9528810Y-11701190D01*
X9538333Y-11720238D01*
X9538333Y-11777381D01*
X9528810Y-11796428D01*
X9519286Y-11805952D01*
X9500238Y-11815476D01*
X9462143Y-11815476D01*
X9443095Y-11805952D01*
X9624048Y-11796428D02*
X9633571Y-11805952D01*
X9624048Y-11815476D01*
X9614524Y-11805952D01*
X9624048Y-11796428D01*
X9624048Y-11815476D01*
X9624048Y-11691667D02*
X9633571Y-11701190D01*
X9624048Y-11710714D01*
X9614524Y-11701190D01*
X9624048Y-11691667D01*
X9624048Y-11710714D01*
D12*
X7955000Y-12125000D02*
X7995000Y-12165000D01*
X7995000Y-12125000D02*
X7955000Y-12165000D01*
D11*
X8290714Y-12035476D02*
X8309762Y-12035476D01*
X8328809Y-12045000D01*
X8338333Y-12054524D01*
X8347857Y-12073571D01*
X8357381Y-12111667D01*
X8357381Y-12159286D01*
X8347857Y-12197381D01*
X8338333Y-12216428D01*
X8328809Y-12225952D01*
X8309762Y-12235476D01*
X8290714Y-12235476D01*
X8271667Y-12225952D01*
X8262143Y-12216428D01*
X8252619Y-12197381D01*
X8243095Y-12159286D01*
X8243095Y-12111667D01*
X8252619Y-12073571D01*
X8262143Y-12054524D01*
X8271667Y-12045000D01*
X8290714Y-12035476D01*
X8443095Y-12216428D02*
X8452619Y-12225952D01*
X8443095Y-12235476D01*
X8433571Y-12225952D01*
X8443095Y-12216428D01*
X8443095Y-12235476D01*
X8624048Y-12102143D02*
X8624048Y-12235476D01*
X8576429Y-12025952D02*
X8528810Y-12168809D01*
X8652619Y-12168809D01*
X8766905Y-12035476D02*
X8785952Y-12035476D01*
X8805000Y-12045000D01*
X8814524Y-12054524D01*
X8824048Y-12073571D01*
X8833571Y-12111667D01*
X8833571Y-12159286D01*
X8824048Y-12197381D01*
X8814524Y-12216428D01*
X8805000Y-12225952D01*
X8785952Y-12235476D01*
X8766905Y-12235476D01*
X8747857Y-12225952D01*
X8738333Y-12216428D01*
X8728810Y-12197381D01*
X8719286Y-12159286D01*
X8719286Y-12111667D01*
X8728810Y-12073571D01*
X8738333Y-12054524D01*
X8747857Y-12045000D01*
X8766905Y-12035476D01*
X8957381Y-12035476D02*
X8976429Y-12035476D01*
X8995476Y-12045000D01*
X9005000Y-12054524D01*
X9014524Y-12073571D01*
X9024048Y-12111667D01*
X9024048Y-12159286D01*
X9014524Y-12197381D01*
X9005000Y-12216428D01*
X8995476Y-12225952D01*
X8976429Y-12235476D01*
X8957381Y-12235476D01*
X8938333Y-12225952D01*
X8928810Y-12216428D01*
X8919286Y-12197381D01*
X8909762Y-12159286D01*
X8909762Y-12111667D01*
X8919286Y-12073571D01*
X8928810Y-12054524D01*
X8938333Y-12045000D01*
X8957381Y-12035476D01*
X9109762Y-12235476D02*
X9109762Y-12102143D01*
X9109762Y-12121190D02*
X9119286Y-12111667D01*
X9138333Y-12102143D01*
X9166905Y-12102143D01*
X9185952Y-12111667D01*
X9195476Y-12130714D01*
X9195476Y-12235476D01*
X9195476Y-12130714D02*
X9205000Y-12111667D01*
X9224048Y-12102143D01*
X9252619Y-12102143D01*
X9271667Y-12111667D01*
X9281190Y-12130714D01*
X9281190Y-12235476D01*
X9376429Y-12235476D02*
X9376429Y-12102143D01*
X9376429Y-12121190D02*
X9385952Y-12111667D01*
X9405000Y-12102143D01*
X9433571Y-12102143D01*
X9452619Y-12111667D01*
X9462143Y-12130714D01*
X9462143Y-12235476D01*
X9462143Y-12130714D02*
X9471667Y-12111667D01*
X9490714Y-12102143D01*
X9519286Y-12102143D01*
X9538333Y-12111667D01*
X9547857Y-12130714D01*
X9547857Y-12235476D01*
X9938333Y-12025952D02*
X9766905Y-12283095D01*
X10195476Y-12035476D02*
X10214524Y-12035476D01*
X10233571Y-12045000D01*
X10243095Y-12054524D01*
X10252619Y-12073571D01*
X10262143Y-12111667D01*
X10262143Y-12159286D01*
X10252619Y-12197381D01*
X10243095Y-12216428D01*
X10233571Y-12225952D01*
X10214524Y-12235476D01*
X10195476Y-12235476D01*
X10176429Y-12225952D01*
X10166905Y-12216428D01*
X10157381Y-12197381D01*
X10147857Y-12159286D01*
X10147857Y-12111667D01*
X10157381Y-12073571D01*
X10166905Y-12054524D01*
X10176429Y-12045000D01*
X10195476Y-12035476D01*
X10347857Y-12216428D02*
X10357381Y-12225952D01*
X10347857Y-12235476D01*
X10338333Y-12225952D01*
X10347857Y-12216428D01*
X10347857Y-12235476D01*
X10481190Y-12035476D02*
X10500238Y-12035476D01*
X10519286Y-12045000D01*
X10528810Y-12054524D01*
X10538333Y-12073571D01*
X10547857Y-12111667D01*
X10547857Y-12159286D01*
X10538333Y-12197381D01*
X10528810Y-12216428D01*
X10519286Y-12225952D01*
X10500238Y-12235476D01*
X10481190Y-12235476D01*
X10462143Y-12225952D01*
X10452619Y-12216428D01*
X10443095Y-12197381D01*
X10433571Y-12159286D01*
X10433571Y-12111667D01*
X10443095Y-12073571D01*
X10452619Y-12054524D01*
X10462143Y-12045000D01*
X10481190Y-12035476D01*
X10738333Y-12235476D02*
X10624048Y-12235476D01*
X10681190Y-12235476D02*
X10681190Y-12035476D01*
X10662143Y-12064048D01*
X10643095Y-12083095D01*
X10624048Y-12092619D01*
X10919286Y-12035476D02*
X10824048Y-12035476D01*
X10814524Y-12130714D01*
X10824048Y-12121190D01*
X10843095Y-12111667D01*
X10890714Y-12111667D01*
X10909762Y-12121190D01*
X10919286Y-12130714D01*
X10928810Y-12149762D01*
X10928810Y-12197381D01*
X10919286Y-12216428D01*
X10909762Y-12225952D01*
X10890714Y-12235476D01*
X10843095Y-12235476D01*
X10824048Y-12225952D01*
X10814524Y-12216428D01*
X10995476Y-12035476D02*
X11128810Y-12035476D01*
X11043095Y-12235476D01*
X11195476Y-12035476D02*
X11195476Y-12073571D01*
X11271667Y-12035476D02*
X11271667Y-12073571D01*
X11566905Y-12311667D02*
X11557381Y-12302143D01*
X11538333Y-12273571D01*
X11528809Y-12254524D01*
X11519286Y-12225952D01*
X11509762Y-12178333D01*
X11509762Y-12140238D01*
X11519286Y-12092619D01*
X11528809Y-12064048D01*
X11538333Y-12045000D01*
X11557381Y-12016428D01*
X11566905Y-12006905D01*
X11624048Y-12035476D02*
X11747857Y-12035476D01*
X11681190Y-12111667D01*
X11709762Y-12111667D01*
X11728809Y-12121190D01*
X11738333Y-12130714D01*
X11747857Y-12149762D01*
X11747857Y-12197381D01*
X11738333Y-12216428D01*
X11728809Y-12225952D01*
X11709762Y-12235476D01*
X11652619Y-12235476D01*
X11633571Y-12225952D01*
X11624048Y-12216428D01*
X11985952Y-12235476D02*
X11985952Y-12035476D01*
X12071667Y-12235476D02*
X12071667Y-12130714D01*
X12062143Y-12111667D01*
X12043095Y-12102143D01*
X12014524Y-12102143D01*
X11995476Y-12111667D01*
X11985952Y-12121190D01*
X12195476Y-12235476D02*
X12176428Y-12225952D01*
X12166905Y-12216428D01*
X12157381Y-12197381D01*
X12157381Y-12140238D01*
X12166905Y-12121190D01*
X12176428Y-12111667D01*
X12195476Y-12102143D01*
X12224048Y-12102143D01*
X12243095Y-12111667D01*
X12252619Y-12121190D01*
X12262143Y-12140238D01*
X12262143Y-12197381D01*
X12252619Y-12216428D01*
X12243095Y-12225952D01*
X12224048Y-12235476D01*
X12195476Y-12235476D01*
X12376428Y-12235476D02*
X12357381Y-12225952D01*
X12347857Y-12206905D01*
X12347857Y-12035476D01*
X12528809Y-12225952D02*
X12509762Y-12235476D01*
X12471667Y-12235476D01*
X12452619Y-12225952D01*
X12443095Y-12206905D01*
X12443095Y-12130714D01*
X12452619Y-12111667D01*
X12471667Y-12102143D01*
X12509762Y-12102143D01*
X12528809Y-12111667D01*
X12538333Y-12130714D01*
X12538333Y-12149762D01*
X12443095Y-12168809D01*
X12614524Y-12225952D02*
X12633571Y-12235476D01*
X12671667Y-12235476D01*
X12690714Y-12225952D01*
X12700238Y-12206905D01*
X12700238Y-12197381D01*
X12690714Y-12178333D01*
X12671667Y-12168809D01*
X12643095Y-12168809D01*
X12624048Y-12159286D01*
X12614524Y-12140238D01*
X12614524Y-12130714D01*
X12624048Y-12111667D01*
X12643095Y-12102143D01*
X12671667Y-12102143D01*
X12690714Y-12111667D01*
X12766905Y-12311667D02*
X12776428Y-12302143D01*
X12795476Y-12273571D01*
X12805000Y-12254524D01*
X12814524Y-12225952D01*
X12824048Y-12178333D01*
X12824048Y-12140238D01*
X12814524Y-12092619D01*
X12805000Y-12064048D01*
X12795476Y-12045000D01*
X12776428Y-12016428D01*
X12766905Y-12006905D01*
D13*
X7995000Y-12409000D02*
G75*
G03*
X7995000Y-12409000I-47500J0D01*
G01*
D11*
X8290714Y-12299476D02*
X8309762Y-12299476D01*
X8328809Y-12309000D01*
X8338333Y-12318524D01*
X8347857Y-12337571D01*
X8357381Y-12375667D01*
X8357381Y-12423286D01*
X8347857Y-12461381D01*
X8338333Y-12480428D01*
X8328809Y-12489952D01*
X8309762Y-12499476D01*
X8290714Y-12499476D01*
X8271667Y-12489952D01*
X8262143Y-12480428D01*
X8252619Y-12461381D01*
X8243095Y-12423286D01*
X8243095Y-12375667D01*
X8252619Y-12337571D01*
X8262143Y-12318524D01*
X8271667Y-12309000D01*
X8290714Y-12299476D01*
X8443095Y-12480428D02*
X8452619Y-12489952D01*
X8443095Y-12499476D01*
X8433571Y-12489952D01*
X8443095Y-12480428D01*
X8443095Y-12499476D01*
X8547857Y-12499476D02*
X8585952Y-12499476D01*
X8605000Y-12489952D01*
X8614524Y-12480428D01*
X8633571Y-12451857D01*
X8643095Y-12413762D01*
X8643095Y-12337571D01*
X8633571Y-12318524D01*
X8624048Y-12309000D01*
X8605000Y-12299476D01*
X8566905Y-12299476D01*
X8547857Y-12309000D01*
X8538333Y-12318524D01*
X8528810Y-12337571D01*
X8528810Y-12385190D01*
X8538333Y-12404238D01*
X8547857Y-12413762D01*
X8566905Y-12423286D01*
X8605000Y-12423286D01*
X8624048Y-12413762D01*
X8633571Y-12404238D01*
X8643095Y-12385190D01*
X8824048Y-12299476D02*
X8728810Y-12299476D01*
X8719286Y-12394714D01*
X8728810Y-12385190D01*
X8747857Y-12375667D01*
X8795476Y-12375667D01*
X8814524Y-12385190D01*
X8824048Y-12394714D01*
X8833571Y-12413762D01*
X8833571Y-12461381D01*
X8824048Y-12480428D01*
X8814524Y-12489952D01*
X8795476Y-12499476D01*
X8747857Y-12499476D01*
X8728810Y-12489952D01*
X8719286Y-12480428D01*
X8957381Y-12299476D02*
X8976429Y-12299476D01*
X8995476Y-12309000D01*
X9005000Y-12318524D01*
X9014524Y-12337571D01*
X9024048Y-12375667D01*
X9024048Y-12423286D01*
X9014524Y-12461381D01*
X9005000Y-12480428D01*
X8995476Y-12489952D01*
X8976429Y-12499476D01*
X8957381Y-12499476D01*
X8938333Y-12489952D01*
X8928810Y-12480428D01*
X8919286Y-12461381D01*
X8909762Y-12423286D01*
X8909762Y-12375667D01*
X8919286Y-12337571D01*
X8928810Y-12318524D01*
X8938333Y-12309000D01*
X8957381Y-12299476D01*
X9109762Y-12499476D02*
X9109762Y-12366143D01*
X9109762Y-12385190D02*
X9119286Y-12375667D01*
X9138333Y-12366143D01*
X9166905Y-12366143D01*
X9185952Y-12375667D01*
X9195476Y-12394714D01*
X9195476Y-12499476D01*
X9195476Y-12394714D02*
X9205000Y-12375667D01*
X9224048Y-12366143D01*
X9252619Y-12366143D01*
X9271667Y-12375667D01*
X9281190Y-12394714D01*
X9281190Y-12499476D01*
X9376429Y-12499476D02*
X9376429Y-12366143D01*
X9376429Y-12385190D02*
X9385952Y-12375667D01*
X9405000Y-12366143D01*
X9433571Y-12366143D01*
X9452619Y-12375667D01*
X9462143Y-12394714D01*
X9462143Y-12499476D01*
X9462143Y-12394714D02*
X9471667Y-12375667D01*
X9490714Y-12366143D01*
X9519286Y-12366143D01*
X9538333Y-12375667D01*
X9547857Y-12394714D01*
X9547857Y-12499476D01*
X9938333Y-12289952D02*
X9766905Y-12547095D01*
X10195476Y-12299476D02*
X10214524Y-12299476D01*
X10233571Y-12309000D01*
X10243095Y-12318524D01*
X10252619Y-12337571D01*
X10262143Y-12375667D01*
X10262143Y-12423286D01*
X10252619Y-12461381D01*
X10243095Y-12480428D01*
X10233571Y-12489952D01*
X10214524Y-12499476D01*
X10195476Y-12499476D01*
X10176429Y-12489952D01*
X10166905Y-12480428D01*
X10157381Y-12461381D01*
X10147857Y-12423286D01*
X10147857Y-12375667D01*
X10157381Y-12337571D01*
X10166905Y-12318524D01*
X10176429Y-12309000D01*
X10195476Y-12299476D01*
X10347857Y-12480428D02*
X10357381Y-12489952D01*
X10347857Y-12499476D01*
X10338333Y-12489952D01*
X10347857Y-12480428D01*
X10347857Y-12499476D01*
X10481190Y-12299476D02*
X10500238Y-12299476D01*
X10519286Y-12309000D01*
X10528810Y-12318524D01*
X10538333Y-12337571D01*
X10547857Y-12375667D01*
X10547857Y-12423286D01*
X10538333Y-12461381D01*
X10528810Y-12480428D01*
X10519286Y-12489952D01*
X10500238Y-12499476D01*
X10481190Y-12499476D01*
X10462143Y-12489952D01*
X10452619Y-12480428D01*
X10443095Y-12461381D01*
X10433571Y-12423286D01*
X10433571Y-12375667D01*
X10443095Y-12337571D01*
X10452619Y-12318524D01*
X10462143Y-12309000D01*
X10481190Y-12299476D01*
X10614524Y-12299476D02*
X10738333Y-12299476D01*
X10671667Y-12375667D01*
X10700238Y-12375667D01*
X10719286Y-12385190D01*
X10728810Y-12394714D01*
X10738333Y-12413762D01*
X10738333Y-12461381D01*
X10728810Y-12480428D01*
X10719286Y-12489952D01*
X10700238Y-12499476D01*
X10643095Y-12499476D01*
X10624048Y-12489952D01*
X10614524Y-12480428D01*
X10805000Y-12299476D02*
X10938333Y-12299476D01*
X10852619Y-12499476D01*
X11100238Y-12366143D02*
X11100238Y-12499476D01*
X11052619Y-12289952D02*
X11005000Y-12432809D01*
X11128810Y-12432809D01*
X11195476Y-12299476D02*
X11195476Y-12337571D01*
X11271667Y-12299476D02*
X11271667Y-12337571D01*
X11566905Y-12575667D02*
X11557381Y-12566143D01*
X11538333Y-12537571D01*
X11528809Y-12518524D01*
X11519286Y-12489952D01*
X11509762Y-12442333D01*
X11509762Y-12404238D01*
X11519286Y-12356619D01*
X11528809Y-12328048D01*
X11538333Y-12309000D01*
X11557381Y-12280428D01*
X11566905Y-12270905D01*
X11671667Y-12385190D02*
X11652619Y-12375667D01*
X11643095Y-12366143D01*
X11633571Y-12347095D01*
X11633571Y-12337571D01*
X11643095Y-12318524D01*
X11652619Y-12309000D01*
X11671667Y-12299476D01*
X11709762Y-12299476D01*
X11728809Y-12309000D01*
X11738333Y-12318524D01*
X11747857Y-12337571D01*
X11747857Y-12347095D01*
X11738333Y-12366143D01*
X11728809Y-12375667D01*
X11709762Y-12385190D01*
X11671667Y-12385190D01*
X11652619Y-12394714D01*
X11643095Y-12404238D01*
X11633571Y-12423286D01*
X11633571Y-12461381D01*
X11643095Y-12480428D01*
X11652619Y-12489952D01*
X11671667Y-12499476D01*
X11709762Y-12499476D01*
X11728809Y-12489952D01*
X11738333Y-12480428D01*
X11747857Y-12461381D01*
X11747857Y-12423286D01*
X11738333Y-12404238D01*
X11728809Y-12394714D01*
X11709762Y-12385190D01*
X11985952Y-12499476D02*
X11985952Y-12299476D01*
X12071667Y-12499476D02*
X12071667Y-12394714D01*
X12062143Y-12375667D01*
X12043095Y-12366143D01*
X12014524Y-12366143D01*
X11995476Y-12375667D01*
X11985952Y-12385190D01*
X12195476Y-12499476D02*
X12176428Y-12489952D01*
X12166905Y-12480428D01*
X12157381Y-12461381D01*
X12157381Y-12404238D01*
X12166905Y-12385190D01*
X12176428Y-12375667D01*
X12195476Y-12366143D01*
X12224048Y-12366143D01*
X12243095Y-12375667D01*
X12252619Y-12385190D01*
X12262143Y-12404238D01*
X12262143Y-12461381D01*
X12252619Y-12480428D01*
X12243095Y-12489952D01*
X12224048Y-12499476D01*
X12195476Y-12499476D01*
X12376428Y-12499476D02*
X12357381Y-12489952D01*
X12347857Y-12470905D01*
X12347857Y-12299476D01*
X12528809Y-12489952D02*
X12509762Y-12499476D01*
X12471667Y-12499476D01*
X12452619Y-12489952D01*
X12443095Y-12470905D01*
X12443095Y-12394714D01*
X12452619Y-12375667D01*
X12471667Y-12366143D01*
X12509762Y-12366143D01*
X12528809Y-12375667D01*
X12538333Y-12394714D01*
X12538333Y-12413762D01*
X12443095Y-12432809D01*
X12614524Y-12489952D02*
X12633571Y-12499476D01*
X12671667Y-12499476D01*
X12690714Y-12489952D01*
X12700238Y-12470905D01*
X12700238Y-12461381D01*
X12690714Y-12442333D01*
X12671667Y-12432809D01*
X12643095Y-12432809D01*
X12624048Y-12423286D01*
X12614524Y-12404238D01*
X12614524Y-12394714D01*
X12624048Y-12375667D01*
X12643095Y-12366143D01*
X12671667Y-12366143D01*
X12690714Y-12375667D01*
X12766905Y-12575667D02*
X12776428Y-12566143D01*
X12795476Y-12537571D01*
X12805000Y-12518524D01*
X12814524Y-12489952D01*
X12824048Y-12442333D01*
X12824048Y-12404238D01*
X12814524Y-12356619D01*
X12805000Y-12328048D01*
X12795476Y-12309000D01*
X12776428Y-12280428D01*
X12766905Y-12270905D01*
X7895000Y-12573000D02*
X7895000Y-12773000D01*
X7795000Y-12673000D02*
X7995000Y-12673000D01*
X8233571Y-12563476D02*
X8357381Y-12563476D01*
X8290714Y-12639667D01*
X8319286Y-12639667D01*
X8338333Y-12649190D01*
X8347857Y-12658714D01*
X8357381Y-12677762D01*
X8357381Y-12725381D01*
X8347857Y-12744428D01*
X8338333Y-12753952D01*
X8319286Y-12763476D01*
X8262143Y-12763476D01*
X8243095Y-12753952D01*
X8233571Y-12744428D01*
X8443095Y-12744428D02*
X8452619Y-12753952D01*
X8443095Y-12763476D01*
X8433571Y-12753952D01*
X8443095Y-12744428D01*
X8443095Y-12763476D01*
X8528810Y-12582524D02*
X8538333Y-12573000D01*
X8557381Y-12563476D01*
X8605000Y-12563476D01*
X8624048Y-12573000D01*
X8633571Y-12582524D01*
X8643095Y-12601571D01*
X8643095Y-12620619D01*
X8633571Y-12649190D01*
X8519286Y-12763476D01*
X8643095Y-12763476D01*
X8766905Y-12563476D02*
X8785952Y-12563476D01*
X8805000Y-12573000D01*
X8814524Y-12582524D01*
X8824048Y-12601571D01*
X8833571Y-12639667D01*
X8833571Y-12687286D01*
X8824048Y-12725381D01*
X8814524Y-12744428D01*
X8805000Y-12753952D01*
X8785952Y-12763476D01*
X8766905Y-12763476D01*
X8747857Y-12753952D01*
X8738333Y-12744428D01*
X8728810Y-12725381D01*
X8719286Y-12687286D01*
X8719286Y-12639667D01*
X8728810Y-12601571D01*
X8738333Y-12582524D01*
X8747857Y-12573000D01*
X8766905Y-12563476D01*
X8957381Y-12563476D02*
X8976429Y-12563476D01*
X8995476Y-12573000D01*
X9005000Y-12582524D01*
X9014524Y-12601571D01*
X9024048Y-12639667D01*
X9024048Y-12687286D01*
X9014524Y-12725381D01*
X9005000Y-12744428D01*
X8995476Y-12753952D01*
X8976429Y-12763476D01*
X8957381Y-12763476D01*
X8938333Y-12753952D01*
X8928810Y-12744428D01*
X8919286Y-12725381D01*
X8909762Y-12687286D01*
X8909762Y-12639667D01*
X8919286Y-12601571D01*
X8928810Y-12582524D01*
X8938333Y-12573000D01*
X8957381Y-12563476D01*
X9109762Y-12763476D02*
X9109762Y-12630143D01*
X9109762Y-12649190D02*
X9119286Y-12639667D01*
X9138333Y-12630143D01*
X9166905Y-12630143D01*
X9185952Y-12639667D01*
X9195476Y-12658714D01*
X9195476Y-12763476D01*
X9195476Y-12658714D02*
X9205000Y-12639667D01*
X9224048Y-12630143D01*
X9252619Y-12630143D01*
X9271667Y-12639667D01*
X9281190Y-12658714D01*
X9281190Y-12763476D01*
X9376429Y-12763476D02*
X9376429Y-12630143D01*
X9376429Y-12649190D02*
X9385952Y-12639667D01*
X9405000Y-12630143D01*
X9433571Y-12630143D01*
X9452619Y-12639667D01*
X9462143Y-12658714D01*
X9462143Y-12763476D01*
X9462143Y-12658714D02*
X9471667Y-12639667D01*
X9490714Y-12630143D01*
X9519286Y-12630143D01*
X9538333Y-12639667D01*
X9547857Y-12658714D01*
X9547857Y-12763476D01*
X9938333Y-12553952D02*
X9766905Y-12811095D01*
X10195476Y-12563476D02*
X10214524Y-12563476D01*
X10233571Y-12573000D01*
X10243095Y-12582524D01*
X10252619Y-12601571D01*
X10262143Y-12639667D01*
X10262143Y-12687286D01*
X10252619Y-12725381D01*
X10243095Y-12744428D01*
X10233571Y-12753952D01*
X10214524Y-12763476D01*
X10195476Y-12763476D01*
X10176429Y-12753952D01*
X10166905Y-12744428D01*
X10157381Y-12725381D01*
X10147857Y-12687286D01*
X10147857Y-12639667D01*
X10157381Y-12601571D01*
X10166905Y-12582524D01*
X10176429Y-12573000D01*
X10195476Y-12563476D01*
X10347857Y-12744428D02*
X10357381Y-12753952D01*
X10347857Y-12763476D01*
X10338333Y-12753952D01*
X10347857Y-12744428D01*
X10347857Y-12763476D01*
X10547857Y-12763476D02*
X10433571Y-12763476D01*
X10490714Y-12763476D02*
X10490714Y-12563476D01*
X10471667Y-12592048D01*
X10452619Y-12611095D01*
X10433571Y-12620619D01*
X10624048Y-12582524D02*
X10633571Y-12573000D01*
X10652619Y-12563476D01*
X10700238Y-12563476D01*
X10719286Y-12573000D01*
X10728810Y-12582524D01*
X10738333Y-12601571D01*
X10738333Y-12620619D01*
X10728810Y-12649190D01*
X10614524Y-12763476D01*
X10738333Y-12763476D01*
X10909762Y-12563476D02*
X10871667Y-12563476D01*
X10852619Y-12573000D01*
X10843095Y-12582524D01*
X10824048Y-12611095D01*
X10814524Y-12649190D01*
X10814524Y-12725381D01*
X10824048Y-12744428D01*
X10833571Y-12753952D01*
X10852619Y-12763476D01*
X10890714Y-12763476D01*
X10909762Y-12753952D01*
X10919286Y-12744428D01*
X10928810Y-12725381D01*
X10928810Y-12677762D01*
X10919286Y-12658714D01*
X10909762Y-12649190D01*
X10890714Y-12639667D01*
X10852619Y-12639667D01*
X10833571Y-12649190D01*
X10824048Y-12658714D01*
X10814524Y-12677762D01*
X11052619Y-12563476D02*
X11071667Y-12563476D01*
X11090714Y-12573000D01*
X11100238Y-12582524D01*
X11109762Y-12601571D01*
X11119286Y-12639667D01*
X11119286Y-12687286D01*
X11109762Y-12725381D01*
X11100238Y-12744428D01*
X11090714Y-12753952D01*
X11071667Y-12763476D01*
X11052619Y-12763476D01*
X11033571Y-12753952D01*
X11024048Y-12744428D01*
X11014524Y-12725381D01*
X11005000Y-12687286D01*
X11005000Y-12639667D01*
X11014524Y-12601571D01*
X11024048Y-12582524D01*
X11033571Y-12573000D01*
X11052619Y-12563476D01*
X11195476Y-12563476D02*
X11195476Y-12601571D01*
X11271667Y-12563476D02*
X11271667Y-12601571D01*
X11566905Y-12839667D02*
X11557381Y-12830143D01*
X11538333Y-12801571D01*
X11528809Y-12782524D01*
X11519286Y-12753952D01*
X11509762Y-12706333D01*
X11509762Y-12668238D01*
X11519286Y-12620619D01*
X11528809Y-12592048D01*
X11538333Y-12573000D01*
X11557381Y-12544428D01*
X11566905Y-12534905D01*
X11728809Y-12630143D02*
X11728809Y-12763476D01*
X11681190Y-12553952D02*
X11633571Y-12696809D01*
X11757381Y-12696809D01*
X11985952Y-12763476D02*
X11985952Y-12563476D01*
X12071667Y-12763476D02*
X12071667Y-12658714D01*
X12062143Y-12639667D01*
X12043095Y-12630143D01*
X12014524Y-12630143D01*
X11995476Y-12639667D01*
X11985952Y-12649190D01*
X12195476Y-12763476D02*
X12176428Y-12753952D01*
X12166905Y-12744428D01*
X12157381Y-12725381D01*
X12157381Y-12668238D01*
X12166905Y-12649190D01*
X12176428Y-12639667D01*
X12195476Y-12630143D01*
X12224048Y-12630143D01*
X12243095Y-12639667D01*
X12252619Y-12649190D01*
X12262143Y-12668238D01*
X12262143Y-12725381D01*
X12252619Y-12744428D01*
X12243095Y-12753952D01*
X12224048Y-12763476D01*
X12195476Y-12763476D01*
X12376428Y-12763476D02*
X12357381Y-12753952D01*
X12347857Y-12734905D01*
X12347857Y-12563476D01*
X12528809Y-12753952D02*
X12509762Y-12763476D01*
X12471667Y-12763476D01*
X12452619Y-12753952D01*
X12443095Y-12734905D01*
X12443095Y-12658714D01*
X12452619Y-12639667D01*
X12471667Y-12630143D01*
X12509762Y-12630143D01*
X12528809Y-12639667D01*
X12538333Y-12658714D01*
X12538333Y-12677762D01*
X12443095Y-12696809D01*
X12614524Y-12753952D02*
X12633571Y-12763476D01*
X12671667Y-12763476D01*
X12690714Y-12753952D01*
X12700238Y-12734905D01*
X12700238Y-12725381D01*
X12690714Y-12706333D01*
X12671667Y-12696809D01*
X12643095Y-12696809D01*
X12624048Y-12687286D01*
X12614524Y-12668238D01*
X12614524Y-12658714D01*
X12624048Y-12639667D01*
X12643095Y-12630143D01*
X12671667Y-12630143D01*
X12690714Y-12639667D01*
X12766905Y-12839667D02*
X12776428Y-12830143D01*
X12795476Y-12801571D01*
X12805000Y-12782524D01*
X12814524Y-12753952D01*
X12824048Y-12706333D01*
X12824048Y-12668238D01*
X12814524Y-12620619D01*
X12805000Y-12592048D01*
X12795476Y-12573000D01*
X12776428Y-12544428D01*
X12766905Y-12534905D01*
M02*
