%TF.GenerationSoftware,KiCad,Pcbnew,(6.0.6)*%
%TF.CreationDate,2022-07-27T09:36:35+09:00*%
%TF.ProjectId,arliss,61726c69-7373-42e6-9b69-6361645f7063,rev?*%
%TF.SameCoordinates,Original*%
%TF.FileFunction,Legend,Top*%
%TF.FilePolarity,Positive*%
%FSLAX46Y46*%
G04 Gerber Fmt 4.6, Leading zero omitted, Abs format (unit mm)*
G04 Created by KiCad (PCBNEW (6.0.6)) date 2022-07-27 09:36:35*
%MOMM*%
%LPD*%
G01*
G04 APERTURE LIST*
%ADD10C,0.150000*%
%ADD11C,0.120000*%
G04 APERTURE END LIST*
D10*
X146476514Y-103628957D02*
X145976514Y-103628957D01*
X145976514Y-104414671D02*
X145976514Y-102914671D01*
X146690800Y-102914671D01*
X147262228Y-102914671D02*
X147262228Y-104128957D01*
X147333657Y-104271814D01*
X147405085Y-104343242D01*
X147547942Y-104414671D01*
X147833657Y-104414671D01*
X147976514Y-104343242D01*
X148047942Y-104271814D01*
X148119371Y-104128957D01*
X148119371Y-102914671D01*
X148762228Y-104343242D02*
X148976514Y-104414671D01*
X149333657Y-104414671D01*
X149476514Y-104343242D01*
X149547942Y-104271814D01*
X149619371Y-104128957D01*
X149619371Y-103986100D01*
X149547942Y-103843242D01*
X149476514Y-103771814D01*
X149333657Y-103700385D01*
X149047942Y-103628957D01*
X148905085Y-103557528D01*
X148833657Y-103486100D01*
X148762228Y-103343242D01*
X148762228Y-103200385D01*
X148833657Y-103057528D01*
X148905085Y-102986100D01*
X149047942Y-102914671D01*
X149405085Y-102914671D01*
X149619371Y-102986100D01*
X150262228Y-104414671D02*
X150262228Y-102914671D01*
X151262228Y-102914671D02*
X151547942Y-102914671D01*
X151690800Y-102986100D01*
X151833657Y-103128957D01*
X151905085Y-103414671D01*
X151905085Y-103914671D01*
X151833657Y-104200385D01*
X151690800Y-104343242D01*
X151547942Y-104414671D01*
X151262228Y-104414671D01*
X151119371Y-104343242D01*
X150976514Y-104200385D01*
X150905085Y-103914671D01*
X150905085Y-103414671D01*
X150976514Y-103128957D01*
X151119371Y-102986100D01*
X151262228Y-102914671D01*
X152547942Y-104414671D02*
X152547942Y-102914671D01*
X153405085Y-104414671D01*
X153405085Y-102914671D01*
X143369371Y-106829671D02*
X143369371Y-105329671D01*
X143940800Y-105329671D01*
X144083657Y-105401100D01*
X144155085Y-105472528D01*
X144226514Y-105615385D01*
X144226514Y-105829671D01*
X144155085Y-105972528D01*
X144083657Y-106043957D01*
X143940800Y-106115385D01*
X143369371Y-106115385D01*
X145726514Y-106686814D02*
X145655085Y-106758242D01*
X145440800Y-106829671D01*
X145297942Y-106829671D01*
X145083657Y-106758242D01*
X144940800Y-106615385D01*
X144869371Y-106472528D01*
X144797942Y-106186814D01*
X144797942Y-105972528D01*
X144869371Y-105686814D01*
X144940800Y-105543957D01*
X145083657Y-105401100D01*
X145297942Y-105329671D01*
X145440800Y-105329671D01*
X145655085Y-105401100D01*
X145726514Y-105472528D01*
X146869371Y-106043957D02*
X147083657Y-106115385D01*
X147155085Y-106186814D01*
X147226514Y-106329671D01*
X147226514Y-106543957D01*
X147155085Y-106686814D01*
X147083657Y-106758242D01*
X146940800Y-106829671D01*
X146369371Y-106829671D01*
X146369371Y-105329671D01*
X146869371Y-105329671D01*
X147012228Y-105401100D01*
X147083657Y-105472528D01*
X147155085Y-105615385D01*
X147155085Y-105758242D01*
X147083657Y-105901100D01*
X147012228Y-105972528D01*
X146869371Y-106043957D01*
X146369371Y-106043957D01*
X147512228Y-106972528D02*
X148655085Y-106972528D01*
X148797942Y-105329671D02*
X149297942Y-106829671D01*
X149797942Y-105329671D01*
X150297942Y-106043957D02*
X150797942Y-106043957D01*
X151012228Y-106829671D02*
X150297942Y-106829671D01*
X150297942Y-105329671D01*
X151012228Y-105329671D01*
X152512228Y-106829671D02*
X152012228Y-106115385D01*
X151655085Y-106829671D02*
X151655085Y-105329671D01*
X152226514Y-105329671D01*
X152369371Y-105401100D01*
X152440800Y-105472528D01*
X152512228Y-105615385D01*
X152512228Y-105829671D01*
X152440800Y-105972528D01*
X152369371Y-106043957D01*
X152226514Y-106115385D01*
X151655085Y-106115385D01*
X153083657Y-105472528D02*
X153155085Y-105401100D01*
X153297942Y-105329671D01*
X153655085Y-105329671D01*
X153797942Y-105401100D01*
X153869371Y-105472528D01*
X153940800Y-105615385D01*
X153940800Y-105758242D01*
X153869371Y-105972528D01*
X153012228Y-106829671D01*
X153940800Y-106829671D01*
X154583657Y-106686814D02*
X154655085Y-106758242D01*
X154583657Y-106829671D01*
X154512228Y-106758242D01*
X154583657Y-106686814D01*
X154583657Y-106829671D01*
X155583657Y-105329671D02*
X155726514Y-105329671D01*
X155869371Y-105401100D01*
X155940800Y-105472528D01*
X156012228Y-105615385D01*
X156083657Y-105901100D01*
X156083657Y-106258242D01*
X156012228Y-106543957D01*
X155940800Y-106686814D01*
X155869371Y-106758242D01*
X155726514Y-106829671D01*
X155583657Y-106829671D01*
X155440800Y-106758242D01*
X155369371Y-106686814D01*
X155297942Y-106543957D01*
X155226514Y-106258242D01*
X155226514Y-105901100D01*
X155297942Y-105615385D01*
X155369371Y-105472528D01*
X155440800Y-105401100D01*
X155583657Y-105329671D01*
X168020295Y-118477028D02*
X168782200Y-118477028D01*
X168591723Y-118667504D02*
X168782200Y-118477028D01*
X168591723Y-118286552D01*
X169448866Y-117857980D02*
X169639342Y-117857980D01*
X169734580Y-117905600D01*
X169829819Y-118000838D01*
X169877438Y-118191314D01*
X169877438Y-118524647D01*
X169829819Y-118715123D01*
X169734580Y-118810361D01*
X169639342Y-118857980D01*
X169448866Y-118857980D01*
X169353628Y-118810361D01*
X169258390Y-118715123D01*
X169210771Y-118524647D01*
X169210771Y-118191314D01*
X169258390Y-118000838D01*
X169353628Y-117905600D01*
X169448866Y-117857980D01*
X170639342Y-118334171D02*
X170306009Y-118334171D01*
X170306009Y-118857980D02*
X170306009Y-117857980D01*
X170782200Y-117857980D01*
X171496485Y-118334171D02*
X171163152Y-118334171D01*
X171163152Y-118857980D02*
X171163152Y-117857980D01*
X171639342Y-117857980D01*
X164327704Y-117883380D02*
X164518180Y-117883380D01*
X164613419Y-117931000D01*
X164708657Y-118026238D01*
X164756276Y-118216714D01*
X164756276Y-118550047D01*
X164708657Y-118740523D01*
X164613419Y-118835761D01*
X164518180Y-118883380D01*
X164327704Y-118883380D01*
X164232466Y-118835761D01*
X164137228Y-118740523D01*
X164089609Y-118550047D01*
X164089609Y-118216714D01*
X164137228Y-118026238D01*
X164232466Y-117931000D01*
X164327704Y-117883380D01*
X165184847Y-118883380D02*
X165184847Y-117883380D01*
X165756276Y-118883380D01*
X165756276Y-117883380D01*
X166994371Y-118502428D02*
X166232466Y-118502428D01*
X166422942Y-118692904D02*
X166232466Y-118502428D01*
X166422942Y-118311952D01*
%TO.C,5VConv1*%
X169747619Y-105362380D02*
X169271428Y-105362380D01*
X169223809Y-105838571D01*
X169271428Y-105790952D01*
X169366666Y-105743333D01*
X169604761Y-105743333D01*
X169700000Y-105790952D01*
X169747619Y-105838571D01*
X169795238Y-105933809D01*
X169795238Y-106171904D01*
X169747619Y-106267142D01*
X169700000Y-106314761D01*
X169604761Y-106362380D01*
X169366666Y-106362380D01*
X169271428Y-106314761D01*
X169223809Y-106267142D01*
X170080952Y-105362380D02*
X170414285Y-106362380D01*
X170747619Y-105362380D01*
X171652380Y-106267142D02*
X171604761Y-106314761D01*
X171461904Y-106362380D01*
X171366666Y-106362380D01*
X171223809Y-106314761D01*
X171128571Y-106219523D01*
X171080952Y-106124285D01*
X171033333Y-105933809D01*
X171033333Y-105790952D01*
X171080952Y-105600476D01*
X171128571Y-105505238D01*
X171223809Y-105410000D01*
X171366666Y-105362380D01*
X171461904Y-105362380D01*
X171604761Y-105410000D01*
X171652380Y-105457619D01*
X172223809Y-106362380D02*
X172128571Y-106314761D01*
X172080952Y-106267142D01*
X172033333Y-106171904D01*
X172033333Y-105886190D01*
X172080952Y-105790952D01*
X172128571Y-105743333D01*
X172223809Y-105695714D01*
X172366666Y-105695714D01*
X172461904Y-105743333D01*
X172509523Y-105790952D01*
X172557142Y-105886190D01*
X172557142Y-106171904D01*
X172509523Y-106267142D01*
X172461904Y-106314761D01*
X172366666Y-106362380D01*
X172223809Y-106362380D01*
X172985714Y-105695714D02*
X172985714Y-106362380D01*
X172985714Y-105790952D02*
X173033333Y-105743333D01*
X173128571Y-105695714D01*
X173271428Y-105695714D01*
X173366666Y-105743333D01*
X173414285Y-105838571D01*
X173414285Y-106362380D01*
X173795238Y-105695714D02*
X174033333Y-106362380D01*
X174271428Y-105695714D01*
X175176190Y-106362380D02*
X174604761Y-106362380D01*
X174890476Y-106362380D02*
X174890476Y-105362380D01*
X174795238Y-105505238D01*
X174700000Y-105600476D01*
X174604761Y-105648095D01*
%TO.C,MT_dr_R1*%
X100810714Y-84867380D02*
X100810714Y-83867380D01*
X101144047Y-84581666D01*
X101477380Y-83867380D01*
X101477380Y-84867380D01*
X101810714Y-83867380D02*
X102382142Y-83867380D01*
X102096428Y-84867380D02*
X102096428Y-83867380D01*
X102477380Y-84962619D02*
X103239285Y-84962619D01*
X103905952Y-84867380D02*
X103905952Y-83867380D01*
X103905952Y-84819761D02*
X103810714Y-84867380D01*
X103620238Y-84867380D01*
X103525000Y-84819761D01*
X103477380Y-84772142D01*
X103429761Y-84676904D01*
X103429761Y-84391190D01*
X103477380Y-84295952D01*
X103525000Y-84248333D01*
X103620238Y-84200714D01*
X103810714Y-84200714D01*
X103905952Y-84248333D01*
X104382142Y-84867380D02*
X104382142Y-84200714D01*
X104382142Y-84391190D02*
X104429761Y-84295952D01*
X104477380Y-84248333D01*
X104572619Y-84200714D01*
X104667857Y-84200714D01*
X104763095Y-84962619D02*
X105525000Y-84962619D01*
X106334523Y-84867380D02*
X106001190Y-84391190D01*
X105763095Y-84867380D02*
X105763095Y-83867380D01*
X106144047Y-83867380D01*
X106239285Y-83915000D01*
X106286904Y-83962619D01*
X106334523Y-84057857D01*
X106334523Y-84200714D01*
X106286904Y-84295952D01*
X106239285Y-84343571D01*
X106144047Y-84391190D01*
X105763095Y-84391190D01*
X107286904Y-84867380D02*
X106715476Y-84867380D01*
X107001190Y-84867380D02*
X107001190Y-83867380D01*
X106905952Y-84010238D01*
X106810714Y-84105476D01*
X106715476Y-84153095D01*
%TO.C,uart-i2c2*%
X85818571Y-84295714D02*
X85818571Y-84962380D01*
X85390000Y-84295714D02*
X85390000Y-84819523D01*
X85437619Y-84914761D01*
X85532857Y-84962380D01*
X85675714Y-84962380D01*
X85770952Y-84914761D01*
X85818571Y-84867142D01*
X86723333Y-84962380D02*
X86723333Y-84438571D01*
X86675714Y-84343333D01*
X86580476Y-84295714D01*
X86390000Y-84295714D01*
X86294761Y-84343333D01*
X86723333Y-84914761D02*
X86628095Y-84962380D01*
X86390000Y-84962380D01*
X86294761Y-84914761D01*
X86247142Y-84819523D01*
X86247142Y-84724285D01*
X86294761Y-84629047D01*
X86390000Y-84581428D01*
X86628095Y-84581428D01*
X86723333Y-84533809D01*
X87199523Y-84962380D02*
X87199523Y-84295714D01*
X87199523Y-84486190D02*
X87247142Y-84390952D01*
X87294761Y-84343333D01*
X87390000Y-84295714D01*
X87485238Y-84295714D01*
X87675714Y-84295714D02*
X88056666Y-84295714D01*
X87818571Y-83962380D02*
X87818571Y-84819523D01*
X87866190Y-84914761D01*
X87961428Y-84962380D01*
X88056666Y-84962380D01*
X88390000Y-84581428D02*
X89151904Y-84581428D01*
X89628095Y-84962380D02*
X89628095Y-84295714D01*
X89628095Y-83962380D02*
X89580476Y-84010000D01*
X89628095Y-84057619D01*
X89675714Y-84010000D01*
X89628095Y-83962380D01*
X89628095Y-84057619D01*
X90056666Y-84057619D02*
X90104285Y-84010000D01*
X90199523Y-83962380D01*
X90437619Y-83962380D01*
X90532857Y-84010000D01*
X90580476Y-84057619D01*
X90628095Y-84152857D01*
X90628095Y-84248095D01*
X90580476Y-84390952D01*
X90009047Y-84962380D01*
X90628095Y-84962380D01*
X91485238Y-84914761D02*
X91390000Y-84962380D01*
X91199523Y-84962380D01*
X91104285Y-84914761D01*
X91056666Y-84867142D01*
X91009047Y-84771904D01*
X91009047Y-84486190D01*
X91056666Y-84390952D01*
X91104285Y-84343333D01*
X91199523Y-84295714D01*
X91390000Y-84295714D01*
X91485238Y-84343333D01*
X91866190Y-84057619D02*
X91913809Y-84010000D01*
X92009047Y-83962380D01*
X92247142Y-83962380D01*
X92342380Y-84010000D01*
X92390000Y-84057619D01*
X92437619Y-84152857D01*
X92437619Y-84248095D01*
X92390000Y-84390952D01*
X91818571Y-84962380D01*
X92437619Y-84962380D01*
%TO.C,uart-i2c1*%
X168200714Y-92891428D02*
X168867380Y-92891428D01*
X168200714Y-93320000D02*
X168724523Y-93320000D01*
X168819761Y-93272380D01*
X168867380Y-93177142D01*
X168867380Y-93034285D01*
X168819761Y-92939047D01*
X168772142Y-92891428D01*
X168867380Y-91986666D02*
X168343571Y-91986666D01*
X168248333Y-92034285D01*
X168200714Y-92129523D01*
X168200714Y-92320000D01*
X168248333Y-92415238D01*
X168819761Y-91986666D02*
X168867380Y-92081904D01*
X168867380Y-92320000D01*
X168819761Y-92415238D01*
X168724523Y-92462857D01*
X168629285Y-92462857D01*
X168534047Y-92415238D01*
X168486428Y-92320000D01*
X168486428Y-92081904D01*
X168438809Y-91986666D01*
X168867380Y-91510476D02*
X168200714Y-91510476D01*
X168391190Y-91510476D02*
X168295952Y-91462857D01*
X168248333Y-91415238D01*
X168200714Y-91320000D01*
X168200714Y-91224761D01*
X168200714Y-91034285D02*
X168200714Y-90653333D01*
X167867380Y-90891428D02*
X168724523Y-90891428D01*
X168819761Y-90843809D01*
X168867380Y-90748571D01*
X168867380Y-90653333D01*
X168486428Y-90320000D02*
X168486428Y-89558095D01*
X168867380Y-89081904D02*
X168200714Y-89081904D01*
X167867380Y-89081904D02*
X167915000Y-89129523D01*
X167962619Y-89081904D01*
X167915000Y-89034285D01*
X167867380Y-89081904D01*
X167962619Y-89081904D01*
X167962619Y-88653333D02*
X167915000Y-88605714D01*
X167867380Y-88510476D01*
X167867380Y-88272380D01*
X167915000Y-88177142D01*
X167962619Y-88129523D01*
X168057857Y-88081904D01*
X168153095Y-88081904D01*
X168295952Y-88129523D01*
X168867380Y-88700952D01*
X168867380Y-88081904D01*
X168819761Y-87224761D02*
X168867380Y-87320000D01*
X168867380Y-87510476D01*
X168819761Y-87605714D01*
X168772142Y-87653333D01*
X168676904Y-87700952D01*
X168391190Y-87700952D01*
X168295952Y-87653333D01*
X168248333Y-87605714D01*
X168200714Y-87510476D01*
X168200714Y-87320000D01*
X168248333Y-87224761D01*
X168867380Y-86272380D02*
X168867380Y-86843809D01*
X168867380Y-86558095D02*
X167867380Y-86558095D01*
X168010238Y-86653333D01*
X168105476Y-86748571D01*
X168153095Y-86843809D01*
%TO.C,R_LiPo1*%
X144867380Y-115842857D02*
X144391190Y-116176190D01*
X144867380Y-116414285D02*
X143867380Y-116414285D01*
X143867380Y-116033333D01*
X143915000Y-115938095D01*
X143962619Y-115890476D01*
X144057857Y-115842857D01*
X144200714Y-115842857D01*
X144295952Y-115890476D01*
X144343571Y-115938095D01*
X144391190Y-116033333D01*
X144391190Y-116414285D01*
X144962619Y-115652380D02*
X144962619Y-114890476D01*
X144867380Y-114176190D02*
X144867380Y-114652380D01*
X143867380Y-114652380D01*
X144867380Y-113842857D02*
X144200714Y-113842857D01*
X143867380Y-113842857D02*
X143915000Y-113890476D01*
X143962619Y-113842857D01*
X143915000Y-113795238D01*
X143867380Y-113842857D01*
X143962619Y-113842857D01*
X144867380Y-113366666D02*
X143867380Y-113366666D01*
X143867380Y-112985714D01*
X143915000Y-112890476D01*
X143962619Y-112842857D01*
X144057857Y-112795238D01*
X144200714Y-112795238D01*
X144295952Y-112842857D01*
X144343571Y-112890476D01*
X144391190Y-112985714D01*
X144391190Y-113366666D01*
X144867380Y-112223809D02*
X144819761Y-112319047D01*
X144772142Y-112366666D01*
X144676904Y-112414285D01*
X144391190Y-112414285D01*
X144295952Y-112366666D01*
X144248333Y-112319047D01*
X144200714Y-112223809D01*
X144200714Y-112080952D01*
X144248333Y-111985714D01*
X144295952Y-111938095D01*
X144391190Y-111890476D01*
X144676904Y-111890476D01*
X144772142Y-111938095D01*
X144819761Y-111985714D01*
X144867380Y-112080952D01*
X144867380Y-112223809D01*
X144867380Y-110938095D02*
X144867380Y-111509523D01*
X144867380Y-111223809D02*
X143867380Y-111223809D01*
X144010238Y-111319047D01*
X144105476Y-111414285D01*
X144153095Y-111509523D01*
%TO.C,RST_SW1*%
X84443019Y-66067619D02*
X84919209Y-65734285D01*
X84443019Y-65496190D02*
X85443019Y-65496190D01*
X85443019Y-65877142D01*
X85395400Y-65972380D01*
X85347780Y-66020000D01*
X85252542Y-66067619D01*
X85109685Y-66067619D01*
X85014447Y-66020000D01*
X84966828Y-65972380D01*
X84919209Y-65877142D01*
X84919209Y-65496190D01*
X84490638Y-66448571D02*
X84443019Y-66591428D01*
X84443019Y-66829523D01*
X84490638Y-66924761D01*
X84538257Y-66972380D01*
X84633495Y-67020000D01*
X84728733Y-67020000D01*
X84823971Y-66972380D01*
X84871590Y-66924761D01*
X84919209Y-66829523D01*
X84966828Y-66639047D01*
X85014447Y-66543809D01*
X85062066Y-66496190D01*
X85157304Y-66448571D01*
X85252542Y-66448571D01*
X85347780Y-66496190D01*
X85395400Y-66543809D01*
X85443019Y-66639047D01*
X85443019Y-66877142D01*
X85395400Y-67020000D01*
X85443019Y-67305714D02*
X85443019Y-67877142D01*
X84443019Y-67591428D02*
X85443019Y-67591428D01*
X84347780Y-67972380D02*
X84347780Y-68734285D01*
X84490638Y-68924761D02*
X84443019Y-69067619D01*
X84443019Y-69305714D01*
X84490638Y-69400952D01*
X84538257Y-69448571D01*
X84633495Y-69496190D01*
X84728733Y-69496190D01*
X84823971Y-69448571D01*
X84871590Y-69400952D01*
X84919209Y-69305714D01*
X84966828Y-69115238D01*
X85014447Y-69020000D01*
X85062066Y-68972380D01*
X85157304Y-68924761D01*
X85252542Y-68924761D01*
X85347780Y-68972380D01*
X85395400Y-69020000D01*
X85443019Y-69115238D01*
X85443019Y-69353333D01*
X85395400Y-69496190D01*
X85443019Y-69829523D02*
X84443019Y-70067619D01*
X85157304Y-70258095D01*
X84443019Y-70448571D01*
X85443019Y-70686666D01*
X84443019Y-71591428D02*
X84443019Y-71020000D01*
X84443019Y-71305714D02*
X85443019Y-71305714D01*
X85300161Y-71210476D01*
X85204923Y-71115238D01*
X85157304Y-71020000D01*
%TO.C,Rnicr2*%
X127521561Y-124039580D02*
X127188228Y-123563390D01*
X126950133Y-124039580D02*
X126950133Y-123039580D01*
X127331085Y-123039580D01*
X127426323Y-123087200D01*
X127473942Y-123134819D01*
X127521561Y-123230057D01*
X127521561Y-123372914D01*
X127473942Y-123468152D01*
X127426323Y-123515771D01*
X127331085Y-123563390D01*
X126950133Y-123563390D01*
X127950133Y-123372914D02*
X127950133Y-124039580D01*
X127950133Y-123468152D02*
X127997752Y-123420533D01*
X128092990Y-123372914D01*
X128235847Y-123372914D01*
X128331085Y-123420533D01*
X128378704Y-123515771D01*
X128378704Y-124039580D01*
X128854895Y-124039580D02*
X128854895Y-123372914D01*
X128854895Y-123039580D02*
X128807276Y-123087200D01*
X128854895Y-123134819D01*
X128902514Y-123087200D01*
X128854895Y-123039580D01*
X128854895Y-123134819D01*
X129759657Y-123991961D02*
X129664419Y-124039580D01*
X129473942Y-124039580D01*
X129378704Y-123991961D01*
X129331085Y-123944342D01*
X129283466Y-123849104D01*
X129283466Y-123563390D01*
X129331085Y-123468152D01*
X129378704Y-123420533D01*
X129473942Y-123372914D01*
X129664419Y-123372914D01*
X129759657Y-123420533D01*
X130188228Y-124039580D02*
X130188228Y-123372914D01*
X130188228Y-123563390D02*
X130235847Y-123468152D01*
X130283466Y-123420533D01*
X130378704Y-123372914D01*
X130473942Y-123372914D01*
X130759657Y-123134819D02*
X130807276Y-123087200D01*
X130902514Y-123039580D01*
X131140609Y-123039580D01*
X131235847Y-123087200D01*
X131283466Y-123134819D01*
X131331085Y-123230057D01*
X131331085Y-123325295D01*
X131283466Y-123468152D01*
X130712038Y-124039580D01*
X131331085Y-124039580D01*
%TO.C,Rnicr1*%
X119749161Y-120381980D02*
X119415828Y-119905790D01*
X119177733Y-120381980D02*
X119177733Y-119381980D01*
X119558685Y-119381980D01*
X119653923Y-119429600D01*
X119701542Y-119477219D01*
X119749161Y-119572457D01*
X119749161Y-119715314D01*
X119701542Y-119810552D01*
X119653923Y-119858171D01*
X119558685Y-119905790D01*
X119177733Y-119905790D01*
X120177733Y-119715314D02*
X120177733Y-120381980D01*
X120177733Y-119810552D02*
X120225352Y-119762933D01*
X120320590Y-119715314D01*
X120463447Y-119715314D01*
X120558685Y-119762933D01*
X120606304Y-119858171D01*
X120606304Y-120381980D01*
X121082495Y-120381980D02*
X121082495Y-119715314D01*
X121082495Y-119381980D02*
X121034876Y-119429600D01*
X121082495Y-119477219D01*
X121130114Y-119429600D01*
X121082495Y-119381980D01*
X121082495Y-119477219D01*
X121987257Y-120334361D02*
X121892019Y-120381980D01*
X121701542Y-120381980D01*
X121606304Y-120334361D01*
X121558685Y-120286742D01*
X121511066Y-120191504D01*
X121511066Y-119905790D01*
X121558685Y-119810552D01*
X121606304Y-119762933D01*
X121701542Y-119715314D01*
X121892019Y-119715314D01*
X121987257Y-119762933D01*
X122415828Y-120381980D02*
X122415828Y-119715314D01*
X122415828Y-119905790D02*
X122463447Y-119810552D01*
X122511066Y-119762933D01*
X122606304Y-119715314D01*
X122701542Y-119715314D01*
X123558685Y-120381980D02*
X122987257Y-120381980D01*
X123272971Y-120381980D02*
X123272971Y-119381980D01*
X123177733Y-119524838D01*
X123082495Y-119620076D01*
X122987257Y-119667695D01*
%TO.C,release_detect1*%
X159855619Y-111238742D02*
X160522285Y-111238742D01*
X160331809Y-111238742D02*
X160427047Y-111286361D01*
X160474666Y-111333980D01*
X160522285Y-111429219D01*
X160522285Y-111524457D01*
X159903238Y-112238742D02*
X159855619Y-112143504D01*
X159855619Y-111953028D01*
X159903238Y-111857790D01*
X159998476Y-111810171D01*
X160379428Y-111810171D01*
X160474666Y-111857790D01*
X160522285Y-111953028D01*
X160522285Y-112143504D01*
X160474666Y-112238742D01*
X160379428Y-112286361D01*
X160284190Y-112286361D01*
X160188952Y-111810171D01*
X159855619Y-112857790D02*
X159903238Y-112762552D01*
X159998476Y-112714933D01*
X160855619Y-112714933D01*
X159903238Y-113619695D02*
X159855619Y-113524457D01*
X159855619Y-113333980D01*
X159903238Y-113238742D01*
X159998476Y-113191123D01*
X160379428Y-113191123D01*
X160474666Y-113238742D01*
X160522285Y-113333980D01*
X160522285Y-113524457D01*
X160474666Y-113619695D01*
X160379428Y-113667314D01*
X160284190Y-113667314D01*
X160188952Y-113191123D01*
X159855619Y-114524457D02*
X160379428Y-114524457D01*
X160474666Y-114476838D01*
X160522285Y-114381600D01*
X160522285Y-114191123D01*
X160474666Y-114095885D01*
X159903238Y-114524457D02*
X159855619Y-114429219D01*
X159855619Y-114191123D01*
X159903238Y-114095885D01*
X159998476Y-114048266D01*
X160093714Y-114048266D01*
X160188952Y-114095885D01*
X160236571Y-114191123D01*
X160236571Y-114429219D01*
X160284190Y-114524457D01*
X159903238Y-114953028D02*
X159855619Y-115048266D01*
X159855619Y-115238742D01*
X159903238Y-115333980D01*
X159998476Y-115381600D01*
X160046095Y-115381600D01*
X160141333Y-115333980D01*
X160188952Y-115238742D01*
X160188952Y-115095885D01*
X160236571Y-115000647D01*
X160331809Y-114953028D01*
X160379428Y-114953028D01*
X160474666Y-115000647D01*
X160522285Y-115095885D01*
X160522285Y-115238742D01*
X160474666Y-115333980D01*
X159903238Y-116191123D02*
X159855619Y-116095885D01*
X159855619Y-115905409D01*
X159903238Y-115810171D01*
X159998476Y-115762552D01*
X160379428Y-115762552D01*
X160474666Y-115810171D01*
X160522285Y-115905409D01*
X160522285Y-116095885D01*
X160474666Y-116191123D01*
X160379428Y-116238742D01*
X160284190Y-116238742D01*
X160188952Y-115762552D01*
X159760380Y-116429219D02*
X159760380Y-117191123D01*
X159855619Y-117857790D02*
X160855619Y-117857790D01*
X159903238Y-117857790D02*
X159855619Y-117762552D01*
X159855619Y-117572076D01*
X159903238Y-117476838D01*
X159950857Y-117429219D01*
X160046095Y-117381600D01*
X160331809Y-117381600D01*
X160427047Y-117429219D01*
X160474666Y-117476838D01*
X160522285Y-117572076D01*
X160522285Y-117762552D01*
X160474666Y-117857790D01*
X159903238Y-118714933D02*
X159855619Y-118619695D01*
X159855619Y-118429219D01*
X159903238Y-118333980D01*
X159998476Y-118286361D01*
X160379428Y-118286361D01*
X160474666Y-118333980D01*
X160522285Y-118429219D01*
X160522285Y-118619695D01*
X160474666Y-118714933D01*
X160379428Y-118762552D01*
X160284190Y-118762552D01*
X160188952Y-118286361D01*
X160522285Y-119048266D02*
X160522285Y-119429219D01*
X160855619Y-119191123D02*
X159998476Y-119191123D01*
X159903238Y-119238742D01*
X159855619Y-119333980D01*
X159855619Y-119429219D01*
X159903238Y-120143504D02*
X159855619Y-120048266D01*
X159855619Y-119857790D01*
X159903238Y-119762552D01*
X159998476Y-119714933D01*
X160379428Y-119714933D01*
X160474666Y-119762552D01*
X160522285Y-119857790D01*
X160522285Y-120048266D01*
X160474666Y-120143504D01*
X160379428Y-120191123D01*
X160284190Y-120191123D01*
X160188952Y-119714933D01*
X159903238Y-121048266D02*
X159855619Y-120953028D01*
X159855619Y-120762552D01*
X159903238Y-120667314D01*
X159950857Y-120619695D01*
X160046095Y-120572076D01*
X160331809Y-120572076D01*
X160427047Y-120619695D01*
X160474666Y-120667314D01*
X160522285Y-120762552D01*
X160522285Y-120953028D01*
X160474666Y-121048266D01*
X160522285Y-121333980D02*
X160522285Y-121714933D01*
X160855619Y-121476838D02*
X159998476Y-121476838D01*
X159903238Y-121524457D01*
X159855619Y-121619695D01*
X159855619Y-121714933D01*
X159855619Y-122572076D02*
X159855619Y-122000647D01*
X159855619Y-122286361D02*
X160855619Y-122286361D01*
X160712761Y-122191123D01*
X160617523Y-122095885D01*
X160569904Y-122000647D01*
%TO.C,Rcom4*%
X97645714Y-120352380D02*
X97312380Y-119876190D01*
X97074285Y-120352380D02*
X97074285Y-119352380D01*
X97455238Y-119352380D01*
X97550476Y-119400000D01*
X97598095Y-119447619D01*
X97645714Y-119542857D01*
X97645714Y-119685714D01*
X97598095Y-119780952D01*
X97550476Y-119828571D01*
X97455238Y-119876190D01*
X97074285Y-119876190D01*
X98502857Y-120304761D02*
X98407619Y-120352380D01*
X98217142Y-120352380D01*
X98121904Y-120304761D01*
X98074285Y-120257142D01*
X98026666Y-120161904D01*
X98026666Y-119876190D01*
X98074285Y-119780952D01*
X98121904Y-119733333D01*
X98217142Y-119685714D01*
X98407619Y-119685714D01*
X98502857Y-119733333D01*
X99074285Y-120352380D02*
X98979047Y-120304761D01*
X98931428Y-120257142D01*
X98883809Y-120161904D01*
X98883809Y-119876190D01*
X98931428Y-119780952D01*
X98979047Y-119733333D01*
X99074285Y-119685714D01*
X99217142Y-119685714D01*
X99312380Y-119733333D01*
X99360000Y-119780952D01*
X99407619Y-119876190D01*
X99407619Y-120161904D01*
X99360000Y-120257142D01*
X99312380Y-120304761D01*
X99217142Y-120352380D01*
X99074285Y-120352380D01*
X99836190Y-120352380D02*
X99836190Y-119685714D01*
X99836190Y-119780952D02*
X99883809Y-119733333D01*
X99979047Y-119685714D01*
X100121904Y-119685714D01*
X100217142Y-119733333D01*
X100264761Y-119828571D01*
X100264761Y-120352380D01*
X100264761Y-119828571D02*
X100312380Y-119733333D01*
X100407619Y-119685714D01*
X100550476Y-119685714D01*
X100645714Y-119733333D01*
X100693333Y-119828571D01*
X100693333Y-120352380D01*
X101598095Y-119685714D02*
X101598095Y-120352380D01*
X101360000Y-119304761D02*
X101121904Y-120019047D01*
X101740952Y-120019047D01*
%TO.C,Rcom3*%
X81885714Y-99579380D02*
X81552380Y-99103190D01*
X81314285Y-99579380D02*
X81314285Y-98579380D01*
X81695238Y-98579380D01*
X81790476Y-98627000D01*
X81838095Y-98674619D01*
X81885714Y-98769857D01*
X81885714Y-98912714D01*
X81838095Y-99007952D01*
X81790476Y-99055571D01*
X81695238Y-99103190D01*
X81314285Y-99103190D01*
X82742857Y-99531761D02*
X82647619Y-99579380D01*
X82457142Y-99579380D01*
X82361904Y-99531761D01*
X82314285Y-99484142D01*
X82266666Y-99388904D01*
X82266666Y-99103190D01*
X82314285Y-99007952D01*
X82361904Y-98960333D01*
X82457142Y-98912714D01*
X82647619Y-98912714D01*
X82742857Y-98960333D01*
X83314285Y-99579380D02*
X83219047Y-99531761D01*
X83171428Y-99484142D01*
X83123809Y-99388904D01*
X83123809Y-99103190D01*
X83171428Y-99007952D01*
X83219047Y-98960333D01*
X83314285Y-98912714D01*
X83457142Y-98912714D01*
X83552380Y-98960333D01*
X83600000Y-99007952D01*
X83647619Y-99103190D01*
X83647619Y-99388904D01*
X83600000Y-99484142D01*
X83552380Y-99531761D01*
X83457142Y-99579380D01*
X83314285Y-99579380D01*
X84076190Y-99579380D02*
X84076190Y-98912714D01*
X84076190Y-99007952D02*
X84123809Y-98960333D01*
X84219047Y-98912714D01*
X84361904Y-98912714D01*
X84457142Y-98960333D01*
X84504761Y-99055571D01*
X84504761Y-99579380D01*
X84504761Y-99055571D02*
X84552380Y-98960333D01*
X84647619Y-98912714D01*
X84790476Y-98912714D01*
X84885714Y-98960333D01*
X84933333Y-99055571D01*
X84933333Y-99579380D01*
X85314285Y-98579380D02*
X85933333Y-98579380D01*
X85600000Y-98960333D01*
X85742857Y-98960333D01*
X85838095Y-99007952D01*
X85885714Y-99055571D01*
X85933333Y-99150809D01*
X85933333Y-99388904D01*
X85885714Y-99484142D01*
X85838095Y-99531761D01*
X85742857Y-99579380D01*
X85457142Y-99579380D01*
X85361904Y-99531761D01*
X85314285Y-99484142D01*
%TO.C,Rcom2*%
X91145714Y-108732380D02*
X90812380Y-108256190D01*
X90574285Y-108732380D02*
X90574285Y-107732380D01*
X90955238Y-107732380D01*
X91050476Y-107780000D01*
X91098095Y-107827619D01*
X91145714Y-107922857D01*
X91145714Y-108065714D01*
X91098095Y-108160952D01*
X91050476Y-108208571D01*
X90955238Y-108256190D01*
X90574285Y-108256190D01*
X92002857Y-108684761D02*
X91907619Y-108732380D01*
X91717142Y-108732380D01*
X91621904Y-108684761D01*
X91574285Y-108637142D01*
X91526666Y-108541904D01*
X91526666Y-108256190D01*
X91574285Y-108160952D01*
X91621904Y-108113333D01*
X91717142Y-108065714D01*
X91907619Y-108065714D01*
X92002857Y-108113333D01*
X92574285Y-108732380D02*
X92479047Y-108684761D01*
X92431428Y-108637142D01*
X92383809Y-108541904D01*
X92383809Y-108256190D01*
X92431428Y-108160952D01*
X92479047Y-108113333D01*
X92574285Y-108065714D01*
X92717142Y-108065714D01*
X92812380Y-108113333D01*
X92860000Y-108160952D01*
X92907619Y-108256190D01*
X92907619Y-108541904D01*
X92860000Y-108637142D01*
X92812380Y-108684761D01*
X92717142Y-108732380D01*
X92574285Y-108732380D01*
X93336190Y-108732380D02*
X93336190Y-108065714D01*
X93336190Y-108160952D02*
X93383809Y-108113333D01*
X93479047Y-108065714D01*
X93621904Y-108065714D01*
X93717142Y-108113333D01*
X93764761Y-108208571D01*
X93764761Y-108732380D01*
X93764761Y-108208571D02*
X93812380Y-108113333D01*
X93907619Y-108065714D01*
X94050476Y-108065714D01*
X94145714Y-108113333D01*
X94193333Y-108208571D01*
X94193333Y-108732380D01*
X94621904Y-107827619D02*
X94669523Y-107780000D01*
X94764761Y-107732380D01*
X95002857Y-107732380D01*
X95098095Y-107780000D01*
X95145714Y-107827619D01*
X95193333Y-107922857D01*
X95193333Y-108018095D01*
X95145714Y-108160952D01*
X94574285Y-108732380D01*
X95193333Y-108732380D01*
%TO.C,Rcom1*%
X88155714Y-99752380D02*
X87822380Y-99276190D01*
X87584285Y-99752380D02*
X87584285Y-98752380D01*
X87965238Y-98752380D01*
X88060476Y-98800000D01*
X88108095Y-98847619D01*
X88155714Y-98942857D01*
X88155714Y-99085714D01*
X88108095Y-99180952D01*
X88060476Y-99228571D01*
X87965238Y-99276190D01*
X87584285Y-99276190D01*
X89012857Y-99704761D02*
X88917619Y-99752380D01*
X88727142Y-99752380D01*
X88631904Y-99704761D01*
X88584285Y-99657142D01*
X88536666Y-99561904D01*
X88536666Y-99276190D01*
X88584285Y-99180952D01*
X88631904Y-99133333D01*
X88727142Y-99085714D01*
X88917619Y-99085714D01*
X89012857Y-99133333D01*
X89584285Y-99752380D02*
X89489047Y-99704761D01*
X89441428Y-99657142D01*
X89393809Y-99561904D01*
X89393809Y-99276190D01*
X89441428Y-99180952D01*
X89489047Y-99133333D01*
X89584285Y-99085714D01*
X89727142Y-99085714D01*
X89822380Y-99133333D01*
X89870000Y-99180952D01*
X89917619Y-99276190D01*
X89917619Y-99561904D01*
X89870000Y-99657142D01*
X89822380Y-99704761D01*
X89727142Y-99752380D01*
X89584285Y-99752380D01*
X90346190Y-99752380D02*
X90346190Y-99085714D01*
X90346190Y-99180952D02*
X90393809Y-99133333D01*
X90489047Y-99085714D01*
X90631904Y-99085714D01*
X90727142Y-99133333D01*
X90774761Y-99228571D01*
X90774761Y-99752380D01*
X90774761Y-99228571D02*
X90822380Y-99133333D01*
X90917619Y-99085714D01*
X91060476Y-99085714D01*
X91155714Y-99133333D01*
X91203333Y-99228571D01*
X91203333Y-99752380D01*
X92203333Y-99752380D02*
X91631904Y-99752380D01*
X91917619Y-99752380D02*
X91917619Y-98752380D01*
X91822380Y-98895238D01*
X91727142Y-98990476D01*
X91631904Y-99038095D01*
%TO.C,MT_dr_L1*%
X146830952Y-78402380D02*
X146830952Y-77402380D01*
X147164285Y-78116666D01*
X147497619Y-77402380D01*
X147497619Y-78402380D01*
X147830952Y-77402380D02*
X148402380Y-77402380D01*
X148116666Y-78402380D02*
X148116666Y-77402380D01*
X148497619Y-78497619D02*
X149259523Y-78497619D01*
X149926190Y-78402380D02*
X149926190Y-77402380D01*
X149926190Y-78354761D02*
X149830952Y-78402380D01*
X149640476Y-78402380D01*
X149545238Y-78354761D01*
X149497619Y-78307142D01*
X149450000Y-78211904D01*
X149450000Y-77926190D01*
X149497619Y-77830952D01*
X149545238Y-77783333D01*
X149640476Y-77735714D01*
X149830952Y-77735714D01*
X149926190Y-77783333D01*
X150402380Y-78402380D02*
X150402380Y-77735714D01*
X150402380Y-77926190D02*
X150450000Y-77830952D01*
X150497619Y-77783333D01*
X150592857Y-77735714D01*
X150688095Y-77735714D01*
X150783333Y-78497619D02*
X151545238Y-78497619D01*
X152259523Y-78402380D02*
X151783333Y-78402380D01*
X151783333Y-77402380D01*
X153116666Y-78402380D02*
X152545238Y-78402380D01*
X152830952Y-78402380D02*
X152830952Y-77402380D01*
X152735714Y-77545238D01*
X152640476Y-77640476D01*
X152545238Y-77688095D01*
%TO.C,LED_Lipo1*%
X148012380Y-123317619D02*
X148012380Y-123793809D01*
X147012380Y-123793809D01*
X147488571Y-122984285D02*
X147488571Y-122650952D01*
X148012380Y-122508095D02*
X148012380Y-122984285D01*
X147012380Y-122984285D01*
X147012380Y-122508095D01*
X148012380Y-122079523D02*
X147012380Y-122079523D01*
X147012380Y-121841428D01*
X147060000Y-121698571D01*
X147155238Y-121603333D01*
X147250476Y-121555714D01*
X147440952Y-121508095D01*
X147583809Y-121508095D01*
X147774285Y-121555714D01*
X147869523Y-121603333D01*
X147964761Y-121698571D01*
X148012380Y-121841428D01*
X148012380Y-122079523D01*
X148107619Y-121317619D02*
X148107619Y-120555714D01*
X148012380Y-119841428D02*
X148012380Y-120317619D01*
X147012380Y-120317619D01*
X148012380Y-119508095D02*
X147345714Y-119508095D01*
X147012380Y-119508095D02*
X147060000Y-119555714D01*
X147107619Y-119508095D01*
X147060000Y-119460476D01*
X147012380Y-119508095D01*
X147107619Y-119508095D01*
X147345714Y-119031904D02*
X148345714Y-119031904D01*
X147393333Y-119031904D02*
X147345714Y-118936666D01*
X147345714Y-118746190D01*
X147393333Y-118650952D01*
X147440952Y-118603333D01*
X147536190Y-118555714D01*
X147821904Y-118555714D01*
X147917142Y-118603333D01*
X147964761Y-118650952D01*
X148012380Y-118746190D01*
X148012380Y-118936666D01*
X147964761Y-119031904D01*
X148012380Y-117984285D02*
X147964761Y-118079523D01*
X147917142Y-118127142D01*
X147821904Y-118174761D01*
X147536190Y-118174761D01*
X147440952Y-118127142D01*
X147393333Y-118079523D01*
X147345714Y-117984285D01*
X147345714Y-117841428D01*
X147393333Y-117746190D01*
X147440952Y-117698571D01*
X147536190Y-117650952D01*
X147821904Y-117650952D01*
X147917142Y-117698571D01*
X147964761Y-117746190D01*
X148012380Y-117841428D01*
X148012380Y-117984285D01*
X148012380Y-116698571D02*
X148012380Y-117270000D01*
X148012380Y-116984285D02*
X147012380Y-116984285D01*
X147155238Y-117079523D01*
X147250476Y-117174761D01*
X147298095Y-117270000D01*
%TO.C,J1*%
X127391666Y-63207380D02*
X127391666Y-63921666D01*
X127344047Y-64064523D01*
X127248809Y-64159761D01*
X127105952Y-64207380D01*
X127010714Y-64207380D01*
X128391666Y-64207380D02*
X127820238Y-64207380D01*
X128105952Y-64207380D02*
X128105952Y-63207380D01*
X128010714Y-63350238D01*
X127915476Y-63445476D01*
X127820238Y-63493095D01*
%TO.C,com1*%
X103145238Y-111592857D02*
X103097619Y-111497619D01*
X103097619Y-111307142D01*
X103145238Y-111211904D01*
X103192857Y-111164285D01*
X103288095Y-111116666D01*
X103573809Y-111116666D01*
X103669047Y-111164285D01*
X103716666Y-111211904D01*
X103764285Y-111307142D01*
X103764285Y-111497619D01*
X103716666Y-111592857D01*
X103097619Y-112164285D02*
X103145238Y-112069047D01*
X103192857Y-112021428D01*
X103288095Y-111973809D01*
X103573809Y-111973809D01*
X103669047Y-112021428D01*
X103716666Y-112069047D01*
X103764285Y-112164285D01*
X103764285Y-112307142D01*
X103716666Y-112402380D01*
X103669047Y-112450000D01*
X103573809Y-112497619D01*
X103288095Y-112497619D01*
X103192857Y-112450000D01*
X103145238Y-112402380D01*
X103097619Y-112307142D01*
X103097619Y-112164285D01*
X103097619Y-112926190D02*
X103764285Y-112926190D01*
X103669047Y-112926190D02*
X103716666Y-112973809D01*
X103764285Y-113069047D01*
X103764285Y-113211904D01*
X103716666Y-113307142D01*
X103621428Y-113354761D01*
X103097619Y-113354761D01*
X103621428Y-113354761D02*
X103716666Y-113402380D01*
X103764285Y-113497619D01*
X103764285Y-113640476D01*
X103716666Y-113735714D01*
X103621428Y-113783333D01*
X103097619Y-113783333D01*
X103097619Y-114783333D02*
X103097619Y-114211904D01*
X103097619Y-114497619D02*
X104097619Y-114497619D01*
X103954761Y-114402380D01*
X103859523Y-114307142D01*
X103811904Y-114211904D01*
%TO.C,Balom1*%
X123408571Y-58613095D02*
X123456190Y-58470238D01*
X123503809Y-58422619D01*
X123599047Y-58375000D01*
X123741904Y-58375000D01*
X123837142Y-58422619D01*
X123884761Y-58470238D01*
X123932380Y-58565476D01*
X123932380Y-58946428D01*
X122932380Y-58946428D01*
X122932380Y-58613095D01*
X122980000Y-58517857D01*
X123027619Y-58470238D01*
X123122857Y-58422619D01*
X123218095Y-58422619D01*
X123313333Y-58470238D01*
X123360952Y-58517857D01*
X123408571Y-58613095D01*
X123408571Y-58946428D01*
X123932380Y-57517857D02*
X123408571Y-57517857D01*
X123313333Y-57565476D01*
X123265714Y-57660714D01*
X123265714Y-57851190D01*
X123313333Y-57946428D01*
X123884761Y-57517857D02*
X123932380Y-57613095D01*
X123932380Y-57851190D01*
X123884761Y-57946428D01*
X123789523Y-57994047D01*
X123694285Y-57994047D01*
X123599047Y-57946428D01*
X123551428Y-57851190D01*
X123551428Y-57613095D01*
X123503809Y-57517857D01*
X123932380Y-56898809D02*
X123884761Y-56994047D01*
X123789523Y-57041666D01*
X122932380Y-57041666D01*
X123932380Y-56375000D02*
X123884761Y-56470238D01*
X123837142Y-56517857D01*
X123741904Y-56565476D01*
X123456190Y-56565476D01*
X123360952Y-56517857D01*
X123313333Y-56470238D01*
X123265714Y-56375000D01*
X123265714Y-56232142D01*
X123313333Y-56136904D01*
X123360952Y-56089285D01*
X123456190Y-56041666D01*
X123741904Y-56041666D01*
X123837142Y-56089285D01*
X123884761Y-56136904D01*
X123932380Y-56232142D01*
X123932380Y-56375000D01*
X123932380Y-55613095D02*
X123265714Y-55613095D01*
X123360952Y-55613095D02*
X123313333Y-55565476D01*
X123265714Y-55470238D01*
X123265714Y-55327380D01*
X123313333Y-55232142D01*
X123408571Y-55184523D01*
X123932380Y-55184523D01*
X123408571Y-55184523D02*
X123313333Y-55136904D01*
X123265714Y-55041666D01*
X123265714Y-54898809D01*
X123313333Y-54803571D01*
X123408571Y-54755952D01*
X123932380Y-54755952D01*
X123932380Y-53755952D02*
X123932380Y-54327380D01*
X123932380Y-54041666D02*
X122932380Y-54041666D01*
X123075238Y-54136904D01*
X123170476Y-54232142D01*
X123218095Y-54327380D01*
%TO.C,47\u03BCF1*%
X164685714Y-99715714D02*
X164685714Y-100382380D01*
X164447619Y-99334761D02*
X164209523Y-100049047D01*
X164828571Y-100049047D01*
X165114285Y-99382380D02*
X165780952Y-99382380D01*
X165352380Y-100382380D01*
X166161904Y-99715714D02*
X166161904Y-100715714D01*
X166638095Y-100239523D02*
X166685714Y-100334761D01*
X166780952Y-100382380D01*
X166161904Y-100239523D02*
X166209523Y-100334761D01*
X166304761Y-100382380D01*
X166495238Y-100382380D01*
X166590476Y-100334761D01*
X166638095Y-100239523D01*
X166638095Y-99715714D01*
X167542857Y-99858571D02*
X167209523Y-99858571D01*
X167209523Y-100382380D02*
X167209523Y-99382380D01*
X167685714Y-99382380D01*
X168590476Y-100382380D02*
X168019047Y-100382380D01*
X168304761Y-100382380D02*
X168304761Y-99382380D01*
X168209523Y-99525238D01*
X168114285Y-99620476D01*
X168019047Y-99668095D01*
%TO.C,2.2\u03BCF3*%
X169297619Y-72218571D02*
X169250000Y-72170952D01*
X169202380Y-72075714D01*
X169202380Y-71837619D01*
X169250000Y-71742380D01*
X169297619Y-71694761D01*
X169392857Y-71647142D01*
X169488095Y-71647142D01*
X169630952Y-71694761D01*
X170202380Y-72266190D01*
X170202380Y-71647142D01*
X170107142Y-71218571D02*
X170154761Y-71170952D01*
X170202380Y-71218571D01*
X170154761Y-71266190D01*
X170107142Y-71218571D01*
X170202380Y-71218571D01*
X169297619Y-70790000D02*
X169250000Y-70742380D01*
X169202380Y-70647142D01*
X169202380Y-70409047D01*
X169250000Y-70313809D01*
X169297619Y-70266190D01*
X169392857Y-70218571D01*
X169488095Y-70218571D01*
X169630952Y-70266190D01*
X170202380Y-70837619D01*
X170202380Y-70218571D01*
X169535714Y-69790000D02*
X170535714Y-69790000D01*
X170059523Y-69313809D02*
X170154761Y-69266190D01*
X170202380Y-69170952D01*
X170059523Y-69790000D02*
X170154761Y-69742380D01*
X170202380Y-69647142D01*
X170202380Y-69456666D01*
X170154761Y-69361428D01*
X170059523Y-69313809D01*
X169535714Y-69313809D01*
X169678571Y-68409047D02*
X169678571Y-68742380D01*
X170202380Y-68742380D02*
X169202380Y-68742380D01*
X169202380Y-68266190D01*
X169202380Y-67980476D02*
X169202380Y-67361428D01*
X169583333Y-67694761D01*
X169583333Y-67551904D01*
X169630952Y-67456666D01*
X169678571Y-67409047D01*
X169773809Y-67361428D01*
X170011904Y-67361428D01*
X170107142Y-67409047D01*
X170154761Y-67456666D01*
X170202380Y-67551904D01*
X170202380Y-67837619D01*
X170154761Y-67932857D01*
X170107142Y-67980476D01*
%TO.C,2.2\u03BCF2*%
X151007619Y-97868571D02*
X150960000Y-97820952D01*
X150912380Y-97725714D01*
X150912380Y-97487619D01*
X150960000Y-97392380D01*
X151007619Y-97344761D01*
X151102857Y-97297142D01*
X151198095Y-97297142D01*
X151340952Y-97344761D01*
X151912380Y-97916190D01*
X151912380Y-97297142D01*
X151817142Y-96868571D02*
X151864761Y-96820952D01*
X151912380Y-96868571D01*
X151864761Y-96916190D01*
X151817142Y-96868571D01*
X151912380Y-96868571D01*
X151007619Y-96440000D02*
X150960000Y-96392380D01*
X150912380Y-96297142D01*
X150912380Y-96059047D01*
X150960000Y-95963809D01*
X151007619Y-95916190D01*
X151102857Y-95868571D01*
X151198095Y-95868571D01*
X151340952Y-95916190D01*
X151912380Y-96487619D01*
X151912380Y-95868571D01*
X151245714Y-95440000D02*
X152245714Y-95440000D01*
X151769523Y-94963809D02*
X151864761Y-94916190D01*
X151912380Y-94820952D01*
X151769523Y-95440000D02*
X151864761Y-95392380D01*
X151912380Y-95297142D01*
X151912380Y-95106666D01*
X151864761Y-95011428D01*
X151769523Y-94963809D01*
X151245714Y-94963809D01*
X151388571Y-94059047D02*
X151388571Y-94392380D01*
X151912380Y-94392380D02*
X150912380Y-94392380D01*
X150912380Y-93916190D01*
X151007619Y-93582857D02*
X150960000Y-93535238D01*
X150912380Y-93440000D01*
X150912380Y-93201904D01*
X150960000Y-93106666D01*
X151007619Y-93059047D01*
X151102857Y-93011428D01*
X151198095Y-93011428D01*
X151340952Y-93059047D01*
X151912380Y-93630476D01*
X151912380Y-93011428D01*
%TO.C,2.2\u03BCF1*%
X151281428Y-62627619D02*
X151329047Y-62580000D01*
X151424285Y-62532380D01*
X151662380Y-62532380D01*
X151757619Y-62580000D01*
X151805238Y-62627619D01*
X151852857Y-62722857D01*
X151852857Y-62818095D01*
X151805238Y-62960952D01*
X151233809Y-63532380D01*
X151852857Y-63532380D01*
X152281428Y-63437142D02*
X152329047Y-63484761D01*
X152281428Y-63532380D01*
X152233809Y-63484761D01*
X152281428Y-63437142D01*
X152281428Y-63532380D01*
X152710000Y-62627619D02*
X152757619Y-62580000D01*
X152852857Y-62532380D01*
X153090952Y-62532380D01*
X153186190Y-62580000D01*
X153233809Y-62627619D01*
X153281428Y-62722857D01*
X153281428Y-62818095D01*
X153233809Y-62960952D01*
X152662380Y-63532380D01*
X153281428Y-63532380D01*
X153710000Y-62865714D02*
X153710000Y-63865714D01*
X154186190Y-63389523D02*
X154233809Y-63484761D01*
X154329047Y-63532380D01*
X153710000Y-63389523D02*
X153757619Y-63484761D01*
X153852857Y-63532380D01*
X154043333Y-63532380D01*
X154138571Y-63484761D01*
X154186190Y-63389523D01*
X154186190Y-62865714D01*
X155090952Y-63008571D02*
X154757619Y-63008571D01*
X154757619Y-63532380D02*
X154757619Y-62532380D01*
X155233809Y-62532380D01*
X156138571Y-63532380D02*
X155567142Y-63532380D01*
X155852857Y-63532380D02*
X155852857Y-62532380D01*
X155757619Y-62675238D01*
X155662380Y-62770476D01*
X155567142Y-62818095D01*
%TO.C,1.0\u03BCF1*%
X147562380Y-100667142D02*
X147562380Y-101238571D01*
X147562380Y-100952857D02*
X146562380Y-100952857D01*
X146705238Y-101048095D01*
X146800476Y-101143333D01*
X146848095Y-101238571D01*
X147467142Y-100238571D02*
X147514761Y-100190952D01*
X147562380Y-100238571D01*
X147514761Y-100286190D01*
X147467142Y-100238571D01*
X147562380Y-100238571D01*
X146562380Y-99571904D02*
X146562380Y-99476666D01*
X146610000Y-99381428D01*
X146657619Y-99333809D01*
X146752857Y-99286190D01*
X146943333Y-99238571D01*
X147181428Y-99238571D01*
X147371904Y-99286190D01*
X147467142Y-99333809D01*
X147514761Y-99381428D01*
X147562380Y-99476666D01*
X147562380Y-99571904D01*
X147514761Y-99667142D01*
X147467142Y-99714761D01*
X147371904Y-99762380D01*
X147181428Y-99810000D01*
X146943333Y-99810000D01*
X146752857Y-99762380D01*
X146657619Y-99714761D01*
X146610000Y-99667142D01*
X146562380Y-99571904D01*
X146895714Y-98810000D02*
X147895714Y-98810000D01*
X147419523Y-98333809D02*
X147514761Y-98286190D01*
X147562380Y-98190952D01*
X147419523Y-98810000D02*
X147514761Y-98762380D01*
X147562380Y-98667142D01*
X147562380Y-98476666D01*
X147514761Y-98381428D01*
X147419523Y-98333809D01*
X146895714Y-98333809D01*
X147038571Y-97429047D02*
X147038571Y-97762380D01*
X147562380Y-97762380D02*
X146562380Y-97762380D01*
X146562380Y-97286190D01*
X147562380Y-96381428D02*
X147562380Y-96952857D01*
X147562380Y-96667142D02*
X146562380Y-96667142D01*
X146705238Y-96762380D01*
X146800476Y-96857619D01*
X146848095Y-96952857D01*
%TO.C,GPS_MAXB1*%
X108460000Y-58897619D02*
X108412380Y-58992857D01*
X108412380Y-59135714D01*
X108460000Y-59278571D01*
X108555238Y-59373809D01*
X108650476Y-59421428D01*
X108840952Y-59469047D01*
X108983809Y-59469047D01*
X109174285Y-59421428D01*
X109269523Y-59373809D01*
X109364761Y-59278571D01*
X109412380Y-59135714D01*
X109412380Y-59040476D01*
X109364761Y-58897619D01*
X109317142Y-58850000D01*
X108983809Y-58850000D01*
X108983809Y-59040476D01*
X109412380Y-58421428D02*
X108412380Y-58421428D01*
X108412380Y-58040476D01*
X108460000Y-57945238D01*
X108507619Y-57897619D01*
X108602857Y-57850000D01*
X108745714Y-57850000D01*
X108840952Y-57897619D01*
X108888571Y-57945238D01*
X108936190Y-58040476D01*
X108936190Y-58421428D01*
X109364761Y-57469047D02*
X109412380Y-57326190D01*
X109412380Y-57088095D01*
X109364761Y-56992857D01*
X109317142Y-56945238D01*
X109221904Y-56897619D01*
X109126666Y-56897619D01*
X109031428Y-56945238D01*
X108983809Y-56992857D01*
X108936190Y-57088095D01*
X108888571Y-57278571D01*
X108840952Y-57373809D01*
X108793333Y-57421428D01*
X108698095Y-57469047D01*
X108602857Y-57469047D01*
X108507619Y-57421428D01*
X108460000Y-57373809D01*
X108412380Y-57278571D01*
X108412380Y-57040476D01*
X108460000Y-56897619D01*
X109507619Y-56707142D02*
X109507619Y-55945238D01*
X109412380Y-55707142D02*
X108412380Y-55707142D01*
X109126666Y-55373809D01*
X108412380Y-55040476D01*
X109412380Y-55040476D01*
X109126666Y-54611904D02*
X109126666Y-54135714D01*
X109412380Y-54707142D02*
X108412380Y-54373809D01*
X109412380Y-54040476D01*
X108412380Y-53802380D02*
X109412380Y-53135714D01*
X108412380Y-53135714D02*
X109412380Y-53802380D01*
X108888571Y-52421428D02*
X108936190Y-52278571D01*
X108983809Y-52230952D01*
X109079047Y-52183333D01*
X109221904Y-52183333D01*
X109317142Y-52230952D01*
X109364761Y-52278571D01*
X109412380Y-52373809D01*
X109412380Y-52754761D01*
X108412380Y-52754761D01*
X108412380Y-52421428D01*
X108460000Y-52326190D01*
X108507619Y-52278571D01*
X108602857Y-52230952D01*
X108698095Y-52230952D01*
X108793333Y-52278571D01*
X108840952Y-52326190D01*
X108888571Y-52421428D01*
X108888571Y-52754761D01*
X109412380Y-51230952D02*
X109412380Y-51802380D01*
X109412380Y-51516666D02*
X108412380Y-51516666D01*
X108555238Y-51611904D01*
X108650476Y-51707142D01*
X108698095Y-51802380D01*
%TO.C,LED2*%
X110600952Y-124052380D02*
X110124761Y-124052380D01*
X110124761Y-123052380D01*
X110934285Y-123528571D02*
X111267619Y-123528571D01*
X111410476Y-124052380D02*
X110934285Y-124052380D01*
X110934285Y-123052380D01*
X111410476Y-123052380D01*
X111839047Y-124052380D02*
X111839047Y-123052380D01*
X112077142Y-123052380D01*
X112220000Y-123100000D01*
X112315238Y-123195238D01*
X112362857Y-123290476D01*
X112410476Y-123480952D01*
X112410476Y-123623809D01*
X112362857Y-123814285D01*
X112315238Y-123909523D01*
X112220000Y-124004761D01*
X112077142Y-124052380D01*
X111839047Y-124052380D01*
X112791428Y-123147619D02*
X112839047Y-123100000D01*
X112934285Y-123052380D01*
X113172380Y-123052380D01*
X113267619Y-123100000D01*
X113315238Y-123147619D01*
X113362857Y-123242857D01*
X113362857Y-123338095D01*
X113315238Y-123480952D01*
X112743809Y-124052380D01*
X113362857Y-124052380D01*
%TO.C,MOSFET1*%
X122158571Y-112502380D02*
X122158571Y-111502380D01*
X122491904Y-112216666D01*
X122825238Y-111502380D01*
X122825238Y-112502380D01*
X123491904Y-111502380D02*
X123682380Y-111502380D01*
X123777619Y-111550000D01*
X123872857Y-111645238D01*
X123920476Y-111835714D01*
X123920476Y-112169047D01*
X123872857Y-112359523D01*
X123777619Y-112454761D01*
X123682380Y-112502380D01*
X123491904Y-112502380D01*
X123396666Y-112454761D01*
X123301428Y-112359523D01*
X123253809Y-112169047D01*
X123253809Y-111835714D01*
X123301428Y-111645238D01*
X123396666Y-111550000D01*
X123491904Y-111502380D01*
X124301428Y-112454761D02*
X124444285Y-112502380D01*
X124682380Y-112502380D01*
X124777619Y-112454761D01*
X124825238Y-112407142D01*
X124872857Y-112311904D01*
X124872857Y-112216666D01*
X124825238Y-112121428D01*
X124777619Y-112073809D01*
X124682380Y-112026190D01*
X124491904Y-111978571D01*
X124396666Y-111930952D01*
X124349047Y-111883333D01*
X124301428Y-111788095D01*
X124301428Y-111692857D01*
X124349047Y-111597619D01*
X124396666Y-111550000D01*
X124491904Y-111502380D01*
X124730000Y-111502380D01*
X124872857Y-111550000D01*
X125634761Y-111978571D02*
X125301428Y-111978571D01*
X125301428Y-112502380D02*
X125301428Y-111502380D01*
X125777619Y-111502380D01*
X126158571Y-111978571D02*
X126491904Y-111978571D01*
X126634761Y-112502380D02*
X126158571Y-112502380D01*
X126158571Y-111502380D01*
X126634761Y-111502380D01*
X126920476Y-111502380D02*
X127491904Y-111502380D01*
X127206190Y-112502380D02*
X127206190Y-111502380D01*
X128349047Y-112502380D02*
X127777619Y-112502380D01*
X128063333Y-112502380D02*
X128063333Y-111502380D01*
X127968095Y-111645238D01*
X127872857Y-111740476D01*
X127777619Y-111788095D01*
%TO.C,stranger1*%
X128029047Y-113514761D02*
X128124285Y-113562380D01*
X128314761Y-113562380D01*
X128410000Y-113514761D01*
X128457619Y-113419523D01*
X128457619Y-113371904D01*
X128410000Y-113276666D01*
X128314761Y-113229047D01*
X128171904Y-113229047D01*
X128076666Y-113181428D01*
X128029047Y-113086190D01*
X128029047Y-113038571D01*
X128076666Y-112943333D01*
X128171904Y-112895714D01*
X128314761Y-112895714D01*
X128410000Y-112943333D01*
X128743333Y-112895714D02*
X129124285Y-112895714D01*
X128886190Y-112562380D02*
X128886190Y-113419523D01*
X128933809Y-113514761D01*
X129029047Y-113562380D01*
X129124285Y-113562380D01*
X129457619Y-113562380D02*
X129457619Y-112895714D01*
X129457619Y-113086190D02*
X129505238Y-112990952D01*
X129552857Y-112943333D01*
X129648095Y-112895714D01*
X129743333Y-112895714D01*
X130505238Y-113562380D02*
X130505238Y-113038571D01*
X130457619Y-112943333D01*
X130362380Y-112895714D01*
X130171904Y-112895714D01*
X130076666Y-112943333D01*
X130505238Y-113514761D02*
X130410000Y-113562380D01*
X130171904Y-113562380D01*
X130076666Y-113514761D01*
X130029047Y-113419523D01*
X130029047Y-113324285D01*
X130076666Y-113229047D01*
X130171904Y-113181428D01*
X130410000Y-113181428D01*
X130505238Y-113133809D01*
X130981428Y-112895714D02*
X130981428Y-113562380D01*
X130981428Y-112990952D02*
X131029047Y-112943333D01*
X131124285Y-112895714D01*
X131267142Y-112895714D01*
X131362380Y-112943333D01*
X131410000Y-113038571D01*
X131410000Y-113562380D01*
X132314761Y-112895714D02*
X132314761Y-113705238D01*
X132267142Y-113800476D01*
X132219523Y-113848095D01*
X132124285Y-113895714D01*
X131981428Y-113895714D01*
X131886190Y-113848095D01*
X132314761Y-113514761D02*
X132219523Y-113562380D01*
X132029047Y-113562380D01*
X131933809Y-113514761D01*
X131886190Y-113467142D01*
X131838571Y-113371904D01*
X131838571Y-113086190D01*
X131886190Y-112990952D01*
X131933809Y-112943333D01*
X132029047Y-112895714D01*
X132219523Y-112895714D01*
X132314761Y-112943333D01*
X133171904Y-113514761D02*
X133076666Y-113562380D01*
X132886190Y-113562380D01*
X132790952Y-113514761D01*
X132743333Y-113419523D01*
X132743333Y-113038571D01*
X132790952Y-112943333D01*
X132886190Y-112895714D01*
X133076666Y-112895714D01*
X133171904Y-112943333D01*
X133219523Y-113038571D01*
X133219523Y-113133809D01*
X132743333Y-113229047D01*
X133648095Y-113562380D02*
X133648095Y-112895714D01*
X133648095Y-113086190D02*
X133695714Y-112990952D01*
X133743333Y-112943333D01*
X133838571Y-112895714D01*
X133933809Y-112895714D01*
X134790952Y-113562380D02*
X134219523Y-113562380D01*
X134505238Y-113562380D02*
X134505238Y-112562380D01*
X134410000Y-112705238D01*
X134314761Y-112800476D01*
X134219523Y-112848095D01*
X137498095Y-111042380D02*
X137498095Y-110042380D01*
X138069523Y-111042380D02*
X137640952Y-110470952D01*
X138069523Y-110042380D02*
X137498095Y-110613809D01*
%TO.C,LED1*%
X115380952Y-120792380D02*
X114904761Y-120792380D01*
X114904761Y-119792380D01*
X115714285Y-120268571D02*
X116047619Y-120268571D01*
X116190476Y-120792380D02*
X115714285Y-120792380D01*
X115714285Y-119792380D01*
X116190476Y-119792380D01*
X116619047Y-120792380D02*
X116619047Y-119792380D01*
X116857142Y-119792380D01*
X117000000Y-119840000D01*
X117095238Y-119935238D01*
X117142857Y-120030476D01*
X117190476Y-120220952D01*
X117190476Y-120363809D01*
X117142857Y-120554285D01*
X117095238Y-120649523D01*
X117000000Y-120744761D01*
X116857142Y-120792380D01*
X116619047Y-120792380D01*
X118142857Y-120792380D02*
X117571428Y-120792380D01*
X117857142Y-120792380D02*
X117857142Y-119792380D01*
X117761904Y-119935238D01*
X117666666Y-120030476D01*
X117571428Y-120078095D01*
%TO.C,Motor_L1*%
X171055761Y-74052380D02*
X171055761Y-73052380D01*
X171389095Y-73766666D01*
X171722428Y-73052380D01*
X171722428Y-74052380D01*
X172341476Y-74052380D02*
X172246238Y-74004761D01*
X172198619Y-73957142D01*
X172151000Y-73861904D01*
X172151000Y-73576190D01*
X172198619Y-73480952D01*
X172246238Y-73433333D01*
X172341476Y-73385714D01*
X172484333Y-73385714D01*
X172579571Y-73433333D01*
X172627190Y-73480952D01*
X172674809Y-73576190D01*
X172674809Y-73861904D01*
X172627190Y-73957142D01*
X172579571Y-74004761D01*
X172484333Y-74052380D01*
X172341476Y-74052380D01*
X172960523Y-73385714D02*
X173341476Y-73385714D01*
X173103380Y-73052380D02*
X173103380Y-73909523D01*
X173151000Y-74004761D01*
X173246238Y-74052380D01*
X173341476Y-74052380D01*
X173817666Y-74052380D02*
X173722428Y-74004761D01*
X173674809Y-73957142D01*
X173627190Y-73861904D01*
X173627190Y-73576190D01*
X173674809Y-73480952D01*
X173722428Y-73433333D01*
X173817666Y-73385714D01*
X173960523Y-73385714D01*
X174055761Y-73433333D01*
X174103380Y-73480952D01*
X174151000Y-73576190D01*
X174151000Y-73861904D01*
X174103380Y-73957142D01*
X174055761Y-74004761D01*
X173960523Y-74052380D01*
X173817666Y-74052380D01*
X174579571Y-74052380D02*
X174579571Y-73385714D01*
X174579571Y-73576190D02*
X174627190Y-73480952D01*
X174674809Y-73433333D01*
X174770047Y-73385714D01*
X174865285Y-73385714D01*
X174960523Y-74147619D02*
X175722428Y-74147619D01*
X176436714Y-74052380D02*
X175960523Y-74052380D01*
X175960523Y-73052380D01*
X177293857Y-74052380D02*
X176722428Y-74052380D01*
X177008142Y-74052380D02*
X177008142Y-73052380D01*
X176912904Y-73195238D01*
X176817666Y-73290476D01*
X176722428Y-73338095D01*
%TO.C,S1*%
X167088095Y-121504761D02*
X167230952Y-121552380D01*
X167469047Y-121552380D01*
X167564285Y-121504761D01*
X167611904Y-121457142D01*
X167659523Y-121361904D01*
X167659523Y-121266666D01*
X167611904Y-121171428D01*
X167564285Y-121123809D01*
X167469047Y-121076190D01*
X167278571Y-121028571D01*
X167183333Y-120980952D01*
X167135714Y-120933333D01*
X167088095Y-120838095D01*
X167088095Y-120742857D01*
X167135714Y-120647619D01*
X167183333Y-120600000D01*
X167278571Y-120552380D01*
X167516666Y-120552380D01*
X167659523Y-120600000D01*
X168611904Y-121552380D02*
X168040476Y-121552380D01*
X168326190Y-121552380D02*
X168326190Y-120552380D01*
X168230952Y-120695238D01*
X168135714Y-120790476D01*
X168040476Y-120838095D01*
%TO.C,Motor_R1*%
X76955123Y-73645980D02*
X76955123Y-72645980D01*
X77288457Y-73360266D01*
X77621790Y-72645980D01*
X77621790Y-73645980D01*
X78240838Y-73645980D02*
X78145600Y-73598361D01*
X78097980Y-73550742D01*
X78050361Y-73455504D01*
X78050361Y-73169790D01*
X78097980Y-73074552D01*
X78145600Y-73026933D01*
X78240838Y-72979314D01*
X78383695Y-72979314D01*
X78478933Y-73026933D01*
X78526552Y-73074552D01*
X78574171Y-73169790D01*
X78574171Y-73455504D01*
X78526552Y-73550742D01*
X78478933Y-73598361D01*
X78383695Y-73645980D01*
X78240838Y-73645980D01*
X78859885Y-72979314D02*
X79240838Y-72979314D01*
X79002742Y-72645980D02*
X79002742Y-73503123D01*
X79050361Y-73598361D01*
X79145600Y-73645980D01*
X79240838Y-73645980D01*
X79717028Y-73645980D02*
X79621790Y-73598361D01*
X79574171Y-73550742D01*
X79526552Y-73455504D01*
X79526552Y-73169790D01*
X79574171Y-73074552D01*
X79621790Y-73026933D01*
X79717028Y-72979314D01*
X79859885Y-72979314D01*
X79955123Y-73026933D01*
X80002742Y-73074552D01*
X80050361Y-73169790D01*
X80050361Y-73455504D01*
X80002742Y-73550742D01*
X79955123Y-73598361D01*
X79859885Y-73645980D01*
X79717028Y-73645980D01*
X80478933Y-73645980D02*
X80478933Y-72979314D01*
X80478933Y-73169790D02*
X80526552Y-73074552D01*
X80574171Y-73026933D01*
X80669409Y-72979314D01*
X80764647Y-72979314D01*
X80859885Y-73741219D02*
X81621790Y-73741219D01*
X82431314Y-73645980D02*
X82097980Y-73169790D01*
X81859885Y-73645980D02*
X81859885Y-72645980D01*
X82240838Y-72645980D01*
X82336076Y-72693600D01*
X82383695Y-72741219D01*
X82431314Y-72836457D01*
X82431314Y-72979314D01*
X82383695Y-73074552D01*
X82336076Y-73122171D01*
X82240838Y-73169790D01*
X81859885Y-73169790D01*
X83383695Y-73645980D02*
X82812266Y-73645980D01*
X83097980Y-73645980D02*
X83097980Y-72645980D01*
X83002742Y-72788838D01*
X82907504Y-72884076D01*
X82812266Y-72931695D01*
%TO.C,NiCr_Wire1*%
X132086904Y-112312380D02*
X132086904Y-111312380D01*
X132658333Y-112312380D01*
X132658333Y-111312380D01*
X133134523Y-112312380D02*
X133134523Y-111645714D01*
X133134523Y-111312380D02*
X133086904Y-111360000D01*
X133134523Y-111407619D01*
X133182142Y-111360000D01*
X133134523Y-111312380D01*
X133134523Y-111407619D01*
X134182142Y-112217142D02*
X134134523Y-112264761D01*
X133991666Y-112312380D01*
X133896428Y-112312380D01*
X133753571Y-112264761D01*
X133658333Y-112169523D01*
X133610714Y-112074285D01*
X133563095Y-111883809D01*
X133563095Y-111740952D01*
X133610714Y-111550476D01*
X133658333Y-111455238D01*
X133753571Y-111360000D01*
X133896428Y-111312380D01*
X133991666Y-111312380D01*
X134134523Y-111360000D01*
X134182142Y-111407619D01*
X134610714Y-112312380D02*
X134610714Y-111645714D01*
X134610714Y-111836190D02*
X134658333Y-111740952D01*
X134705952Y-111693333D01*
X134801190Y-111645714D01*
X134896428Y-111645714D01*
X134991666Y-112407619D02*
X135753571Y-112407619D01*
X135896428Y-111312380D02*
X136134523Y-112312380D01*
X136325000Y-111598095D01*
X136515476Y-112312380D01*
X136753571Y-111312380D01*
X137134523Y-112312380D02*
X137134523Y-111645714D01*
X137134523Y-111312380D02*
X137086904Y-111360000D01*
X137134523Y-111407619D01*
X137182142Y-111360000D01*
X137134523Y-111312380D01*
X137134523Y-111407619D01*
X137610714Y-112312380D02*
X137610714Y-111645714D01*
X137610714Y-111836190D02*
X137658333Y-111740952D01*
X137705952Y-111693333D01*
X137801190Y-111645714D01*
X137896428Y-111645714D01*
X138610714Y-112264761D02*
X138515476Y-112312380D01*
X138325000Y-112312380D01*
X138229761Y-112264761D01*
X138182142Y-112169523D01*
X138182142Y-111788571D01*
X138229761Y-111693333D01*
X138325000Y-111645714D01*
X138515476Y-111645714D01*
X138610714Y-111693333D01*
X138658333Y-111788571D01*
X138658333Y-111883809D01*
X138182142Y-111979047D01*
X139610714Y-112312380D02*
X139039285Y-112312380D01*
X139325000Y-112312380D02*
X139325000Y-111312380D01*
X139229761Y-111455238D01*
X139134523Y-111550476D01*
X139039285Y-111598095D01*
%TO.C,9axis1*%
X170632380Y-58046666D02*
X170632380Y-57856190D01*
X170584761Y-57760952D01*
X170537142Y-57713333D01*
X170394285Y-57618095D01*
X170203809Y-57570476D01*
X169822857Y-57570476D01*
X169727619Y-57618095D01*
X169680000Y-57665714D01*
X169632380Y-57760952D01*
X169632380Y-57951428D01*
X169680000Y-58046666D01*
X169727619Y-58094285D01*
X169822857Y-58141904D01*
X170060952Y-58141904D01*
X170156190Y-58094285D01*
X170203809Y-58046666D01*
X170251428Y-57951428D01*
X170251428Y-57760952D01*
X170203809Y-57665714D01*
X170156190Y-57618095D01*
X170060952Y-57570476D01*
X170632380Y-56713333D02*
X170108571Y-56713333D01*
X170013333Y-56760952D01*
X169965714Y-56856190D01*
X169965714Y-57046666D01*
X170013333Y-57141904D01*
X170584761Y-56713333D02*
X170632380Y-56808571D01*
X170632380Y-57046666D01*
X170584761Y-57141904D01*
X170489523Y-57189523D01*
X170394285Y-57189523D01*
X170299047Y-57141904D01*
X170251428Y-57046666D01*
X170251428Y-56808571D01*
X170203809Y-56713333D01*
X170632380Y-56332380D02*
X169965714Y-55808571D01*
X169965714Y-56332380D02*
X170632380Y-55808571D01*
X170632380Y-55427619D02*
X169965714Y-55427619D01*
X169632380Y-55427619D02*
X169680000Y-55475238D01*
X169727619Y-55427619D01*
X169680000Y-55380000D01*
X169632380Y-55427619D01*
X169727619Y-55427619D01*
X170584761Y-54999047D02*
X170632380Y-54903809D01*
X170632380Y-54713333D01*
X170584761Y-54618095D01*
X170489523Y-54570476D01*
X170441904Y-54570476D01*
X170346666Y-54618095D01*
X170299047Y-54713333D01*
X170299047Y-54856190D01*
X170251428Y-54951428D01*
X170156190Y-54999047D01*
X170108571Y-54999047D01*
X170013333Y-54951428D01*
X169965714Y-54856190D01*
X169965714Y-54713333D01*
X170013333Y-54618095D01*
X170632380Y-53618095D02*
X170632380Y-54189523D01*
X170632380Y-53903809D02*
X169632380Y-53903809D01*
X169775238Y-53999047D01*
X169870476Y-54094285D01*
X169918095Y-54189523D01*
%TO.C,Rled1*%
X113360476Y-119082380D02*
X113027142Y-118606190D01*
X112789047Y-119082380D02*
X112789047Y-118082380D01*
X113170000Y-118082380D01*
X113265238Y-118130000D01*
X113312857Y-118177619D01*
X113360476Y-118272857D01*
X113360476Y-118415714D01*
X113312857Y-118510952D01*
X113265238Y-118558571D01*
X113170000Y-118606190D01*
X112789047Y-118606190D01*
X113931904Y-119082380D02*
X113836666Y-119034761D01*
X113789047Y-118939523D01*
X113789047Y-118082380D01*
X114693809Y-119034761D02*
X114598571Y-119082380D01*
X114408095Y-119082380D01*
X114312857Y-119034761D01*
X114265238Y-118939523D01*
X114265238Y-118558571D01*
X114312857Y-118463333D01*
X114408095Y-118415714D01*
X114598571Y-118415714D01*
X114693809Y-118463333D01*
X114741428Y-118558571D01*
X114741428Y-118653809D01*
X114265238Y-118749047D01*
X115598571Y-119082380D02*
X115598571Y-118082380D01*
X115598571Y-119034761D02*
X115503333Y-119082380D01*
X115312857Y-119082380D01*
X115217619Y-119034761D01*
X115170000Y-118987142D01*
X115122380Y-118891904D01*
X115122380Y-118606190D01*
X115170000Y-118510952D01*
X115217619Y-118463333D01*
X115312857Y-118415714D01*
X115503333Y-118415714D01*
X115598571Y-118463333D01*
X116598571Y-119082380D02*
X116027142Y-119082380D01*
X116312857Y-119082380D02*
X116312857Y-118082380D01*
X116217619Y-118225238D01*
X116122380Y-118320476D01*
X116027142Y-118368095D01*
D11*
%TO.C,5VConv1*%
X166505000Y-109550000D02*
X166515000Y-102000000D01*
X178045000Y-109550000D02*
X166505000Y-109550000D01*
X166515000Y-102000000D02*
X178045000Y-102000000D01*
X178045000Y-102000000D02*
X178045000Y-109550000D01*
X178045000Y-102000000D02*
X166505000Y-102000000D01*
%TO.C,MT_dr_R1*%
X104025000Y-78455000D02*
X102075000Y-78455000D01*
X104025000Y-78455000D02*
X105975000Y-78455000D01*
X104025000Y-83575000D02*
X107475000Y-83575000D01*
X104025000Y-83575000D02*
X102075000Y-83575000D01*
%TO.C,U2*%
X156710000Y-96190000D02*
X156710000Y-100390000D01*
X156710000Y-100390000D02*
X159510000Y-100390000D01*
X159510000Y-100390000D02*
X159510000Y-96190000D01*
X159510000Y-96190000D02*
X156710000Y-96190000D01*
%TO.C,uart-i2c2*%
X83180000Y-96230000D02*
X91810000Y-96230000D01*
X94380000Y-85950000D02*
X94380000Y-87280000D01*
X83180000Y-87723330D02*
X91810000Y-87723330D01*
X91810000Y-87640000D02*
X92160000Y-87640000D01*
X83180000Y-87132855D02*
X91810000Y-87132855D01*
X83180000Y-87487140D02*
X91810000Y-87487140D01*
X83180000Y-88195710D02*
X91810000Y-88195710D01*
X91810000Y-92000000D02*
X92220000Y-92000000D01*
X83180000Y-93630000D02*
X91810000Y-93630000D01*
X83180000Y-86306190D02*
X91810000Y-86306190D01*
X83180000Y-88077615D02*
X91810000Y-88077615D01*
X83180000Y-86896665D02*
X91810000Y-86896665D01*
X91810000Y-92720000D02*
X92220000Y-92720000D01*
X91810000Y-89460000D02*
X92220000Y-89460000D01*
X83180000Y-87605235D02*
X91810000Y-87605235D01*
X83180000Y-86542380D02*
X91810000Y-86542380D01*
X93270000Y-85950000D02*
X94380000Y-85950000D01*
X83180000Y-88313805D02*
X91810000Y-88313805D01*
X83180000Y-87250950D02*
X91810000Y-87250950D01*
X83180000Y-85950000D02*
X91810000Y-85950000D01*
X91810000Y-94540000D02*
X92220000Y-94540000D01*
X83180000Y-91090000D02*
X91810000Y-91090000D01*
X83180000Y-86660475D02*
X91810000Y-86660475D01*
X83180000Y-86070000D02*
X91810000Y-86070000D01*
X83180000Y-85950000D02*
X83180000Y-96230000D01*
X91810000Y-85950000D02*
X91810000Y-96230000D01*
X91810000Y-86920000D02*
X92160000Y-86920000D01*
X83180000Y-86778570D02*
X91810000Y-86778570D01*
X83180000Y-86188095D02*
X91810000Y-86188095D01*
X91810000Y-95260000D02*
X92220000Y-95260000D01*
X91810000Y-90180000D02*
X92220000Y-90180000D01*
X83180000Y-88550000D02*
X91810000Y-88550000D01*
X83180000Y-87959520D02*
X91810000Y-87959520D01*
X83180000Y-86424285D02*
X91810000Y-86424285D01*
X83180000Y-87014760D02*
X91810000Y-87014760D01*
X83180000Y-88431900D02*
X91810000Y-88431900D01*
X83180000Y-87369045D02*
X91810000Y-87369045D01*
X83180000Y-87841425D02*
X91810000Y-87841425D01*
%TO.C,uart-i2c1*%
X172730000Y-84680000D02*
X164100000Y-84680000D01*
X161530000Y-94960000D02*
X161530000Y-93630000D01*
X172730000Y-93186670D02*
X164100000Y-93186670D01*
X164100000Y-93270000D02*
X163750000Y-93270000D01*
X172730000Y-93777145D02*
X164100000Y-93777145D01*
X172730000Y-93422860D02*
X164100000Y-93422860D01*
X172730000Y-92714290D02*
X164100000Y-92714290D01*
X164100000Y-88910000D02*
X163690000Y-88910000D01*
X172730000Y-87280000D02*
X164100000Y-87280000D01*
X172730000Y-94603810D02*
X164100000Y-94603810D01*
X172730000Y-92832385D02*
X164100000Y-92832385D01*
X172730000Y-94013335D02*
X164100000Y-94013335D01*
X164100000Y-88190000D02*
X163690000Y-88190000D01*
X164100000Y-91450000D02*
X163690000Y-91450000D01*
X172730000Y-93304765D02*
X164100000Y-93304765D01*
X172730000Y-94367620D02*
X164100000Y-94367620D01*
X162640000Y-94960000D02*
X161530000Y-94960000D01*
X172730000Y-92596195D02*
X164100000Y-92596195D01*
X172730000Y-93659050D02*
X164100000Y-93659050D01*
X172730000Y-94960000D02*
X164100000Y-94960000D01*
X164100000Y-86370000D02*
X163690000Y-86370000D01*
X172730000Y-89820000D02*
X164100000Y-89820000D01*
X172730000Y-94249525D02*
X164100000Y-94249525D01*
X172730000Y-94840000D02*
X164100000Y-94840000D01*
X172730000Y-94960000D02*
X172730000Y-84680000D01*
X164100000Y-94960000D02*
X164100000Y-84680000D01*
X164100000Y-93990000D02*
X163750000Y-93990000D01*
X172730000Y-94131430D02*
X164100000Y-94131430D01*
X172730000Y-94721905D02*
X164100000Y-94721905D01*
X164100000Y-85650000D02*
X163690000Y-85650000D01*
X164100000Y-90730000D02*
X163690000Y-90730000D01*
X172730000Y-92360000D02*
X164100000Y-92360000D01*
X172730000Y-92950480D02*
X164100000Y-92950480D01*
X172730000Y-94485715D02*
X164100000Y-94485715D01*
X172730000Y-93895240D02*
X164100000Y-93895240D01*
X172730000Y-92478100D02*
X164100000Y-92478100D01*
X172730000Y-93540955D02*
X164100000Y-93540955D01*
X172730000Y-93068575D02*
X164100000Y-93068575D01*
%TO.C,R_LiPo1*%
X143667500Y-118212742D02*
X143667500Y-118687258D01*
X144712500Y-118212742D02*
X144712500Y-118687258D01*
%TO.C,RST_SW1*%
X86000000Y-65280000D02*
X92300000Y-65280000D01*
X86000000Y-71580000D02*
X86000000Y-65280000D01*
X92300000Y-65280000D02*
X92300000Y-71580000D01*
X92300000Y-71580000D02*
X86000000Y-71580000D01*
%TO.C,Rnicr2*%
X125557258Y-123562500D02*
X125082742Y-123562500D01*
X125557258Y-122517500D02*
X125082742Y-122517500D01*
%TO.C,Rnicr1*%
X121117258Y-123572500D02*
X120642742Y-123572500D01*
X121117258Y-122527500D02*
X120642742Y-122527500D01*
%TO.C,release_detect1*%
X162350000Y-124025000D02*
X162350000Y-113025000D01*
X157350000Y-126025000D02*
X157350000Y-124025000D01*
X162350000Y-124025000D02*
X162350000Y-126025000D01*
X162350000Y-113025000D02*
X157350000Y-113025000D01*
X162350000Y-126025000D02*
X157350000Y-126025000D01*
X157350000Y-113025000D02*
X157350000Y-124025000D01*
X157350000Y-124025000D02*
X162350000Y-124025000D01*
%TO.C,Rcom4*%
X99597258Y-118992500D02*
X99122742Y-118992500D01*
X99597258Y-117947500D02*
X99122742Y-117947500D01*
%TO.C,Rcom3*%
X85022500Y-101262742D02*
X85022500Y-101737258D01*
X83977500Y-101262742D02*
X83977500Y-101737258D01*
%TO.C,Rcom2*%
X93097258Y-107372500D02*
X92622742Y-107372500D01*
X93097258Y-106327500D02*
X92622742Y-106327500D01*
%TO.C,Rcom1*%
X89632742Y-100207500D02*
X90107258Y-100207500D01*
X89632742Y-101252500D02*
X90107258Y-101252500D01*
%TO.C,MT_dr_L1*%
X149950000Y-78790000D02*
X151900000Y-78790000D01*
X149950000Y-78790000D02*
X146500000Y-78790000D01*
X149950000Y-83910000D02*
X148000000Y-83910000D01*
X149950000Y-83910000D02*
X151900000Y-83910000D01*
%TO.C,LED_Lipo1*%
X145135000Y-122987500D02*
X145135000Y-120302500D01*
X145135000Y-120302500D02*
X143215000Y-120302500D01*
X143215000Y-120302500D02*
X143215000Y-122987500D01*
%TO.C,J1*%
X150585000Y-71355000D02*
X102265000Y-71355000D01*
X110285000Y-95315000D02*
X114765000Y-95315000D01*
X142115000Y-96015000D02*
X153535000Y-96015000D01*
X98225000Y-95315000D02*
X102165000Y-95315000D01*
X153185000Y-66155000D02*
X153185000Y-68755000D01*
X114765000Y-95315000D02*
X114765000Y-97115000D01*
X102165000Y-95315000D02*
X102165000Y-97115000D01*
X110285000Y-97115000D02*
X110285000Y-95315000D01*
X102265000Y-66155000D02*
X102265000Y-71355000D01*
X102165000Y-97115000D02*
X110285000Y-97115000D01*
X153185000Y-70025000D02*
X153185000Y-71355000D01*
X153185000Y-68755000D02*
X150585000Y-68755000D01*
X98225000Y-65195000D02*
X157225000Y-65195000D01*
X95165000Y-71695000D02*
X93965000Y-71695000D01*
X153185000Y-66155000D02*
X102265000Y-66155000D01*
X160285000Y-68255000D02*
X160285000Y-92255000D01*
X153535000Y-95315000D02*
X157225000Y-95315000D01*
X122885000Y-97115000D02*
X122885000Y-95315000D01*
X150585000Y-68755000D02*
X150585000Y-71355000D01*
X122885000Y-95315000D02*
X142115000Y-95315000D01*
X142115000Y-95315000D02*
X142115000Y-96015000D01*
X114765000Y-97115000D02*
X122885000Y-97115000D01*
X95165000Y-88815000D02*
X95165000Y-92255000D01*
X95165000Y-71695000D02*
X95165000Y-68255000D01*
X153535000Y-96015000D02*
X153535000Y-95315000D01*
X153185000Y-71355000D02*
X151855000Y-71355000D01*
X93965000Y-71695000D02*
X93965000Y-88815000D01*
X93965000Y-88815000D02*
X95165000Y-88815000D01*
X157225000Y-95315000D02*
G75*
G03*
X160285000Y-92255000I0J3060000D01*
G01*
X98225000Y-65195000D02*
G75*
G03*
X95165000Y-68255000I-1J-3059999D01*
G01*
X95165000Y-92255000D02*
G75*
G03*
X98225000Y-95315000I3060000J0D01*
G01*
X160285000Y-68255000D02*
G75*
G03*
X157225000Y-65195000I-3059999J1D01*
G01*
%TO.C,com1*%
X108550000Y-101950000D02*
X82550000Y-101950000D01*
X83950000Y-120800000D02*
X99700000Y-120800000D01*
X82550000Y-101950000D02*
X82550000Y-123950000D01*
X108550000Y-123950000D02*
X108550000Y-101950000D01*
X82550000Y-123950000D02*
X108550000Y-123950000D01*
X99700000Y-120800000D02*
X99700000Y-105050000D01*
X83950000Y-105100000D02*
X83950000Y-120800000D01*
X99700000Y-105050000D02*
X83950000Y-105100000D01*
%TO.C,Balom1*%
X124480000Y-58625000D02*
X134760000Y-58625000D01*
X124480000Y-54125000D02*
X124480000Y-55375000D01*
X134760000Y-58625000D02*
X134760000Y-54125000D01*
X134760000Y-54125000D02*
X124480000Y-54125000D01*
X124480000Y-57375000D02*
X124480000Y-58625000D01*
X124480000Y-57375000D02*
G75*
G03*
X124480000Y-55375000I0J1000000D01*
G01*
%TO.C,47\u03BCF1*%
X171661252Y-100935000D02*
X170238748Y-100935000D01*
X171661252Y-98215000D02*
X170238748Y-98215000D01*
%TO.C,2.2\u03BCF3*%
X168830000Y-69649420D02*
X168830000Y-69930580D01*
X167810000Y-69649420D02*
X167810000Y-69930580D01*
%TO.C,2.2\u03BCF2*%
X152410000Y-97790580D02*
X152410000Y-97509420D01*
X153430000Y-97790580D02*
X153430000Y-97509420D01*
%TO.C,2.2\u03BCF1*%
X153850580Y-62160000D02*
X153569420Y-62160000D01*
X153850580Y-61140000D02*
X153569420Y-61140000D01*
%TO.C,1.0\u03BCF1*%
X149590000Y-99049420D02*
X149590000Y-99330580D01*
X148570000Y-99049420D02*
X148570000Y-99330580D01*
%TO.C,GPS_MAXB1*%
X92410000Y-56292500D02*
X105190000Y-56292500D01*
X96300000Y-52792500D02*
X96620000Y-52872500D01*
X92410000Y-52292500D02*
X92410000Y-57292500D01*
X93500000Y-59982500D02*
X94100000Y-59982500D01*
X106410000Y-59492500D02*
X105190000Y-59492500D01*
X104120000Y-52872500D02*
X104120000Y-56292500D01*
X98480000Y-52872500D02*
X98800000Y-52792500D01*
X92410000Y-59492500D02*
X91190000Y-59492500D01*
X91190000Y-51072500D02*
X106410000Y-51072500D01*
X94120000Y-52872500D02*
X94120000Y-56292500D01*
X92410000Y-57292500D02*
X92410000Y-59492500D01*
X103800000Y-52792500D02*
X104120000Y-52872500D01*
X99120000Y-56292500D02*
X98800000Y-56292500D01*
X99120000Y-52872500D02*
X99120000Y-56292500D01*
X101620000Y-52872500D02*
X101620000Y-56292500D01*
X104120000Y-56292500D02*
X103800000Y-56292500D01*
X98480000Y-56292500D02*
X98480000Y-52872500D01*
X92410000Y-57292500D02*
X91190000Y-57292500D01*
X105190000Y-59492500D02*
X105190000Y-57292500D01*
X105190000Y-52292500D02*
X105190000Y-57292500D01*
X98800000Y-56292500D02*
X98480000Y-56292500D01*
X103800000Y-56292500D02*
X103480000Y-56292500D01*
X93800000Y-52792500D02*
X94120000Y-52872500D01*
X102470000Y-57292500D02*
X102630000Y-57292500D01*
X106410000Y-51072500D02*
X106410000Y-59492500D01*
X95980000Y-56292500D02*
X95980000Y-52872500D01*
X96620000Y-56292500D02*
X96300000Y-56292500D01*
X93800000Y-59382500D02*
X93500000Y-59982500D01*
X94120000Y-56292500D02*
X93800000Y-56292500D01*
X99970000Y-57292500D02*
X100130000Y-57292500D01*
X98800000Y-52792500D02*
X99120000Y-52872500D01*
X101300000Y-56292500D02*
X100980000Y-56292500D01*
X93800000Y-56292500D02*
X93480000Y-56292500D01*
X100980000Y-52872500D02*
X101300000Y-52792500D01*
X91190000Y-52292500D02*
X92410000Y-52292500D01*
X101300000Y-52792500D02*
X101620000Y-52872500D01*
X106410000Y-52292500D02*
X105190000Y-52292500D01*
X97470000Y-57292500D02*
X97630000Y-57292500D01*
X103480000Y-52872500D02*
X103800000Y-52792500D01*
X95980000Y-52872500D02*
X96300000Y-52792500D01*
X96300000Y-56292500D02*
X95980000Y-56292500D01*
X94970000Y-57292500D02*
X95130000Y-57292500D01*
X101620000Y-56292500D02*
X101300000Y-56292500D01*
X103480000Y-56292500D02*
X103480000Y-52872500D01*
X93480000Y-56292500D02*
X93480000Y-52872500D01*
X100980000Y-56292500D02*
X100980000Y-52872500D01*
X91190000Y-59492500D02*
X91190000Y-51072500D01*
X94100000Y-59982500D02*
X93800000Y-59382500D01*
X105190000Y-57292500D02*
X106410000Y-57292500D01*
X93480000Y-52872500D02*
X93800000Y-52792500D01*
X96620000Y-52872500D02*
X96620000Y-56292500D01*
%TO.C,LED2*%
X113405000Y-120990000D02*
X110720000Y-120990000D01*
X113405000Y-122910000D02*
X113405000Y-120990000D01*
X110720000Y-122910000D02*
X113405000Y-122910000D01*
%TO.C,stranger1*%
X136030000Y-109830000D02*
X136030000Y-112110000D01*
X136030000Y-103870000D02*
X126790000Y-103870000D01*
X136030000Y-106150000D02*
X136030000Y-103870000D01*
X134560000Y-112110000D02*
X134560000Y-103870000D01*
X136030000Y-112110000D02*
X126790000Y-112110000D01*
X126790000Y-112110000D02*
X126790000Y-109830000D01*
X134440000Y-112110000D02*
X134440000Y-103870000D01*
X126790000Y-103870000D02*
X126790000Y-106150000D01*
X134680000Y-112110000D02*
X134680000Y-103870000D01*
%TO.C,LED1*%
X114815000Y-122950000D02*
X117500000Y-122950000D01*
X114815000Y-121030000D02*
X114815000Y-122950000D01*
X117500000Y-121030000D02*
X114815000Y-121030000D01*
%TO.C,Motor_L1*%
X172477500Y-79800000D02*
X175897500Y-79800000D01*
X175977500Y-80120000D02*
X175897500Y-80440000D01*
X169277500Y-82730000D02*
X169277500Y-81510000D01*
X169277500Y-75010000D02*
X177697500Y-75010000D01*
X175897500Y-77300000D02*
X175977500Y-77620000D01*
X175897500Y-80440000D02*
X172477500Y-80440000D01*
X176477500Y-76230000D02*
X171477500Y-76230000D01*
X171477500Y-78790000D02*
X171477500Y-78950000D01*
X176477500Y-75010000D02*
X176477500Y-76230000D01*
X175897500Y-77940000D02*
X172477500Y-77940000D01*
X172477500Y-77620000D02*
X172477500Y-77300000D01*
X171477500Y-76230000D02*
X171477500Y-75010000D01*
X171477500Y-81510000D02*
X171477500Y-82730000D01*
X172477500Y-77300000D02*
X175897500Y-77300000D01*
X175897500Y-79800000D02*
X175977500Y-80120000D01*
X172477500Y-80440000D02*
X172477500Y-80120000D01*
X169277500Y-81510000D02*
X171477500Y-81510000D01*
X172477500Y-76230000D02*
X172477500Y-81510000D01*
X172477500Y-77940000D02*
X172477500Y-77620000D01*
X176477500Y-82730000D02*
X176477500Y-81510000D01*
X171477500Y-76230000D02*
X169277500Y-76230000D01*
X169387500Y-77620000D02*
X168787500Y-77320000D01*
X169277500Y-76230000D02*
X169277500Y-75010000D01*
X177697500Y-82730000D02*
X169277500Y-82730000D01*
X177697500Y-75010000D02*
X177697500Y-82730000D01*
X176477500Y-81510000D02*
X171477500Y-81510000D01*
X168787500Y-77920000D02*
X169387500Y-77620000D01*
X172477500Y-80120000D02*
X172477500Y-79800000D01*
X175977500Y-77620000D02*
X175897500Y-77940000D01*
X168787500Y-77320000D02*
X168787500Y-77920000D01*
%TO.C,S1*%
X163500000Y-124250000D02*
X172200000Y-124250000D01*
X172200000Y-124250000D02*
X172200000Y-119950000D01*
X172200000Y-119950000D02*
X163500000Y-119950000D01*
X163500000Y-119950000D02*
X163500000Y-124250000D01*
%TO.C,Motor_R1*%
X78248500Y-76820400D02*
X78328500Y-76500400D01*
X84948500Y-80710400D02*
X84948500Y-81930400D01*
X81748500Y-79000400D02*
X81748500Y-79320400D01*
X76528500Y-81930400D02*
X76528500Y-74210400D01*
X84838500Y-79320400D02*
X85438500Y-79620400D01*
X81748500Y-80710400D02*
X81748500Y-75430400D01*
X84948500Y-75430400D02*
X82748500Y-75430400D01*
X81748500Y-76820400D02*
X81748500Y-77140400D01*
X77748500Y-74210400D02*
X77748500Y-75430400D01*
X78328500Y-79640400D02*
X78248500Y-79320400D01*
X77748500Y-80710400D02*
X82748500Y-80710400D01*
X77748500Y-81930400D02*
X77748500Y-80710400D01*
X76528500Y-74210400D02*
X84948500Y-74210400D01*
X84948500Y-81930400D02*
X76528500Y-81930400D01*
X81748500Y-79640400D02*
X78328500Y-79640400D01*
X82748500Y-80710400D02*
X82748500Y-81930400D01*
X78328500Y-77140400D02*
X78248500Y-76820400D01*
X82748500Y-80710400D02*
X84948500Y-80710400D01*
X81748500Y-77140400D02*
X78328500Y-77140400D01*
X85438500Y-79020400D02*
X84838500Y-79320400D01*
X78328500Y-76500400D02*
X81748500Y-76500400D01*
X78248500Y-79320400D02*
X78328500Y-79000400D01*
X77748500Y-75430400D02*
X82748500Y-75430400D01*
X85438500Y-79620400D02*
X85438500Y-79020400D01*
X81748500Y-79320400D02*
X81748500Y-79640400D01*
X82748500Y-75430400D02*
X82748500Y-74210400D01*
X78328500Y-79000400D02*
X81748500Y-79000400D01*
X81748500Y-76500400D02*
X81748500Y-76820400D01*
X84948500Y-74210400D02*
X84948500Y-75430400D01*
X82748500Y-78150400D02*
X82748500Y-77990400D01*
%TO.C,NiCr_Wire1*%
X136555000Y-122377500D02*
X136555000Y-118957500D01*
X136875000Y-115867500D02*
X137175000Y-115267500D01*
X138265000Y-117957500D02*
X138265000Y-115757500D01*
X131765000Y-115757500D02*
X132985000Y-115757500D01*
X137175000Y-115267500D02*
X136575000Y-115267500D01*
X134375000Y-122457500D02*
X134055000Y-122377500D01*
X132985000Y-115757500D02*
X132985000Y-117957500D01*
X131765000Y-124177500D02*
X131765000Y-115757500D01*
X134695000Y-122377500D02*
X134375000Y-122457500D01*
X137195000Y-122377500D02*
X136875000Y-122457500D01*
X134055000Y-118957500D02*
X134375000Y-118957500D01*
X134055000Y-122377500D02*
X134055000Y-118957500D01*
X134375000Y-118957500D02*
X134695000Y-118957500D01*
X136575000Y-115267500D02*
X136875000Y-115867500D01*
X131765000Y-122957500D02*
X132985000Y-122957500D01*
X135705000Y-117957500D02*
X135545000Y-117957500D01*
X139485000Y-124177500D02*
X131765000Y-124177500D01*
X138265000Y-118957500D02*
X132985000Y-118957500D01*
X137195000Y-118957500D02*
X137195000Y-122377500D01*
X139485000Y-122957500D02*
X138265000Y-122957500D01*
X139485000Y-115757500D02*
X139485000Y-124177500D01*
X138265000Y-115757500D02*
X139485000Y-115757500D01*
X132985000Y-122957500D02*
X132985000Y-117957500D01*
X136875000Y-122457500D02*
X136555000Y-122377500D01*
X132985000Y-117957500D02*
X131765000Y-117957500D01*
X134695000Y-118957500D02*
X134695000Y-122377500D01*
X136875000Y-118957500D02*
X137195000Y-118957500D01*
X138265000Y-117957500D02*
X139485000Y-117957500D01*
X138265000Y-122957500D02*
X138265000Y-117957500D01*
X136555000Y-118957500D02*
X136875000Y-118957500D01*
%TO.C,9axis1*%
X157200000Y-53402500D02*
X157520000Y-53322500D01*
X162840000Y-56822500D02*
X162520000Y-56822500D01*
X166410000Y-60022500D02*
X166410000Y-57822500D01*
X160020000Y-56822500D02*
X159700000Y-56822500D01*
X158690000Y-57822500D02*
X158850000Y-57822500D01*
X152410000Y-52822500D02*
X153630000Y-52822500D01*
X166410000Y-57822500D02*
X167630000Y-57822500D01*
X153630000Y-60022500D02*
X152410000Y-60022500D01*
X154700000Y-56822500D02*
X154700000Y-53402500D01*
X159700000Y-53402500D02*
X160020000Y-53322500D01*
X155340000Y-56822500D02*
X155020000Y-56822500D01*
X163690000Y-57822500D02*
X163850000Y-57822500D01*
X162840000Y-53402500D02*
X162840000Y-56822500D01*
X152410000Y-60022500D02*
X152410000Y-51602500D01*
X162520000Y-53322500D02*
X162840000Y-53402500D01*
X156190000Y-57822500D02*
X156350000Y-57822500D01*
X154720000Y-60512500D02*
X155320000Y-60512500D01*
X155340000Y-53402500D02*
X155340000Y-56822500D01*
X160340000Y-56822500D02*
X160020000Y-56822500D01*
X159700000Y-56822500D02*
X159700000Y-53402500D01*
X167630000Y-60022500D02*
X166410000Y-60022500D01*
X161190000Y-57822500D02*
X161350000Y-57822500D01*
X165020000Y-56822500D02*
X164700000Y-56822500D01*
X164700000Y-53402500D02*
X165020000Y-53322500D01*
X165020000Y-53322500D02*
X165340000Y-53402500D01*
X153630000Y-52822500D02*
X153630000Y-57822500D01*
X162520000Y-56822500D02*
X162200000Y-56822500D01*
X157520000Y-53322500D02*
X157840000Y-53402500D01*
X167630000Y-52822500D02*
X166410000Y-52822500D01*
X157840000Y-56822500D02*
X157520000Y-56822500D01*
X162200000Y-53402500D02*
X162520000Y-53322500D01*
X153630000Y-57822500D02*
X152410000Y-57822500D01*
X155020000Y-59912500D02*
X154720000Y-60512500D01*
X165340000Y-53402500D02*
X165340000Y-56822500D01*
X154700000Y-53402500D02*
X155020000Y-53322500D01*
X165340000Y-56822500D02*
X165020000Y-56822500D01*
X155020000Y-56822500D02*
X154700000Y-56822500D01*
X157520000Y-56822500D02*
X157200000Y-56822500D01*
X152410000Y-51602500D02*
X167630000Y-51602500D01*
X160020000Y-53322500D02*
X160340000Y-53402500D01*
X153630000Y-56822500D02*
X166410000Y-56822500D01*
X160340000Y-53402500D02*
X160340000Y-56822500D01*
X155020000Y-53322500D02*
X155340000Y-53402500D01*
X164700000Y-56822500D02*
X164700000Y-53402500D01*
X167630000Y-51602500D02*
X167630000Y-60022500D01*
X162200000Y-56822500D02*
X162200000Y-53402500D01*
X153630000Y-57822500D02*
X153630000Y-60022500D01*
X157840000Y-53402500D02*
X157840000Y-56822500D01*
X166410000Y-52822500D02*
X166410000Y-57822500D01*
X155320000Y-60512500D02*
X155020000Y-59912500D01*
X157200000Y-56822500D02*
X157200000Y-53402500D01*
%TO.C,Rled1*%
X116847064Y-117720000D02*
X112492936Y-117720000D01*
X116847064Y-114300000D02*
X112492936Y-114300000D01*
%TO.C,J2*%
X145565000Y-114000000D02*
X145565000Y-114050000D01*
X145565000Y-114050000D02*
X146065000Y-113800000D01*
X145565000Y-118900000D02*
X145565000Y-124000000D01*
X145565000Y-124000000D02*
X156415000Y-124000000D01*
X145565000Y-112100000D02*
X145565000Y-114000000D01*
X146065000Y-112350000D02*
X145565000Y-112100000D01*
X156415000Y-124000000D02*
X156415000Y-111400000D01*
X146065000Y-119200000D02*
X145565000Y-118900000D01*
X156415000Y-111400000D02*
X146065000Y-111400000D01*
X146065000Y-113800000D02*
X146065000Y-119200000D01*
X146065000Y-111400000D02*
X146065000Y-112350000D01*
%TD*%
M02*
